<?xml version="1.0" encoding="utf-8"?>
<!-- Generator: Adobe Illustrator 25.4.1, SVG Export Plug-In . SVG Version: 6.00 Build 0)  -->
<svg version="1.1" id="图层_1" xmlns="http://www.w3.org/2000/svg" xmlns:xlink="http://www.w3.org/1999/xlink" x="0px" y="0px"
	 viewBox="0 0 108 108" enable-background="new 0 0 108 108" xml:space="preserve">
<g>
	<path fill="#005694" d="M54,30.5c-12.979,0-23.5,10.521-23.5,23.5c0,4.945,1.527,9.533,4.135,13.318l-2.56,9.788l10.175-2.75v0
		C45.707,76.356,49.72,77.5,54,77.5c12.979,0,23.5-10.521,23.5-23.5S66.979,30.5,54,30.5z M54,74.874
		c-4.16,0-8.036-1.217-11.291-3.314l0,0l-6.925,1.87l1.74-6.612l0,0C34.767,63.28,33.126,58.832,33.126,54
		c0-11.529,9.346-20.874,20.874-20.874S74.874,42.471,74.874,54S65.529,74.874,54,74.874z"/>
	<path fill="#005694" d="M48.158,47.633c0,1.583-0.328,2.877-0.328,3.479c0.002,0.034,0.009,0.075,0.03,0.081
		c0.009,0.002,0.021-0.001,0.036-0.015c3.921-3.773,6.275-4.267,8.534-4.267c3.223,0,4.889,1.247,5.054,1.247
		c0.081,0,0.131-0.262,0.131-0.525c0-0.697-0.459-1.57-0.459-2.363c0-1.48,1.249-1.904,1.674-1.904c1.118,0,1.477,0.952,1.477,1.74
		c0,0.987-0.525,1.578-0.525,2.527c0,0.444,0.162,0.919,0.459,0.919c1.671,0,2.43-1.707,4.037-1.707
		c0.893,0,1.017,0.717,1.017,0.985c0,1.167-1.298,2.035-2.462,2.035c-0.626,0-0.882-0.263-1.772-0.263
		c-0.468,0-0.886,0.099-0.886,0.853c0,0.942,0.68,2.058,0.985,2.315c1.032,0.871,1.175,0.596,2.33,0.984
		c2.073,0.698,2.79,2.699,2.79,3.921c0,0.985-0.49,3.479-2.222,3.479c-0.417,0-0.809-0.226-1.158-0.519
		c-0.309-0.259-0.492-0.94-0.492-1.221c0-0.286,0.056-0.365,0.095-0.562c0,0,0.036-0.149,0.036-0.455
		c0-1.698-0.547-2.718-0.788-3.033c-0.043-0.056-0.999-1.234-1.936-1.234c-1.328,0-1.776,2.888-4.858,2.888
		c-1.635,0-2.396-0.735-2.396-1.772c0-1.375,0.571-1.444,1.214-1.444c1.274,0,1.529,0.459,2.232,0.459
		c0.831,0,1.674-1.485,1.674-2.265c0-0.945-0.594-3.118-4.398-3.118c-4.38,0-8.993,2.894-8.993,5.678
		c0,1.192,1.463,1.64,1.674,1.748c0.55,0.283,1.316,0.601,2.33,1.338c0.963,0.7,1.358,1.19,1.737,1.846
		c0.463,0.799,0.757,1.753,0.757,3.109c0,1.447-0.31,2.862-0.591,3.293c-0.221,0.339-0.946,1.04-1.871,1.04
		c-1.066,0-2.199-1.012-2.199-2.265c0-0.791,0.197-0.629,0.197-2.527c0-0.755-0.084-4.595-1.805-4.595
		c-1.114,0-2.113,1.687-3.282,2.594c-1.522,1.181-2.846,1.936-4.398,1.936c-3.086,0-4.956-2.873-4.956-4.759
		c0-1.161,1.006-1.608,1.74-1.608c0.809,0,1.02,1.101,1.543,1.776c0.324,0.419,1.16,1.637,2.462,1.637
		c1.077,0,2.446-1.142,2.698-1.444c0.912-1.092,1.142-2.299,1.142-3.413c0-2.712-1.05-4.661-1.05-6.334
		c0-1.414,0.584-3.184,1.838-3.184c0.466,0,0.896,0.372,1.346,0.912C48.109,46.269,48.158,46.774,48.158,47.633z"/>
</g>
</svg>
