<?xml version="1.0" encoding="utf-8"?>
<!-- Generator: Adobe Illustrator 25.4.1, SVG Export Plug-In . SVG Version: 6.00 Build 0)  -->
<svg version="1.1" id="图层_1" xmlns="http://www.w3.org/2000/svg" xmlns:xlink="http://www.w3.org/1999/xlink" x="0px" y="0px"
	 viewBox="0 0 108 108" style="enable-background:new 0 0 108 108;" xml:space="preserve">
<g id="group" transform="translate(19.44 19.44) scale(0.64 0.64)">
	<path id="path_3" d="M46.333,56.283v2.121c-0.103,3.658-0.765,7.279-1.966,10.736c2.694,5.24,6.168,10.039,10.304,14.235
		c-2.443,0.261-4.721,1.356-6.45,3.101c-2.385-4.207-4.234-8.697-5.505-13.363c-2.879,5.871-7.302,10.849-12.794,14.398
		c5.381-7.607,8.387-16.638,8.639-25.952c0.05-1.76,0.002-3.522-0.141-5.277L46.333,56.283L46.333,56.283z M85.836,56.16l0.21,0.105
		l0.018,0.031l3.649,1.824v0.784h-6.76v11.339h1.469l1.414-1.341l3.549,1.792l0.328,0.164v0.789h-6.76v11.681h1.469l1.414-1.341
		l3.549,1.797l0.328,0.164v0.789H68.057l-0.743,0.456c-0.248,0.156-0.574,0.104-0.761-0.123l-0.328-0.397l-1.113-1.368h3.968V65.291
		l5.815,1.341l-0.488,1.158v15.549h1.551V58.938h-6.212l-0.743,0.456c-0.248,0.158-0.576,0.106-0.761-0.123l-0.329-0.397
		L66.8,57.506h17.638l0.031-0.028L85.836,56.16z M28.905,60.808l3.339,1.3c0,0-0.579,0.889-1.035,1.592v12.812
		c1.409-0.589,2.805-1.222,4.146-1.916v1.688c-3.137,3.514-6.777,6.546-10.8,8.998c-0.717-2.012-1.598-3.962-2.637-5.829
		c0.524-0.118,1.044-0.246,1.559-0.373V64.027h-0.478l-0.744,0.456c-0.247,0.157-0.573,0.107-0.761-0.118l-0.328-0.402l-1.113-1.368
		h6.842c0.361-0.299,1.727-1.532,1.973-1.754L28.905,60.808z M61.859,61.555l3.338,1.301l-1.031,1.592v12.064
		c1.405-0.589,2.801-1.222,4.141-1.916v1.688c-3.131,3.509-6.764,6.535-10.782,8.98c-0.713-2.013-1.594-3.963-2.632-5.829
		c0.684-0.155,1.373-0.323,2.053-0.501V64.776h-0.26l-0.743,0.456c-0.248,0.158-0.575,0.106-0.761-0.123l-0.328-0.397l-1.113-1.368
		h6.107C60.248,63.01,61.859,61.555,61.859,61.555z M54.041,57.154l8.994,0.634l-3.49,4.201L54.041,57.154z M20.66,56.242
		l8.994,0.638l-3.489,4.197L20.66,56.242z M32.541,20.488c2.455,1.845,5.403,2.919,8.47,3.083c0.287,0.028,0.579,0.028,0.871,0.028
		h0.297c-0.616,0.251-1.237,0.483-1.866,0.707c-0.822,0.83-1.678,1.619-2.568,2.376h4.894c0.852-0.912,2.125-2.281,2.125-2.281
		l4.561,2.13l-0.84,1.501v4.771c1.104-1.536,2.156-3.111,3.157-4.725c0.519,2.101,1.557,4.04,3.019,5.637
		c0.219,0.233,0.443,0.47,0.676,0.689c-0.471,0.046-0.946,0.069-1.424,0.069c-1.728,1.742-3.544,3.403-5.428,4.976v8.465
		c0.002,1.157-0.593,2.235-1.574,2.85c-0.888,0.554-1.855,0.969-2.868,1.232c-0.24,0.064-0.487,0.118-0.74,0.164
		c-0.602,0.107-1.212,0.162-1.824,0.164c-0.282,0-0.56-0.013-0.839-0.036c-0.125-0.01-0.238-0.077-0.305-0.182
		c-1.25-1.907-3.118-3.325-5.291-4.014v-1.057h5.4V44.94c-7.298,2.83-14.97,4.58-22.772,5.195c6.46-1.855,12.689-4.436,18.567-7.695
		H23.054l-0.748,0.456c-0.248,0.158-0.576,0.106-0.761-0.123l-0.328-0.397l-1.114-1.368h4.338V25.086l6.678,1.314
		c-0.002-0.018-0.002-0.037,0-0.055C31.736,24.43,32.211,22.473,32.541,20.488z M72.997,22.344l5.93,3.741
		c-3.158,3.398-6.693,6.427-10.536,9.026h13.793l1.3-1.368l1.824,0.853c-2.955-3.65-5.238-7.797-6.742-12.246
		c3.353,3.59,7.341,6.528,11.763,8.666c-1.312,1.322-2.532,2.733-3.649,4.223l0.643,0.297c0,0-0.396,0.77-0.852,1.569V48.22
		c0,1.008-0.517,1.944-1.368,2.482c-0.771,0.48-1.611,0.841-2.491,1.067c-0.21,0.054-0.425,0.1-0.643,0.141
		c-0.529,0.096-1.064,0.143-1.601,0.141c-0.246,0-0.469-0.027-0.702-0.027c-0.125-0.01-0.239-0.077-0.305-0.183
		c-1.089-1.645-2.708-2.868-4.589-3.466v-0.912h4.707V36.556h-1.368c-0.925,6.587-4.953,12.329-10.832,15.439
		c2.844-4.659,4.416-9.982,4.561-15.439h-1.37l-0.743,0.456c-0.25,0.157-0.578,0.105-0.766-0.123l-0.328-0.401l-0.799-0.971
		c-0.383,0.255-0.766,0.506-1.158,0.747v15.877h-7.298V35.959c-1.397,1.51-2.892,2.927-4.474,4.242
		c2.64-5.629,4.335-11.654,5.017-17.833c1.666,0.715,3.367,1.347,5.104,1.898c0.693,0.219,1.391,0.428,2.094,0.62
		c0.319,0.091,0.638,0.173,0.962,0.26l-1.423,0.615c-1.19,2.233-2.553,4.367-4.077,6.386l4.105-2.673v5.222
		C69.255,30.834,71.373,26.69,72.997,22.344z M40.444,37.396h-7.909v3.594h7.909V37.396z M40.444,32.999h-7.909v2.996h7.909V32.999z
		 M40.444,28.064h-7.909v3.535h7.909V28.064z"/>
</g>
</svg>
