<?xml version="1.0" encoding="UTF-8"?>
<svg xmlns="http://www.w3.org/2000/svg" viewBox="0 0 108 108">
  <defs>
    <style>.st0{fill-rule:evenodd;}</style>
  </defs>
  <path class="st0" d="M40.02,64.38h5.4v-1.73h-5.4v1.73ZM45.42,67.55l-.17.16h-5.23v-1.89h5.4v1.73ZM40.02,61.21h5.4v-1.84h-5.4v1.84ZM45.42,73.35s0,.08,0,.1c-.25.03-2.31-.1-2.98-.14,1.03-.5,2.03-1.04,2.98-1.62v1.67ZM50.61,61.06l-.23.4c-.27.46-.53.88-.8,1.28v-2.92c.43-.15.69-.37.83-.54l.28-.32-3.67-2.89-1.63,1.86h-1.51c.45-.39.91-.78,1.25-1.09.68-.12,1.06-.46,1.15-1l.06-.41-5.53-.75-.02.44c-.04.76-.11,1.91-.19,2.81h-.61l-4.1-1.49v11.27h-3.35l.46,1.44h10.6c-3.33,2.69-7.24,4.83-11.37,6.24l-.42.14.45.98.3-.06c3.32-.61,6.41-1.56,9.24-2.86v.71l.34.05c1.23.19,1.62.48,1.96.81.32.3.42.81.51,1.71l.04.39.39-.03c3.82-.29,4.52-1.47,4.52-3.68v-4.9c1.31-1.13,2.49-2.36,3.63-3.76.33.07.82.09,1.17-.34l.25-.32-4.01-3.18ZM65.49,56.71l.09-.23c-.43,3-1.43,5.98-2.74,8.25v-1.88c.3-.1.58-.28.69-.65l.11-.36-1.1-.39c.69-1.16,1.33-2.48,1.93-4.01.68-.08.93-.48,1.02-.72ZM66.39,65.81c-.09,3.21-.53,6.59-3.55,9.81v-9.28l.08.06.23-.14c.45-.27.89-.56,1.3-.87l.14.43h1.81ZM78.8,61.8c-2.54-1.07-4.67-2.81-5.75-4.69.33-.39.6-.74.77-1.03l.23-.4-2.39-.94-.64.32.04.29c.45,3.2,1.27,5.66,2.56,7.58l-1.49,1.45h-6.49c1.67-1.59,2.94-3.62,3.89-6.2.67-.06.93-.46,1.02-.71l.15-.39-4.99-1.63-.06.48c-.01.12-.03.25-.05.37l-5.3-1.61-.08.45c-.69,4.1-2.34,8.75-4.19,11.85l-.19.32.76.53.23-.16c.67-.46,1.33-.99,1.96-1.56v11.14h1.01c.71,0,1.6-.22,2.24-.52l.52.62.28-.14c5.97-3.03,7.26-7.43,7.65-11.4h1.61c-.07,2.36-.25,6.95-.87,7.5-.04.04-.11.09-.42.09-.43,0-1.56-.05-2.23-.11l-.44-.04v1.02l.3.08c.79.21,1.28.47,1.55.8.22.3.31.84.29,1.69v.41s.4,0,.4,0c1.49,0,2.49-.29,3.32-.98,1.27-1.09,1.69-3.26,1.88-10.02.27-.08.5-.19.68-.33l.07.05.04-.15s.05-.05.08-.08l.27-.31-.19-.16c.35-1.11,1.28-2.14,1.98-2.49l.2-.1.07-.77-.27-.11ZM60.88,37.83c.17-.57.24-1.22.18-1.93h12.48c-.05.47-.12.97-.19,1.44l-1.52-1.31-1.8,1.81h-9.14ZM75.47,41.47l-.32-.25-1.74,2.31h-3.92v-1.17c.41-.13.66-.37.74-.74,1.15-.5,2.38-1.14,3.66-1.91.48-.05.82-.15,1.08-.44l.27-.31-.56-.48c.96-.53,2.03-1.26,2.82-1.92.45-.03.77-.12,1.03-.42l.26-.29-3.38-3.2-1.79,1.8h-3.83c.39-.48.59-1.1.48-1.71-.1-.58-.78-2.47-5.2-2.22h-.15s-.53.54-.53.54l.33.28c.79.67,1.29,1.86,1.27,3.04v.06h-5.22c-.12-.41-.26-.81-.44-1.2l-.11-.24h-.92v.41c.03.78-.88,1.6-1.48,1.91-1.24.58-1.82,1.68-1.51,2.9.21.67.73,1.19,1.4,1.44.67.24,1.39.18,1.93-.17.41-.26.74-.63.97-1.08l.27.85h8.45c-.42.63-.83,1.18-1.2,1.62l-2.86-.22v2.86h-8.82l.41,1.44h8.41v3.75h0s-.03,0-.05,0c-.57,0-3.78-.2-3.81-.2l-.42-.03v1.04l.33.06c1.51.28,1.93.6,2.32,1,.4.42.53,1.02.64,2.07l.04.39.39-.03c4.03-.34,4.77-1.66,4.77-4.14v-3.91h8c.53,0,.91-.25,1.02-.66l.06-.24-.18-.17c-1.09-.98-2.91-2.42-2.92-2.43ZM36.45,35.5h-1.12c.13-.03.25-.08.37-.14.37-.2.63-.52.75-.9v1.04ZM41.7,34.53l-.69.97h-.57l.03-.02c.38-.25.79-.58,1.22-.95ZM48.65,36.81c-.1,2.51-.47,4.64-1.13,6.51-.58-1.07-1.07-2.27-1.45-3.58.53-.9,1-1.86,1.44-2.93h1.13ZM42.79,50c.29-.66.17-1.68-1.06-2.47.65-.8,1.19-1.74,1.63-2.8.47-.07.72-.16.91-.43l.1-.15-2.82-2.45-1.62,1.55h-1.51l.23-.48c.56.03.9-.12,1.08-.49l.1-.2-1.82-.64c.85-.16,1.76-.5,1.76-.84v-2.53c.49.81.81,1.55.97,2.21l.02.08.07.04c.76.49,1.57.51,2.19.05.55-.41.79-1.12.6-1.8-.15-.53-.79-1.75-3.49-2.12h3.86c.18,0,.33-.03.45-.09-.38,2.27-.9,4.42-1.52,6.16l-.06.16.54.32.11-.1c.58-.55,1.14-1.19,1.69-1.94.32,1.97.69,3.53,1.17,4.87-.94,1.69-2.19,3.15-3.78,4.4.07-.1.14-.21.19-.32ZM36.76,46.38c.41-.71.81-1.47,1.14-2.09h1.95c-.25.82-.59,1.58-.99,2.27-.62-.09-1.31-.15-2.1-.18ZM53.46,36.81c.45,0,.76-.19.85-.51l.03-.12-.09-.08c-1.06-.95-2.83-2.39-2.84-2.4l-.16-.13-1.65,2.21h-1.7c.33-.9.63-1.94.96-3.28.64-.08.85-.45.92-.68l.06-.21-4.78-1.06v.24c-.08,1.6-.25,3.26-.49,4.88-.79-.77-1.96-1.78-2.07-1.87.22-.21.44-.43.65-.66.49-.02.84-.25.96-.61l.06-.19-3.62-1.13-.04.23c-.27,1.74-.49,2.94-.68,3.67l-.04.16.48.24h-.5v-3.69c.45-.11.68-.33.75-.7l.03-.21-4.13-.38v3.03c-.18-.61-.86-1.64-3.27-2.18l-.07-.02-.44.25.09.17c.42.79.86,2.02.86,3.1v.09l.07.06c.28.25.59.42.91.49h-2.58l.3,1.04h3.01c-.78,1.89-1.96,3.55-3.35,4.71l-.14.12.4.58.15-.06c1.61-.69,2.98-1.48,4.08-2.38v1.37l-.4-.13-.07.18c-.2.55-.56,1.41-.98,2.33h-2.87l.33,1.04h2.05c-.48.96-.98,1.91-1.36,2.56l-.34.48.3.06c1.21.23,2.68.71,4.08,1.35-1.32,1.33-3.02,2.38-5.06,3.12l-.2.07.29.64.15-.03c2.78-.51,5.1-1.41,6.89-2.67.52.32.94.65,1.25.99l.03.04.05.02c.42.14.85.13,1.23-.01-.56.39-1.15.76-1.78,1.11l-.18.1.29.52.15-.04c3.05-.88,5.44-2.16,7.3-3.9.93,1.63,2.04,2.91,3.4,3.9l.23.17.08-.28c.4-1.46,1.22-2.25,2.66-2.57l.11-.03.15-.51-.16-.07c-1.72-.78-3.2-1.8-4.41-3.05,1.58-2.39,2.5-5.39,2.9-9.42h.89Z"/>
</svg>
