<?xml version="1.0" encoding="utf-8"?>
<!-- Generator: Adobe Illustrator 25.4.1, SVG Export Plug-In . SVG Version: 6.00 Build 0)  -->
<svg version="1.1" id="图层_1" xmlns="http://www.w3.org/2000/svg" xmlns:xlink="http://www.w3.org/1999/xlink" x="0px" y="0px"
	 viewBox="0 0 108 108" style="enable-background:new 0 0 108 108;" xml:space="preserve">
<style type="text/css">
	.st0{fill:#FFFFFF;}
</style>
<g id="group" transform="translate(19.44 19.44) scale(0.64 0.64)">
	<path id="path_3" class="st0" d="M42.5,57.424v3.181c-0.155,5.487-1.147,10.919-2.949,16.104
		c4.041,7.86,9.252,15.059,15.456,21.353c-3.665,0.392-7.082,2.034-9.675,4.651c-3.577-6.311-6.351-13.046-8.257-20.045
		c-4.319,8.807-10.953,16.273-19.191,21.597c8.072-11.411,12.581-24.957,12.958-38.928c0.075-2.64,0.003-5.283-0.211-7.916H42.5
		V57.424z M101.754,57.24l0.315,0.157l0.027,0.046l5.474,2.736v1.176h-10.14v17.008h2.204l2.121-2.012l5.324,2.688l0.492,0.246
		v1.184H97.43v17.521h2.203l2.121-2.012l5.324,2.695l0.492,0.246v1.184H75.085l-1.114,0.684c-0.372,0.234-0.861,0.156-1.142-0.185
		l-0.492-0.596l-1.669-2.052h5.952V70.937l8.723,2.012l-0.732,1.737v23.324h2.327V61.407h-9.318l-1.114,0.684
		c-0.372,0.237-0.864,0.159-1.142-0.185l-0.493-0.596l-1.67-2.052h26.457l0.047-0.042L101.754,57.24z M16.358,64.212l5.008,1.95
		c0,0-0.868,1.333-1.552,2.388v19.218c2.114-0.883,4.208-1.833,6.219-2.874v2.532c-4.706,5.271-10.165,9.819-16.2,13.497
		c-1.075-3.018-2.397-5.943-3.956-8.744c0.786-0.177,1.566-0.369,2.339-0.56V69.04H7.498l-1.116,0.684
		c-0.37,0.235-0.859,0.16-1.141-0.177l-0.492-0.603l-1.67-2.052h10.263c0.542-0.448,2.59-2.298,2.959-2.631L16.358,64.212z
		 M65.788,65.332l5.007,1.951l-1.546,2.388v18.096c2.107-0.883,4.201-1.833,6.211-2.874v2.532
		c-4.696,5.264-10.146,9.802-16.173,13.47c-1.069-3.02-2.391-5.944-3.948-8.744c1.026-0.232,2.06-0.484,3.08-0.751V70.164h-0.39
		l-1.114,0.684c-0.372,0.237-0.863,0.159-1.142-0.185l-0.492-0.596l-1.669-2.052h9.16C63.372,67.515,65.788,65.332,65.788,65.332z
		 M54.061,58.731l13.491,0.951l-5.235,6.302L54.061,58.731z M3.99,57.363l13.491,0.957l-5.233,6.295L3.99,57.363z M21.811,3.732
		c3.683,2.767,8.104,4.379,12.705,4.625c0.43,0.042,0.868,0.042,1.306,0.042h0.446c-0.924,0.376-1.855,0.724-2.799,1.061
		c-1.233,1.245-2.517,2.428-3.852,3.564h7.341c1.278-1.368,3.188-3.422,3.188-3.422l6.841,3.195l-1.26,2.251v7.156
		c1.656-2.304,3.234-4.667,4.736-7.087c0.778,3.151,2.335,6.06,4.528,8.455c0.329,0.35,0.665,0.705,1.014,1.033
		c-0.707,0.069-1.419,0.104-2.136,0.104c-2.592,2.613-5.316,5.104-8.142,7.464v12.697c0.003,1.736-0.889,3.353-2.361,4.275
		c-1.332,0.831-2.782,1.454-4.302,1.848c-0.36,0.096-0.73,0.177-1.11,0.246c-0.903,0.16-1.818,0.243-2.736,0.246
		c-0.423,0-0.84-0.02-1.259-0.054c-0.188-0.015-0.357-0.116-0.458-0.273c-1.875-2.861-4.677-4.988-7.937-6.021v-1.585h8.1V40.41
		c-10.947,4.245-22.455,6.87-34.158,7.792c9.69-2.783,19.033-6.654,27.851-11.542H7.581l-1.122,0.684
		c-0.372,0.237-0.864,0.159-1.141-0.185l-0.492-0.595l-1.671-2.052h6.507V10.629L19.679,12.6c-0.003-0.027-0.003-0.056,0-0.083
		C20.604,9.645,21.316,6.709,21.811,3.732z M82.495,6.516l8.895,5.611c-4.737,5.097-10.04,9.641-15.804,13.539h20.689l1.95-2.052
		l2.736,1.28c-4.433-5.475-7.857-11.696-10.113-18.369c5.029,5.385,11.012,9.792,17.645,12.999
		c-1.968,1.983-3.798,4.099-5.474,6.335l0.965,0.446c0,0-0.594,1.155-1.278,2.354V45.33c0,1.512-0.775,2.916-2.052,3.723
		c-1.157,0.72-2.417,1.261-3.736,1.601c-0.315,0.081-0.638,0.15-0.965,0.211c-0.793,0.144-1.596,0.215-2.401,0.211
		c-0.369,0-0.703-0.041-1.053-0.041c-0.188-0.015-0.358-0.116-0.458-0.274c-1.633-2.468-4.062-4.302-6.883-5.199v-1.368h7.061
		V27.834h-2.052c-1.388,9.88-7.43,18.494-16.248,23.158c4.266-6.988,6.624-14.973,6.841-23.158h-2.055l-1.114,0.684
		c-0.375,0.236-0.867,0.157-1.149-0.185l-0.492-0.602l-1.199-1.457c-0.575,0.383-1.149,0.759-1.737,1.121v23.815H62.067V26.938
		c-2.096,2.265-4.338,4.391-6.711,6.363c3.96-8.444,6.502-17.481,7.526-26.75c2.499,1.073,5.051,2.021,7.656,2.847
		c1.039,0.328,2.086,0.642,3.141,0.93c0.479,0.136,0.957,0.26,1.443,0.39l-2.134,0.922c-1.785,3.349-3.829,6.55-6.116,9.579
		l6.158-4.01v7.833C76.882,19.251,80.06,13.035,82.495,6.516z M33.666,29.094H21.802v5.391h11.864V29.094z M33.666,22.498H21.802
		v4.494h11.864V22.498z M33.666,15.096H21.802v5.302h11.864V15.096z"/>
</g>
</svg>
