<?xml version="1.0" encoding="UTF-8"?>
<svg xmlns="http://www.w3.org/2000/svg" viewBox="0 0 108 108">
  <defs>
    <style>.st0{fill:#fff;fill-rule:evenodd;}</style>
  </defs>
  <path class="st0" d="M33.04,69.57h8.1v-2.59h-8.1v2.59ZM41.13,74.32l-.25.24h-7.84v-2.83h8.1v2.59ZM33.04,64.81h8.1v-2.76h-8.1v2.76ZM41.13,83.03c0,.07,0,.11,0,.15-.37.04-3.47-.15-4.47-.21,1.55-.74,3.04-1.56,4.47-2.44v2.51ZM48.92,64.58l-.35.59c-.4.68-.8,1.32-1.2,1.92v-4.38c.64-.23,1.03-.55,1.25-.81l.42-.48-5.5-4.33-2.44,2.79h-2.27c.67-.58,1.36-1.17,1.88-1.63,1.02-.18,1.59-.68,1.72-1.5l.1-.61-8.3-1.13-.03.66c-.05,1.14-.16,2.86-.29,4.21h-.92l-6.15-2.24v16.91h-5.02l.69,2.16h15.9c-5,4.03-10.86,7.25-17.05,9.36l-.63.21.68,1.47.46-.08c4.97-.91,9.61-2.35,13.86-4.29v1.07l.51.08c1.84.28,2.42.72,2.95,1.21.48.46.63,1.22.77,2.56l.06.58.58-.04c5.73-.43,6.78-2.2,6.78-5.52v-7.35c1.96-1.7,3.74-3.55,5.44-5.64.49.11,1.23.14,1.75-.52l.38-.47-6.02-4.77ZM71.23,58.06l.13-.34c-.65,4.49-2.14,8.97-4.11,12.37v-2.82c.44-.15.87-.42,1.03-.98l.16-.55-1.64-.59c1.04-1.74,1.99-3.72,2.89-6.02,1.02-.13,1.4-.71,1.54-1.08ZM72.58,71.71c-.13,4.82-.79,9.88-5.32,14.71v-13.92l.12.09.34-.2c.68-.41,1.33-.84,1.95-1.31l.21.64h2.72ZM91.19,65.7c-3.81-1.61-7.01-4.22-8.63-7.03.49-.58.91-1.11,1.16-1.55l.34-.6-3.58-1.41-.96.48.06.43c.68,4.8,1.91,8.49,3.84,11.37l-2.23,2.17h-9.74c2.51-2.39,4.41-5.43,5.84-9.31,1.01-.1,1.39-.69,1.53-1.06l.23-.59-7.49-2.44-.09.73c-.02.18-.05.37-.07.55l-7.95-2.42-.11.67c-1.04,6.15-3.5,13.13-6.29,17.78l-.29.48,1.14.8.34-.23c1.01-.69,2-1.48,2.94-2.34v16.71h1.52c1.07,0,2.41-.33,3.36-.79l.78.94.42-.22c8.96-4.55,10.9-11.15,11.48-17.1h2.41c-.11,3.55-.37,10.42-1.3,11.25-.07.07-.17.13-.63.13-.65,0-2.34-.07-3.35-.17l-.66-.06v1.54l.45.12c1.18.31,1.92.7,2.32,1.21.33.45.46,1.26.43,2.54l-.02.62h.61c2.24,0,3.73-.44,4.98-1.48,1.91-1.63,2.53-4.88,2.82-15.02.41-.12.74-.28,1.01-.5l.1.08.06-.22s.08-.08.11-.12l.41-.46-.29-.25c.53-1.66,1.93-3.21,2.97-3.74l.3-.15.1-1.15-.4-.17ZM64.32,29.74c.26-.85.36-1.83.27-2.9h18.72c-.08.71-.18,1.46-.29,2.16l-2.28-1.97-2.7,2.72h-13.71ZM86.21,35.21l-.48-.38-2.6,3.47h-5.88v-1.75c.61-.19.99-.56,1.12-1.1,1.73-.75,3.57-1.71,5.49-2.86.72-.08,1.23-.22,1.62-.66l.41-.46-.85-.71c1.44-.8,3.04-1.89,4.24-2.88.67-.05,1.15-.19,1.54-.63l.39-.44-5.07-4.8-2.69,2.7h-5.74c.59-.72.88-1.65.72-2.56-.15-.88-1.17-3.7-7.8-3.32h-.23s-.79.81-.79.81l.5.42c1.18,1.01,1.93,2.8,1.9,4.56v.09h-7.83c-.18-.62-.4-1.21-.66-1.8l-.16-.35h-1.37v.62c.04,1.17-1.32,2.4-2.23,2.86-1.87.87-2.73,2.52-2.26,4.35.32,1,1.09,1.79,2.11,2.16,1,.36,2.09.27,2.9-.26.62-.39,1.11-.94,1.46-1.62l.41,1.27h12.67c-.64.95-1.24,1.77-1.8,2.43l-4.29-.33v4.29h-13.23l.62,2.16h12.62v5.62h0s-.05.01-.08.01c-.86,0-5.67-.3-5.72-.31l-.64-.04v1.55l.49.09c2.26.41,2.9.91,3.49,1.5.6.63.79,1.54.96,3.1l.06.58.58-.05c6.05-.5,7.15-2.49,7.15-6.21v-5.86h12c.79,0,1.36-.37,1.53-.99l.1-.36-.28-.25c-1.63-1.47-4.36-3.63-4.39-3.65ZM27.67,26.25h-1.68c.19-.05.38-.12.55-.21.55-.3.95-.78,1.12-1.35v1.57ZM35.55,24.8l-1.03,1.45h-.85l.05-.03c.57-.38,1.19-.86,1.84-1.42ZM45.97,28.22c-.16,3.76-.71,6.96-1.69,9.76-.87-1.6-1.6-3.4-2.17-5.37.79-1.34,1.5-2.78,2.16-4.39h1.7ZM37.19,48c.43-.98.26-2.51-1.59-3.71.97-1.21,1.79-2.62,2.45-4.2.7-.1,1.07-.24,1.36-.65l.15-.22-4.22-3.67-2.43,2.33h-2.26l.35-.72c.85.04,1.35-.18,1.62-.73l.15-.3-2.73-.96c1.28-.24,2.64-.75,2.64-1.26v-3.8c.74,1.22,1.22,2.33,1.45,3.32l.03.12.1.07c1.14.73,2.36.76,3.28.08.83-.62,1.18-1.68.9-2.69-.22-.8-1.18-2.63-5.24-3.19h5.79c.26,0,.49-.05.67-.13-.57,3.4-1.35,6.63-2.28,9.24l-.08.24.82.48.16-.15c.87-.82,1.71-1.78,2.54-2.9.47,2.95,1.04,5.29,1.76,7.31-1.42,2.54-3.29,4.73-5.67,6.61.11-.15.21-.31.28-.49ZM28.14,42.58c.61-1.06,1.22-2.21,1.71-3.14h2.92c-.38,1.23-.88,2.37-1.49,3.41-.93-.14-1.97-.23-3.15-.27ZM53.19,28.22c.68,0,1.14-.28,1.28-.77l.05-.18-.14-.12c-1.59-1.42-4.24-3.58-4.27-3.6l-.24-.2-2.48,3.31h-2.55c.49-1.36.94-2.9,1.44-4.92.96-.12,1.27-.68,1.37-1.01l.1-.31-7.17-1.58-.02.36c-.1,2.4-.35,4.9-.72,7.33-1.19-1.16-2.94-2.67-3.1-2.81.33-.32.66-.65.98-.99.73-.04,1.26-.37,1.45-.92l.1-.29-5.42-1.7-.05.35c-.4,2.61-.74,4.42-1.01,5.51l-.06.23.72.36h-.75v-5.54c.68-.16,1.03-.5,1.12-1.05l.05-.32-6.2-.57v4.54c-.27-.91-1.28-2.46-4.91-3.27l-.11-.02-.66.37.14.26c.63,1.19,1.29,3.04,1.29,4.65v.13l.1.09c.42.38.89.63,1.36.74h-3.87l.44,1.56h4.51c-1.17,2.83-2.94,5.33-5.02,7.06l-.21.18.6.87.22-.1c2.41-1.03,4.47-2.23,6.12-3.57v2.05l-.6-.2-.1.28c-.3.82-.84,2.12-1.48,3.49h-4.3l.5,1.56h3.07c-.72,1.45-1.47,2.86-2.04,3.84l-.5.73.46.08c1.82.34,4.02,1.07,6.11,2.02-1.98,1.99-4.54,3.57-7.59,4.68l-.31.11.44.95.23-.04c4.18-.77,7.66-2.11,10.34-4.01.77.48,1.4.98,1.88,1.49l.05.06.07.02c.63.21,1.28.19,1.84-.02-.84.59-1.73,1.14-2.68,1.66l-.26.15.43.78.23-.07c4.58-1.32,8.16-3.24,10.94-5.86,1.39,2.45,3.06,4.36,5.11,5.84l.35.25.12-.42c.6-2.19,1.84-3.38,4-3.86l.17-.04.23-.76-.24-.11c-2.58-1.16-4.8-2.71-6.62-4.58,2.37-3.58,3.75-8.09,4.35-14.13h1.33Z"/>
</svg>
