<?xml version="1.0" encoding="utf-8"?>
<!-- Generator: Adobe Illustrator 25.4.1, SVG Export Plug-In . SVG Version: 6.00 Build 0)  -->
<svg version="1.1" id="图层_1" xmlns="http://www.w3.org/2000/svg" xmlns:xlink="http://www.w3.org/1999/xlink" x="0px" y="0px"
	 viewBox="0 0 108 108" style="enable-background:new 0 0 108 108;" xml:space="preserve">
<style type="text/css">
	.st0{fill:url(#SVGID_1_);}
	.st1{fill:url(#SVGID_00000160154685403939826450000013349532624839637179_);}
	.st2{fill:#FFFFFF;}
	.st3{fill:url(#SVGID_00000098190947912630691520000001751989076958911387_);}
</style>
<g>
	<linearGradient id="SVGID_1_" gradientUnits="userSpaceOnUse" x1="47.7119" y1="63.1795" x2="55.3447" y2="19.8918">
		<stop  offset="0" style="stop-color:#FFFFFF;stop-opacity:0.7"/>
		<stop  offset="0.0465" style="stop-color:#FFFFFF;stop-opacity:0.7231"/>
		<stop  offset="0.6045" style="stop-color:#FFFFFF"/>
	</linearGradient>
	<path class="st0" d="M79.488,30.777H58.477v-9.854c0-0.318-0.26-0.572-0.578-0.572c-8.53,0-10.399,2.102-10.399,4.847v5.579H27.56
		c-1.19,0-1.712,2.759-1.711,4.704c0,0.323,0.249,0.589,0.572,0.589H47.5l0,6.977l-13.969,0c-1.194,0-1.715,2.844-1.711,4.724
		c0.001,0.315,0.257,0.569,0.572,0.569l28.058,0c-0.571,5.007-1.938,9.447-3.847,13.287c3.446,1.625,6.894,3.369,10.523,4.975
		c4.236-6.812,6.827-14.619,6.876-22.4c0.004-0.636-0.508-1.155-1.144-1.155H72.8c0,0,0,0,0,0l-14.322,0v-6.977h19.871
		c1.19,0,1.712-2.647,1.711-4.704C80.06,31.044,79.811,30.777,79.488,30.777z"/>
	
		<linearGradient id="SVGID_00000128473526247785243400000004586605546409051066_" gradientUnits="userSpaceOnUse" x1="33.9538" y1="83.9436" x2="44.8398" y2="65.0884">
		<stop  offset="0.2826" style="stop-color:#FFFFFF"/>
		<stop  offset="1" style="stop-color:#FFFFFF;stop-opacity:0.7"/>
	</linearGradient>
	<path style="fill:url(#SVGID_00000128473526247785243400000004586605546409051066_);" d="M20.188,70.785
		c-0.019,11.39,23.466,15.983,34.392,8.92c2.168-1.448,4.18-3.102,6.024-4.92c-0.37-0.248-2.235-1.605-4.377-2.996
		c-1.568-1.018-3.327-2.031-4.547-2.751C38.599,84.133,20.188,80.133,20.188,70.785z"/>
	<path class="st2" d="M32.054,62.394c6.79,0,13.299,2.885,19.626,6.643c3.013,1.79,5.985,3.778,8.926,5.748
		c8.379,5.612,16.507,11.07,24.626,11.349C72.205,85.66,67.454,70.936,56.604,61.627c0,0-0.001,0-0.001-0.001
		c-7.216-3.402-14.425-6.282-23.285-6.282c-10.449,0-17.792,6.801-17.792,15.439l0,0c0,8.53,7.513,15.362,17.792,15.362
		c8.073,0,15.259-2.438,21.25-6.434c-10.949,7.036-34.379,2.451-34.379-8.928l0,0C20.188,65.908,25.549,62.394,32.054,62.394z"/>
	
		<linearGradient id="SVGID_00000148636583131736956560000009122696457335484578_" gradientUnits="userSpaceOnUse" x1="56.602" y1="34.1115" x2="92.775" y2="34.1115" gradientTransform="matrix(1 0 0 -1 0 108)">
		<stop  offset="0.1629" style="stop-color:#FFFFFF"/>
		<stop  offset="1" style="stop-color:#FFFFFF;stop-opacity:0.5"/>
	</linearGradient>
	<path style="fill:url(#SVGID_00000148636583131736956560000009122696457335484578_);" d="M85.882,86.149
		c5.267,0,6.649-6.577,6.891-11.75c0.047-1.011-0.743-1.863-1.755-1.895C76.6,72.053,66.595,66.339,56.602,61.628
		C67.631,71.09,72.359,86.149,85.882,86.149z"/>
</g>
</svg>
