<?xml version="1.0" encoding="utf-8"?>
<!-- Generator: Adobe Illustrator 25.4.1, SVG Export Plug-In . SVG Version: 6.00 Build 0)  -->
<svg version="1.1" id="图层_1" xmlns="http://www.w3.org/2000/svg" xmlns:xlink="http://www.w3.org/1999/xlink" x="0px" y="0px"
	 viewBox="0 0 108 108" style="enable-background:new 0 0 108 108;" xml:space="preserve">
<style type="text/css">
	.st0{fill:url(#SVGID_1_);}
	.st1{fill:url(#SVGID_00000044167962682027620900000009401954826722748577_);}
	.st2{fill:url(#SVGID_00000168799901659069891200000003252839959727425443_);}
	.st3{fill:url(#SVGID_00000030486576496920615640000005540331167781980032_);}
</style>
<g>
	<linearGradient id="SVGID_1_" gradientUnits="userSpaceOnUse" x1="25.8484" y1="43.477" x2="80.0599" y2="43.477">
		<stop  offset="0.1629" style="stop-color:#FFFFFF"/>
		<stop  offset="1" style="stop-color:#FFFFFF;stop-opacity:0.5"/>
	</linearGradient>
	<path class="st0" d="M79.488,30.777H58.477v-9.854c0-0.318-0.26-0.572-0.578-0.572c-8.53,0-10.399,2.102-10.399,4.847v5.579H27.56
		c-1.19,0-1.712,2.759-1.711,4.704c0,0.323,0.249,0.589,0.572,0.589H47.5l0,6.977l-13.969,0c-1.194,0-1.715,2.844-1.711,4.724
		c0.001,0.315,0.257,0.569,0.572,0.569l28.058,0c-0.571,5.007-1.938,9.447-3.847,13.287c3.446,1.625,6.894,3.369,10.523,4.975
		c4.236-6.812,6.827-14.619,6.876-22.4c0.004-0.636-0.508-1.155-1.144-1.155H72.8c0,0,0,0,0,0l-14.322,0v-6.977h19.871
		c1.19,0,1.712-2.647,1.711-4.704C80.06,31.044,79.811,30.777,79.488,30.777z"/>
	
		<linearGradient id="SVGID_00000182529350099981937030000014823025028998073277_" gradientUnits="userSpaceOnUse" x1="20.1883" y1="76.0511" x2="60.6044" y2="76.0511">
		<stop  offset="0.1629" style="stop-color:#FFFFFF"/>
		<stop  offset="1" style="stop-color:#FFFFFF;stop-opacity:0.5"/>
	</linearGradient>
	<path style="fill:url(#SVGID_00000182529350099981937030000014823025028998073277_);" d="M20.188,70.785
		c-0.019,11.39,23.466,15.983,34.392,8.92c2.168-1.448,4.18-3.102,6.024-4.92c-0.37-0.248-2.235-1.605-4.377-2.996
		c-1.568-1.018-3.327-2.031-4.547-2.751C38.599,84.133,20.188,80.133,20.188,70.785z"/>
	<g>
		
			<linearGradient id="SVGID_00000027563619379951577880000018328561770083531956_" gradientUnits="userSpaceOnUse" x1="15.525" y1="70.7466" x2="85.2319" y2="70.7466">
			<stop  offset="0.1629" style="stop-color:#FFFFFF"/>
			<stop  offset="1" style="stop-color:#FFFFFF;stop-opacity:0.5"/>
		</linearGradient>
		<path style="fill:url(#SVGID_00000027563619379951577880000018328561770083531956_);" d="M32.054,62.394
			c6.79,0,13.299,2.885,19.626,6.643c3.013,1.79,5.985,3.778,8.926,5.748c8.379,5.612,16.507,11.07,24.626,11.349
			c-13.027-0.474-17.778-15.198-28.628-24.507c0,0-0.001,0-0.001-0.001c-7.216-3.402-14.425-6.282-23.285-6.282
			c-10.449,0-17.792,6.801-17.792,15.439c0,0,0,0,0,0c0,8.53,7.513,15.362,17.792,15.362c8.073,0,15.259-2.438,21.25-6.434
			c-10.949,7.036-34.379,2.451-34.379-8.928c0,0,0,0,0,0C20.188,65.908,25.549,62.394,32.054,62.394z"/>
	</g>
	
		<linearGradient id="SVGID_00000026845196302798841660000015891011681535747772_" gradientUnits="userSpaceOnUse" x1="56.6025" y1="73.8883" x2="92.775" y2="73.8883">
		<stop  offset="0.1629" style="stop-color:#FFFFFF"/>
		<stop  offset="1" style="stop-color:#FFFFFF;stop-opacity:0.5"/>
	</linearGradient>
	<path style="fill:url(#SVGID_00000026845196302798841660000015891011681535747772_);" d="M85.882,86.149
		c5.267,0,6.649-6.577,6.891-11.75c0.047-1.011-0.743-1.863-1.755-1.895c-14.418-0.451-24.423-6.165-34.416-10.876
		C67.631,71.09,72.359,86.149,85.882,86.149z"/>
</g>
</svg>
