<?xml version="1.0" encoding="utf-8"?>
<!-- Generator: Adobe Illustrator 25.4.1, SVG Export Plug-In . SVG Version: 6.00 Build 0)  -->
<svg version="1.1" id="图层_1" xmlns="http://www.w3.org/2000/svg" xmlns:xlink="http://www.w3.org/1999/xlink" x="0px" y="0px"
	 viewBox="0 0 108 108" style="enable-background:new 0 0 108 108;" xml:space="preserve">
<g>
	<path d="M54,28c-14.359,0-26,11.641-26,26c0,14.359,11.641,26,26,26s26-11.641,26-26C80,39.641,68.359,28,54,28z M54,76
		c-12.15,0-22-9.85-22-22s9.85-22,22-22s22,9.85,22,22S66.15,76,54,76z"/>
</g>
<polygon points="55,40 55,44 64,44 64,48 56,48 56,60 64,60 64,64 55,64 55,68 68,68 68,56 60,56 60,52 68,52 68,40 "/>
<polygon points="53,40 53,44 44,44 44,48 52,48 52,60 44,60 44,64 53,64 53,68 40,68 40,56 48,56 48,52 40,52 40,40 "/>
</svg>
