<?xml version="1.0" encoding="utf-8"?>
<!-- Generator: Adobe Illustrator 25.4.1, SVG Export Plug-In . SVG Version: 6.00 Build 0)  -->
<svg version="1.1" id="图层_1" xmlns="http://www.w3.org/2000/svg" xmlns:xlink="http://www.w3.org/1999/xlink" x="0px" y="0px"
	 viewBox="0 0 108 108" style="enable-background:new 0 0 108 108;" xml:space="preserve">
<style type="text/css">
	.st0{fill:#FFFFFF;}
</style>
<g>
	<path class="st0" d="M54,15c-21.539,0-39,17.461-39,39c0,21.539,17.461,39,39,39s39-17.461,39-39C93,32.461,75.539,15,54,15z
		 M54,87c-18.225,0-33-14.775-33-33s14.775-33,33-33s33,14.775,33,33S72.225,87,54,87z"/>
</g>
<polygon class="st0" points="55.5,33 55.5,39 69,39 69,45 57,45 57,63 69,63 69,69 55.5,69 55.5,75 75,75 75,57 63,57 63,51 75,51 
	75,33 "/>
<polygon class="st0" points="52.5,33 52.5,39 39,39 39,45 51,45 51,63 39,63 39,69 52.5,69 52.5,75 33,75 33,57 45,57 45,51 33,51 
	33,33 "/>
</svg>
