<svg xmlns="http://www.w3.org/2000/svg" viewBox="0 0 108 108">
  <path d="M36.05,33.64v41.19l-.72.12c-1.73.28-2.6.43-3.27.18-.59-.22-1.09-.64-1.4-1.19-.36-.62-.36-1.5-.36-3.26v-32.9c0-1.75,0-2.63.36-3.25.31-.55.81-.97,1.4-1.19.67-.25,1.54-.11,3.27.18l.72.12Z"/>
  <path d="M46.28,30.44l-.01,47.59-2.14.47c-2,.44-2.99.66-3.77.39-.69-.22-1.27-.69-1.64-1.31-.42-.71-.42-1.73-.42-3.77v-39.15c0-2.04,0-3.06.42-3.77.3701-.62.95-1.09,1.64-1.32.78-.26,1.77-.04,3.77.4l2.15.47Z"/>
  <path d="M48.525,32.976c0-2.454,0-3.681.507-4.53.444-.747,1.143-1.308,1.968-1.578.939-.312,2.136-.045,4.533.486l17.892,3.969c1.605.354,2.409.534,3.009.966.528.381.942.897,1.2,1.497.291.678.291,1.5.291,3.147v34.389c0,1.659,0,2.49-.294,3.174-.261.603-.684,1.122-1.218,1.5-.606.432-1.419.603-3.045.948l-17.889,3.786c-2.379.501-3.57.756-4.503.441-.819-.276-1.509-.837-1.95-1.581-.501-.846-.501-2.064-.501-4.497v-42.117Z"/>
</svg>
