<?xml version="1.0" encoding="utf-8"?>
<!-- Generator: Adobe Illustrator 25.4.1, SVG Export Plug-In . SVG Version: 6.00 Build 0)  -->
<svg version="1.1" id="图层_1" xmlns="http://www.w3.org/2000/svg" xmlns:xlink="http://www.w3.org/1999/xlink" x="0px" y="0px"
	 viewBox="0 0 108 108" enable-background="new 0 0 108 108" xml:space="preserve">
<linearGradient id="SVGID_1_" gradientUnits="userSpaceOnUse" x1="18.45" y1="54.351" x2="30.4569" y2="54.351">
	<stop  offset="0" style="stop-color:#000000"/>
	<stop  offset="1" style="stop-color:#000000;stop-opacity:0.6"/>
</linearGradient>
<path fill="url(#SVGID_1_)" d="M30.456,83.718V24.984c0-0.338,0-0.656,0.001-0.957l-4.46-0.744
	c-2.597-0.432-3.897-0.648-4.905-0.274c-0.891,0.333-1.633,0.963-2.106,1.782c-0.536,0.936-0.536,2.254-0.536,4.887v49.347
	c0,2.633,0,3.951,0.536,4.887c0.472,0.819,1.215,1.449,2.106,1.782c1.008,0.373,2.309,0.158,4.905-0.274l4.46-0.744
	C30.456,84.374,30.456,84.056,30.456,83.718z"/>
<linearGradient id="SVGID_00000141453760079162389240000016082491101436488097_" gradientUnits="userSpaceOnUse" x1="30.456" y1="54.351" x2="45.8395" y2="54.351">
	<stop  offset="0" style="stop-color:#000000"/>
	<stop  offset="1" style="stop-color:#000000;stop-opacity:0.6"/>
</linearGradient>
<path fill="url(#SVGID_00000141453760079162389240000016082491101436488097_)" d="M45.788,85.639V22.464c0-1.204,0-2.21,0.027-3.065
	l-6.619-1.449c-2.993-0.653-4.486-0.981-5.656-0.59c-1.031,0.338-1.899,1.04-2.453,1.971c-0.63,1.062-0.63,2.592-0.63,5.652v58.734
	c0,3.06,0,4.59,0.63,5.652c0.553,0.932,1.422,1.629,2.453,1.971c1.17,0.392,2.664,0.063,5.656-0.59l6.644-1.454
	C45.788,88.326,45.788,87.137,45.788,85.639z"/>
<path id="path_3_00000124160096952554597730000006064830264218935726_" opacity="0.7" d="M45.787,22.464
	c0-3.681,0-5.521,0.761-6.795c0.666-1.12,1.715-1.962,2.952-2.367c1.409-0.468,3.204-0.068,6.799,0.729l26.838,5.953
	c2.408,0.531,3.614,0.801,4.514,1.449c0.792,0.572,1.413,1.345,1.8,2.245c0.437,1.017,0.437,2.25,0.437,4.721v51.584
	c0,2.489,0,3.735-0.441,4.761c-0.392,0.904-1.026,1.683-1.827,2.25c-0.909,0.648-2.129,0.904-4.568,1.422l-26.834,5.679
	c-3.568,0.752-5.355,1.134-6.754,0.661c-1.229-0.414-2.264-1.256-2.925-2.371c-0.751-1.269-0.751-3.096-0.751-6.746V22.464z"/>
<path opacity="0.5" d="M89.451,23.679c-0.387-0.9-1.008-1.674-1.8-2.245c-0.9-0.648-2.106-0.918-4.514-1.449l-26.838-5.954
	c-3.595-0.797-5.391-1.197-6.8-0.729c-1.237,0.405-2.286,1.247-2.952,2.367c-0.76,1.274-0.76,3.114-0.76,6.795V68.4l44.1-3.29V28.4
	C89.887,25.929,89.887,24.696,89.451,23.679z"/>
<path d="M89.887,28.399v14.967l-44.1-3.289V22.464c0-3.681,0-5.521,0.761-6.795c0.666-1.12,1.715-1.962,2.952-2.367
	c1.409-0.468,3.204-0.068,6.799,0.729l26.838,5.953c2.407,0.531,3.614,0.801,4.514,1.449c0.792,0.572,1.413,1.345,1.8,2.245
	C89.887,24.696,89.887,25.929,89.887,28.399z"/>
</svg>
