<?xml version="1.0" encoding="utf-8"?>
<!-- Generator: Adobe Illustrator 25.4.1, SVG Export Plug-In . SVG Version: 6.00 Build 0)  -->
<svg version="1.1" id="图层_1" xmlns="http://www.w3.org/2000/svg" xmlns:xlink="http://www.w3.org/1999/xlink" x="0px" y="0px"
	 viewBox="0 0 108 108" enable-background="new 0 0 108 108" xml:space="preserve">
<linearGradient id="path_1_00000152224090736121879000000017096810543667037353_" gradientUnits="userSpaceOnUse" x1="18.2925" y1="55.649" x2="45.0675" y2="55.649" gradientTransform="matrix(1 0 0 -1 0 110)">
	<stop  offset="0" style="stop-color:#0246AA"/>
	<stop  offset="1" style="stop-color:#011C44"/>
</linearGradient>
<path id="path_1" fill="url(#path_1_00000152224090736121879000000017096810543667037353_)" d="M18.45,29.677
	c0-2.632,0-3.951,0.535-4.887c0.472-0.819,1.215-1.449,2.106-1.782c1.008-0.374,2.309-0.157,4.905,0.274l28.746,4.793
	c1.917,0.319,2.875,0.481,3.596,0.958c0.634,0.423,1.138,1.017,1.449,1.71c0.355,0.792,0.355,1.764,0.355,3.708V74.25
	c0,1.944,0,2.916-0.355,3.703c-0.311,0.698-0.814,1.291-1.449,1.715c-0.72,0.477-1.679,0.639-3.596,0.958l-28.746,4.793
	c-2.597,0.432-3.897,0.648-4.905,0.274c-0.891-0.333-1.634-0.963-2.106-1.782c-0.535-0.936-0.535-2.254-0.535-4.887V29.677z"/>
<linearGradient id="path_2_00000147924544594797963400000008962512263110800795_" gradientUnits="userSpaceOnUse" x1="30.456" y1="55.649" x2="58.806" y2="55.649" gradientTransform="matrix(1 0 0 -1 0 110)">
	<stop  offset="0" style="stop-color:#0066FF"/>
	<stop  offset="1" style="stop-color:#003D99"/>
</linearGradient>
<path id="path_2" fill="url(#path_2_00000147924544594797963400000008962512263110800795_)" d="M30.456,24.984
	c0-3.06,0-4.59,0.63-5.652c0.554-0.931,1.422-1.633,2.452-1.971c1.17-0.391,2.664-0.063,5.657,0.59l25.56,5.594
	c2.146,0.468,3.222,0.706,4.023,1.278c0.707,0.508,1.264,1.201,1.606,1.998c0.392,0.909,0.392,2.007,0.392,4.207v46.647
	c0,2.196,0,3.299-0.392,4.203c-0.342,0.801-0.9,1.494-1.606,1.998c-0.801,0.576-1.877,0.814-4.023,1.283l-25.56,5.593
	c-2.993,0.653-4.486,0.981-5.656,0.59c-1.031-0.342-1.899-1.039-2.453-1.971c-0.63-1.062-0.63-2.592-0.63-5.652
	C30.456,83.718,30.456,24.984,30.456,24.984z"/>
<path id="path_3" fill="#12B2FE" d="M45.787,22.464c0-3.681,0-5.521,0.761-6.795c0.666-1.121,1.715-1.962,2.952-2.367
	c1.409-0.468,3.204-0.068,6.799,0.729l26.838,5.953c2.408,0.531,3.614,0.801,4.514,1.449c0.792,0.572,1.413,1.346,1.8,2.246
	c0.437,1.017,0.437,2.25,0.437,4.72v51.583c0,2.489,0,3.735-0.441,4.761c-0.391,0.904-1.026,1.683-1.827,2.25
	c-0.909,0.648-2.129,0.904-4.568,1.422l-26.833,5.679c-3.569,0.752-5.355,1.134-6.754,0.661c-1.229-0.414-2.264-1.255-2.925-2.371
	c-0.751-1.269-0.751-3.096-0.751-6.746C45.788,85.639,45.788,22.464,45.787,22.464z"/>
<path fill="#2FC2FF" d="M87.651,21.434c-0.9-0.648-2.106-0.918-4.514-1.449l-26.838-5.953c-3.595-0.797-5.391-1.197-6.799-0.729
	c-1.237,0.405-2.286,1.246-2.952,2.367c-0.761,1.274-0.761,3.114-0.761,6.795v17.613l44.1,3.288V28.399c0-2.47,0-3.703-0.437-4.72
	C89.064,22.779,88.443,22.005,87.651,21.434z"/>
<path fill="#08A1F8" d="M45.787,68.4v17.239c0,3.65,0,5.477,0.751,6.746c0.662,1.116,1.696,1.958,2.925,2.371
	c1.399,0.473,3.186,0.09,6.754-0.661l26.834-5.679c2.439-0.518,3.659-0.774,4.567-1.422c0.801-0.567,1.436-1.346,1.827-2.25
	c0.441-1.026,0.441-2.272,0.441-4.761V65.112L45.787,68.4z"/>
</svg>
