<?xml version="1.0" encoding="utf-8"?>
<!-- Generator: Adobe Illustrator 25.4.1, SVG Export Plug-In . SVG Version: 6.00 Build 0)  -->
<svg version="1.1" id="图层_1" xmlns="http://www.w3.org/2000/svg" xmlns:xlink="http://www.w3.org/1999/xlink" x="0px" y="0px"
	 viewBox="0 0 108 108" style="enable-background:new 0 0 108 108;" xml:space="preserve">
<style type="text/css">
	.st0{fill:#020202;}
</style>
<path class="st0" d="M54,28.125c-14.29,0-25.875,11.584-25.875,25.875c0,14.253,11.623,25.875,25.875,25.875
	c14.29,0,25.875-11.584,25.875-25.875C79.875,39.747,68.253,28.125,54,28.125z M51.047,74.108C41.223,72.677,33.68,64.22,33.68,54
	s7.544-18.677,17.367-20.108v9.561H47.18c-3.029,0-5.484,2.456-5.484,5.484v10.125c0,3.029,2.456,5.484,5.484,5.484h3.867V74.108z
	 M60.188,49.008c0.349,0,0.633,0.284,0.633,0.633v8.719c0,0.349-0.284,0.633-0.633,0.633H47.812c-0.349,0-0.633-0.284-0.633-0.633
	v-8.719c0-0.349,0.284-0.633,0.633-0.633H60.188z M56.953,74.108v-9.561h3.867c3.029,0,5.484-2.456,5.484-5.484V48.938
	c0-3.029-2.456-5.484-5.484-5.484h-3.867v-9.561c9.824,1.43,17.367,9.888,17.367,20.108S66.777,72.677,56.953,74.108z"/>
</svg>
