<?xml version="1.0" encoding="utf-8"?>
<!-- Generator: Adobe Illustrator 25.4.1, SVG Export Plug-In . SVG Version: 6.00 Build 0)  -->
<svg version="1.1" id="图层_1" xmlns="http://www.w3.org/2000/svg" xmlns:xlink="http://www.w3.org/1999/xlink" x="0px" y="0px"
	 viewBox="0 0 108 108" style="enable-background:new 0 0 108 108;" xml:space="preserve">
<style type="text/css">
	.st0{fill:#FFFFFF;}
</style>
<path class="st0" d="M54,15.188c-21.434,0-38.812,17.376-38.812,38.812c0,21.38,17.434,38.813,38.812,38.813
	c21.434,0,38.813-17.377,38.813-38.813C92.813,32.621,75.38,15.188,54,15.188z M49.57,84.161C34.835,82.017,23.52,69.329,23.52,54
	s11.316-28.017,26.051-30.161V38.18h-5.8c-4.545,0-8.227,3.683-8.227,8.227v15.187c0,4.545,3.683,8.227,8.227,8.227h5.8v14.342
	H49.57z M63.281,46.512c0.524,0,0.949,0.425,0.949,0.949v13.078c0,0.524-0.425,0.949-0.949,0.949H44.719
	c-0.524,0-0.949-0.425-0.949-0.949V47.461c0-0.524,0.425-0.949,0.949-0.949H63.281z M58.43,84.161V69.82h5.8
	c4.545,0,8.227-3.683,8.227-8.227V46.407c0-4.545-3.684-8.227-8.227-8.227h-5.8v-14.34c14.735,2.145,26.05,14.832,26.05,30.16
	S73.165,82.017,58.43,84.161z"/>
</svg>
