<?xml version="1.0" encoding="UTF-8"?>
<svg id="_图层_1" data-name="图层_1" xmlns="http://www.w3.org/2000/svg" version="1.1" viewBox="0 0 108 108">
  <!-- Generator: Adobe Illustrator 29.3.1, SVG Export Plug-In . SVG Version: 2.1.0 Build 151)  -->
  <path d="M64.7,69.9s0,0,0,0c0,0,0,0,.1,0,0,0,.2.1.2.2,1.5,1.5,2.4,3.3,2.8,5.3,0,.1,0,.2,0,.3,0,.1,0,.2,0,.4.1.5.4,1.1.9,1.5,1.3,1.3,3.4,1.3,4.7,0s1.3-3.4,0-4.7c-.5-.5-1-.8-1.6-.9,0,0-.1,0-.2,0,0,0-.1,0-.2,0-2-.4-3.9-1.3-5.4-2.8s-.2-.2-.3-.3h0c-.3-.3-.8-.3-1.1,0s-.3.8,0,1.1Z"/>
  <path d="M75.2,72.5s0,0,0,0c0,0,0,0,0-.1,0,0,.1-.2.2-.2,1.5-1.5,3.3-2.4,5.3-2.8.1,0,.2,0,.3,0,.1,0,.2,0,.4,0,.5-.1,1.1-.4,1.5-.9,1.3-1.3,1.3-3.4,0-4.7s-3.4-1.3-4.7,0c-.5.5-.8,1-.9,1.6,0,0,0,.1,0,.2,0,0,0,.1,0,.2-.4,2-1.3,3.9-2.8,5.4s-.2.2-.3.3h0c-.3.3-.3.8,0,1.1s.8.3,1.1,0Z"/>
  <path d="M77.8,61.9s0,0,0,0c0,0,0,0-.1,0,0,0-.2-.1-.2-.2-1.5-1.5-2.4-3.3-2.8-5.3,0-.1,0-.2,0-.3,0-.1,0-.2,0-.4-.1-.5-.4-1.1-.9-1.5-1.3-1.3-3.4-1.3-4.7,0-1.3,1.3-1.3,3.4,0,4.7s1,.8,1.6.9c0,0,.1,0,.2,0,0,0,.1,0,.2,0,2,.4,3.9,1.3,5.4,2.8.1.1.2.2.3.3h0c.3.3.8.3,1.1,0s.3-.8,0-1.1Z"/>
  <path d="M67.2,59.4s0,0,0,0c0,0,0,0,0,.1,0,0-.1.2-.2.2-1.5,1.5-3.3,2.4-5.3,2.8-.1,0-.2,0-.3,0-.1,0-.2,0-.4,0-.5.1-1.1.4-1.5.9-1.3,1.3-1.3,3.4,0,4.7,1.3,1.3,3.4,1.3,4.7,0,.5-.5.8-1,.9-1.6,0,0,0-.1,0-.2,0,0,0-.1,0-.2.4-2,1.3-3.9,2.8-5.4s.2-.2.3-.3h0c.3-.3.3-.8,0-1.1s-.8-.3-1.1,0Z"/>
  <path d="M72.2,43c-.9-1.9-2.2-3.7-3.7-5.3-3.9-4-9.3-6.6-15.3-7.3-1.1-.1-2.1-.2-3.2-.2s-2,0-3,.2c-6,.7-11.5,3.2-15.4,7.2-1.5,1.6-2.8,3.4-3.7,5.3-1.3,2.6-1.9,5.3-1.9,8.2s1.1,7.2,3.2,10.4c1.2,1.8,3.2,4.1,4.9,5.5h0s-1,4-1,4l-.3,1.1c0,.1,0,.2-.1.3,0,0,0,.1,0,.2,0,0,0,.1,0,.2,0,1,.8,1.8,1.8,1.8s.6,0,.9-.3c0,0,0,0,0,0,0,0,0,0,.1,0l6.9-3.4c1.5.4,2.9.7,4.5.9,1,.1,2,.2,3,.2s2.1,0,3.2-.2c2.1-.2,4.1-.7,6.1-1.4-.2,0-.4-.2-.6-.3-1.2-.7-1.8-2-1.7-3.2-1.4.4-2.8.7-4.3.9-.9.1-1.8.2-2.6.2s-1.7,0-2.5-.1c-.2,0-.4,0-.5,0-1.2-.2-2.3-.4-3.4-.7-.2,0-.5-.1-.7-.1-.4,0-.7.1-1.1.3,0,0,0,0-.1,0l-4.4,2.6h0c0,0-.1,0-.2,0-.2,0-.3-.1-.3-.3l.2-.7c0-.2.1-.4.2-.7.2-.7.5-1.7.7-2.5,0-.2,0-.3,0-.5,0-.6-.3-1.1-.7-1.4-.2-.2-.5-.3-.7-.5-.4-.3-.7-.6-1.1-.9-1-.9-1.8-1.9-2.5-3-1.7-2.5-2.5-5.3-2.5-8.2s.5-4.4,1.5-6.4c.7-1.5,1.8-2.9,3-4.2,3.2-3.3,7.7-5.4,12.7-6,.9,0,1.7-.1,2.5-.1s1.7,0,2.6.2c5,.6,9.4,2.7,12.6,6,1.2,1.3,2.2,2.7,3,4.2,1,2,1.5,4.2,1.5,6.4s0,.5,0,.7c1.3-.8,3-.6,4.1.5,0,0,.1.1.2.2,0-.5,0-.9,0-1.4,0-2.8-.6-5.5-1.9-8.1Z"/>
</svg>