<?xml version="1.0" encoding="UTF-8"?>
<svg id="_图层_1" data-name="图层_1" xmlns="http://www.w3.org/2000/svg" version="1.1" viewBox="0 0 108 108">
  <!-- Generator: Adobe Illustrator 29.3.1, SVG Export Plug-In . SVG Version: 2.1.0 Build 151)  -->
  <defs>
    <style>
      .st0 {
        fill: #fc0;
      }

      .st1 {
        fill: #2dbc00;
      }

      .st2 {
        fill: #0082ef;
      }

      .st3 {
        fill: #fb6500;
      }

      .st4 {
        fill: #0079de;
      }
    </style>
  </defs>
  <path class="st3" d="M70,77.9s0,0,0,0c0,0,.1,0,.2.1.1.1.2.2.3.3,2.2,2.2,3.7,5,4.2,7.9,0,.2,0,.3,0,.5,0,.2,0,.4.1.5.2.8.7,1.6,1.3,2.2,2,2,5.1,2,7.1,0,2-2,2-5.1,0-7.1-.7-.7-1.5-1.1-2.4-1.3,0,0-.2,0-.3,0-.1,0-.2,0-.3,0-3-.6-5.8-2-8.1-4.3-.2-.2-.3-.3-.5-.5h0c-.5-.5-1.2-.5-1.7,0s-.5,1.1,0,1.6Z"/>
  <path class="st2" d="M85.8,81.7s0,0,0,0c0,0,0-.1.1-.2.1-.1.2-.2.3-.3,2.2-2.2,5-3.7,7.9-4.2.2,0,.3,0,.5,0,.2,0,.4,0,.5-.1.8-.2,1.6-.7,2.2-1.3,2-2,2-5.1,0-7.1s-5.1-2-7.1,0c-.7.7-1.1,1.5-1.3,2.4,0,0,0,.2,0,.3,0,.1,0,.2,0,.3-.6,3-2,5.8-4.3,8.1s-.3.3-.5.5h0c-.5.5-.5,1.2,0,1.7s1.1.5,1.6,0Z"/>
  <path class="st1" d="M89.7,65.9s0,0,0,0c0,0-.1,0-.2-.1-.1-.1-.2-.2-.3-.3-2.2-2.2-3.7-5-4.2-7.9,0-.2,0-.3,0-.5,0-.2,0-.4-.1-.5-.2-.8-.7-1.6-1.3-2.2-2-2-5.1-2-7.1,0-2,2-2,5.1,0,7.1s1.5,1.1,2.4,1.3c0,0,.2,0,.3,0,.1,0,.2,0,.3,0,3,.6,5.8,2,8.1,4.3.2.2.3.3.5.5h0c.5.5,1.2.5,1.7,0s.5-1.1,0-1.6Z"/>
  <path class="st0" d="M73.8,62s0,0,0,0c0,0,0,.1-.1.2-.1.1-.2.2-.3.3-2.2,2.2-5,3.7-7.9,4.2-.2,0-.3,0-.5,0-.2,0-.4,0-.5.1-.8.2-1.6.7-2.2,1.3-2,2-2,5.1,0,7.1,2,2,5.1,2,7.1,0,.7-.7,1.1-1.5,1.3-2.4,0,0,0-.2,0-.3,0-.1,0-.2,0-.3.6-3,2-5.8,4.3-8.1s.3-.3.5-.5h0c.5-.5.5-1.2,0-1.7s-1.1-.5-1.6,0Z"/>
  <path class="st4" d="M81.3,37.5c-1.4-2.9-3.3-5.5-5.6-7.9-5.8-6-14-9.9-22.9-10.9-1.6-.2-3.2-.3-4.7-.3s-3,0-4.5.3c-9,1-17.2,4.8-23,10.8-2.3,2.4-4.2,5-5.6,7.9-1.9,3.9-2.9,8-2.9,12.2s1.7,10.8,4.8,15.6c1.8,2.7,4.8,6.1,7.4,8.2h0s-1.4,6-1.4,6l-.4,1.7c0,.2-.1.3-.2.5,0,.1,0,.2,0,.3,0,0,0,.2,0,.3,0,1.5,1.2,2.8,2.8,2.8s1-.1,1.4-.4c0,0,0,0,0,0,0,0,.1,0,.2-.1l10.3-5.2c2.2.6,4.4,1,6.7,1.3,1.5.2,3,.2,4.5.2s3.1,0,4.7-.3c3.2-.4,6.2-1.1,9.1-2.1-.3-.1-.6-.2-.9-.4-1.8-1-2.7-2.9-2.5-4.8-2.1.7-4.2,1.1-6.4,1.4-1.4.2-2.7.2-4,.2s-2.5,0-3.8-.2c-.3,0-.5,0-.8-.1-1.7-.2-3.4-.6-5.1-1.1-.3-.1-.7-.2-1.1-.2-.6,0-1.1.2-1.7.4,0,0-.1,0-.2.1l-6.6,3.9h0c-.1,0-.2.1-.3.1-.2,0-.4-.2-.4-.4l.2-1c0-.3.2-.6.3-1.1.3-1.1.7-2.6,1-3.7,0-.2.1-.5.1-.8,0-.8-.4-1.7-1.1-2.1-.3-.3-.7-.5-1.1-.8-.6-.5-1.1-.9-1.6-1.4-1.4-1.4-2.7-2.8-3.7-4.4-2.5-3.7-3.8-8-3.8-12.3s.8-6.6,2.3-9.6c1.1-2.3,2.6-4.4,4.5-6.3,4.8-4.9,11.6-8.1,19.1-8.9,1.3-.1,2.6-.2,3.8-.2s2.6,0,4,.2c7.4.8,14.2,4,19,9,1.9,1.9,3.4,4,4.5,6.3,1.5,3,2.2,6.3,2.2,9.6s0,.7,0,1c1.9-1.2,4.5-.9,6.2.7,0,0,.2.2.2.3,0-.7,0-1.4,0-2.1,0-4.2-1-8.3-2.8-12.1Z"/>
</svg>