<?xml version="1.0" encoding="UTF-8"?>
<svg id="_图层_1" data-name="图层_1" xmlns="http://www.w3.org/2000/svg" version="1.1" viewBox="0 0 108 108">
  <!-- Generator: Adobe Illustrator 29.3.1, SVG Export Plug-In . SVG Version: 2.1.0 Build 151)  -->
  <defs>
    <style>
      .st0 {
        fill: #fc0;
      }

      .st1 {
        fill: #2dbc00;
      }

      .st2 {
        fill: #0082ef;
      }

      .st3 {
        fill: #fb6500;
      }

      .st4 {
        fill: #0079de;
      }
    </style>
  </defs>
  <path class="st3" d="M70.218,79.164c.026.032.054.064.085.094.052.052.109.098.167.138.117.11.233.221.347.335,2.244,2.244,3.654,5.006,4.233,7.9.01.163.028.325.054.487.028.178.067.354.114.529.222.814.651,1.583,1.29,2.222,1.958,1.958,5.133,1.958,7.091,0,1.958-1.958,1.958-5.133,0-7.091-.69-.69-1.532-1.136-2.418-1.34-.099-.023-.199-.042-.299-.059-.101-.017-.202-.031-.303-.042-2.967-.553-5.803-1.976-8.098-4.271-.166-.166-.326-.334-.482-.506h0c-.468-.468-1.227-.467-1.695,0-.438.438-.466,1.13-.085,1.601Z"/>
  <path class="st2" d="M86.072,83.017c.032-.026.064-.054.094-.085.052-.052.098-.109.138-.167.11-.117.221-.233.335-.347,2.244-2.244,5.006-3.654,7.9-4.233.163-.01.325-.028.487-.054.178-.028.354-.067.529-.114.814-.222,1.583-.651,2.222-1.29,1.958-1.958,1.958-5.133,0-7.091-1.958-1.958-5.133-1.958-7.091,0-.69.69-1.136,1.532-1.34,2.418-.023.099-.042.199-.059.299-.017.101-.031.202-.042.303-.553,2.967-1.976,5.803-4.271,8.098-.166.166-.334.326-.506.482h0c-.468.469-.468,1.228,0,1.696.438.438,1.13.466,1.601.085Z"/>
  <path class="st1" d="M89.924,67.163c-.026-.032-.054-.064-.085-.094-.052-.052-.109-.098-.167-.138-.117-.11-.233-.221-.347-.335-2.244-2.244-3.654-5.006-4.233-7.9-.01-.163-.028-.325-.054-.487-.028-.178-.067-.354-.114-.529-.222-.814-.651-1.583-1.29-2.222-1.958-1.958-5.133-1.958-7.091,0s-1.958,5.133,0,7.091c.69.69,1.532,1.136,2.418,1.34.099.023.199.042.299.059.101.017.202.031.303.042,2.967.553,5.803,1.976,8.098,4.271.166.166.326.334.482.506h0c.468.468,1.227.467,1.695,0,.438-.438.466-1.13.085-1.601Z"/>
  <path class="st0" d="M74.07,63.311c-.032.026-.064.054-.094.085-.052.052-.098.109-.138.167-.11.117-.221.233-.335.347-2.244,2.244-5.006,3.654-7.9,4.233-.163.01-.325.028-.487.054-.178.028-.354.067-.529.114-.814.222-1.583.651-2.222,1.29-1.958,1.958-1.958,5.133,0,7.091,1.958,1.958,5.133,1.958,7.091,0,.69-.69,1.136-1.532,1.34-2.418.023-.099.042-.199.059-.299.017-.101.031-.202.042-.303.553-2.967,1.976-5.803,4.271-8.098.166-.166.334-.326.506-.482h0c.468-.469.468-1.228,0-1.696-.438-.438-1.13-.466-1.601-.085Z"/>
  <path class="st4" d="M81.526,38.811c-1.394-2.866-3.268-5.526-5.57-7.906-5.814-6.014-13.954-9.887-22.921-10.906-1.61-.183-3.205-.276-4.742-.276-1.465,0-2.992.085-4.54.254-9.006.979-17.192,4.832-23.049,10.85-2.312,2.375-4.196,5.029-5.599,7.887-1.905,3.879-2.871,7.996-2.871,12.237,0,5.46,1.661,10.844,4.805,15.571,1.778,2.673,4.818,6.128,7.419,8.245h0s-1.441,5.961-1.441,5.961l-.415,1.679c-.073.165-.13.338-.169.518-.025.11-.032.225-.043.339-.008.087-.026.171-.026.26,0,1.533,1.242,2.775,2.775,2.775.501,0,.965-.143,1.37-.375.013-.007.026-.014.039-.021.059-.035.12-.066.177-.105l10.293-5.166c2.215.636,4.414,1.042,6.731,1.297,1.507.166,3.035.25,4.545.25,1.539,0,3.135-.093,4.742-.276,3.161-.359,6.201-1.088,9.087-2.124-.312-.104-.619-.239-.915-.408-1.766-1.01-2.68-2.931-2.498-4.832-2.063.655-4.216,1.125-6.443,1.378-1.351.154-2.688.232-3.973.232-1.263,0-2.543-.07-3.804-.209-.263-.029-.525-.069-.788-.104-1.732-.231-3.444-.584-5.098-1.069-.337-.107-.694-.162-1.06-.162-.571,0-1.124.151-1.685.442-.073.038-.145.069-.218.112l-6.604,3.892-.007.004c-.137.08-.214.11-.285.11-.232,0-.42-.196-.42-.437l.244-.986c.068-.26.165-.626.281-1.072.289-1.1.683-2.603.976-3.719.064-.228.129-.502.129-.81,0-.85-.407-1.653-1.084-2.147-.345-.255-.689-.522-1.051-.817-.554-.451-1.084-.921-1.595-1.405-1.434-1.36-2.693-2.844-3.75-4.434-2.49-3.743-3.805-7.99-3.805-12.283,0-3.332.762-6.571,2.264-9.629,1.122-2.284,2.634-4.411,4.493-6.322,4.815-4.946,11.585-8.118,19.064-8.931,1.302-.142,2.582-.213,3.805-.213,1.284,0,2.621.078,3.973.232,7.444.846,14.175,4.034,18.954,8.976,1.851,1.915,3.354,4.046,4.468,6.336,1.478,3.038,2.228,6.252,2.228,9.552,0,.343-.022.685-.039,1.027,1.931-1.182,4.483-.95,6.155.721.085.085.155.177.232.266.055-.703.086-1.408.086-2.115,0-4.202-.95-8.286-2.825-12.139Z"/>
</svg>