<?xml version="1.0" encoding="utf-8"?>
<!-- Generator: Adobe Illustrator 25.4.1, SVG Export Plug-In . SVG Version: 6.00 Build 0)  -->
<svg version="1.1" id="图层_1" xmlns="http://www.w3.org/2000/svg" xmlns:xlink="http://www.w3.org/1999/xlink" x="0px" y="0px"
	 viewBox="0 0 108 108" enable-background="new 0 0 108 108" xml:space="preserve">
<g>
	<path id="path" fill="#89E219" d="M44.486,35.666c1.376,1.421,0.968,3.769-0.806,4.631c-5.895,2.861-13.05,1.564-17.692-3.24
		c-4.639-4.804-5.689-11.993-2.621-17.779c0.923-1.74,2.936-2.055,4.312-0.638L44.486,35.666z"/>
	<path id="path_1" fill-rule="evenodd" clip-rule="evenodd" fill="#89E219" d="M42.57,33.784c5.876,5.929,16.237,5.929,22.781,0
		c6.544-5.932-0.982,34.53-0.982,34.425c0-0.049-3.499-0.064-10.493-0.041c-1.879,0.004-5.254,0.019-10.136,0.041
		C39.045,41.306,38.655,29.827,42.57,33.784z"/>
	<path id="path_2" fill="#89E219" d="M18.686,24.952l15.855,17.591c1.327,1.47,0.84,3.803-0.964,4.601
		c-5.993,2.655-13.099,1.11-17.569-3.855c-4.47-4.961-5.269-12.184-1.999-17.861C14.993,23.722,17.363,23.479,18.686,24.952z"/>
	<path id="path_3" fill="#89E219" d="M63.521,35.666c-1.376,1.421-0.971,3.769,0.806,4.631c5.891,2.861,13.046,1.564,17.689-3.24
		c4.643-4.804,5.693-11.993,2.625-17.779c-0.923-1.74-2.936-2.055-4.312-0.638L63.521,35.666z"/>
	<path id="path_4" fill="#89E219" d="M89.317,24.952L73.463,42.544c-1.324,1.47-0.836,3.803,0.968,4.601
		c5.989,2.655,13.095,1.11,17.569-3.855c4.47-4.961,5.269-12.184,1.999-17.861C93.015,23.722,90.645,23.479,89.317,24.952z"/>
	<path id="path_5" fill-rule="evenodd" clip-rule="evenodd" fill="#89E219" d="M26.824,27.611h0.923
		c11.644,0,21.083,9.439,21.083,21.083v10.868c0,11.644-9.439,21.082-21.083,21.082h-0.923c-11.644,0-21.083-9.439-21.083-21.082
		V48.694C5.741,37.05,15.18,27.611,26.824,27.611z"/>
	<path id="path_6" fill-rule="evenodd" clip-rule="evenodd" fill="#89E219" d="M80.257,27.611h0.739
		c11.644,0,21.083,9.435,21.083,21.079v10.875c0,11.64-9.439,21.079-21.083,21.079h-0.652c-11.576,0-20.989-9.337-21.079-20.914
		l-0.086-10.871c-0.094-11.644,9.27-21.154,20.914-21.247C80.145,27.611,80.201,27.611,80.257,27.611z"/>
	<path id="path_7" fill-rule="evenodd" clip-rule="evenodd" fill="#FFFFFF" d="M28.133,35.107c8.104,0,14.674,6.57,14.674,14.674
		v8.689c0,8.107-6.57,14.677-14.674,14.677c-8.108,0-14.678-6.57-14.678-14.677v-8.689C13.455,41.677,20.025,35.107,28.133,35.107z"
		/>
	<path id="path_8" fill-rule="evenodd" clip-rule="evenodd" fill="#FFFFFF" d="M79.688,35.107c8.104,0,14.674,6.57,14.674,14.674
		v8.689c0,8.107-6.57,14.677-14.674,14.677c-8.107,0-14.677-6.57-14.677-14.677v-8.689C65.01,41.677,71.58,35.107,79.688,35.107z"/>
	<path id="path_9" fill-rule="evenodd" clip-rule="evenodd" fill="#4B4B4B" d="M30.39,43.538c3.844,0,6.96,3.12,6.96,6.964v7.44
		c0,3.844-3.116,6.96-6.96,6.96s-6.964-3.116-6.964-6.96v-7.44C23.426,46.657,26.546,43.538,30.39,43.538z"/>
	<path id="path_10" fill-rule="evenodd" clip-rule="evenodd" fill="#F48000" d="M54.004,60.42c4.406,0,7.976,3.574,7.976,7.98v2.768
		c0,4.406-3.57,7.976-7.976,7.976s-7.976-3.57-7.976-7.976V68.4C46.028,63.994,49.597,60.42,54.004,60.42z"/>
	<path id="path_11" fill="#FFC200" d="M42.998,69.158c0.949-5.081,5.666-8.753,11.31-8.753c5.134,0,9.769,3.761,10.702,8.753v0.405
		c0,0.315-0.113,0.45-0.405,0.409l-10.298,1.83c-0.289,0.004-0.322,0.004-0.608,0l-10.301-1.83
		c-0.289,0.041-0.401-0.094-0.401-0.409V69.158z"/>
	<path id="path_12" fill-rule="evenodd" clip-rule="evenodd" fill="#FFDE00" d="M52.316,62.167c0.54-0.131,1.084-0.199,1.639-0.199
		c0.593,0,1.189,0.075,1.781,0.229l0,0c1.196,0.307,2.036,1.387,2.036,2.625c0,0.994-0.806,1.8-1.8,1.8h-3.945
		c-0.994,0-1.8-0.806-1.8-1.8C50.228,63.562,51.09,62.464,52.316,62.167L52.316,62.167z"/>
	<path id="path_13" fill-rule="evenodd" clip-rule="evenodd" fill="#4B4B4B" d="M77.43,43.538c3.844,0,6.96,3.12,6.96,6.964v7.44
		c0,3.844-3.116,6.96-6.96,6.96c-3.848,0-6.964-3.116-6.964-6.96v-7.44C70.466,46.657,73.583,43.538,77.43,43.538z"/>
	<path id="path_14" fill="#FFFFFF" d="M24.506,51.986c2.486,0,4.5-2.006,4.5-4.481c0-2.471-2.014-4.477-4.5-4.477
		c-2.483,0-4.496,2.006-4.496,4.477C20.01,49.98,22.024,51.986,24.506,51.986z"/>
	<path id="path_15" fill="#FFFFFF" d="M70.86,51.986c2.482,0,4.5-2.006,4.5-4.481c0-2.471-2.018-4.477-4.5-4.477
		s-4.5,2.006-4.5,4.477C66.36,49.98,68.378,51.986,70.86,51.986z"/>
</g>
</svg>
