<?xml version="1.0" encoding="utf-8"?>
<!-- Generator: Adobe Illustrator 25.4.1, SVG Export Plug-In . SVG Version: 6.00 Build 0)  -->
<svg version="1.1" id="图层_1" xmlns="http://www.w3.org/2000/svg" xmlns:xlink="http://www.w3.org/1999/xlink" x="0px" y="0px"
	 viewBox="0 0 108 108" style="enable-background:new 0 0 108 108;" xml:space="preserve">
<path d="M72.492,44.684c0,3.747-3.038,6.785-6.785,6.785s-6.785-3.038-6.785-6.785s3.038-6.785,6.785-6.785
	S72.492,40.936,72.492,44.684z M79.242,44.684c0,7.475-6.06,13.535-13.535,13.535c-0.059,0-0.118-0.001-0.177-0.001l0.001,0.001
	l-12.305,8.648l-0.016-0.016c0.011,0.191,0.016,0.385,0.016,0.579c0,5.669-4.596,10.266-10.266,10.266
	c-5.046,0-9.242-3.641-10.103-8.438L18,63.103V51.079l19.11,7.915c1.659-1.154,3.676-1.83,5.851-1.83
	c0.194,0,0.387,0.006,0.579,0.016l-0.016-0.016l8.648-12.305l0.001,0.001c-0.001-0.059-0.001-0.118-0.001-0.177
	c0-7.475,6.06-13.535,13.535-13.535S79.242,37.209,79.242,44.684z M50.625,67.43c0-1.993-0.761-3.809-2.008-5.172l-0.484-0.484
	c-1.363-1.247-3.179-2.008-5.172-2.008c-0.971,0-1.9,0.181-2.755,0.51l4.88,2.021c2.834,1.174,4.18,4.423,3.007,7.258
	c-1.174,2.834-4.423,4.18-7.258,3.007l-4.88-2.021c1.193,2.683,3.881,4.553,7.006,4.553C47.194,75.094,50.625,71.662,50.625,67.43z
	 M74.742,44.684c0-4.99-4.045-9.035-9.035-9.035s-9.035,4.045-9.035,9.035c0,4.99,4.045,9.035,9.035,9.035
	S74.742,49.674,74.742,44.684z"/>
</svg>
