<svg xmlns="http://www.w3.org/2000/svg" viewBox="0 0 108 108">
  <defs>
    <clipPath id="a">
      <path d="M0 0H108V108H0z"/>
    </clipPath>
  </defs>
  <g style="clip-path:url(#a)">
    <path d="M63.54,38.17c3.63,0,6.62,2.89,6.62,6.57,0,3.6-2.92,6.49-6.62,6.49-3.63.08-6.62-2.89-6.62-6.49s2.92-6.57,6.62-6.57Z"/>
    <path fill-rule="evenodd" d="M63.54,31.75c7.25,0,13.16,5.87,13.16,13.07,0,7.19-5.91,13.06-13.16,13.06h-.32l-11.82,8.37v.47c0,5.4-4.41,9.78-9.85,9.78-4.78,0-8.7-3.32-9.67-7.82L-6.15,53.1c-1.49.92-3.25,1.46-5.14,1.46-5.36,0-9.71-4.33-9.71-9.67,0-5.35,4.35-9.68,9.71-9.68,4.76,0,8.72,3.42,9.55,7.92l19.02,7.79,18.68,7.66c1.58-1.09,3.47-1.72,5.51-1.72h.56l8.35-11.89v-.15c0-7.2,5.91-13.07,13.16-13.07ZM44.31,59.84c-1.81-.79-3.78-.71-5.44-.08l4.42,1.8c2.24.95,3.55,3.2,3.32,5.49-.05.54-.18,1.09-.4,1.62-1.15,2.78-4.34,4.11-7.13,2.96l-4.19-1.72c.79,1.54,2.04,2.84,3.75,3.54,3.78,1.56,8.11-.24,9.69-3.99.79-1.8.79-3.83,0-5.63s-2.21-3.21-4.02-3.99ZM63.54,36.05c-4.81,0-8.75,3.92-8.75,8.69s3.94,8.76,8.75,8.76,8.75-3.91,8.75-8.76c0-4.77-3.94-8.69-8.75-8.69ZM-11.29,37.81c-3.92,0-7.1,3.17-7.1,7.08,0,3.9,3.18,7.07,7.1,7.07.62,0,1.23-.08,1.8-.23l-3.49-1.43c-2.79-1.14-4.12-4.33-2.97-7.11,1.15-2.78,4.34-4.1,7.13-2.96l3.94,1.62c-1.14-2.39-3.58-4.04-6.41-4.04Z"/>
  </g>
</svg>
