<?xml version="1.0" encoding="utf-8"?>
<!-- Generator: Adobe Illustrator 25.4.1, SVG Export Plug-In . SVG Version: 6.00 Build 0)  -->
<svg version="1.1" id="图层_1" xmlns="http://www.w3.org/2000/svg" xmlns:xlink="http://www.w3.org/1999/xlink" x="0px" y="0px"
	 viewBox="0 0 108 108" style="enable-background:new 0 0 108 108;" xml:space="preserve">
<style type="text/css">
	.st0{fill:#FFFFFF;}
</style>
<path class="st0" d="M81.738,40.025c0,5.621-4.557,10.178-10.178,10.178s-10.178-4.557-10.178-10.178s4.557-10.178,10.178-10.178
	S81.738,34.404,81.738,40.025z M91.863,40.025c0,11.212-9.09,20.303-20.303,20.303c-0.089,0-0.177-0.001-0.266-0.002l0.002,0.002
	L52.84,73.301l-0.024-0.024c0.016,0.287,0.024,0.577,0.024,0.868c0,8.504-6.894,15.398-15.398,15.398
	c-7.568,0-13.863-5.461-15.155-12.657L0,67.654V49.618L28.665,61.49c2.489-1.731,5.514-2.744,8.776-2.744
	c0.291,0,0.581,0.008,0.868,0.024l-0.024-0.024l12.973-18.457l0.002,0.002c-0.001-0.089-0.002-0.177-0.002-0.266
	c0-11.212,9.09-20.303,20.303-20.303S91.863,28.813,91.863,40.025z M48.938,74.145c0-2.99-1.141-5.713-3.012-7.758L45.2,65.661
	c-2.045-1.871-4.768-3.012-7.758-3.012c-1.457,0-2.85,0.271-4.132,0.766l7.321,3.032c4.251,1.761,6.27,6.635,4.51,10.886
	c-1.761,4.251-6.635,6.27-10.886,4.51l-7.321-3.032c1.789,4.025,5.821,6.83,10.509,6.83C43.791,85.641,48.938,80.494,48.938,74.145z
	 M85.113,40.025c0-7.485-6.068-13.553-13.553-13.553S58.008,32.54,58.008,40.025s6.068,13.553,13.553,13.553
	S85.113,47.511,85.113,40.025z"/>
</svg>
