<svg xmlns="http://www.w3.org/2000/svg" viewBox="0 0 108 108">
  <defs>
    <clipPath id="a">
      <rect width="108" height="108"/>
    </clipPath>
  </defs>
  <g fill="#fff" style="clip-path:url(#a)">
    <path d="M68.31,30.255c5.445,0,9.93,4.335,9.93,9.855,0,5.4-4.38,9.735-9.93,9.735-5.445.12-9.93-4.335-9.93-9.735s4.38-9.855,9.93-9.855Z"/>
    <path d="M68.31,20.625c10.875,0,19.74,8.805,19.74,19.605,0,10.785-8.865,19.59-19.74,19.59h-.48l-17.73,12.555v.705c0,8.1-6.615,14.67-14.775,14.67-7.17,0-13.05-4.98-14.505-11.73l-57.045-23.37c-2.235,1.38-4.875,2.19-7.71,2.19-8.04,0-14.565-6.495-14.565-14.505,0-8.025,6.525-14.52,14.565-14.52,7.14,0,13.08,5.13,14.325,11.88L-1.08,49.38l28.02,11.49c2.37-1.635,5.205-2.58,8.265-2.58h.84l12.525-17.835v-.225c0-10.8,8.865-19.605,19.74-19.605ZM39.465,62.76c-2.715-1.185-5.67-1.065-8.16-.12l6.63,2.7c3.36,1.425,5.325,4.8,4.98,8.235-.075.81-.27,1.635-.6,2.43-1.725,4.17-6.51,6.165-10.695,4.44l-6.285-2.58c1.185,2.31,3.06,4.26,5.625,5.31,5.67,2.34,12.165-.36,14.535-5.985,1.185-2.7,1.185-5.745,0-8.445s-3.315-4.815-6.03-5.985ZM68.31,27.075c-7.215,0-13.125,5.88-13.125,13.035s5.91,13.14,13.125,13.14,13.125-5.865,13.125-13.14c0-7.155-5.91-13.035-13.125-13.035ZM-43.935,29.715c-5.88,0-10.65,4.755-10.65,10.62,0,5.85,4.77,10.605,10.65,10.605.93,0,1.845-.12,2.7-.345l-5.235-2.145c-4.185-1.71-6.18-6.495-4.455-10.665,1.725-4.17,6.51-6.15,10.695-4.44l5.91,2.43c-1.71-3.585-5.37-6.06-9.615-6.06Z" fill-rule="evenodd"/>
  </g>
</svg>
