<svg xmlns="http://www.w3.org/2000/svg" viewBox="0 0 108 108">
  <defs/>
  <g>
    <path d="M55.3107,54.8354l5.8571-15.6653c1.2977-3.4709-1.2686-7.1701-4.974-7.1701h-19.642c-2.5138,0-4.5517,2.0379-4.5517,4.5517v16.6897c0,2.5138,2.0379,4.5517,4.5517,4.5517h14.4956c1.899,0,3.5985-1.179,4.2634-2.9577h0Z" style="fill:#0167ff"/>
    <path d="M50.2069,41.1035c-.3945,2.5148-1.0734,5.3103-3.1824,7.571,1.5893,1.0166,3.5314,1.559,5.8376,1.9117l-.7586,2.2759c-2.4807-.1859-4.9614-1.1493-6.9717-2.5869-1.8283,1.2252-4.3431,2.1545-7.8214,2.5869v-2.2759c2.5679-.5007,4.4569-1.1266,5.8945-1.9876-1.5248-1.6272-2.4807-3.5769-2.4807-5.5986h2.2759c.5424,1.6879,1.2517,3.0003,2.1317,4.0283,1.2934-1.4338,2.0748-3.3341,2.7993-5.9248h-10.6207v-2.2759h6.4483l-.3793-2.1241,2.4655-.531.569,2.6552h6.8276v2.2759s-3.0345,0-3.0345,0Z" style="fill:#fff"/>
  </g>
  <g>
    <path d="M52.6893,53.1646l-5.8571,15.6654c-1.2977,3.4709,1.2686,7.1701,4.974,7.1701h19.642c2.5138,0,4.5517-2.0379,4.5517-4.5517v-16.6897c0-2.5138-2.0379-4.5517-4.5517-4.5517h-14.4956c-1.899,0-3.5985,1.179-4.2634,2.9577h0Z" style="fill:#61cffd"/>
    <path d="M63.8621,54.7586h-3.0345l-7.2069,15.931h2.9131l1.3731-3.0345h8.8759l1.3731,3.0345h2.9131l-7.2069-15.931ZM59.1093,65l3.0876-6.8276h.2959l3.0876,6.8276h-6.471Z" style="fill:#fff"/>
  </g>
  <g>
    <path d="M76,38v4c0,.5523-.4477,1-1,1h0c-.5523,0-1-.4477-1-1v-4c0-2.2091-1.7909-4-4-4h-4c-.5523,0-1-.4477-1-1h0c0-.5523.4477-1,1-1h4c3.3137,0,6,2.6863,6,6Z" style="fill:#d9dde3"/>
    <path d="M32,70v-4c0-.5523.4477-1,1-1h0c.5523,0,1,.4477,1,1v4c0,2.2091,1.7909,4,4,4h4c.5523,0,1,.4477,1,1h0c0,.5523-.4477,1-1,1h-4c-3.3137,0-6-2.6863-6-6Z" style="fill:#d9dde3"/>
  </g>
</svg>
