<svg xmlns="http://www.w3.org/2000/svg" viewBox="0 0 108 108">
  <defs/>
  <g>
    <path d="M55.555,54.9911l6.9486-18.5848c1.5395-4.1177-1.505-8.5063-5.901-8.5063h-23.3025c-2.9823,0-5.4,2.4177-5.4,5.4v19.8c0,2.9823,2.4177,5.4,5.4,5.4h17.197c2.2529,0,4.2691-1.3987,5.058-3.5089Z" style="fill:#0167ff"/>
    <path d="M49.5,38.7c-.468,2.9835-1.2735,6.3-3.7755,8.982,1.8855,1.206,4.1895,1.8495,6.9255,2.268l-.9,2.7c-2.943-.2205-5.886-1.3635-8.271-3.069-2.169,1.4535-5.1525,2.556-9.279,3.069v-2.7c3.0465-.594,5.2875-1.3365,6.993-2.358-1.809-1.9305-2.943-4.2435-2.943-6.642h2.7c.6435,2.0025,1.485,3.5595,2.529,4.779,1.5345-1.701,2.4615-3.9555,3.321-7.029h-12.6v-2.7h7.65l-.45-2.52,2.925-.63.675,3.15h8.1v2.7h-3.6Z" style="fill:#fff"/>
  </g>
  <g>
    <path d="M52.445,53.0089l-6.9486,18.5848c-1.5395,4.1177,1.505,8.5063,5.901,8.5063h23.3025c2.9823,0,5.4-2.4177,5.4-5.4v-19.8c0-2.9823-2.4177-5.4-5.4-5.4h-17.197c-2.2529,0-4.2691,1.3987-5.058,3.5089Z" style="fill:#61cffd"/>
    <path d="M65.7,54.9h-3.6l-8.55,18.9h3.456l1.629-3.6h10.53l1.629,3.6h3.456l-8.55-18.9ZM60.0615,67.05l3.663-8.1h.351l3.663,8.1h-7.677Z" style="fill:#fff"/>
  </g>
  <g>
    <path d="M78.3,40.05c0,.4971.4029.9.9.9h0c.4971,0,.9-.4029.9-.9v-4.95c0-3.9765-3.2235-7.2-7.2-7.2h-4.95c-.4971,0-.9.4029-.9.9h0c0,.4971.4029.9.9.9h4.95c2.9823,0,5.4,2.4177,5.4,5.4v4.95Z" style="fill:#d9dde3"/>
    <path d="M29.7,67.95c0-.4971-.4029-.9-.9-.9h0c-.4971,0-.9.4029-.9.9v4.95c0,3.9764,3.2235,7.2,7.2,7.2h4.95c.4971,0,.9-.4029.9-.9h0c0-.4971-.4029-.9-.9-.9h-4.95c-2.9823,0-5.4-2.4177-5.4-5.4v-4.95Z" style="fill:#d9dde3"/>
  </g>
</svg>
