<svg xmlns="http://www.w3.org/2000/svg" viewBox="0 0 108 108">
  <g>
    <path d="M49.0283,56.1377h-14.0624c-1.6353,0-2.9658-1.3301-2.9658-2.9653v-18.207c0-1.6353,1.3306-2.9653,2.9658-2.9653h21.4277c1.2617,0,2.3975.5947,3.1162,1.6313.7188,1.0361.8779,2.3086.4365,3.4897l-3.967,10.6094c.4066-.072.8199-.1182,1.2414-.1182h.9382l3.6605-9.7904c1.4156-3.7864-1.3839-7.8219-5.4262-7.8219h-21.4276c-2.7424,0-4.9655,2.2231-4.9655,4.9655v18.2069c0,2.7423,2.2231,4.9655,4.9655,4.9655h13.3147l.7479-2.0002Z"/>
    <path d="M50.3733,52.5405l.0896-.2397c.3086-.8259.7752-1.5588,1.3376-2.2005-2.0925-.3862-3.9055-.9475-5.4102-1.9099,2.3007-2.4662,3.0414-5.5159,3.4717-8.2593h3.3104v-2.4827h-7.4483l-.6207-2.8966-2.6896.5793.4138,2.3173h-7.0345v2.4827h11.5862c-.7903,2.8262-1.6428,4.8993-3.0538,6.4634-.96-1.1213-1.7338-2.5531-2.3255-4.3945h-2.4828c0,2.2055,1.0428,4.3324,2.7062,6.1076-1.5683.9393-3.629,1.6221-6.4304,2.1683v2.4827c3.7945-.4717,6.538-1.4855,8.5324-2.8221,1.771,1.2665,3.8779,2.1864,6.0478,2.6039Z"/>
  </g>
  <g>
    <polygon points="62.9421 58.5518 59.5738 66 66.6331 66 63.2648 58.5518 62.9421 58.5518"/>
    <path d="M73.0344,49.8621h-15.8133c-2.0717,0-3.9256,1.2862-4.6511,3.2266h.0001l-6.3895,17.0895c-1.4156,3.7864,1.3839,7.8219,5.4262,7.8219h21.4276c2.7424,0,4.9655-2.2231,4.9655-4.9655v-18.2069c0-2.7423-2.2231-4.9655-4.9655-4.9655ZM69.4427,72.2069l-1.4979-3.3104h-9.6827l-1.4979,3.3104h-3.178l7.8621-17.3793h3.3103l7.8621,17.3793h-3.1779Z"/>
  </g>
  <g>
    <path d="M76.3448,41.1724c0,.4571.3705.8276.8276.8276h0c.4571,0,.8276-.3705.8276-.8276v-4.5517c0-3.6566-2.9641-6.6207-6.6207-6.6207h-4.5517c-.4571,0-.8276.3705-.8276.8276h0c0,.4571.3705.8276.8276.8276h4.5517c2.7423,0,4.9655,2.2232,4.9655,4.9655,0,0,0,4.5517,0,4.5517Z"/>
    <path d="M31.6552,66.8276c0-.4571-.3705-.8276-.8276-.8276h0c-.4571,0-.8276.3705-.8276.8276v4.5517c0,3.6565,2.9641,6.6207,6.6207,6.6207h4.5517c.4571,0,.8276-.3705.8276-.8276h0c0-.4571-.3705-.8276-.8276-.8276h-4.5517c-2.7423,0-4.9655-2.2232-4.9655-4.9655,0,0,0-4.5517,0-4.5517Z"/>
  </g>
</svg>
