<?xml version="1.0" encoding="utf-8"?>
<!-- Generator: Adobe Illustrator 25.4.1, SVG Export Plug-In . SVG Version: 6.00 Build 0)  -->
<svg version="1.1" id="图层_1" xmlns="http://www.w3.org/2000/svg" xmlns:xlink="http://www.w3.org/1999/xlink" x="0px" y="0px"
	 viewBox="0 0 108 108" enable-background="new 0 0 108 108" xml:space="preserve">
<g>
	<path d="M85.57,37.549h-3.373v21.558h3.373V37.549z"/>
	<path d="M78.934,37.549h-3.373v21.558h3.373V37.549z"/>
	<path d="M72.359,37.549h-3.373v21.558h3.373V37.549z"/>
	<path d="M65.723,37.549h-3.373v21.558h3.373V37.549z"/>
	<path d="M59.148,37.549h-3.373v21.558h3.373V37.549z"/>
	<path d="M52.503,37.549h-3.373v21.558h3.373V37.549z"/>
	<path d="M45.937,37.549h-3.373v21.558h3.373V37.549z"/>
	<path d="M39.362,37.549h-3.373v21.558h3.373V37.549z"/>
	<path d="M32.726,37.549h-3.373v21.558h3.373V37.549z"/>
	<path d="M26.036,37.435l-4.38,21.105l3.303,0.692l4.38-21.105L26.036,37.435z"/>
</g>
<g>
	<path d="M50.206,70.473l-0.813-0.568l-1.861-1.287l-1.854,1.287l-0.82,0.568l0.317-0.917l0.717-2.086l-1.833-1.274l-0.813-0.561
		h1.006h2.254l0.717-2.099l0.31-0.904l0.31,0.904l0.737,2.099h2.24h1.006l-0.813,0.561l-1.833,1.274l0.717,2.086L50.206,70.473z"/>
	<path d="M46.276,67.354l-0.793,2.304l2.047-1.419l2.054,1.419l-0.793-2.304l2.026-1.406h-2.495l-0.793-2.31l-0.786,2.31H44.25
		L46.276,67.354z"/>
	<path d="M26.534,65.867c0.131-0.251,0.2-0.482,0.2-0.7v-0.739c0-0.502-0.179-0.924-0.552-1.281
		c-0.372-0.357-0.813-0.534-1.337-0.534l-0.902,0.004v-0.004H21.31v0.996h0.985v6.878h2.791c0.51,0,0.91-0.152,1.206-0.469
		c0.296-0.317,0.441-0.72,0.441-1.221v-1.241c0-0.212-0.069-0.443-0.2-0.674c-0.131-0.231-0.297-0.396-0.489-0.482
		C26.231,66.316,26.389,66.144,26.534,65.867z M25.473,68.725c0,0.323-0.041,0.31-0.124,0.462c-0.117,0.204-0.338,0.303-0.648,0.303
		l-1.152-0.013v-2.607h1.482c0.296,0,0.441,0.297,0.441,0.891V68.725z M25.473,64.844c0,0.389-0.056,0.653-0.179,0.785
		c-0.131,0.172-0.4,0.258-0.786,0.258c-0.014,0-0.551-0.007-0.958-0.014v-2.198h0.931c0.427,0,0.703,0.086,0.841,0.244
		c0.103,0.126,0.152,0.389,0.152,0.785V64.844z"/>
	<path d="M32.197,68.792c0,0.495-0.186,0.924-0.551,1.274c-0.372,0.356-0.813,0.528-1.337,0.528h-0.324
		c-0.524,0-0.965-0.178-1.337-0.528c-0.372-0.357-0.551-0.779-0.551-1.274V64.31c0-0.495,0.186-0.924,0.551-1.274
		c0.372-0.356,0.813-0.528,1.337-0.528h0.331c0.517,0,0.965,0.178,1.337,0.528c0.372,0.357,0.551,0.779,0.551,1.274v4.482H32.197z
		 M30.942,68.468V64.6c0-0.31-0.034-0.541-0.103-0.687c-0.11-0.218-0.303-0.323-0.593-0.323c-0.6,0-0.896,0.337-0.896,1.01v3.868
		c0,0.673,0.276,1.01,0.82,1.01C30.687,69.478,30.942,69.142,30.942,68.468z"/>
	<path d="M37.6,68.792c0,0.495-0.186,0.924-0.551,1.274c-0.372,0.356-0.813,0.528-1.337,0.528h-0.331
		c-0.524,0-0.965-0.178-1.337-0.528c-0.372-0.357-0.551-0.779-0.551-1.274V64.31c0-0.495,0.186-0.924,0.551-1.274
		c0.372-0.356,0.813-0.528,1.337-0.528h0.331c0.517,0,0.965,0.178,1.337,0.528c0.372,0.357,0.551,0.779,0.551,1.274V68.792z
		 M36.338,68.468V64.6c0-0.31-0.035-0.541-0.103-0.687c-0.11-0.218-0.31-0.323-0.593-0.323c-0.6,0-0.896,0.337-0.896,1.01v3.868
		c0,0.673,0.276,1.01,0.82,1.01C36.083,69.478,36.338,69.142,36.338,68.468z"/>
	<path d="M43.179,70.468h-1.44l-1.613-2.291v2.291h-1.309v-7.828h1.309v2.271l1.599-2.271h1.434l-2.867,3.888L43.179,70.468z"/>
	<path d="M59.763,62.631l-1.447,7.842l-1.351-0.013l-0.765-4.291l-0.793,4.304l-1.351-0.013l-1.399-7.829h1.309l0.772,5.307
		l0.806-5.307h1.337l0.765,5.307l0.806-5.307H59.763z"/>
	<path d="M64.431,70.473h-1.303l-0.262-1.538h-1.054l-0.269,1.538h-1.303l1.447-7.842l1.351,0.013L64.431,70.473z M62.667,67.681
		l-0.317-2.152l-0.317,2.152H62.667z"/>
	<path d="M69.674,69.346v1.122h-3.811v-7.828h1.309v6.706H69.674z"/>
	<path d="M75.13,70.468h-1.447l-1.613-2.291v2.291h-1.31v-7.828h1.31v2.271l1.599-2.271h1.434l-2.867,3.888L75.13,70.468z"/>
	<path d="M79.952,69.351v1.122h-3.811v-7.829l3.811-0.013v1.122H77.45v2.112h1.468v1.122H77.45v2.363H79.952z"/>
	<path d="M86.393,65.201v-0.832c0-0.502-0.18-0.924-0.552-1.281c-0.373-0.349-0.813-0.528-1.337-0.528l-1.138,0.006v-0.006h-2.632
		v0.996h1.282v6.984h1.31v-3.657h0.506l1.072,3.624h1.185l-1.11-3.636c0.407-0.04,0.734-0.188,0.978-0.451
		C86.248,66.118,86.393,65.709,86.393,65.201z M85.132,64.877c0,0.33-0.042,0.567-0.131,0.706c-0.117,0.205-0.331,0.304-0.641,0.304
		l-1.04-0.013v-2.251h0.834c0.421,0,0.696,0.086,0.827,0.244c0.103,0.132,0.152,0.39,0.152,0.785V64.877z"/>
</g>
</svg>
