<?xml version="1.0" encoding="utf-8"?>
<!-- Generator: Adobe Illustrator 25.4.1, SVG Export Plug-In . SVG Version: 6.00 Build 0)  -->
<svg version="1.1" id="图层_1" xmlns="http://www.w3.org/2000/svg" xmlns:xlink="http://www.w3.org/1999/xlink" x="0px" y="0px"
	 viewBox="0 0 108 108" enable-background="new 0 0 108 108" xml:space="preserve">
<g>
	<path fill="#E3007F" d="M101.355,29.323h-5.06V61.66h5.06V29.323z"/>
	<path fill="#82CBD1" d="M91.401,29.323h-5.06V61.66h5.06V29.323z"/>
	<path fill="#933F00" d="M81.538,29.323h-5.06V61.66h5.06V29.323z"/>
	<path fill="#B4B4B5" d="M71.584,29.323h-5.06V61.66h5.06V29.323z"/>
	<path fill="#F29600" d="M61.723,29.323h-5.06V61.66h5.06V29.323z"/>
	<path fill="#E50012" d="M51.754,29.323h-5.06V61.66h5.06V29.323z"/>
	<path fill="#009844" d="M41.905,29.323h-5.06V61.66h5.06V29.323z"/>
	<path fill="#B4B4B5" d="M32.044,29.323h-5.06V61.66h5.06V29.323z"/>
	<path fill="#530000" d="M22.09,29.323h-5.06V61.66h5.06V29.323z"/>
	<path fill="#009FE8" d="M12.055,29.152L5.484,60.81l4.954,1.037l6.57-31.658L12.055,29.152z"/>
</g>
<g>
	<path fill="#231815" d="M48.309,78.71l-1.22-0.852l-2.791-1.931l-2.781,1.931l-1.23,0.852l0.476-1.376l1.075-3.129l-2.75-1.911
		l-1.22-0.841h1.509h3.38l1.075-3.149l0.465-1.356l0.465,1.356l1.106,3.149h3.36h1.509l-1.22,0.841l-2.75,1.911l1.075,3.129
		L48.309,78.71z"/>
	<path fill="#FFFFFF" d="M42.414,74.031l-1.189,3.456l3.071-2.129l3.081,2.129l-1.189-3.456l3.039-2.109h-3.742l-1.189-3.465
		l-1.179,3.465h-3.742L42.414,74.031z"/>
	<path fill="#231815" d="M12.801,71.801c0.196-0.376,0.3-0.722,0.3-1.049v-1.109c0-0.753-0.269-1.386-0.827-1.921
		c-0.558-0.535-1.219-0.801-2.006-0.801l-1.354,0.007V66.92H4.965v1.494h1.478v10.317h4.187c0.766,0,1.364-0.227,1.81-0.703
		c0.444-0.475,0.662-1.08,0.662-1.831v-1.862c0-0.317-0.104-0.664-0.3-1.01c-0.196-0.347-0.445-0.593-0.734-0.722
		C12.346,72.474,12.583,72.216,12.801,71.801z M11.209,76.088c0,0.485-0.062,0.466-0.186,0.693
		c-0.175,0.306-0.507,0.455-0.971,0.455l-1.727-0.019v-3.91h2.223c0.444,0,0.662,0.445,0.662,1.336V76.088z M11.209,70.266
		c0,0.584-0.083,0.98-0.269,1.178c-0.197,0.258-0.6,0.387-1.179,0.387c-0.021,0-0.826-0.011-1.437-0.021v-3.296H9.72
		c0.641,0,1.055,0.129,1.262,0.366c0.155,0.188,0.227,0.584,0.227,1.178V70.266z"/>
	<path fill="#231815" d="M21.295,76.188c0,0.743-0.279,1.386-0.827,1.911c-0.558,0.535-1.22,0.792-2.006,0.792h-0.486
		c-0.786,0-1.447-0.267-2.006-0.792c-0.558-0.535-0.827-1.168-0.827-1.911v-6.723c0-0.743,0.279-1.386,0.827-1.911
		c0.558-0.535,1.22-0.792,2.006-0.792h0.496c0.775,0,1.447,0.267,2.005,0.792c0.558,0.535,0.827,1.168,0.827,1.911v6.723H21.295z
		 M19.413,75.702V69.9c0-0.465-0.052-0.812-0.155-1.03c-0.165-0.327-0.455-0.485-0.889-0.485c-0.899,0-1.344,0.505-1.344,1.515
		v5.802c0,1.01,0.414,1.515,1.23,1.515C19.031,77.217,19.413,76.712,19.413,75.702z"/>
	<path fill="#231815" d="M29.4,76.188c0,0.743-0.279,1.386-0.827,1.911c-0.558,0.535-1.22,0.792-2.005,0.792h-0.496
		c-0.786,0-1.447-0.267-2.006-0.792c-0.558-0.535-0.827-1.168-0.827-1.911v-6.723c0-0.743,0.279-1.386,0.827-1.911
		c0.558-0.535,1.22-0.792,2.006-0.792h0.496c0.775,0,1.447,0.267,2.005,0.792c0.558,0.535,0.827,1.168,0.827,1.911V76.188z
		 M27.508,75.702V69.9c0-0.465-0.052-0.812-0.155-1.03c-0.165-0.327-0.465-0.485-0.889-0.485c-0.899,0-1.344,0.505-1.344,1.515
		v5.802c0,1.01,0.414,1.515,1.23,1.515C27.125,77.217,27.508,76.712,27.508,75.702z"/>
	<path fill="#231815" d="M37.769,78.702h-2.161l-2.419-3.436v3.436h-1.964V66.959h1.964v3.406l2.399-3.406h2.15l-4.301,5.832
		L37.769,78.702z"/>
	<path fill="#231815" d="M62.644,66.947L60.473,78.71l-2.026-0.02l-1.147-6.436L56.11,78.71l-2.026-0.02l-2.098-11.743h1.964
		l1.158,7.961l1.21-7.961h2.006l1.147,7.961l1.21-7.961H62.644z"/>
	<path fill="#231815" d="M69.647,78.71h-1.954L67.3,76.402h-1.582l-0.403,2.307h-1.954l2.171-11.763l2.026,0.02L69.647,78.71z
		 M67,74.521l-0.475-3.228l-0.476,3.228H67z"/>
	<path fill="#231815" d="M77.511,77.018v1.683h-5.717V66.959h1.964v10.059H77.511z"/>
	<path fill="#231815" d="M85.696,78.702h-2.171l-2.419-3.436v3.436h-1.964V66.959h1.964v3.406l2.398-3.406h2.15l-4.3,5.832
		L85.696,78.702z"/>
	<path fill="#231815" d="M92.928,77.026v1.683h-5.717V66.967l5.717-0.02v1.683h-3.753v3.168h2.202v1.683h-2.202v3.545H92.928z"/>
	<path fill="#231815" d="M102.59,70.801v-1.248c0-0.753-0.27-1.386-0.827-1.921c-0.559-0.524-1.219-0.792-2.006-0.792l-1.707,0.009
		v-0.009h-3.948v1.494h1.923v10.476h1.964v-5.486h0.759l1.608,5.436h1.778l-1.664-5.454c0.611-0.06,1.101-0.283,1.467-0.676
		C102.373,72.177,102.59,71.563,102.59,70.801z M100.698,70.316c0,0.495-0.063,0.851-0.197,1.059
		c-0.175,0.308-0.496,0.456-0.962,0.456l-1.561-0.019v-3.377h1.251c0.631,0,1.044,0.129,1.241,0.366
		c0.155,0.198,0.227,0.585,0.227,1.178V70.316z"/>
</g>
</svg>
