<?xml version="1.0" encoding="utf-8"?>
<!-- Generator: Adobe Illustrator 25.4.1, SVG Export Plug-In . SVG Version: 6.00 Build 0)  -->
<svg version="1.1" id="amap" xmlns="http://www.w3.org/2000/svg" xmlns:xlink="http://www.w3.org/1999/xlink" x="0px" y="0px"
	 viewBox="0 0 108 108" style="enable-background:new 0 0 108 108;" xml:space="preserve">
<style type="text/css">
	.st0{fill-rule:evenodd;clip-rule:evenodd;}
</style>
<path id="monochrome" class="st0" d="M76,59.018V41.686C76,36.336,71.664,32,66.314,32H52.842v12.351l-3.86,1.544V32h-7.297
	C36.336,32,32,36.336,32,41.686v17.332h4.632l6.175,3.86H32v3.437C32,71.664,36.336,76,41.686,76h7.297v-3.86l3.86-4.632V76h13.472
	C71.664,76,76,71.664,76,66.314v-3.437h-9.263l0.772-3.86H76z M62.877,71.368L52.07,65.193l-3.088,3.088v-5.404l20.842-24.702
	l-23.93,23.158l-10.807-5.789l34.737-17.368L62.877,71.368z"/>
</svg>
