<svg xmlns="http://www.w3.org/2000/svg" viewBox="0 0 820 240">
  <defs>
    <clipPath id="c">
      <path d="M484.6436,172.606l-2.4779-2.4386-49.8979-49.0269-11.4926,11.2809,38.4746,37.746h-98.4041l101.193-98.0558,1.9741-1.9123c5.1357-4.9765,1.5471-13.5622-5.6676-13.5622h-89.3127l-14.7796,14.3882c-.4102.3989-.1217,1.0863.4551,1.0863h84.2351l-101.0787,98.0558-2.4686,2.3955c-5.1301,4.9802-1.5377,13.5603,5.677,13.5603h137.8583c7.1847,0,10.7864-8.5258,5.7126-13.5173" style="clip-rule:evenodd"/>
    </clipPath>
    <linearGradient id="a" x1="-344" y1="389" x2="-344" y2="576.0209" gradientTransform="translate(1098 -838) scale(2)" gradientUnits="userSpaceOnUse">
      <stop offset="0" stop-color="#ee0029"/>
      <stop offset=".3059" stop-color="#eb0029"/>
      <stop offset="1" stop-color="#bd0021"/>
    </linearGradient>
    <linearGradient id="b" x1="-344" y1="389" x2="-344" y2="569" gradientTransform="translate(1098 -838) scale(2)" gradientUnits="userSpaceOnUse">
      <stop offset="0" stop-color="#eb0029" stop-opacity=".498"/>
      <stop offset="1" stop-color="#eb0029" stop-opacity="0"/>
    </linearGradient>
  </defs>
  <g style="clip-path:url(#c)">
    <rect y="-60" width="820" height="360" style="fill:url(#a)"/>
    <rect y="-60" width="820" height="360" style="fill:url(#b)"/>
  </g>
</svg>
