<svg xmlns="http://www.w3.org/2000/svg" viewBox="0 0 108 108">
  <defs/>
  <path d="M62.443,47.376c-.176-.244-.406-.46-.677-.624-.257-.162-.555-.271-.854-.311-.61-.095-1.246.054-1.761.406l-.379.271,4.32,5.946,2.276-1.638-2.925-4.05ZM71.424,53.796v-9.494c4.253-.204,8.113-.406,9.589-.487l.867-.054c.392-.406.894-2.438.705-3.074-.067-.257-.216-.677-.65-.569-1.436.339-2.884.582-4.348.745-2.803.325-4.037.406-7.923.691-6.826.501-12.907.731-12.907.731,0,.352.067.691.204,1.016.135.325.339.61.596.854s.555.434.88.555c.325.122.677.176,1.03.162,2.316-.095,5.689-.257,9.143-.42v9.346h-12.979c0,.717.285,1.395.799,1.91.515.501,1.206.786,1.923.786h10.239v7.192c0,.907-.474,1.206-1.246,1.232h-3.982c.162.582.46,1.111.854,1.571.392.46.88.826,1.422,1.084.88.297,1.828.392,2.749.285,1.381-.067,3.021-.84,3.021-3.631v-7.733h11.459c.352,0,.677-.135.921-.379.244-.245.379-.571.379-.922v-1.395h-12.745v-.002ZM77.41,47.174l-3.169,4.158,2.276,1.693,4.592-6.028-.379-.285c-.244-.19-.529-.325-.826-.406-.297-.081-.61-.095-.921-.054-.624.108-1.194.433-1.573.922Z" style="fill:#fff"/>
  <path d="M52.654,43.024h-12.508v21.686h3.059l.406,2.613,4.142-2.613h4.886v-21.686h.015ZM47.361,62.004l-2.437,1.53-.244-1.53h-1.746v-16.286h6.89v16.286s-2.463,0-2.463,0ZM37.961,52.765h-4.546c0-.473.027-.974.041-1.474v-5.573h5.181v-1.312c0-.176-.041-.366-.109-.528-.067-.162-.176-.311-.297-.447-.257-.257-.609-.406-.987-.406h-8.089c.027-.095.054-.176.081-.257.285-.825,1.163-3.369,1.163-3.369-.866-.014-1.717.23-2.449.704-.582.406-.92.69-1.393,1.975-.542,1.474-1.015,2.894-1.326,3.747-.487,1.353-1.664,3.747-1.664,3.747.892-.014,1.759-.23,2.556-.623,1.136-.595,1.705-1.529,2.083-2.922l.095-.297h2.368v5.573c0,.514-.041,1.001-.067,1.474h-4.18c-.716,0-1.407.285-1.921.785-.257.243-.447.542-.582.866-.135.325-.203.676-.203,1.028h6.629c-.135,1.258-.392,2.502-.785,3.707-.69,1.948-1.717,3.761-3.057,5.343-1.001,1.081-2.057,2.082-3.193,3.015,0,0,3.179,1.191,5.505-.974,1.407-1.312,2.665-3.869,3.274-5.816.542-1.731.934-3.503,1.136-5.302h6.06v-1.393c0-.176-.027-.338-.095-.5-.067-.162-.162-.297-.285-.419-.122-.122-.271-.216-.419-.285-.187-.04-.363-.067-.525-.067ZM34.696,58.375l-2.328,1.507,5.087,7.521c.35-.7.579-1.453.673-2.234.175-.74.067-1.521-.283-2.194l-3.149-4.6Z" style="fill:#fff"/>
</svg>
