<?xml version="1.0" encoding="utf-8"?>
<!-- Generator: Adobe Illustrator 25.4.1, SVG Export Plug-In . SVG Version: 6.00 Build 0)  -->
<svg version="1.1" id="图层_1" xmlns="http://www.w3.org/2000/svg" xmlns:xlink="http://www.w3.org/1999/xlink" x="0px" y="0px"
	 viewBox="0 0 108 108" enable-background="new 0 0 108 108" xml:space="preserve">
<linearGradient id="path_1_00000053544167323295241020000004695223317678353539_" gradientUnits="userSpaceOnUse" x1="30.195" y1="55.766" x2="48.045" y2="55.766" gradientTransform="matrix(1 0 0 -1 0 110)">
	<stop  offset="0" style="stop-color:#0246AA"/>
	<stop  offset="1" style="stop-color:#011C44"/>
</linearGradient>
<path id="path_1" fill="url(#path_1_00000053544167323295241020000004695223317678353539_)" d="M30.3,37.785
	c0-1.755,0-2.634,0.357-3.258c0.315-0.546,0.81-0.966,1.404-1.188c0.672-0.249,1.539-0.105,3.27,0.183l19.164,3.195
	c1.278,0.213,1.917,0.321,2.397,0.639c0.423,0.282,0.759,0.678,0.966,1.14c0.237,0.528,0.237,1.176,0.237,2.472V67.5
	c0,1.296,0,1.944-0.237,2.469c-0.207,0.465-0.543,0.861-0.966,1.143c-0.48,0.318-1.119,0.426-2.397,0.639l-19.164,3.195
	c-1.731,0.288-2.598,0.432-3.27,0.183c-0.594-0.222-1.089-0.642-1.404-1.188C30.3,73.317,30.3,72.438,30.3,70.683V37.785z"/>
<linearGradient id="path_2_00000176721299730251430680000013415241614257151152_" gradientUnits="userSpaceOnUse" x1="38.304" y1="55.766" x2="57.204" y2="55.766" gradientTransform="matrix(1 0 0 -1 0 110)">
	<stop  offset="0" style="stop-color:#0066FF"/>
	<stop  offset="1" style="stop-color:#003D99"/>
</linearGradient>
<path id="path_2" fill="url(#path_2_00000176721299730251430680000013415241614257151152_)" d="M38.304,34.656
	c0-2.04,0-3.06,0.42-3.768c0.369-0.621,0.948-1.089,1.635-1.314c0.78-0.261,1.776-0.042,3.771,0.393l17.04,3.729
	c1.431,0.312,2.148,0.471,2.682,0.852c0.471,0.339,0.843,0.801,1.071,1.332c0.261,0.606,0.261,1.338,0.261,2.805v31.098
	c0,1.464,0,2.199-0.261,2.802c-0.228,0.534-0.6,0.996-1.071,1.332c-0.534,0.384-1.251,0.543-2.682,0.855l-17.04,3.729
	c-1.995,0.435-2.991,0.654-3.771,0.393c-0.687-0.228-1.266-0.693-1.635-1.314c-0.42-0.708-0.42-1.728-0.42-3.768
	C38.304,73.812,38.304,34.656,38.304,34.656z"/>
<path id="path_3" fill="#12B2FE" d="M48.525,32.976c0-2.454,0-3.681,0.507-4.53c0.444-0.747,1.143-1.308,1.968-1.578
	c0.939-0.312,2.136-0.045,4.533,0.486l17.892,3.969c1.605,0.354,2.409,0.534,3.009,0.966c0.528,0.381,0.942,0.897,1.2,1.497
	c0.291,0.678,0.291,1.5,0.291,3.147v34.389c0,1.659,0,2.49-0.294,3.174c-0.261,0.603-0.684,1.122-1.218,1.5
	c-0.606,0.432-1.419,0.603-3.045,0.948L55.479,80.73c-2.379,0.501-3.57,0.756-4.503,0.441c-0.819-0.276-1.509-0.837-1.95-1.581
	c-0.501-0.846-0.501-2.064-0.501-4.497C48.525,75.093,48.525,32.976,48.525,32.976z"/>
<path fill="#2FC2FF" d="M76.434,32.289c-0.6-0.432-1.404-0.612-3.009-0.966l-17.892-3.969c-2.397-0.531-3.594-0.798-4.533-0.486
	c-0.825,0.27-1.524,0.831-1.968,1.578c-0.507,0.849-0.507,2.076-0.507,4.53v11.742l29.4,2.192v-9.977c0-1.647,0-2.469-0.291-3.147
	C77.376,33.186,76.962,32.67,76.434,32.289z"/>
<path fill="#08A1F8" d="M48.525,63.6v11.493c0,2.433,0,3.651,0.501,4.497c0.441,0.744,1.131,1.305,1.95,1.581
	c0.933,0.315,2.124,0.06,4.503-0.441l17.889-3.786c1.626-0.345,2.439-0.516,3.045-0.948c0.534-0.378,0.957-0.897,1.218-1.5
	c0.294-0.684,0.294-1.515,0.294-3.174v-9.914L48.525,63.6z"/>
</svg>
