<svg xmlns="http://www.w3.org/2000/svg" viewBox="0 0 108 108">
  <path d="M35.3,74.9512c-1.7104.2846-2.571.4253-3.239.1778-.594-.222-1.089-.642-1.404-1.188-.357-.624-.357-1.503-.357-3.258v-32.898c0-1.755,0-2.634.357-3.258.315-.546.81-.966,1.404-1.188.668-.2475,1.5286-.1067,3.239.1778"/>
  <path d="M45.53,30.27l-.01,47.93-1.39.3c-2,.44-2.99.66-3.77.39-.69-.22-1.27-.69-1.64-1.31-.42-.71-.42-1.73-.42-3.77v-39.15c0-2.04,0-3.06.42-3.77.3701-.62.95-1.09,1.64-1.32.78-.26,1.77-.04,3.77.4l1.4.3Z"/>
  <path d="M48.525,32.976c0-2.454,0-3.681.507-4.53.444-.747,1.143-1.308,1.968-1.578.939-.312,2.136-.045,4.533.486l17.892,3.969c1.605.354,2.409.534,3.009.966.528.381.942.897,1.2,1.497.291.678.291,1.5.291,3.147v34.389c0,1.659,0,2.49-.294,3.174-.261.603-.684,1.122-1.218,1.5-.606.432-1.419.603-3.045.948l-17.889,3.786c-2.379.501-3.57.756-4.503.441-.819-.276-1.509-.837-1.95-1.581-.501-.846-.501-2.064-.501-4.497v-42.117Z"/>
</svg>
