<?xml version="1.0" encoding="utf-8"?>
<!-- Generator: Adobe Illustrator 25.4.1, SVG Export Plug-In . SVG Version: 6.00 Build 0)  -->
<svg version="1.1" id="图层_1" xmlns="http://www.w3.org/2000/svg" xmlns:xlink="http://www.w3.org/1999/xlink" x="0px" y="0px"
	 viewBox="0 0 108 108" enable-background="new 0 0 108 108" xml:space="preserve">
<linearGradient id="SVGID_1_" gradientUnits="userSpaceOnUse" x1="30.3" y1="54.2337" x2="38.3" y2="54.2337">
	<stop  offset="0" style="stop-color:#000000"/>
	<stop  offset="1" style="stop-color:#000000;stop-opacity:0.6"/>
</linearGradient>
<path fill="url(#SVGID_1_)" d="M38.3,34.02v40.43l-2.97,0.5c-1.73,0.28-2.6,0.43-3.27,0.18c-0.59-0.22-1.09-0.64-1.4-1.19
	c-0.36-0.62-0.36-1.5-0.36-3.26v-32.9c0-1.75,0-2.63,0.36-3.25c0.31-0.55,0.81-0.97,1.4-1.19c0.67-0.25,1.54-0.11,3.27,0.18
	L38.3,34.02z"/>
<linearGradient id="SVGID_00000043452307359326980440000017188177593192693663_" gradientUnits="userSpaceOnUse" x1="38.3" y1="54.2333" x2="48.56" y2="54.2333">
	<stop  offset="0" style="stop-color:#000000"/>
	<stop  offset="1" style="stop-color:#000000;stop-opacity:0.6"/>
</linearGradient>
<path fill="url(#SVGID_00000043452307359326980440000017188177593192693663_)" d="M48.56,77.53l-4.43,0.97
	c-2,0.44-2.99,0.66-3.77,0.39c-0.69-0.22-1.27-0.69-1.64-1.31c-0.42-0.71-0.42-1.73-0.42-3.77V34.66c0-2.04,0-3.06,0.42-3.77
	c0.37-0.62,0.95-1.09,1.64-1.32c0.78-0.26,1.77-0.04,3.77,0.4l4.41,0.96c-0.01,0.57-0.01,1.24-0.01,2.05v42.11
	C48.53,76.09,48.53,76.88,48.56,77.53z"/>
<path opacity="0.7" d="M77.92,36.93v34.39c0,1.66,0,2.49-0.29,3.18c-0.26,0.6-0.68,1.12-1.22,1.5c-0.6,0.43-1.42,0.6-3.04,0.94
	l-17.89,3.79c-2.38,0.5-3.57,0.76-4.5,0.44c-0.82-0.28-1.51-0.84-1.95-1.58c-0.51-0.85-0.51-2.06-0.51-4.5V32.98
	c0-2.46,0-3.68,0.51-4.53c0.45-0.75,1.15-1.31,1.97-1.58c0.94-0.31,2.14-0.05,4.53,0.48l17.89,3.97c1.61,0.36,2.41,0.54,3.01,0.97
	c0.53,0.38,0.95,0.9,1.2,1.5C77.92,34.46,77.92,35.29,77.92,36.93z"/>
<path opacity="0.5" d="M77.92,36.93v24.48L48.53,63.6V32.98c0-2.46,0-3.68,0.5-4.53c0.45-0.75,1.14-1.31,1.97-1.58
	c0.94-0.31,2.14-0.05,4.53,0.48l17.89,3.97c1.61,0.36,2.41,0.54,3.01,0.97c0.53,0.38,0.95,0.9,1.2,1.5
	C77.92,34.46,77.92,35.29,77.92,36.93z"/>
<path d="M77.92,36.93v9.98l-29.4-2.19V32.98c0-2.46,0-3.68,0.51-4.53c0.45-0.75,1.15-1.31,1.97-1.58c0.94-0.31,2.14-0.05,4.53,0.48
	l17.89,3.97c1.61,0.36,2.41,0.54,3.01,0.97c0.53,0.38,0.95,0.9,1.2,1.5C77.92,34.46,77.92,35.29,77.92,36.93z"/>
</svg>
