<?xml version="1.0" encoding="utf-8"?>
<!-- Generator: Adobe Illustrator 25.4.1, SVG Export Plug-In . SVG Version: 6.00 Build 0)  -->
<svg version="1.1" id="图层_1" xmlns="http://www.w3.org/2000/svg" xmlns:xlink="http://www.w3.org/1999/xlink" x="0px" y="0px"
	 viewBox="0 0 108 108" enable-background="new 0 0 108 108" xml:space="preserve">
<g>
	
		<linearGradient id="SVGID_1_" gradientUnits="userSpaceOnUse" x1="54" y1="90" x2="54" y2="35.6487" gradientTransform="matrix(1 0 0 -1 0 108)">
		<stop  offset="0" style="stop-color:#37AFFF"/>
		<stop  offset="0.1" style="stop-color:#33A9FF"/>
		<stop  offset="0.2" style="stop-color:#2FA3FF"/>
		<stop  offset="0.25" style="stop-color:#2DA1FF"/>
		<stop  offset="0.4" style="stop-color:#2797FF"/>
		<stop  offset="0.5" style="stop-color:#2391FF"/>
		<stop  offset="0.75" style="stop-color:#1883FF"/>
		<stop  offset="0.8" style="stop-color:#157EFF"/>
		<stop  offset="0.9" style="stop-color:#147CFF"/>
		<stop  offset="1" style="stop-color:#0E74FF"/>
	</linearGradient>
	<polygon fill="url(#SVGID_1_)" points="90,18 18,18 18,72.351 90,72.351 	"/>
	<g>
		
			<linearGradient id="SVGID_00000097497872164235840560000017459902641211584174_" gradientUnits="userSpaceOnUse" x1="-499.6657" y1="58.2796" x2="-468.5174" y2="27.1313" gradientTransform="matrix(-1 0 0 -1 -406 108)">
			<stop  offset="0" style="stop-color:#299BFF"/>
			<stop  offset="0.1" style="stop-color:#2899FF"/>
			<stop  offset="0.2" style="stop-color:#2797FF"/>
			<stop  offset="0.25" style="stop-color:#2696FF"/>
			<stop  offset="0.4" style="stop-color:#2190FF"/>
			<stop  offset="0.5" style="stop-color:#208EFF"/>
			<stop  offset="0.75" style="stop-color:#1781FF"/>
			<stop  offset="0.8" style="stop-color:#157EFF"/>
			<stop  offset="0.9" style="stop-color:#127AFF"/>
			<stop  offset="1" style="stop-color:#0E74FF"/>
		</linearGradient>
		<path fill="url(#SVGID_00000097497872164235840560000017459902641211584174_)" d="M54,72.351h36V46.055
			c-4.635,1.834-9.71,4.227-14.977,7.374c-2.898,1.732-5.323,3.405-5.836,3.761c-1.052,0.729-3.858,2.743-6.117,4.654
			C60.723,63.829,54,69.495,54,72.351"/>
		
			<linearGradient id="SVGID_00000038399810323995686570000016339774041659318656_" gradientUnits="userSpaceOnUse" x1="14.3343" y1="58.2796" x2="45.4826" y2="27.1313" gradientTransform="matrix(1 0 0 -1 0 108)">
			<stop  offset="0" style="stop-color:#299BFF"/>
			<stop  offset="0.1" style="stop-color:#2899FF"/>
			<stop  offset="0.2" style="stop-color:#2797FF"/>
			<stop  offset="0.25" style="stop-color:#2696FF"/>
			<stop  offset="0.4" style="stop-color:#2190FF"/>
			<stop  offset="0.5" style="stop-color:#208EFF"/>
			<stop  offset="0.75" style="stop-color:#1781FF"/>
			<stop  offset="0.8" style="stop-color:#157EFF"/>
			<stop  offset="0.9" style="stop-color:#127AFF"/>
			<stop  offset="1" style="stop-color:#0E74FF"/>
		</linearGradient>
		<path fill="url(#SVGID_00000038399810323995686570000016339774041659318656_)" d="M54,72.351H18V46.055
			c4.635,1.834,9.71,4.227,14.977,7.374c2.898,1.732,5.323,3.405,5.836,3.761c1.052,0.729,3.858,2.743,6.117,4.654
			C47.277,63.829,54,69.495,54,72.351"/>
	</g>
	<g>
		
			<linearGradient id="SVGID_00000054244055569810593900000014071374041382621882_" gradientUnits="userSpaceOnUse" x1="-497.6089" y1="55.4851" x2="-468.8863" y2="26.7624" gradientTransform="matrix(-1 0 0 -1 -406 108)">
			<stop  offset="0" style="stop-color:#2797FF"/>
			<stop  offset="0.1" style="stop-color:#2595FF"/>
			<stop  offset="0.2" style="stop-color:#2696FF"/>
			<stop  offset="0.25" style="stop-color:#2591FE"/>
			<stop  offset="0.4" style="stop-color:#258EFD"/>
			<stop  offset="0.5" style="stop-color:#2387FB"/>
			<stop  offset="0.75" style="stop-color:#207EF9"/>
			<stop  offset="0.8" style="stop-color:#207BF8"/>
			<stop  offset="0.9" style="stop-color:#1F75F7"/>
			<stop  offset="1" style="stop-color:#206FF5"/>
		</linearGradient>
		<path fill="url(#SVGID_00000054244055569810593900000014071374041382621882_)" d="M54,72.351h36V50.906
			c-4.565,1.165-10.282,2.975-15.117,5.628c-1.019,0.559-3.113,1.767-5.379,3.164c-0.753,0.464-3.739,2.305-5.871,3.813
			C61.263,65.186,56.695,68.535,54,72.351"/>
		
			<linearGradient id="SVGID_00000166657102177860854860000006129634978755940016_" gradientUnits="userSpaceOnUse" x1="16.3911" y1="55.4851" x2="45.1137" y2="26.7624" gradientTransform="matrix(1 0 0 -1 0 108)">
			<stop  offset="0" style="stop-color:#2797FF"/>
			<stop  offset="0.1" style="stop-color:#2595FF"/>
			<stop  offset="0.2" style="stop-color:#2696FF"/>
			<stop  offset="0.25" style="stop-color:#2591FE"/>
			<stop  offset="0.4" style="stop-color:#258EFD"/>
			<stop  offset="0.5" style="stop-color:#2387FB"/>
			<stop  offset="0.75" style="stop-color:#207EF9"/>
			<stop  offset="0.8" style="stop-color:#207BF8"/>
			<stop  offset="0.9" style="stop-color:#1F75F7"/>
			<stop  offset="1" style="stop-color:#206FF5"/>
		</linearGradient>
		<path fill="url(#SVGID_00000166657102177860854860000006129634978755940016_)" d="M54,72.351H18V50.906
			c4.565,1.165,10.282,2.975,15.117,5.628c1.019,0.559,3.113,1.767,5.379,3.164c0.753,0.464,3.739,2.305,5.871,3.813
			C46.737,65.186,51.305,68.535,54,72.351"/>
	</g>
	<g>
		
			<linearGradient id="SVGID_00000038399788226139035830000007433943865215671737_" gradientUnits="userSpaceOnUse" x1="-496" y1="43.3603" x2="-461.2627" y2="43.3603" gradientTransform="matrix(-1 0 0 -1 -406 108)">
			<stop  offset="0" style="stop-color:#208EFF"/>
			<stop  offset="0.1" style="stop-color:#2492FF"/>
			<stop  offset="0.25" style="stop-color:#2995FD"/>
			<stop  offset="0.5" style="stop-color:#349DFD"/>
			<stop  offset="0.75" style="stop-color:#40A6FB"/>
			<stop  offset="0.8" style="stop-color:#42A7FB"/>
			<stop  offset="0.9" style="stop-color:#48ABFB"/>
			<stop  offset="1" style="stop-color:#4CADFA"/>
		</linearGradient>
		<path fill="url(#SVGID_00000038399788226139035830000007433943865215671737_)" d="M55.263,72.326H90V56.953
			c-10.044,1.866-17.093,5.138-20.109,6.484c-3.085,1.377-5.731,2.867-5.731,2.867c-1.137,0.64-2.041,1.195-2.601,1.545
			C59.896,68.891,57.527,70.284,55.263,72.326"/>
		
			<linearGradient id="SVGID_00000161593047599892629030000006878669871311266716_" gradientUnits="userSpaceOnUse" x1="18" y1="43.3603" x2="52.7373" y2="43.3603" gradientTransform="matrix(1 0 0 -1 0 108)">
			<stop  offset="0" style="stop-color:#208EFF"/>
			<stop  offset="0.1" style="stop-color:#2492FF"/>
			<stop  offset="0.25" style="stop-color:#2995FD"/>
			<stop  offset="0.5" style="stop-color:#349DFD"/>
			<stop  offset="0.75" style="stop-color:#40A6FB"/>
			<stop  offset="0.8" style="stop-color:#42A7FB"/>
			<stop  offset="0.9" style="stop-color:#48ABFB"/>
			<stop  offset="1" style="stop-color:#4CADFA"/>
		</linearGradient>
		<path fill="url(#SVGID_00000161593047599892629030000006878669871311266716_)" d="M52.737,72.326H18V56.953
			c10.044,1.866,17.093,5.138,20.109,6.484c3.085,1.377,5.731,2.867,5.731,2.867c1.137,0.64,2.041,1.195,2.601,1.545
			C48.104,68.891,50.473,70.284,52.737,72.326"/>
	</g>
	
		<linearGradient id="SVGID_00000067215514064863648430000002148262194443372950_" gradientUnits="userSpaceOnUse" x1="54" y1="18" x2="54" y2="43.4533" gradientTransform="matrix(1 0 0 -1 0 108)">
		<stop  offset="0" style="stop-color:#1B86FF"/>
		<stop  offset="0.1" style="stop-color:#1E8BFF"/>
		<stop  offset="0.25" style="stop-color:#329FFF"/>
		<stop  offset="0.5" style="stop-color:#4FBDFF"/>
		<stop  offset="0.75" style="stop-color:#6BDBFF"/>
		<stop  offset="0.8" style="stop-color:#73E3FF"/>
		<stop  offset="0.9" style="stop-color:#78E8FE"/>
		<stop  offset="1" style="stop-color:#78E8FE"/>
	</linearGradient>
	<path fill="url(#SVGID_00000067215514064863648430000002148262194443372950_)" d="M90,64.547c-3.977,1.216-7.311,2.175-9.843,2.883
		c-2.629,0.735-4.29,1.171-5.765,1.541c-1.855,0.466-3.567,0.896-5.485,1.285c-1.076,0.219-1.667,0.313-2.883,0.59
		c-0.341,0.078-0.934,0.216-1.758,0.368c0,0-0.589,0.109-1.231,0.205c-1.086,0.164-5.168,0.932-9.035,0.932
		s-7.949-0.769-9.035-0.932c-0.642-0.097-1.231-0.205-1.231-0.205c-0.823-0.152-1.417-0.291-1.758-0.368
		c-1.215-0.277-1.807-0.371-2.883-0.59c-1.918-0.389-3.629-0.819-5.485-1.285c-1.476-0.371-3.137-0.807-5.765-1.541
		c-2.532-0.708-5.866-1.667-9.843-2.883V90h72V64.547L90,64.547z"/>
</g>
</svg>
