<?xml version="1.0" encoding="UTF-8"?>
<svg xmlns="http://www.w3.org/2000/svg" xmlns:xlink="http://www.w3.org/1999/xlink" viewBox="0 0 108 108">
  <defs>
    <style>.st0{fill:url(#b);}.st1{fill:url(#h);}.st2{fill:url(#g);}.st3{fill:url(#f);}.st4{fill:url(#a);}.st5{fill:url(#d);}.st6{fill:url(#c);}.st7{fill:url(#e);}</style>
    <linearGradient id="a" x1="54" y1="0" x2="54" y2="108" gradientUnits="userSpaceOnUse">
      <stop offset=".1667" stop-color="#36aeff"/>
      <stop offset=".2" stop-color="#34aaff"/>
      <stop offset=".3" stop-color="#2b9eff"/>
      <stop offset=".4" stop-color="#2495ff"/>
      <stop offset=".5" stop-color="#1b86ff"/>
      <stop offset=".6" stop-color="#137dff"/>
      <stop offset=".6706" stop-color="#1f71f6"/>
    </linearGradient>
    <linearGradient id="b" x1="36.7504" y1="118.9432" x2="122.495" y2="58.9042" gradientUnits="userSpaceOnUse">
      <stop offset=".3899" stop-color="#0e75ff"/>
      <stop offset=".4" stop-color="#0e75ff"/>
      <stop offset=".5" stop-color="#1883ff"/>
      <stop offset=".6" stop-color="#208eff"/>
      <stop offset=".6998" stop-color="#2495ff"/>
      <stop offset=".71" stop-color="#2693ff"/>
      <stop offset=".8173" stop-color="#289aff"/>
    </linearGradient>
    <linearGradient id="c" x1="241.5976" y1="118.9432" x2="327.3422" y2="58.9042" gradientTransform="translate(312.8472) rotate(-180) scale(1 -1)" xlink:href="#b"/>
    <linearGradient id="d" x1="31.5259" y1="119.8097" x2="121.3539" y2="63.6789" gradientUnits="userSpaceOnUse">
      <stop offset=".417" stop-color="#1f71f6"/>
      <stop offset=".5001" stop-color="#1f77f8"/>
      <stop offset=".6001" stop-color="#2286fb"/>
      <stop offset=".7003" stop-color="#2490fe"/>
      <stop offset=".741" stop-color="#2495ff"/>
      <stop offset=".8158" stop-color="#2796ff"/>
    </linearGradient>
    <linearGradient id="e" x1="201.2334" y1="119.8097" x2="291.0613" y2="63.6789" gradientTransform="translate(277.7075) rotate(-180) scale(1 -1)" xlink:href="#d"/>
    <linearGradient id="f" x1="-105.8088" y1="73.7708" x2="-4.2523" y2="110.7343" gradientTransform="translate(15.5137) rotate(-180) scale(1 -1)" gradientUnits="userSpaceOnUse">
      <stop offset=".2191" stop-color="#208eff"/>
      <stop offset=".2998" stop-color="#2796ff"/>
      <stop offset=".4001" stop-color="#349dfd"/>
      <stop offset=".5003" stop-color="#40a5fc"/>
      <stop offset=".5713" stop-color="#4eb5fd"/>
    </linearGradient>
    <linearGradient id="g" x1="-13.3224" y1="73.7708" x2="88.234" y2="110.7343" gradientTransform="matrix(1,0,0,1,0,0)" xlink:href="#f"/>
    <linearGradient id="h" x1="54" y1="57.9952" x2="54" y2="108" gradientUnits="userSpaceOnUse">
      <stop offset=".131" stop-color="#79eafe"/>
      <stop offset=".2" stop-color="#78e7fe"/>
      <stop offset=".2885" stop-color="#63d2ff"/>
      <stop offset=".3" stop-color="#62d1ff"/>
      <stop offset=".4" stop-color="#4ab9ff"/>
      <stop offset=".5" stop-color="#33a0ff"/>
      <stop offset=".6" stop-color="#1e8aff"/>
      <stop offset=".64" stop-color="#1883ff"/>
    </linearGradient>
  </defs>
  <rect class="st4" y="0" width="108" height="108"/>
  <g>
    <path class="st0" d="M54,72.4219c8.31-11.8679,21.0733-20.2422,36-26.5781l18-7.6405v69.7968H29.0879l24.9121-35.5781Z"/>
    <path class="st6" d="M54,72.4219c-8.31-11.8679-21.0733-20.2422-36-26.5781L0,38.2032v69.7968s78.9121,0,78.9121,0l-24.9121-35.5781Z"/>
  </g>
  <g>
    <path class="st5" d="M82.6875,53.5781c-16.7931,7.4768-24.19,13.4839-28.6875,18.8438l-29.8536,35.5781h83.8536s0-65.6917,0-65.6917l-25.3125,11.2698Z"/>
    <path class="st7" d="M25.3125,53.5781c16.7931,7.4768,24.19,13.4839,28.6875,18.8438l29.8536,35.5781H0S0,42.3083,0,42.3083l25.3125,11.2698Z"/>
  </g>
  <g>
    <path class="st3" d="M90,56.9531c-12.449,2.1951-26.8368,8.7488-34.875,15.4687L12.7246,108h95.2754s0-54.2208,0-54.2208l-18,3.1739Z"/>
    <path class="st2" d="M18,56.9531c12.449,2.1951,26.8368,8.7488,34.875,15.4688l42.4004,35.5781H0v-54.2208l18,3.1739Z"/>
  </g>
  <path class="st1" d="M108,57.9952v50.0048H0v-50.0048l18,6.5517c3.4355,1.2502,25.875,7.875,36,7.875s32.5645-6.6248,36-7.875l18-6.5517Z"/>
</svg>
