<?xml version="1.0" encoding="UTF-8"?>
<svg xmlns="http://www.w3.org/2000/svg" xmlns:xlink="http://www.w3.org/1999/xlink" viewBox="0 0 108 108">
  <defs>
    <style>.st0{fill:#fff;}.st1{fill:url(#b);}.st2{fill:url(#a);}</style>
    <linearGradient id="a" x1="36.633" y1="23.1325" x2="46.617" y2="23.1325" gradientTransform="translate(0 108) scale(1 -1)" gradientUnits="userSpaceOnUse">
      <stop offset="0" stop-color="#fff" stop-opacity="0"/>
      <stop offset="0" stop-color="#fff" stop-opacity="0"/>
      <stop offset="1" stop-color="#fff"/>
    </linearGradient>
    <linearGradient id="b" x1="-975.367" x2="-965.383" gradientTransform="translate(-904 108) rotate(-180)" xlink:href="#a"/>
  </defs>
  <rect class="st2" x="36.633" y="84.797" width="9.984" height=".141"/>
  <rect class="st1" x="61.383" y="84.797" width="9.984" height=".141"/>
  <g>
    <path class="st0" d="M33.402,80.457v-6.489h6.046v6.489h-.938v-.34h-4.193v.34h-.915ZM34.317,74.787v4.526h4.193v-4.526h-4.193ZM34.598,75.954v-.753h3.618v.753h-1.432v.554h1.329v.746h-.591c.138.123.34.318.605.583l-.34.295h.495v.768h-3.736v-.768h1.373v-.879h-1.203v-.746h1.203v-.554h-1.321v.001ZM37.499,78.132c-.103-.128-.266-.308-.487-.539l.369-.34h-.598v.879h.716Z"/>
    <path class="st0" d="M41.471,76.197v-.664h3.979v.664h-1.285c-.261.167-.487.303-.679.406.118.143.271.359.458.65.743-.34,1.373-.664,1.89-.974l.472.716c-.379.197-.726.369-1.041.517.153.438.342.79.568,1.056.217.256.524.492.923.709-.212.271-.404.534-.576.79-.433-.315-.77-.635-1.011-.96-.256-.344-.465-.768-.628-1.27l-.295.125c.098.3.148.657.148,1.071,0,.448-.086.778-.258.989-.177.217-.453.33-.827.34-.374.01-.696.015-.967.015-.074-.325-.14-.583-.199-.775.202.005.46.007.775.007.241,0,.404-.042.487-.125.084-.084.125-.241.125-.473,0-.059-.005-.148-.015-.266-.891.63-1.897,1.125-3.02,1.484-.069-.192-.187-.45-.354-.775,1.206-.276,2.274-.76,3.204-1.454-.02-.054-.054-.14-.103-.258-.802.502-1.701.908-2.695,1.218-.094-.226-.209-.475-.347-.746,1.019-.222,1.92-.566,2.702-1.034-.049-.064-.101-.13-.155-.199-.62.276-1.336.517-2.148.724-.143-.335-.254-.581-.332-.738,1.097-.162,1.979-.418,2.643-.768h-1.439v-.002ZM40.342,75.895v-1.558h2.687l-.199-.613,1.056-.081c.074.202.143.433.207.694h2.466v1.558h-.909v-.805h-4.408v.805h-.9Z"/>
    <path class="st0" d="M47.348,74.898c-.035-.394-.064-.664-.089-.812.876-.03,1.624-.079,2.244-.148l.125.812c-.025.005-.278.027-.76.066v.849h.701v.849h-.701v.517c.384.251.684.455.901.613v-2.694h.738c-.015-.03-.185-.357-.509-.982l.827-.244c.276.458.465.797.568,1.019l-.657.207h1.019c.182-.349.374-.763.576-1.24l.901.281c-.148.276-.335.596-.561.96h.775v2.85h-.923v1.41c0,.094.017.16.052.199.034.039.091.059.17.059h.081c.079,0,.138-.022.177-.066.039-.044.066-.121.081-.229.025-.276.049-.551.074-.827.226.099.45.195.672.288-.049.477-.094.824-.133,1.041-.039.226-.128.394-.266.502s-.337.162-.598.162h-.258c-.32,0-.549-.069-.687-.207s-.207-.372-.207-.701v-1.632h-.428c0,.054-.003.108-.007.162-.02.596-.13,1.071-.332,1.425-.202.359-.586.721-1.152,1.085-.177-.261-.359-.502-.546-.724.448-.271.751-.527.908-.768s.248-.588.273-1.041c0-.059.002-.106.007-.14h-.634v-.052l-.34.65-.561-.487v2.488h-.827v-2.252c-.172.394-.372.76-.598,1.1-.103-.344-.204-.66-.303-.945.369-.522.669-1.112.901-1.772v-.015h-.797v-.849h.797v-.797l-.694.03ZM50.619,75.777v1.196h1.971v-1.196h-1.971Z"/>
    <path class="st0" d="M54.495,77.386c-.108-.266-.219-.534-.332-.805.989-.123,1.796-.271,2.422-.443-.31-.207-.608-.453-.893-.738-.143.123-.406.332-.79.628-.158-.177-.362-.399-.613-.664.812-.527,1.452-1.078,1.92-1.654l1.011.096c-.113.143-.226.283-.34.421h3.241v.805c-.497.458-.97.824-1.418,1.1.566.128,1.28.236,2.141.325-.143.354-.249.63-.318.827-1.275-.158-2.249-.367-2.924-.628-.767.295-1.803.538-3.107.73ZM57.566,80.347c-.03-.197-.081-.492-.155-.886.472.015.886.022,1.24.022.197,0,.335-.034.413-.103.074-.069.123-.202.148-.399.015-.148.027-.34.037-.576h-1.89c-.153.507-.423.913-.812,1.218-.379.295-.982.586-1.809.871-.177-.335-.345-.618-.502-.849.655-.182,1.132-.357,1.432-.524.325-.187.559-.426.701-.716h-1.742v-.783h1.956c.015-.128.032-.33.052-.605h.945l-.059.605h2.709c-.015.295-.047.773-.096,1.432-.03.463-.138.785-.325.967-.192.187-.532.29-1.019.31-.235.011-.643.016-1.224.016ZM58.917,74.987h-2.518c.354.325.763.591,1.226.797.438-.192.869-.458,1.292-.797Z"/>
    <path class="st0" d="M62.025,79.97c-.217-.113-.477-.222-.783-.325.246-.595.44-1.179.583-1.75l.827.258c-.206.71-.415,1.315-.627,1.817ZM61.996,77.438v-2.717h1.107c-.182-.305-.357-.571-.524-.797l.96-.251c.31.477.529.824.657,1.041l-.022.007h.724c.222-.34.423-.687.605-1.041l1.004.251-.554.79h1.13v2.717h-2.34c.172.202.426.519.76.952l-.746.546c-.33-.507-.591-.879-.783-1.115l.591-.384h-2.569v.001ZM67.031,79.822c-.276-.551-.443-.881-.502-.989-.084.389-.153.662-.207.819-.069.226-.187.389-.354.487s-.406.148-.716.148h-1.477c-.315,0-.549-.086-.701-.258-.158-.177-.236-.45-.236-.82v-1.351h.893v1.093c0,.172.037.295.111.369.074.074.192.111.354.111h.812c.187,0,.322-.03.406-.089s.135-.158.155-.295c.034-.197.059-.386.074-.568.177.064.453.15.827.258-.113-.202-.226-.404-.34-.605l.731-.369c.31.492.637,1.031.982,1.617l-.812.442ZM62.933,75.555v1.056h3.212v-1.056h-3.212Z"/>
    <path class="st0" d="M70.065,79.608v-1.956h3.005v1.838h.059c.202,0,.34-.042.413-.126.079-.084.12-.244.126-.48.02-.354.034-.903.044-1.646h-3.994c-.015.714-.074,1.29-.177,1.728-.108.468-.308.972-.598,1.514-.177-.212-.399-.465-.664-.76.236-.468.391-.901.465-1.299.074-.399.111-.997.111-1.794v-2.614h5.463v2.082h-4.592v.413h4.873c-.02,1.034-.044,1.922-.074,2.665-.02.374-.103.65-.251.827-.153.177-.401.283-.746.317-.32.025-.687.037-1.1.037-.094-.409-.155-.657-.185-.746,0,0-2.178,0-2.178,0ZM69.725,74.787v.576h3.728v-.576h-3.728ZM70.885,78.338v.591h1.366v-.591h-1.366Z"/>
  </g>
  <g>
    <path class="st0" d="M47.988,83.405v-.753c.15-.357.273-.694.37-1.011l.813.106c-.115.304-.229.606-.344.905h.879c.128-.471.222-.881.284-1.229l.853.079c-.132.568-.227.952-.284,1.15h1.745c-.3-.3-.546-.538-.74-.714l.502-.483c.247.198.557.467.932.806l-.403.39h1.071v.753h-3.311c-.031.101-.09.282-.178.542h2.928v.681c-.348.617-.738,1.102-1.17,1.454.449.194,1.029.355,1.738.482-.11.194-.251.483-.423.866-.85-.242-1.54-.522-2.069-.839-.533.3-1.24.599-2.122.899-.145-.348-.275-.615-.39-.8.718-.185,1.322-.39,1.811-.615-.313-.291-.582-.634-.806-1.031-.392.705-.941,1.401-1.646,2.089-.128-.511-.214-.837-.258-.978.432-.427.78-.853,1.044-1.276.256-.414.478-.905.668-1.474h-1.494v.001ZM52.125,84.654h-1.824c.238.414.531.749.879,1.005.388-.278.703-.613.945-1.005Z"/>
    <path class="st0" d="M54.472,82.955v-.773h1.751c.057-.141.15-.397.278-.767l.866.112c-.15.401-.231.619-.245.654h2.968v.773h-3.318c-.207.392-.408.725-.601.998h.925v-.732h.826v.734h1.778v2.089c0,.264-.055.463-.165.595-.106.128-.278.198-.516.211-.264.013-.509.02-.734.02-.031-.176-.09-.436-.178-.78.079.004.245.007.496.007.106,0,.183-.024.231-.073.048-.048.073-.126.073-.231v-1.084h-.985v2.756h-.826v-2.756h-.972v2.254h-.8v-1.976c-.251.269-.524.542-.82.82-.084-.352-.163-.672-.238-.958.67-.555,1.198-1.185,1.586-1.89h-1.38v-.003Z"/>
  </g>
  <path class="st0" d="M73.441,29.883c-3.211-.409-7.018-1.148-11.18-2.492-3.149-1.017-5.91-2.188-8.262-3.344-2.352,1.156-5.112,2.327-8.262,3.344-4.162,1.344-7.969,2.084-11.18,2.492-.074.932-.154,2.294-.141,3.938.032,3.884.241,13.849,6.609,23.337,4.12,6.139,9.298,9.813,12.973,11.89,3.674-2.077,8.852-5.751,12.973-11.89,6.368-9.488,6.578-19.453,6.609-23.337.015-1.644-.064-3.006-.139-3.938ZM64.91,54.422c-3.541,5.755-8.031,9.213-10.91,10.969-2.879-1.756-7.369-5.213-10.91-10.969-5.508-8.952-5.508-18.169-5.508-21.727,2.726-.476,5.814-1.191,9.141-2.275,2.714-.885,5.144-1.871,7.277-2.858,2.133.986,4.563,1.973,7.277,2.858,3.327,1.085,6.415,1.799,9.141,2.275,0,3.558,0,12.775-5.508,21.727Z"/>
  <path class="st0" d="M52.277,41.344v9.422h-1.266v-9.422h1.266ZM46.02,50.836h0c1.01,0,1.828-.818,1.828-1.828v-7.594h-1.406v7.523c0,.233-.189.422-.422.422v1.477ZM51.827,37.477c.288,0,.52-.233.52-.52v-1.027h-6.117v1.547h2.391v1.266h-2.391v1.617h2.391v10.477h1.547v-10.478h1.659c.288,0,.52-.233.52-.52v-1.097h-2.18v-1.266h1.66v.001ZM53.473,50.766h.984c.297,0,1.213-.677,1.547-1.477.142-.341.25-.608.387-1.125.133-.505.291-1.22.387-2.109h-1.688c0,.277-.255,1.716-.492,2.32-.088.224-.211.346-.281.422-.286.309-.671.492-.844.492v1.477ZM62.613,49.289v1.617h-1.477c-1.204,0-2.18-.976-2.18-2.18v-3.375h-5.484v-6.82h8.719v5.344c0,.816-.661,1.477-1.477,1.477h-.141v3.164c0,.427.346.773.773.773h1.267ZM60.152,43.734c.233,0,.422-.189.422-.422v-3.234h-5.484v3.656s5.062,0,5.062,0ZM53.402,37.477h2.426c.369,0,.668-.299.668-.668v-1.02h-3.094s0,1.688,0,1.688ZM58.887,37.477h2.426c.369,0,.668-.299.668-.668v-1.02h-3.094s0,1.688,0,1.688Z"/>
</svg>
