<?xml version="1.0" encoding="utf-8"?>
<!-- Generator: Adobe Illustrator 25.4.1, SVG Export Plug-In . SVG Version: 6.00 Build 0)  -->
<svg version="1.1" id="图层_1" xmlns="http://www.w3.org/2000/svg" xmlns:xlink="http://www.w3.org/1999/xlink" x="0px" y="0px"
	 viewBox="0 0 108 108" enable-background="new 0 0 108 108" xml:space="preserve">
<g>
	<path fill="#005694" d="M54,18.75c-19.468,0-35.25,15.782-35.25,35.25c0,7.417,2.291,14.299,6.203,19.977l-3.84,14.682
		l15.262-4.126v0.001C41.56,87.533,47.579,89.25,54,89.25c19.468,0,35.25-15.782,35.25-35.25S73.468,18.75,54,18.75z M54,85.311
		c-6.24,0-12.053-1.825-16.936-4.971l0,0l-10.388,2.805l2.609-9.918l0,0C25.151,67.921,22.689,61.248,22.689,54
		c0-17.293,14.019-31.311,31.311-31.311S85.311,36.707,85.311,54S71.293,85.311,54,85.311z"/>
	<path fill="#005694" d="M45.237,44.449c0,2.374-0.492,4.316-0.492,5.219c0.004,0.051,0.014,0.113,0.045,0.121
		c0.014,0.004,0.031-0.002,0.053-0.023c5.881-5.659,9.413-6.4,12.8-6.4c4.834,0,7.334,1.871,7.582,1.871
		c0.122,0,0.197-0.393,0.197-0.788c0-1.045-0.689-2.355-0.689-3.545c0-2.22,1.874-2.855,2.511-2.855
		c1.676,0,2.215,1.428,2.215,2.609c0,1.481-0.788,2.367-0.788,3.791c0,0.665,0.243,1.378,0.689,1.378c2.507,0,3.645-2.56,6.056-2.56
		c1.34,0,1.526,1.076,1.526,1.477c0,1.75-1.947,3.052-3.692,3.052c-0.939,0-1.322-0.394-2.659-0.394
		c-0.701,0-1.329,0.149-1.329,1.28c0,1.413,1.02,3.088,1.477,3.473c1.548,1.307,1.763,0.894,3.495,1.477
		c3.11,1.047,4.185,4.049,4.185,5.881c0,1.477-0.735,5.219-3.333,5.219c-0.625,0-1.214-0.339-1.738-0.778
		c-0.464-0.389-0.738-1.41-0.738-1.831c0-0.429,0.085-0.547,0.143-0.843c0,0,0.054-0.224,0.054-0.683
		c0-2.548-0.821-4.076-1.182-4.549c-0.064-0.084-1.499-1.851-2.905-1.851c-1.993,0-2.664,4.332-7.286,4.332
		c-2.452,0-3.594-1.102-3.594-2.659c0-2.063,0.857-2.166,1.822-2.166c1.911,0,2.293,0.689,3.348,0.689
		c1.246,0,2.511-2.227,2.511-3.397c0-1.417-0.891-4.677-6.597-4.677c-6.57,0-13.49,4.342-13.49,8.517
		c0,1.788,2.195,2.46,2.511,2.622c0.824,0.425,1.974,0.901,3.495,2.007c1.444,1.05,2.037,1.785,2.606,2.768
		c0.694,1.199,1.135,2.63,1.135,4.664c0,2.171-0.465,4.293-0.886,4.939c-0.332,0.509-1.419,1.56-2.806,1.56
		c-1.599,0-3.299-1.517-3.299-3.397c0-1.186,0.295-0.944,0.295-3.791c0-1.132-0.125-6.892-2.708-6.892
		c-1.671,0-3.17,2.53-4.923,3.891c-2.283,1.771-4.269,2.903-6.597,2.903c-4.628,0-7.434-4.309-7.434-7.139
		c0-1.741,1.509-2.412,2.609-2.412c1.213,0,1.53,1.651,2.314,2.665c0.486,0.629,1.74,2.456,3.692,2.456
		c1.615,0,3.669-1.712,4.048-2.166c1.368-1.639,1.712-3.448,1.712-5.12c0-4.068-1.575-6.991-1.575-9.502
		c0-2.122,0.876-4.775,2.757-4.775c0.7,0,1.344,0.558,2.019,1.368C45.164,42.403,45.237,43.162,45.237,44.449z"/>
</g>
</svg>
