<?xml version="1.0" encoding="UTF-8"?>
<svg id="_图层_1" data-name="图层_1" xmlns="http://www.w3.org/2000/svg" version="1.1" viewBox="0 0 108 108">
  <!-- Generator: Adobe Illustrator 29.3.1, SVG Export Plug-In . SVG Version: 2.1.0 Build 151)  -->
  <defs>
    <style>
      .st0 {
        fill: #fff;
      }
    </style>
  </defs>
  <path class="st0" d="M73.828,53.93v11.953c0,9.909-7.555,11.531-8.719,11.531-2.294,0-8.859-4.939-8.859-7.594.967-.87,1.673-1.444,2.461-3.867.466-1.434.492-5.9.492-6.188,2.055-.399,4.989-1.354,7.453-2.25,1.659-.603,4.35-1.956,7.172-3.586Z"/>
  <path class="st0" d="M62.227,79.242c-1.402.178-2.88.141-4.43.141-7.4,0-12.263-1.448-15.328-3.516-2.124-1.433-3.236-2.639-4.148-4.43-1.084-2.127-1.125-3.732-1.125-3.938v-4.922c6.017,0,7.665-.147,14.625-1.125v6.469c0,1.213.589,3.902,2.742,6.469.677.807,2.074,2.088,3.234,2.812,1.006.629,1.406.939,4.43,2.039Z"/>
  <path class="st0" d="M82.125,43.172c0,1.721-1.872,5.361-8.297,9.07-3.938,2.274-9.008,3.99-14.625,5.133-2.675.544-4.844.836-7.383,1.125-4.501.513-8.355.773-11.461.773-3.296,0-6.507-.171-9.281-.914-1.963-.526-2.254-.752-3.023-1.195-2.38-1.375-3.023-3.359-3.023-4.219,0-1.978,2.606-4.575,5.766-6.398l1.547.141c-.745,1.29-.844,1.856-.844,2.355,0,3.474,4.745,3.819,5.695,3.902v-22.289h14.625v22.57c2.463-.215,4.942-.554,7.383-.984v-21.586h14.625v16.945c3.296-1.537,6.047-3.872,6.047-5.555,0-.401-.04-.988-1.125-1.898h1.125c1.697.98,2.25,2.009,2.25,3.023Z"/>
</svg>