<svg xmlns="http://www.w3.org/2000/svg" viewBox="0 0 240 820">
  <path d="M136.5824,423.639l-15.6444-28.074c-.41-.7344-1.4664-.7344-1.875,0l-15.6437,28.074c-.1817.3246-.1817.7197,0,1.0451l15.6437,28.0983c.4086.7347,1.465.7347,1.875,0l15.6444-28.0983c.1803-.3254.1803-.7203,0-1.0451Z"/>
  <path d="M102.5717,422.8381l-27.7516-49.6317c-2.2516-4.034-6.5226-6.5394-11.1434-6.5394h-25.5294c-.6283,0-1.0246.6763-.717,1.2254l14.3397,25.7754c.1819.327.5263.53.8989.53h27.1183c.3914,0,.7566.1977.9703.5263l.768,1.3183c.1413.2184-.015.5067-.2757.5067h-27.3237c-.2506,0-.41.2689-.2867.4896l12.0594,21.6687c1.8524,3.317,5.3544,5.3736,9.154,5.3736h26.99c.638,0,1.0394-.686.729-1.2423l-.0003-.0006Z"/>
  <path d="M137.4283,422.8381l27.7508-49.6317c2.2527-4.034,6.5226-6.5394,11.1433-6.5394h25.5294c.6292,0,1.0257.6763.7183,1.2254l-14.341,25.7754c-.1824.327-.5264.53-.8997.53h-27.1167c-.3924,0-.7579.1977-.9703.5263l-.768,1.3183c-.1413.2184.0139.5067.2747.5067h27.3237c.2517,0,.41.2689.2877.4896l-12.0594,21.6687c-1.8523,3.317-5.3544,5.3736-9.1541,5.3736h-26.99c-.639,0-1.041-.686-.729-1.2423l.0003-.0006h0Z"/>
</svg>
