<svg xmlns="http://www.w3.org/2000/svg" viewBox="0 0 240 240">
  <path d="M131.0549,129.0927l-10.4296-18.716c-.2733-.4896-.9776-.4896-1.25,0l-10.4291,18.716c-.1211.2164-.1211.4798,0,.6967l10.4291,18.7322c.2724.4898.9767.4898,1.25,0l10.4296-18.7322c.1202-.2169.1202-.4802,0-.6967Z"/>
  <path d="M108.3811,128.5587l-18.5011-33.0878c-1.5011-2.6893-4.3484-4.3596-7.4289-4.3596h-17.0196c-.4189,0-.6831.4509-.478.8169l9.5598,17.1836c.1213.218.3509.3533.5993.3533h18.0789c.2609,0,.5044.1318.6469.3509l.512.8789c.0942.1456-.01.3378-.1838.3378h-18.2158c-.1671,0-.2733.1793-.1911.3264l8.0396,14.4458c1.2349,2.2113,3.5696,3.5824,6.1027,3.5824h17.9933c.4253,0,.6929-.4573.486-.8282l-.0002-.0004Z"/>
  <path d="M131.6189,128.5587l18.5005-33.0878c1.5018-2.6893,4.3484-4.3596,7.4289-4.3596h17.0196c.4195,0,.6838.4509.4789.8169l-9.5607,17.1836c-.1216.218-.3509.3533-.5998.3533h-18.0778c-.2616,0-.5053.1318-.6469.3509l-.512.8789c-.0942.1456.0093.3378.1831.3378h18.2158c.1678,0,.2733.1793.1918.3264l-8.0396,14.4458c-1.2349,2.2113-3.5696,3.5824-6.1027,3.5824h-17.9933c-.426,0-.694-.4573-.486-.8282l.0002-.0004Z"/>
</svg>
