<svg xmlns="http://www.w3.org/2000/svg" viewBox="0 0 108 108">
  <path d="M58.9747,58.0917l-4.6933-8.4222c-.123-.2203-.4399-.2203-.5625,0l-4.6931,8.4222c-.0545.0974-.0545.2159,0,.3135l4.6931,8.4295c.1226.2204.4395.2204.5625,0l4.6933-8.4295c.0541-.0976.0541-.2161,0-.3135Z"/>
  <path d="M48.7715,57.8514l-8.3255-14.8895c-.6755-1.2102-1.9568-1.9618-3.343-1.9618h-7.6588c-.1885,0-.3074.2029-.2151.3676l4.3019,7.7326c.0546.0981.1579.159.2697.159h8.1355c.1174,0,.227.0593.2911.1579l.2304.3955c.0424.0655-.0045.152-.0827.152h-8.1971c-.0752,0-.123.0807-.086.1469l3.6178,6.5006c.5557.9951,1.6063,1.6121,2.7462,1.6121h8.097c.1914,0,.3118-.2058.2187-.3727Z"/>
  <path d="M59.2285,57.8514l8.3252-14.8895c.6758-1.2102,1.9568-1.9618,3.343-1.9618h7.6588c.1888,0,.3077.2029.2155.3676l-4.3023,7.7326c-.0547.0981-.1579.159-.2699.159h-8.135c-.1177,0-.2274.0593-.2911.1579l-.2304.3955c-.0424.0655.0042.152.0824.152h8.1971c.0755,0,.123.0807.0863.1469l-3.6178,6.5006c-.5557.9951-1.6063,1.6121-2.7462,1.6121h-8.097c-.1917,0-.3123-.2058-.2187-.3727Z"/>
</svg>
