<svg xmlns="http://www.w3.org/2000/svg" viewBox="0 0 704 704">
  <defs>
    <clipPath id="b">
      <path d="M384.4279,378.672l-30.5931-54.9003c-.8022-1.4363-2.8677-1.4363-3.6669,0l-30.5923,54.9003c-.355.6349-.355,1.4076,0,2.0433l30.5923,54.9481c.7992,1.4362,2.8647,1.4362,3.6669,0l30.5932-54.9481c.3529-.6358.3529-1.4089,0-2.0433ZM317.9177,377.105l-54.2701-97.0577c-4.403-7.8887-12.755-12.788-21.7914-12.788h-49.924c-1.2285,0-2.0038,1.3224-1.4019,2.3962l28.0422,50.4051c.3559.6392,1.0295,1.0364,1.7583,1.0364h53.0316c.7653,0,1.4797.3868,1.8973,1.0291l1.5014,2.5779c.2768.4268-.0296.9908-.5393.9908h-53.4332c-.4898,0-.8018.5263-.5606.9573l23.5827,42.3743c3.6221,6.4864,10.4705,10.5083,17.9012,10.5083h52.7809c1.2472,0,2.0325-1.3415,1.4254-2.4297h-.0004ZM386.0819,377.105l54.268-97.0577c4.4052-7.8887,12.755-12.788,21.7914-12.788h49.924c1.2307,0,2.006,1.3224,1.4045,2.3962l-28.0444,50.4051c-.3563.6392-1.0295,1.0364-1.7596,1.0364h-53.0281c-.7674,0-1.4828.3868-1.8973,1.0291l-1.5014,2.5779c-.2768.4268.0274.9908.5371.9908h53.4332c.4919,0,.8018.5263.5628.9573l-23.5827,42.3743c-3.6221,6.4864-10.4705,10.5083-17.9012,10.5083h-52.7809c-1.2494,0-2.0355-1.3415-1.4254-2.4297Z"/>
    </clipPath>
    <linearGradient id="a" x1="352" y1="119.3333" x2="352" y2="588.6667" gradientTransform="translate(0 706) scale(1 -1)" gradientUnits="userSpaceOnUse">
      <stop offset="0" stop-color="#1ad5ff"/>
      <stop offset="1" stop-color="#006cdb"/>
    </linearGradient>
  </defs>
  <rect x="117.3333" y="117.3333" width="469.3333" height="469.3333" style="fill:url(#a);clip-path:url(#b)"/>
</svg>
