<svg xmlns="http://www.w3.org/2000/svg" viewBox="0 0 240 240">
  <path d="M136.5824,133.6391l-15.6442-28.074c-.4102-.7344-1.4664-.7344-1.8751,0l-15.6438,28.074c-.1816.3247-.1816.7198,0,1.0449l15.6438,28.0984c.4087.7344,1.4649.7344,1.8751,0l15.6442-28.0984c.1804-.3251.1804-.7204,0-1.0449Z" style="fill:#fff"/>
  <path d="M102.5716,132.8378l-27.7518-49.6318c-2.2516-4.034-6.5224-6.5393-11.1433-6.5393h-25.5293c-.6282,0-1.0247.6762-.7169,1.2253l14.3398,25.7753c.182.3269.5264.53.8991.53h27.1184c.3913,0,.7567.1978.9702.5262l.7678,1.3182c.1416.2182-.0151.5067-.2758.5067h-27.3238c-.2504,0-.41.2691-.2867.4896l12.0593,21.6687c1.8522,3.3169,5.3542,5.3736,9.154,5.3736h26.9902c.6378,0,1.0393-.686.7289-1.2424h-.0002Z" style="fill:#fff"/>
  <path d="M137.4282,132.8378l27.7507-49.6318c2.2527-4.034,6.5224-6.5393,11.1433-6.5393h25.5293c.6293,0,1.0258.6762.7182,1.2253l-14.3409,25.7753c-.1822.3269-.5264.53-.8998.53h-27.1167c-.3924,0-.7582.1978-.9702.5262l-.7678,1.3182c-.1416.2182.014.5067.2747.5067h27.3238c.2515,0,.41.2691.2878.4896l-12.0593,21.6687c-1.8522,3.3169-5.3542,5.3736-9.154,5.3736h-26.9902c-.6389,0-1.0409-.686-.7289-1.2424Z" style="fill:#fff"/>
</svg>
