<svg xmlns="http://www.w3.org/2000/svg" viewBox="0 0 704 704">
  <path d="M384.4277,378.6718l-30.5934-54.9003c-.8018-1.436-2.8675-1.436-3.6667,0l-30.5921,54.9003c-.3553.6349-.3553,1.4074,0,2.0436l30.5921,54.9479c.7992,1.4367,2.8649,1.4367,3.6667,0l30.5934-54.9479c.3527-.6362.3527-1.4086,0-2.0436Z" style="fill:#fff"/>
  <path d="M317.9179,377.1054l-54.2699-97.0575c-4.4033-7.8887-12.7554-12.788-21.7914-12.788h-49.924c-1.2287,0-2.0038,1.3226-1.4021,2.3962l28.042,50.4051c.3559.6395,1.0293,1.0364,1.758,1.0364h53.0314c.7653,0,1.4797.3865,1.8975,1.0293l1.5019,2.5781c.2764.427-.0293.9908-.5391.9908h-53.433c-.4902,0-.8018.526-.5606.9576l23.5827,42.3743c3.6223,6.4866,10.4707,10.5085,17.9012,10.5085h52.7804c1.2476,0,2.0325-1.3415,1.4256-2.4295l-.0007-.0013Z" style="fill:#fff"/>
  <path d="M386.0821,377.1054l54.268-97.0575c4.4052-7.8887,12.7555-12.788,21.7914-12.788h49.924c1.2307,0,2.0058,1.3226,1.4047,2.3962l-28.0446,50.4051c-.3566.6395-1.0293,1.0364-1.7593,1.0364h-53.0282c-.7672,0-1.4823.3865-1.8975,1.0293l-1.5019,2.5781c-.2764.427.0274.9908.5371.9908h53.4329c.4922,0,.8018.526.5626.9576l-23.5827,42.3743c-3.6224,6.4866-10.4707,10.5085-17.9012,10.5085h-52.7804c-1.2496,0-2.0357-1.3415-1.4256-2.4295l.0006-.0013Z" style="fill:#fff"/>
</svg>
