<svg xmlns="http://www.w3.org/2000/svg" viewBox="0 0 108 108">
  <path d="M61.4621,60.1376l-7.0399-12.6333c-.1846-.3305-.6599-.3305-.8438,0l-7.0397,12.6333c-.0817.1461-.0817.3239,0,.4702l7.0397,12.6443c.1839.3305.6592.3305.8438,0l7.0399-12.6443c.0812-.1463.0812-.3242,0-.4702Z" style="fill:#fff"/>
  <path d="M46.1572,59.777l-12.4883-22.3343c-1.0132-1.8153-2.9351-2.9427-5.0145-2.9427h-11.4882c-.2827,0-.4611.3043-.3226.5514l6.4529,11.5989c.0819.1471.2369.2385.4046.2385h12.2033c.1761,0,.3405.089.4366.2368l.3455.5932c.0637.0982-.0068.228-.1241.228h-12.2957c-.1127,0-.1845.1211-.129.2203l5.4267,9.7509c.8335,1.4926,2.4094,2.4181,4.1193,2.4181h12.1456c.287,0,.4677-.3087.328-.5591Z" style="fill:#fff"/>
  <path d="M61.8427,59.777l12.4878-22.3343c1.0137-1.8153,2.9351-2.9427,5.0145-2.9427h11.4882c.2832,0,.4616.3043.3232.5514l-6.4534,11.5989c-.082.1471-.2369.2385-.4049.2385h-12.2025c-.1766,0-.3412.089-.4366.2368l-.3455.5932c-.0637.0982.0063.228.1236.228h12.2957c.1132,0,.1845.1211.1295.2203l-5.4267,9.7509c-.8335,1.4926-2.4094,2.4181-4.1193,2.4181h-12.1456c-.2875,0-.4684-.3087-.328-.5591Z" style="fill:#fff"/>
</svg>
