<svg xmlns="http://www.w3.org/2000/svg" viewBox="0 0 240 240">
  <path d="M119.7733,170.0489c-14.8711-.4533-26.4733-6.9333-34.7778-19.2133-3.0022-4.44-5.3467-9.2667-6.7778-14.4844-1.1822-4.3178-.26-8.0822,3.1178-11.04,5.3489-4.6844,13.6178-2.0156,15.5111,4.9933.78,2.8867,1.3867,5.82,2.7111,8.5222,4.6133,9.4222,11.8844,15.6244,22.3667,17.1844,11.7578,1.7511,21.1378-2.7444,28.16-12.1978,2.7622-3.7178,4.54-7.92,5.2556-12.5356.2222-1.4311,1.3556-2.5756,2.6867-2.8111,1.3244-.2333,2.6622.4,3.3845,1.6022.5689.9467.4289,1.98.2622,2.9689-2.9778,17.6556-15.3667,31.0355-30.6356,35.4044-3.6756,1.0489-7.4178,1.5911-11.2644,1.6066Z"/>
  <circle cx="86.4067" cy="96.5622" r="13.1244"/>
  <path d="M158.9067,106.8756h0c-2.4156,0-4.3756-1.9578-4.3756-4.3756v-14.8444c0-2.4156,1.9578-4.3756,4.3756-4.3756h0c2.4156,0,4.3756,1.9578,4.3756,4.3756v14.8444c0,2.4156-1.96,4.3756-4.3756,4.3756Z"/>
</svg>
