<svg xmlns="http://www.w3.org/2000/svg" viewBox="0 0 704 704">
  <path d="M351.335,498.8101c-43.6219-1.3297-77.655-20.3377-102.0149-56.359-8.8064-13.024-15.6837-27.1823-19.8816-42.4876-3.4678-12.6655-.7627-23.7078,9.1455-32.384,15.6901-13.7409,39.9455-5.9124,45.4992,14.647,2.288,8.4677,4.0677,17.072,7.9526,24.9985,13.5323,27.6384,34.8609,45.8316,65.609,50.4076,34.4895,5.1366,62.0042-8.0502,82.6027-35.7802,8.1025-10.9056,13.3173-23.232,15.4164-36.7711.6518-4.1979,3.9764-7.5551,7.881-8.2459,3.8849-.6844,7.8091,1.1733,9.9279,4.6998,1.6688,2.777,1.2581,5.808.7691,8.7088-8.7349,51.7897-45.0757,91.0375-89.8644,103.8529-10.7818,3.0768-21.7589,4.6672-33.0422,4.7127l-.0003.0006Z"/>
  <circle cx="253.4597" cy="283.2491" r="38.4982"/>
  <path d="M466.1263,313.5018h0c-7.0858,0-12.8351-5.7429-12.8351-12.8351v-43.5436c0-7.0858,5.7429-12.8351,12.8351-12.8351h0c7.0858,0,12.8351,5.7429,12.8351,12.8351v43.5436c0,7.0858-5.7494,12.8351-12.8351,12.8351Z"/>
</svg>
