<svg xmlns="http://www.w3.org/2000/svg" viewBox="0 0 240 820">
  <path d="M119.6622,485.0733c-22.3067-.68-39.7089-10.3978-52.1667-28.82-4.5044-6.66-8.0222-13.9-10.1644-21.7289-1.7733-6.4756-.3889-12.1244,4.6756-16.56,8.0222-7.0267,20.4267-3.0244,23.2667,7.4911,1.1689,4.3289,2.08,8.7289,4.0667,12.7822,6.92,14.1333,17.8267,23.4356,33.5489,25.7778,17.6356,2.6267,31.7067-4.1178,42.24-18.2978,4.1422-5.5778,6.8111-11.88,7.8822-18.8044.3333-2.1467,2.0333-3.8644,4.0311-4.2156,1.9889-.3489,3.9933.6,5.0755,2.4022.8533,1.42.6422,2.9711.3933,4.4533-4.4667,26.4822-23.0489,46.5533-45.9511,53.1067-5.5156,1.5778-11.1311,2.3889-16.8978,2.4133Z" style="fill:#fe8d00"/>
  <circle cx="69.6089" cy="374.8444" r="19.6867" style="fill:#fe8d00"/>
  <path d="M178.36,390.3133h0c-3.6244,0-6.5622-2.9378-6.5622-6.5622v-22.2667c0-3.6244,2.9378-6.5622,6.5622-6.5622h0c3.6244,0,6.5622,2.9378,6.5622,6.5622v22.2667c0,3.6222-2.9378,6.5622-6.5622,6.5622Z" style="fill:#fe8d00"/>
</svg>
