<?xml version="1.0" encoding="utf-8"?>
<!-- Generator: Adobe Illustrator 25.4.1, SVG Export Plug-In . SVG Version: 6.00 Build 0)  -->
<svg version="1.1" id="图层_1" xmlns="http://www.w3.org/2000/svg" xmlns:xlink="http://www.w3.org/1999/xlink" x="0px" y="0px"
	 viewBox="0 0 108 108" style="enable-background:new 0 0 108 108;" xml:space="preserve">
<style type="text/css">
	.st0{fill:#FFFFFF;}
</style>
<g>
	<path class="st0" d="M53.848,87.783c-10.038-0.306-17.869-4.679-23.475-12.969c-2.027-2.997-3.61-6.255-4.574-9.778
		c-0.798-2.914-0.175-5.456,2.104-7.452c3.61-3.162,9.192-1.361,10.47,3.371c0.526,1.948,0.936,3.928,1.83,5.752
		c3.114,6.36,8.022,10.546,15.097,11.6c7.936,1.182,14.268-1.853,19.008-8.234c1.864-2.51,3.065-5.346,3.547-8.462
		c0.15-0.966,0.915-1.739,1.814-1.897c0.895-0.157,1.797,0.27,2.284,1.081c0.384,0.639,0.289,1.337,0.177,2.004
		c-2.01,11.917-10.372,20.949-20.678,23.898C58.97,87.407,56.443,87.772,53.848,87.783z"/>
	<circle class="st0" cx="31.324" cy="38.18" r="8.859"/>
	<path class="st0" d="M80.262,45.141L80.262,45.141c-1.631,0-2.953-1.322-2.953-2.953v-10.02c0-1.631,1.322-2.953,2.953-2.953l0,0
		c1.631,0,2.953,1.322,2.953,2.953v10.02C83.215,43.818,81.893,45.141,80.262,45.141z"/>
</g>
</svg>
