<?xml version="1.0" encoding="utf-8"?>
<!-- Generator: Adobe Illustrator 25.4.1, SVG Export Plug-In . SVG Version: 6.00 Build 0)  -->
<svg version="1.1" id="图层_1" xmlns="http://www.w3.org/2000/svg" xmlns:xlink="http://www.w3.org/1999/xlink" x="0px" y="0px"
	 viewBox="0 0 108 108" style="enable-background:new 0 0 108 108;" xml:space="preserve">
<style type="text/css">
	.st0{fill:#FFFFFF;}
</style>
<g>
	<path class="st0" d="M53.898,76.522c-6.692-0.204-11.913-3.12-15.65-8.646c-1.351-1.998-2.406-4.17-3.05-6.518
		c-0.532-1.943-0.117-3.637,1.403-4.968c2.407-2.108,6.128-0.907,6.98,2.247c0.351,1.299,0.624,2.619,1.22,3.835
		c2.076,4.24,5.348,7.031,10.065,7.733c5.291,0.788,9.512-1.235,12.672-5.489c1.243-1.673,2.043-3.564,2.365-5.641
		c0.1-0.644,0.61-1.159,1.209-1.265c0.596-0.105,1.198,0.18,1.523,0.721c0.256,0.426,0.193,0.891,0.118,1.336
		c-1.34,7.945-6.915,13.966-13.786,15.932C57.313,76.271,55.629,76.515,53.898,76.522z"/>
	<circle class="st0" cx="38.883" cy="43.453" r="5.906"/>
	<path class="st0" d="M71.508,48.094L71.508,48.094c-1.087,0-1.969-0.881-1.969-1.969v-6.68c0-1.087,0.881-1.969,1.969-1.969l0,0
		c1.087,0,1.969,0.881,1.969,1.969v6.68C73.477,47.212,72.595,48.094,71.508,48.094z"/>
</g>
</svg>
