<?xml version="1.0" encoding="UTF-8"?>
<svg id="_图层_1" xmlns="http://www.w3.org/2000/svg" version="1.1" xmlns:xlink="http://www.w3.org/1999/xlink" viewBox="0 0 108 108">
  <!-- Generator: Adobe Illustrator 29.3.1, SVG Export Plug-In . SVG Version: 2.1.0 Build 151)  -->
  <defs>
    <linearGradient id="_未命名的渐变_14" data-name="未命名的渐变 14" x1="53.999" y1="18.134" x2="53.999" y2="98.292" gradientTransform="translate(0 110) scale(1 -1)" gradientUnits="userSpaceOnUse">
      <stop offset="0" stop-color="#3bb5e7"/>
      <stop offset=".25" stop-color="#41b5e2"/>
      <stop offset=".5" stop-color="#45b8e8"/>
      <stop offset=".75" stop-color="#47bbe8"/>
      <stop offset="1" stop-color="#4bbeeb"/>
    </linearGradient>
  </defs>
  <path d="M95.627,44.483c-.105-1.38-.226-2.758-.357-4.135-.067-.692-.138-1.38-.214-2.069l-.056-.514c-.012-.089-.018-.166-.032-.264l-.038-.294-.038-.291-.053-.291c-.035-.196-.067-.389-.114-.579-.656-3.085-2.341-5.917-4.687-7.953-1.172-1.021-2.502-1.855-3.932-2.443-.715-.297-1.453-.531-2.203-.707l-.284-.062-.565-.11-.287-.042c-.19-.027-.381-.056-.571-.071l-.287-.03-.144-.012-.126-.009c-2.701-.205-5.402-.356-8.103-.481-1.283-.056-2.566-.104-3.85-.145.167-.217.337-.428.504-.644.914-1.193,1.799-2.408,2.675-3.634l.647-.923.322-.463c.105-.154.214-.309.308-.475.185-.33.325-.695.407-1.101.079-.41.108-.855.006-1.401-.437-2.286-2.546-3.886-4.849-3.598-.539.068-.946.235-1.307.436-.354.208-.65.454-.899.736-.126.14-.237.294-.349.445l-.334.454-.662.914c-.873,1.223-1.737,2.455-2.566,3.711-.832,1.259-1.644,2.529-2.42,3.827-.299.502-.592,1.006-.882,1.514-.981-.009-1.963-.021-2.941-.024-3.196-.015-6.392-.003-9.589.036-.29-.514-.586-1.021-.888-1.526-.776-1.297-1.588-2.568-2.417-3.827-.832-1.256-1.696-2.488-2.569-3.711l-.662-.914-.334-.454c-.111-.151-.22-.306-.346-.445-.252-.282-.548-.528-.902-.736-.357-.202-.768-.368-1.307-.436-2.268-.279-4.409,1.277-4.849,3.598-.103.546-.073.992.006,1.401.082.407.223.772.407,1.101.094.166.202.321.308.475l.322.463.647.923c.876,1.226,1.761,2.44,2.678,3.634.17.223.346.442.519.665-1.77.059-3.536.125-5.306.211-1.351.068-2.701.14-4.052.226l-2.027.134-.504.036-.255.018-.284.027c-.381.033-.762.089-1.143.154-3.038.525-5.886,2.105-7.989,4.397-1.055,1.143-1.925,2.467-2.569,3.895-.645,1.431-1.058,2.969-1.228,4.53-.586,5.498-.97,11.017-1.125,16.551-.155,5.534-.079,11.082.264,16.616.085,1.383.187,2.767.311,4.15.059.692.123,1.383.193,2.072l.053.52.073.588c.059.392.126.784.217,1.17.691,3.102,2.402,5.958,4.799,7.992,1.195,1.024,2.552,1.85,4.008,2.434.727.291,1.477.525,2.238.695l.574.116.58.089c.193.027.387.045.58.068l.144.015.126.009.252.021c2.698.235,5.396.425,8.095.576,5.402.309,10.805.484,16.213.537,5.405.056,10.81-.03,16.213-.232,2.701-.104,5.402-.237,8.1-.404,1.351-.086,2.701-.175,4.049-.279l2.024-.157,1.011-.083.574-.062c.196-.021.387-.056.58-.083,3.085-.502,6.003-2.057,8.147-4.367,1.078-1.149,1.972-2.476,2.637-3.913.665-1.437,1.107-2.984,1.289-4.56.012-.101.021-.184.029-.273l.029-.258.053-.52.105-1.036c.064-.692.126-1.383.185-2.075.111-1.383.208-2.77.284-4.153.152-2.77.243-5.543.264-8.313.044-5.54-.141-11.073-.554-16.595v-.003ZM87.958,60.945c-.018,2.609-.103,5.308-.249,8.028-.073,1.325-.164,2.669-.27,3.979-.056.657-.111,1.316-.173,1.976l-.1,1-.085.822-.018.145c-.076.666-.27,1.353-.557,1.988-.287.63-.674,1.211-1.145,1.72l-.023.024c-.888.97-2.136,1.651-3.434,1.874-.067.012-.249.042-.249.042l-.41.042-.902.075-2.004.163c-1.333.102-2.727.193-3.935.271-2.599.163-5.259.298-7.89.398-4.33.166-8.601.25-12.691.25-1.046,0-2.092-.006-3.135-.018-5.332-.054-10.658-.232-15.835-.53-2.648-.154-5.291-.343-7.86-.569l-.375-.033-.296-.033-.287-.045-.302-.06c-.311-.075-.615-.172-.911-.292-.633-.259-1.219-.621-1.737-1.072-1.031-.889-1.778-2.151-2.068-3.479l-.015-.057c-.023-.105-.05-.256-.079-.44l-.047-.377-.041-.422c-.067-.663-.126-1.325-.185-1.985-.111-1.295-.208-2.639-.293-3.994-.316-5.178-.401-10.588-.249-16.083.144-5.263.507-10.685,1.078-16.113.073-.672.255-1.353.527-1.964.272-.618.647-1.193,1.084-1.675.902-1,2.127-1.687,3.378-1.907.19-.033.349-.054.451-.063l.264-.024.653-.048,2.004-.136c1.33-.087,2.722-.16,3.92-.22,2.534-.124,5.197-.223,7.901-.295,4.043-.111,8.311-.166,13.066-.166.958,0,1.916,0,2.874.006,5.695.027,10.887.148,15.87.371,2.851.13,5.423.286,7.854.47l.111.009.293.03.278.042.261.048.105.027c.319.072.633.178.937.304.592.247,1.169.612,1.673,1.057,1.002.886,1.726,2.124,1.995,3.407l.029.139.05.283.05.361.015.154.053.479c.07.651.138,1.313.202,1.979.123,1.301.237,2.654.34,4.021.393,5.32.571,10.745.53,16.116h.004ZM65.408,60.073l.261.031c.741.144,1.273.75,1.128,1.497h0l-.034.178-.034.157-.071.301c-.049.2-.101.397-.157.59-.114.394-.243.778-.387,1.162-.298.765-.664,1.522-1.15,2.247-.486.726-1.104,1.423-1.918,1.977-.406.271-.861.504-1.343.661-.483.16-.993.249-1.491.264-.975.031-1.955-.191-2.81-.606-.858-.412-1.586-.984-2.183-1.62-.495-.529-.913-1.094-1.279-1.679-.369.584-.787,1.15-1.282,1.679-.596.636-1.325,1.208-2.183,1.62-.855.415-1.835.636-2.807.606-.501-.015-1.011-.105-1.494-.264-.483-.157-.938-.39-1.343-.661-.815-.553-1.436-1.251-1.918-1.977-.483-.726-.852-1.482-1.15-2.247-.144-.384-.274-.769-.387-1.162-.055-.194-.108-.39-.157-.59h0l-.071-.301-.034-.157-.034-.178c-.144-.747.387-1.353,1.131-1.497.698-.138,1.331.169,1.525.845h0l.037.123.058.206.148.47h0l.08.234c.111.314.231.621.366.919.261.599.563,1.168.916,1.651.354.483.735.892,1.144,1.156.406.264.818.394,1.276.403.489.015.974-.08,1.439-.295.467-.215.913-.559,1.34-.975.427-.418.815-.922,1.162-1.466.175-.271.341-.553.495-.842.077-.144.151-.292.218-.437h0l.105-.218.086-.188.055-.123c.231-.516.741-.818,1.27-.809h0c.544-.009,1.054.292,1.285.809h0l.055.123.086.188.105.218c.068.144.141.292.218.437.154.289.32.572.498.842.344.544.735,1.048,1.159,1.466.427.415.873.759,1.34.975.464.215.953.31,1.439.295.461-.009.87-.138,1.279-.403.406-.264.79-.673,1.144-1.156.35-.483.652-1.051.913-1.651.135-.298.258-.606.366-.919.055-.157.108-.314.157-.47l.071-.234.058-.206.037-.123c.194-.676.827-.984,1.528-.845,0,0-.261-.031-.261-.031ZM61.793,47.204c.425-1.497,1.629-2.508,3.117-2.077.688.199,1.38.398,2.06.618h0l1.025.325,1.014.343c1.351.463,2.689.949,4.017,1.465.665.252,1.324.521,1.98.785.659.27,1.318.536,1.969.82.653.281,1.298.58,1.939.891.319.158.639.319.955.486.319.167.627.337.952.527,1.137.668,1.327,1.896.905,3.205-.486,1.515-2.054,2.842-3.557,2.353h0l-.064-.023c-.308-.1-.636-.22-.955-.337-.322-.12-.645-.24-.964-.366l-.478-.19h0l-.958-.387h0l-.475-.199c-.636-.264-1.266-.539-1.901-.803h0l-1.901-.794c-1.271-.524-2.543-1.037-3.814-1.544h0l-1.91-.75c-.636-.252-1.274-.48-1.91-.735h0l-.076-.029c-1.318-.53-1.371-2.18-.97-3.583h0ZM43.084,45.021c1.488-.431,2.692.58,3.12,2.077.401,1.403.349,3.053-.973,3.583h0l-.076.032c-.633.252-1.274.48-1.91.732h0l-1.907.75c-1.271.507-2.546,1.02-3.814,1.544h0l-1.904.794c-.636.264-1.266.539-1.901.803-.316.135-.633.267-.952.393-.316.132-.639.258-.958.384s-.642.246-.961.366c-.319.117-.65.237-.958.337h0l-.064.023c-1.503.489-3.07-.838-3.557-2.353-.422-1.31-.231-2.537.905-3.205.328-.19.636-.36.955-.527.316-.167.633-.328.955-.486.639-.311,1.283-.609,1.936-.891.65-.284,1.31-.551,1.969-.82.659-.264,1.318-.533,1.983-.785,1.324-.516,2.663-1.002,4.014-1.465h0l1.017-.343,1.022-.325c.68-.22,1.371-.419,2.06-.618h-.001Z" fill="url(#_未命名的渐变_14)" fill-rule="evenodd"/>
  <path d="M98.293,66.389v5.012c.039.235-.078.352-.313.314h-.94c-.666,0-1.331.039-1.997.078-.352.039-.392.039-.431-.392l-.626-7.047-.313-3.484-.47-5.325c-.039-.431.039-.509.391-.548,1.097-.117,2.193-.117,3.289-.078l.822.117c.314.117.352.157.352.47l.117,2.114.039,2.349c.039,2.153.078,4.267.078,6.421h.002ZM97.98,49.828v2.701c.039.431-.039.431-.392.431-.509,0-.979-.039-1.449-.078-.313-.039-.352-.039-.313-.352l-.117-3.328c0-.744,0-1.488-.039-2.232-.039-.352,0-.392.352-.392.548,0,1.096.039,1.645.117.313,0,.313.079.313.392v2.741h0ZM95.004,50.845c0,.626-.039,1.214-.078,1.762,0,.196-.079.274-.274.314l-1.214.117c-.196.039-.274-.079-.274-.274-.078-.587-.117-1.135-.156-1.723-.079-1.057-.157-2.153-.196-3.249l-.078-.783c-.039-.157.039-.235.196-.235l1.605-.117c.274,0,.352.039.352.352l.117,3.837h0ZM88.149,38.473h.705c.352,0,.431.117.431.47l.314,4.738.705,9.827.431,5.129.313,3.955.627,6.812c0,.313-.039.352-.352.352l-2.819-.117c-.196.039-.313-.078-.313-.274l-.117-1.37c-.117-1.174-.235-2.349-.313-3.563l-.627-6.186-.666-5.599-.47-3.954-.509-3.602c-.235-1.605-.509-3.249-.783-4.855l-.196-1.096c-.039-.196,0-.274.196-.314,1.096-.196,2.153-.391,3.445-.352h-.002ZM82.809,54.568c1.057-.039,1.175.078,1.292,1.057.274,1.605.47,3.171.627,4.777l.509,4.698.313,3.172.274,2.545c0,.352-.039.431-.352.47l-2.897.274c-.314.039-.392,0-.431-.313l-2.388-12.294-.626-3.484c-.039-.196.039-.313.235-.352,1.214-.274,2.349-.47,3.445-.548h0v-.002ZM81.83,46.228c.313,0,.627.039.9.078.157.039.235.117.274.314l.156,1.37.392,4.267c.039.313.039.352-.274.352l-1.527.078c-.313.039-.352,0-.392-.313l-.352-3.132-.313-2.623c-.039-.196.039-.314.235-.314.274-.039.587-.078.9-.078h0ZM80.617,52.297c.039.47,0,.548-.47.587l-.94.235c-.313.117-.352.039-.391-.235l-.979-5.521c-.117-.352-.039-.431.313-.47l1.37-.235c.314-.039.392-.039.392.274.117.666.235,1.331.313,1.997l.392,3.132v.235h0ZM78.668,63.464c-.196-.235-.391-.431-.666-.626-.705-.548-1.449-1.018-2.271-1.41-1.683-.744-3.367-1.331-5.129-1.762-1.997-.509-4.072-.744-6.147-.744-.666,0-1.292.039-1.958.157-.352.039-.391.039-.391-.274-.314-3.093-.627-6.225-.822-9.358-.117-1.997-.235-4.032-.274-6.029-.039-2.31-.039-4.581,0-6.852l.039-.509c.039-.666.039-1.292.039-1.918.039-.235-.078-.314-.313-.274-.352.078-.666.196-1.018.352l-5.442,2.271c-.196.039-.235.196-.196.392.352,1.605.626,3.21.9,4.815.352,1.997.705,3.994.979,5.991l.509,3.641.47,3.798.822,7.126.744,7.478.274,3.798c.039.313.117.391.431.391h1.174c.548,0,1.097,0,1.645-.039,1.762-.117,3.524-.352,5.285-.705,2.467-.431,4.777-1.253,7.009-2.428,1.292-.666,2.466-1.527,3.484-2.584.627-.627,1.057-1.37,1.292-2.232.274-.9.157-1.722-.47-2.466h0ZM69.193,67.85c-1.409,1.096-2.427,1.801-3.015,2.153l-.94-6.93c2.271.744,4.463,1.566,6.578,2.506-.352.391-1.214,1.135-2.623,2.271ZM52.625,66.389v5.012c.039.235-.078.352-.313.314h-.94c-.666,0-1.331.039-1.997.078-.352.039-.392.039-.431-.392l-.626-7.047-.313-3.484-.47-5.325c-.039-.431.039-.509.391-.548,1.097-.117,2.193-.117,3.289-.078l.822.117c.314.117.352.157.352.47l.117,2.114.039,2.349c.039,2.153.078,4.267.078,6.421h.002ZM52.312,49.828v2.701c.039.431-.039.431-.392.431-.509,0-.979-.039-1.449-.078-.313-.039-.352-.039-.313-.352l-.117-3.328c0-.744,0-1.488-.039-2.232-.039-.352,0-.392.352-.392.548,0,1.096.039,1.645.117.313,0,.313.079.313.392v2.741h0ZM49.336,50.845c0,.626-.039,1.214-.078,1.762,0,.196-.079.274-.274.314l-1.214.117c-.196.039-.274-.079-.274-.274-.078-.587-.117-1.135-.156-1.723-.079-1.057-.157-2.153-.196-3.249l-.078-.783c-.039-.157.039-.235.196-.235l1.605-.117c.274,0,.352.039.352.352l.117,3.837h0ZM42.481,38.473h.705c.352,0,.431.117.431.47l.314,4.738.705,9.827.431,5.129.313,3.955.627,6.812c0,.313-.039.352-.352.352l-2.819-.117c-.196.039-.313-.078-.313-.274l-.117-1.37c-.117-1.174-.235-2.349-.313-3.563l-.627-6.186-.666-5.599-.47-3.954-.509-3.602c-.235-1.605-.509-3.249-.783-4.855l-.196-1.096c-.039-.196,0-.274.196-.314,1.096-.196,2.153-.391,3.445-.352h-.002ZM37.141,54.568c1.057-.039,1.175.078,1.292,1.057.274,1.605.47,3.171.627,4.777l.509,4.698.313,3.172.274,2.545c0,.352-.039.431-.352.47l-2.897.274c-.314.039-.392,0-.431-.313l-2.388-12.294-.626-3.484c-.039-.196.039-.313.235-.352,1.214-.274,2.349-.47,3.445-.548h0v-.002ZM36.162,46.228c.313,0,.627.039.9.078.157.039.235.117.274.314l.156,1.37.392,4.267c.039.313.039.352-.274.352l-1.527.078c-.313.039-.352,0-.392-.313l-.352-3.132-.313-2.623c-.039-.196.039-.314.235-.314.274-.039.587-.078.9-.078h0ZM34.949,52.297c.039.47,0,.548-.47.587l-.94.235c-.313.117-.352.039-.391-.235l-.979-5.521c-.117-.352-.039-.431.313-.47l1.37-.235c.314-.039.392-.039.392.274.117.666.235,1.331.313,1.997l.392,3.132v.235h0ZM33,63.464c-.196-.235-.391-.431-.666-.626-.705-.548-1.449-1.018-2.271-1.41-1.683-.744-3.367-1.331-5.129-1.762-1.997-.509-4.072-.744-6.147-.744-.666,0-1.292.039-1.958.157-.352.039-.391.039-.391-.274-.314-3.093-.627-6.225-.822-9.358-.117-1.997-.235-4.032-.274-6.029-.039-2.31-.039-4.581,0-6.852l.039-.509c.039-.666.039-1.292.039-1.918.039-.235-.078-.314-.313-.274-.352.078-.666.196-1.018.352l-5.442,2.271c-.196.039-.235.196-.196.392.352,1.605.626,3.21.9,4.815.352,1.997.705,3.994.979,5.991l.509,3.641.47,3.798.822,7.126.744,7.478.274,3.798c.039.313.117.391.431.391h1.174c.548,0,1.097,0,1.645-.039,1.762-.117,3.524-.352,5.285-.705,2.467-.431,4.777-1.253,7.009-2.428,1.292-.666,2.466-1.527,3.484-2.584.627-.627,1.057-1.37,1.292-2.232.274-.9.157-1.722-.47-2.466h.001ZM23.525,67.85c-1.409,1.096-2.427,1.801-3.015,2.153l-.94-6.93c2.271.744,4.463,1.566,6.578,2.506-.352.391-1.214,1.135-2.623,2.271Z" fill="#fff"/>
</svg>