<?xml version="1.0" encoding="UTF-8"?>
<svg id="_图层_1" data-name="图层_1" xmlns="http://www.w3.org/2000/svg" version="1.1" viewBox="0 0 108 108">
  <!-- Generator: Adobe Illustrator 29.3.1, SVG Export Plug-In . SVG Version: 2.1.0 Build 151)  -->
  <defs>
    <style>
      .st0 {
        fill: #fff;
      }
    </style>
  </defs>
  <path class="st0" d="M80.508,74.953c-6.496-1.882-15.742-3.817-26.93-3.797-11.018.02-20.136,1.931-26.578,3.797,6.009-2.046,15.199-4.406,26.578-4.43,11.555-.024,20.877,2.369,26.93,4.43Z"/>
  <g id="_安全·畅通" data-name="安全·畅通">
    <path class="st0" d="M69.101,60.559c.005-.077.029-.153.07-.219.013-.02.028-.057.054-.06.035-.005.076.026.101.047.066.056.112.131.164.2s.113.136.194.166c.044.016.092.021.138.033.056.015.108.041.159.068.073.039.145.08.215.124.034.021.068.043.094.073.049.059.058.141.063.218.005.08,0,.173-.064.22-.047.034-.11.031-.168.034-.077.004-.154.022-.225.052-.053.022-.103.051-.157.07s-.115.027-.168.006c-.018-.007-.036-.018-.047-.034-.009-.013-.014-.029-.018-.044-.017-.068-.027-.139-.049-.205-.077-.226-.295-.388-.346-.621-.009-.042-.012-.085-.009-.128ZM78.062,66.54c-.017.034-.054.052-.088.068-.411.189-.821.379-1.232.568-.167.077-.335.154-.51.211-.667.215-1.397.115-2.068-.087-.671-.202-1.31-.502-1.983-.695-1.108-.317-2.294-.335-3.425-.111-.105.021-.217.043-.318.006s-.177-.161-.125-.254c.028-.049.082-.077.133-.1.366-.163.769-.24,1.169-.224.099.004.21.009.281-.06.09-.089.057-.238.021-.36-.167-.574-.218-1.182-.15-1.776.029-.25.077-.512-.012-.747-.369.004-.737.104-1.056.289-.125.072-.265.171-.417.135-.126-.03-.17-.121-.137-.241.073-.265.332-.49.602-.523.215-.026.438.049.646-.009.357-.099.572-.559.943-.547.246.008.446.28.379.517-.035.125-.126.224-.197.333-.203.314-.232.707-.255,1.08-.017.272-.033.548.016.816.049.268.172.533.388.7.146.113.325.175.501.235.266.091.532.182.8.27.002-.035.006-.069.01-.103.059-.4.112-.802.148-1.204.053-.584.07-1.169.089-1.755.006-.21.012-.42.019-.63,0-.015.014-.027.029-.025.183.018.369.033.546-.017.162-.046.305-.143.45-.231.069-.041.139-.08.21-.117-.146-.054-.292-.108-.439-.162-.1-.037-.207-.079-.268-.166-.03-.043-.047-.096-.036-.147.023-.113.16-.161.276-.161.116,0,.238.026.342-.025.055-.027.098-.072.139-.117.184-.206.34-.438.462-.686.03-.06.056-.137.015-.191-.043-.056-.129-.047-.198-.031-.632.145-1.247.358-1.833.636-.109.052-.237.106-.344.05-.089-.047-.128-.159-.114-.258.014-.099.071-.187.133-.266.068-.086.176-.236.284-.27.128-.04.276.057.4.077.069.011.14.006.21-.005.208-.031.407-.106.603-.18.243-.092.487-.185.718-.306.175-.092.348-.204.452-.373.065-.105.113-.24.23-.278.072-.023.149-.003.221.022.208.071.407.171.589.295.084.058.169.127.199.225.046.15-.056.31-.186.398s-.286.128-.425.202c-.232.123-.404.331-.569.534-.107.131-.213.262-.32.393-.078.095-.156.193-.202.307-.044.111-.055.233-.058.353.232-.098.472-.175.718-.228.177-.038.361-.063.539-.033.179.03.354.123.448.278.103.171.095.383.096.582.002,1.159.404,2.318.197,3.459-.025.135-.06.274-.141.385-.082.111-.219.191-.355.168-.155-.026-.258-.167-.359-.287-.147-.175-.322-.327-.516-.449-.008-.005-.013-.014-.012-.023.002-.03.004-.06.007-.09,0-.012.01-.022.021-.024.265-.055.518.211.788.191.014-.001.024-.014.024-.028-.016-.483-.049-.965-.088-1.447-.014.007-.029.014-.043.019-.287.111-.609.099-.902.196-.033.011-.066.024-.098.037-.005.188-.01.375-.018.563-.007.162-.015.326-.066.48-.051.154-.15.299-.296.368-.072.035-.177.04-.216-.029-.016-.029-.017-.063-.017-.096-.001-.129-.003-.258-.004-.387-.002-.207-.004-.415-.006-.622-.059.028-.117.059-.172.093-.085.052-.164.111-.248.164-.096.06-.202.112-.315.116-.053.002-.107-.009-.155-.031-.017.232-.039.464-.072.7-.015.114-.037.233-.103.325.999.317,2.013.581,3.055.657.423.031.856.03,1.259-.101.391-.126.759-.373,1.17-.362.105.003.242.082.195.175ZM74.118,62.137c-.021.008-.042.017-.064.025.011.071,0,.164.002.223.005.117.009.233.012.35.054-.015.109-.024.165-.029.091-.008.185-.005.268.034.082.039.149.122.147.213-.002.085-.062.16-.134.206-.072.045-.156.067-.238.093-.066.021-.131.047-.195.074.003.228.003.456.001.685.166-.041.336-.064.506-.086.097-.013.195-.026.292-.016.074.007.149.029.211.07-.023-.269-.048-.538-.073-.806-.024-.257-.047-.515-.107-.766-.044-.186-.159-.338-.363-.358-.147-.014-.292.037-.43.089ZM72.618,64.162c-.011.184-.02.365-.031.546.017-.002.034-.004.05-.006.098-.015.16-.07.246-.117.187-.103.375-.203.563-.303,0-.218,0-.436.002-.654-.075.026-.151.05-.222.086-.082.042-.16.1-.251.109-.091.009-.27-.072-.247-.188.01-.054.078-.088.117-.119.055-.043.102-.095.157-.139.054-.044.119-.073.181-.104.094-.046.185-.098.273-.155.002-.098.003-.196.006-.294.004-.135.007-.278-.058-.395-.149.066-.298.136-.436.223-.06.038-.112.079-.158.133-.006.007-.011.015-.016.023,0,0,0,0,0,0,0,0-.001.001-.001.003-.002.004-.004.006-.006.01-.002.003-.004.006-.005.009-.022.049-.028.107-.037.159-.067.378-.105.805-.128,1.173Z"/>
    <path class="st0" d="M61.936,60.687c-.103-.111-.243-.18-.379-.247-.125-.061-.292-.117-.391-.019-.048.048-.063.12-.091.182-.114.253-.428.33-.698.393-.034.008-.069.017-.103.026,0-.102,0-.204,0-.306,0-.341.002-.686.08-1.019.035-.15.084-.312.023-.453-.118-.273-1.058-.49-1.01-.071.024.215.235.41.311.609.108.284.104.595.101.895l-.006.506c-.012.005-.024.009-.036.014-.232.099-.449.23-.683.323-.234.093-.495.146-.739.081-.093-.025-.18-.066-.274-.087-.115-.027-.255-.019-.33.084-.068.093-.05.177.023.255.191.204.319.405.424.667.152.38.276.774.331,1.18.025.188.034.388-.046.561-.041.088-.106.178-.087.273.015.075.083.132.157.152s.153.01.227-.009c.277-.071.51-.253.761-.389.077-.042.156-.078.235-.113-.002.192-.004.385-.007.577-.004.347-.008.695-.036,1.041-.028.341-.079.68-.123,1.02-.024.191-.044.394.039.568.083.174.31.293.475.193.153-.092.171-.303.171-.481l.009-3.125c.137-.05.276-.095.419-.122.146-.028.295-.036.436-.082.141-.045.277-.136.331-.275.016-.041.024-.087.012-.129-.01-.034-.031-.064-.048-.095-.101-.187-.033-.416.034-.618.097-.294.186-.592.239-.898.016-.093.03-.189.075-.272.076-.138.231-.226.284-.374.051-.143-.01-.306-.113-.417ZM59.286,63.795c-.034.008-.072.014-.1-.006-.026-.019-.034-.054-.04-.086-.016-.09-.032-.179-.048-.269-.038-.216-.077-.434-.159-.637-.066-.164-.175-.339-.168-.522.005-.133.114-.188.215-.253.248-.16.512-.291.783-.406-.003.28-.007.56-.01.839-.121.06-.244.117-.369.164-.103.039-.384.265-.233.385.02.016.047.02.073.022.175.016.351.005.523-.031l-.008.659c-.151.054-.304.104-.46.14ZM61.126,61.584c-.153.44-.168.913-.241,1.373-.019.12-.046.247-.134.331-.078.073-.188.098-.291.126-.064.017-.128.037-.192.057,0-.223.001-.445.002-.668.019-.01.038-.02.056-.031.099-.061.196-.137.244-.244.047-.107.028-.25-.07-.314-.059-.039-.137-.042-.206-.025-.008.002-.015.005-.023.007,0-.258.001-.516.002-.774.113-.041.227-.081.341-.121.104-.037.209-.073.318-.092.073-.012.159-.012.208.043.027.03.037.072.038.113.001.076-.028.148-.053.219ZM66.709,64.435c-.374.916-.964,1.738-1.685,2.415-.338.318-.725.614-1.181.702s-.991-.093-1.185-.515c-.05-.108-.075-.228-.061-.346.34.24.733.492,1.141.408.183-.038.346-.141.497-.25.728-.526,1.311-1.249,1.672-2.071.157-.358.273-.766.148-1.137-.038-.114-.107-.228-.219-.271-.063-.024-.132-.024-.2-.022-.099.002-.197.006-.296.01-.067.056-.141.104-.209.16-.305.247-.475.619-.681.954-.11.178-.233.349-.367.51-.52.624-1.21,1.094-1.955,1.417-.046.02-.095.04-.146.036-.05-.004-.102-.039-.107-.09-.003-.036.018-.07.039-.099.205-.282.518-.461.801-.666.443-.32.829-.718,1.136-1.17.106-.156.202-.318.292-.484.07-.128.136-.26.179-.4.008-.027.013-.059.017-.092-.282.03-.563.068-.843.114-.002.037-.017.074-.034.109-.201.423-.45.825-.765,1.171-.316.346-.7.633-1.134.807-.065.026-.134.05-.204.045-.07-.005-.142-.046-.164-.112-.02-.064.01-.134.056-.182.047-.047.108-.077.167-.109.219-.118.416-.273.611-.427.086-.068.174-.137.244-.222.092-.109.152-.241.212-.37.045-.098.09-.196.135-.293.041-.089.073-.176.083-.272-.227.036-.445.052-.683.046-.09-.002-.176.053-.249-.024-.095-.1-.009-.237.054-.328.599-.858,1.198-1.717,1.798-2.575-.422.074-.881.113-1.257-.093-.037-.021-.075-.046-.093-.084-.051-.111.094-.209.211-.242.484-.136,1.008-.165,1.442-.417.144-.083.278-.191.44-.228.178-.041.365.01.532.083.061.027.122.057.167.106.115.124.091.331-.006.469-.097.139-.248.228-.39.319-.859.547-1.576,1.316-2.061,2.212-.026.047-.052.099-.046.152.008.08.086.137.165.15.079.013.159-.009.236-.03.801-.218,1.621-.363,2.448-.435.235-.02.473-.035.704.01.231.045.458.154.601.341.278.365.164.888-.009,1.313Z"/>
    <circle class="st0" cx="53.965" cy="63.527" r=".809"/>
    <path class="st0" d="M44.071,59.895c.061-.19.097-.392.079-.592-.012-.137-.17-.412-.109-.535.125-.253.678.205.765.315.154.195.197.503.025.683-.072.076-.185.155-.15.254.016.044.058.072.098.097.885.564,1.577,1.376,2.349,2.085s1.694,1.346,2.74,1.419c.195.014.401.01.571.108s.271.345.142.493c-.052.059-.129.09-.205.113-.622.191-1.31.033-1.88-.282s-1.043-.775-1.51-1.229c-.665-.648-1.331-1.297-1.996-1.945-.132-.128-.298-.267-.478-.225-.144.034-.234.174-.31.301-.827,1.373-1.874,2.62-3.123,3.625-.219.176-.512.352-.762.224,1.398-1.201,2.579-2.655,3.467-4.271.112-.205.217-.416.288-.638ZM47.643,66.718c-.035-.097-.116-.169-.202-.226-.167-.111-.361-.181-.561-.2-.232-.023-.464.023-.695.052-.35.045-.704.056-1.053.099.015-.396.019-.792.014-1.188.208-.039.42-.06.632-.06.098,0,.201.002.285-.049.122-.075.158-.237.155-.38-.001-.057-.008-.117-.041-.164-.069-.099-.216-.096-.333-.067-.182.045-.354.127-.534.176-.058.015-.117.027-.176.038-.002-.056-.003-.113-.005-.169-.008-.186-.018-.373-.004-.559.018-.247.077-.494.064-.741.001,0,.002,0,.003,0,.214-.057.447-.062.639-.172.06-.034.115-.08.147-.142.023-.043.032-.092.039-.14.012-.07.021-.14.012-.21-.009-.07-.039-.139-.096-.182-.074-.056-.179-.056-.266-.027-.089.03-.165.084-.246.131-.195.114-.413.182-.629.25-.176.056-.353.111-.529.166-.111.035-.222.07-.335.096-.231.055-.483.08-.668.229-.028.023-.056.051-.066.085-.011.039,0,.082.013.12.022.065.053.136.117.163.039.016.082.012.124.008.117-.011.234-.022.351-.032.104-.01.208-.02.312-.029.085-.008.172-.006.25-.04.007-.003.014-.005.02-.008.029.048.062.097.075.146.043.155.057.316.07.476.019.243.031.487.038.731-.285.112-.557.265-.85.357-.09.028-.19.038-.278.071-.081.032-.153.101-.198.174-.014.023-.025.055-.008.076.008.01.02.015.033.019.068.024.137.046.206.068.091.027.184.053.28.053.184,0,.353-.096.519-.177.099-.048.201-.09.305-.129,0,.381-.015.762-.042,1.142-.082.02-.163.041-.244.064-.383.108-.758.24-1.142.345-.096.026-.192.051-.29.072-.083.019-.177.052-.264.039-.06-.009-.103-.032-.158.01-.058.045-.089.131-.059.2.044.103.165.15.276.157.196.012.383-.07.568-.137.761-.275,1.586-.307,2.394-.335.243-.008.489-.017.73.017.195.028.386.083.565.164.138.063.287.141.432.101.056-.015.106-.049.15-.086.127-.11.212-.289.155-.447Z"/>
    <path class="st0" d="M34.875,59.676v.166c0,.04-.02.077-.053.099l-.133.089c-.016.011-.035.017-.055.017h-.506c-.017,0-.034-.004-.05-.012l-.082-.041c-.022-.011-.04-.03-.051-.053l-.347-.758c-.014-.031-.01-.068.01-.095l.049-.066c.014-.019.037-.031.061-.031h.134c.025,0,.05.007.071.021l.909.584c.027.017.043.047.043.078ZM31.482,62.434c-.047.12-.094.247-.073.374s.138.248.264.223c.011-.002.023-.006.032-.012.021-.014.03-.04.038-.065.135-.406.441-.739.794-.982s.754-.405,1.153-.56c.228-.089.457-.177.687-.264.392-.148.79-.293,1.205-.35s.855-.021,1.224.178c.012.007.025.015.029.028.005.017-.007.035-.019.048-.179.208-.389.39-.62.539-.039.025-.083.055-.092.1-.015.08.083.132.164.141.461.048.824-.405,1.278-.499.054-.011.11-.017.158-.043.09-.046.138-.152.137-.253s-.043-.198-.097-.283c-.205-.323-.578-.513-.956-.569s-.765.007-1.136.099c-.233.058-.463.127-.689.207-.882.312-1.718.796-2.647.914.002,0-.095-.154-.107-.167-.032-.037-.099-.117-.151-.124-.114-.015-.171.271-.202.352l-.376.967ZM39.395,63.022c-.01.155-.122.297-.27.345-.204.067-.419-.037-.626-.095-.431-.121-.89-.045-1.328.049-.21.045-.418.093-.626.146-.117.029-.239.062-.33.142-.099.086-.148.213-.201.333-.25.569-.641,1.062-1.029,1.547.852.288,1.705.577,2.557.865.067.023.138.048.183.102.054.064.06.154.063.238.006.154.011.308.014.462.004.181-.012.396-.167.492-.11.068-.257.046-.369-.018-.112-.064-.198-.165-.286-.26-.58-.63-1.33-1.104-2.148-1.357-.081-.025-.168-.048-.248-.02-.066.022-.115.075-.163.125-.502.524-1.112.945-1.78,1.229-.274.116-.565.211-.862.201-.106-.004-.241-.057-.229-.162.988-.356,1.883-.967,2.575-1.757-.405-.282-.886-.455-1.379-.495-.053-.004-.109-.009-.15-.042-.092-.076-.034-.224.029-.325-.243-.128-.524.049-.765.179-.586.315-1.308.362-1.93.127-.061-.023-.223-.106-.16-.201.034-.05.18-.02.233-.021.242-.006.483-.032.722-.072.476-.08.94-.215,1.397-.369.254-.086.506-.177.758-.269.203-.074.409-.15.575-.288.365-.304.448-.847.337-1.309-.014-.057-.03-.116-.019-.173.035-.19.305-.21.487-.143.259.095.512.323.48.597-.032.283-.346.463-.4.743.248-.053.494-.118.736-.194.1-.032.207-.071.263-.16.043-.069.049-.157.095-.223.069-.098.207-.119.324-.099.118.02.229.071.347.087.151.02.304-.019.452-.054.763-.183,1.545-.284,2.33-.3.094-.002.191-.002.278.033.144.058.24.214.231.369ZM35.283,63.792c-.011-.009-.026-.011-.04-.012-.107-.008-.212.032-.312.072-.191.076-.382.152-.581.205-.084.022-.17.04-.252.069-.188.067-.351.196-.464.36-.049.072-.113.153-.045.229.071.08.2.138.296.182.078.036.16.065.233.108.093.055.172.132.268.182.054.028.123.045.174.012.034-.022.052-.062.069-.1.196-.424.553-.773.666-1.226.007-.028.011-.063-.012-.081Z"/>
  </g>
  <g id="_x31_2123">
    <path class="st0" d="M70.945,40.992v2.531h7.875c.233,0,.422.189.422.422v1.617c0,.233-.189.422-.422.422h-7.875v2.953h7.875c.233,0,.422.189.422.422v1.617c0,.233-.189.422-.422.422h-7.875v2.531h9.984c1.01,0,1.828-.818,1.828-1.828v-9.281c0-1.01-.818-1.828-1.828-1.828h-9.984Z"/>
    <path class="st0" d="M55.969,40.992v2.531h8.578c.116,0,.211.094.211.211v1.88c0,.1-.07.186-.167.206l-7.397,1.572c-.714.152-1.225.783-1.225,1.513v5.024h12.234v-2.531h-8.648v-1.642l7.381-1.636c.74-.164,1.267-.821,1.267-1.579v-3.721c0-1.01-.818-1.828-1.828-1.828h-10.406Z"/>
    <polygon class="st0" points="47.883 44.648 48.938 44.648 48.938 53.93 52.523 53.93 52.523 40.992 51.117 40.992 47.883 42.398 47.883 44.648"/>
    <path class="st0" d="M33.117,40.992v2.531h8.578c.116,0,.211.094.211.211v1.88c0,.1-.07.186-.167.206l-7.397,1.572c-.714.152-1.225.783-1.225,1.513v5.024h12.234v-2.531h-8.648v-1.642l7.381-1.636c.74-.164,1.267-.821,1.267-1.579v-3.721c0-1.01-.818-1.828-1.828-1.828h-10.406Z"/>
    <polygon class="st0" points="25.031 44.648 26.086 44.648 26.086 53.93 29.672 53.93 29.672 40.992 28.266 40.992 25.031 42.398 25.031 44.648"/>
  </g>
</svg>