<?xml version="1.0" encoding="UTF-8"?>
<svg id="_图层_1" xmlns="http://www.w3.org/2000/svg" version="1.1" viewBox="0 0 108 108">
  <!-- Generator: Adobe Illustrator 29.3.1, SVG Export Plug-In . SVG Version: 2.1.0 Build 151)  -->
  <defs>
    <style>
      .st0 {
        fill: #fff;
      }
    </style>
  </defs>
  <path class="st0" d="M80.5,75c-6.5-1.9-15.7-3.8-26.9-3.8-11,0-20.1,1.9-26.6,3.8,6-2,15.2-4.4,26.6-4.4,11.5,0,20.9,2.4,26.9,4.4Z"/>
  <g id="_安全·畅通">
    <path class="st0" d="M69.1,60.6c0,0,0-.2,0-.2,0,0,0,0,0,0,0,0,0,0,.1,0,0,0,.1.1.2.2s.1.1.2.2c0,0,0,0,.1,0,0,0,.1,0,.2,0,0,0,.1,0,.2.1,0,0,0,0,0,0,0,0,0,.1,0,.2,0,0,0,.2,0,.2,0,0-.1,0-.2,0,0,0-.2,0-.2,0,0,0-.1,0-.2,0s-.1,0-.2,0c0,0,0,0,0,0,0,0,0,0,0,0,0,0,0-.1,0-.2,0-.2-.3-.4-.3-.6,0,0,0,0,0-.1h0ZM78.1,66.5s0,0,0,0c-.4.2-.8.4-1.2.6-.2,0-.3.2-.5.2-.7.2-1.4.1-2.1,0-.7-.2-1.3-.5-2-.7-1.1-.3-2.3-.3-3.4-.1-.1,0-.2,0-.3,0s-.2-.2-.1-.3c0,0,0,0,.1,0,.4-.2.8-.2,1.2-.2,0,0,.2,0,.3,0,0,0,0-.2,0-.4-.2-.6-.2-1.2-.2-1.8,0-.2,0-.5,0-.7-.4,0-.7.1-1.1.3-.1,0-.3.2-.4.1-.1,0-.2-.1-.1-.2,0-.3.3-.5.6-.5.2,0,.4,0,.6,0,.4,0,.6-.6.9-.5.2,0,.4.3.4.5,0,.1-.1.2-.2.3-.2.3-.2.7-.3,1.1,0,.3,0,.5,0,.8,0,.3.2.5.4.7.1.1.3.2.5.2.3,0,.5.2.8.3,0,0,0,0,0-.1,0-.4.1-.8.1-1.2,0-.6,0-1.2,0-1.8,0-.2,0-.4,0-.6,0,0,0,0,0,0,.2,0,.4,0,.5,0,.2,0,.3-.1.4-.2,0,0,.1,0,.2-.1-.1,0-.3-.1-.4-.2,0,0-.2,0-.3-.2,0,0,0,0,0-.1,0-.1.2-.2.3-.2s.2,0,.3,0c0,0,0,0,.1-.1.2-.2.3-.4.5-.7,0,0,0-.1,0-.2,0,0-.1,0-.2,0-.6.1-1.2.4-1.8.6-.1,0-.2.1-.3,0,0,0-.1-.2-.1-.3s0-.2.1-.3c0,0,.2-.2.3-.3.1,0,.3,0,.4,0,0,0,.1,0,.2,0,.2,0,.4-.1.6-.2.2,0,.5-.2.7-.3.2,0,.3-.2.5-.4,0-.1.1-.2.2-.3,0,0,.1,0,.2,0,.2,0,.4.2.6.3,0,0,.2.1.2.2,0,.2,0,.3-.2.4s-.3.1-.4.2c-.2.1-.4.3-.6.5-.1.1-.2.3-.3.4,0,0-.2.2-.2.3,0,.1,0,.2,0,.4.2,0,.5-.2.7-.2.2,0,.4,0,.5,0,.2,0,.4.1.4.3.1.2,0,.4,0,.6,0,1.2.4,2.3.2,3.5,0,.1,0,.3-.1.4,0,.1-.2.2-.4.2-.2,0-.3-.2-.4-.3-.1-.2-.3-.3-.5-.4,0,0,0,0,0,0,0,0,0,0,0,0,0,0,0,0,0,0,.3,0,.5.2.8.2,0,0,0,0,0,0,0-.5,0-1,0-1.4,0,0,0,0,0,0-.3.1-.6,0-.9.2,0,0,0,0,0,0,0,.2,0,.4,0,.6,0,.2,0,.3,0,.5,0,.2-.2.3-.3.4,0,0-.2,0-.2,0,0,0,0,0,0,0,0-.1,0-.3,0-.4,0-.2,0-.4,0-.6,0,0-.1,0-.2,0,0,0-.2.1-.2.2,0,0-.2.1-.3.1,0,0-.1,0-.2,0,0,.2,0,.5,0,.7,0,.1,0,.2-.1.3,1,.3,2,.6,3.1.7.4,0,.9,0,1.3-.1.4-.1.8-.4,1.2-.4.1,0,.2,0,.2.2h0ZM74.1,62.1s0,0,0,0c0,0,0,.2,0,.2,0,.1,0,.2,0,.3,0,0,.1,0,.2,0,0,0,.2,0,.3,0,0,0,.1.1.1.2,0,0,0,.2-.1.2,0,0-.2,0-.2,0,0,0-.1,0-.2,0,0,.2,0,.5,0,.7.2,0,.3,0,.5,0,0,0,.2,0,.3,0,0,0,.1,0,.2,0,0-.3,0-.5,0-.8,0-.3,0-.5-.1-.8,0-.2-.2-.3-.4-.4-.1,0-.3,0-.4,0h0ZM72.6,64.2c0,.2,0,.4,0,.5,0,0,0,0,0,0,0,0,.2,0,.2-.1.2-.1.4-.2.6-.3,0-.2,0-.4,0-.7,0,0-.2,0-.2,0,0,0-.2,0-.3.1,0,0-.3,0-.2-.2,0,0,0,0,.1-.1,0,0,.1,0,.2-.1,0,0,.1,0,.2-.1,0,0,.2,0,.3-.2,0,0,0-.2,0-.3,0-.1,0-.3,0-.4-.1,0-.3.1-.4.2,0,0-.1,0-.2.1,0,0,0,0,0,0h0s0,0,0,0c0,0,0,0,0,0,0,0,0,0,0,0,0,0,0,.1,0,.2,0,.4-.1.8-.1,1.2h0Z"/>
    <path class="st0" d="M61.9,60.7c-.1-.1-.2-.2-.4-.2-.1,0-.3-.1-.4,0,0,0,0,.1,0,.2-.1.3-.4.3-.7.4,0,0,0,0-.1,0v-.3c0-.3,0-.7,0-1,0-.2,0-.3,0-.5-.1-.3-1.1-.5-1,0,0,.2.2.4.3.6.1.3.1.6.1.9v.5s0,0,0,0c-.2,0-.4.2-.7.3-.2,0-.5.1-.7,0,0,0-.2,0-.3,0-.1,0-.3,0-.3,0,0,0,0,.2,0,.3.2.2.3.4.4.7.2.4.3.8.3,1.2,0,.2,0,.4,0,.6,0,0-.1.2,0,.3,0,0,0,.1.2.2s.2,0,.2,0c.3,0,.5-.3.8-.4,0,0,.2,0,.2-.1,0,.2,0,.4,0,.6,0,.3,0,.7,0,1,0,.3,0,.7-.1,1,0,.2,0,.4,0,.6s.3.3.5.2c.2,0,.2-.3.2-.5v-3.1c.1,0,.3,0,.4-.1.1,0,.3,0,.4,0,.1,0,.3-.1.3-.3,0,0,0,0,0-.1,0,0,0,0,0,0-.1-.2,0-.4,0-.6,0-.3.2-.6.2-.9,0,0,0-.2,0-.3,0-.1.2-.2.3-.4,0-.1,0-.3-.1-.4h0ZM59.3,63.8s0,0,0,0c0,0,0,0,0,0,0,0,0-.2,0-.3,0-.2,0-.4-.2-.6,0-.2-.2-.3-.2-.5,0-.1.1-.2.2-.3.2-.2.5-.3.8-.4,0,.3,0,.6,0,.8-.1,0-.2.1-.4.2-.1,0-.4.3-.2.4,0,0,0,0,0,0,.2,0,.4,0,.5,0v.7c-.2,0-.3.1-.5.1h0ZM61.1,61.6c-.2.4-.2.9-.2,1.4,0,.1,0,.2-.1.3,0,0-.2,0-.3.1,0,0-.1,0-.2,0,0-.2,0-.4,0-.7,0,0,0,0,0,0,0,0,.2-.1.2-.2,0-.1,0-.2,0-.3,0,0-.1,0-.2,0,0,0,0,0,0,0,0-.3,0-.5,0-.8.1,0,.2,0,.3-.1.1,0,.2,0,.3,0,0,0,.2,0,.2,0,0,0,0,0,0,.1,0,0,0,.1,0,.2h0ZM66.7,64.4c-.4.9-1,1.7-1.7,2.4-.3.3-.7.6-1.2.7s-1,0-1.2-.5c0-.1,0-.2,0-.3.3.2.7.5,1.1.4.2,0,.3-.1.5-.2.7-.5,1.3-1.2,1.7-2.1.2-.4.3-.8.1-1.1,0-.1-.1-.2-.2-.3,0,0-.1,0-.2,0,0,0-.2,0-.3,0,0,0-.1.1-.2.2-.3.2-.5.6-.7,1-.1.2-.2.3-.4.5-.5.6-1.2,1.1-2,1.4,0,0,0,0-.1,0,0,0-.1,0-.1,0,0,0,0,0,0,0,.2-.3.5-.5.8-.7.4-.3.8-.7,1.1-1.2.1-.2.2-.3.3-.5,0-.1.1-.3.2-.4,0,0,0,0,0,0-.3,0-.6,0-.8.1,0,0,0,0,0,.1-.2.4-.5.8-.8,1.2-.3.3-.7.6-1.1.8,0,0-.1,0-.2,0,0,0-.1,0-.2-.1,0,0,0-.1,0-.2,0,0,.1,0,.2-.1.2-.1.4-.3.6-.4,0,0,.2-.1.2-.2,0-.1.2-.2.2-.4,0,0,0-.2.1-.3,0,0,0-.2,0-.3-.2,0-.4,0-.7,0,0,0-.2,0-.2,0,0,0,0-.2,0-.3.6-.9,1.2-1.7,1.8-2.6-.4,0-.9.1-1.3,0,0,0,0,0,0,0,0-.1,0-.2.2-.2.5-.1,1-.2,1.4-.4.1,0,.3-.2.4-.2.2,0,.4,0,.5,0,0,0,.1,0,.2.1.1.1,0,.3,0,.5,0,.1-.2.2-.4.3-.9.5-1.6,1.3-2.1,2.2,0,0,0,0,0,.2,0,0,0,.1.2.2,0,0,.2,0,.2,0,.8-.2,1.6-.4,2.4-.4.2,0,.5,0,.7,0s.5.2.6.3c.3.4.2.9,0,1.3h0Z"/>
    <circle class="st0" cx="54" cy="63.5" r=".8"/>
    <path class="st0" d="M44.1,59.9c0-.2,0-.4,0-.6,0-.1-.2-.4-.1-.5.1-.3.7.2.8.3.2.2.2.5,0,.7,0,0-.2.2-.2.3,0,0,0,0,0,0,.9.6,1.6,1.4,2.3,2.1s1.7,1.3,2.7,1.4c.2,0,.4,0,.6.1s.3.3.1.5c0,0-.1,0-.2.1-.6.2-1.3,0-1.9-.3s-1-.8-1.5-1.2c-.7-.6-1.3-1.3-2-1.9-.1-.1-.3-.3-.5-.2-.1,0-.2.2-.3.3-.8,1.4-1.9,2.6-3.1,3.6-.2.2-.5.4-.8.2,1.4-1.2,2.6-2.7,3.5-4.3.1-.2.2-.4.3-.6h0ZM47.6,66.7c0,0-.1-.2-.2-.2-.2-.1-.4-.2-.6-.2-.2,0-.5,0-.7,0-.3,0-.7,0-1.1,0,0-.4,0-.8,0-1.2.2,0,.4,0,.6,0s.2,0,.3,0c.1,0,.2-.2.2-.4,0,0,0-.1,0-.2,0,0-.2,0-.3,0-.2,0-.4.1-.5.2,0,0-.1,0-.2,0,0,0,0-.1,0-.2,0-.2,0-.4,0-.6,0-.2,0-.5,0-.7h0c.2,0,.4,0,.6-.2,0,0,.1,0,.1-.1,0,0,0,0,0-.1,0,0,0-.1,0-.2s0-.1,0-.2c0,0-.2,0-.3,0,0,0-.2,0-.2.1-.2.1-.4.2-.6.2-.2,0-.4.1-.5.2-.1,0-.2,0-.3,0-.2,0-.5,0-.7.2,0,0,0,0,0,0,0,0,0,0,0,.1,0,0,0,.1.1.2,0,0,0,0,.1,0,.1,0,.2,0,.4,0,.1,0,.2,0,.3,0,0,0,.2,0,.2,0,0,0,0,0,0,0,0,0,0,0,0,.1,0,.2,0,.3,0,.5,0,.2,0,.5,0,.7-.3.1-.6.3-.8.4,0,0-.2,0-.3,0,0,0-.2.1-.2.2,0,0,0,0,0,0,0,0,0,0,0,0,0,0,.1,0,.2,0,0,0,.2,0,.3,0,.2,0,.4,0,.5-.2,0,0,.2,0,.3-.1,0,.4,0,.8,0,1.1,0,0-.2,0-.2,0-.4.1-.8.2-1.1.3,0,0-.2,0-.3,0,0,0-.2,0-.3,0,0,0-.1,0-.2,0,0,0,0,.1,0,.2,0,.1.2.2.3.2.2,0,.4,0,.6-.1.8-.3,1.6-.3,2.4-.3.2,0,.5,0,.7,0,.2,0,.4,0,.6.2.1,0,.3.1.4.1,0,0,.1,0,.2,0,.1-.1.2-.3.2-.4h0Z"/>
    <path class="st0" d="M34.9,59.7v.2s0,0,0,0h-.1c0,.1,0,.1,0,.1h-.5s0,0,0,0h0c0,0,0,0,0,0l-.3-.8s0,0,0,0h0c0,0,0,0,0,0h.1s0,0,0,0l.9.6s0,0,0,0h0ZM31.5,62.4c0,.1,0,.2,0,.4s.1.2.3.2c0,0,0,0,0,0,0,0,0,0,0,0,.1-.4.4-.7.8-1s.8-.4,1.2-.6c.2,0,.5-.2.7-.3.4-.1.8-.3,1.2-.3s.9,0,1.2.2c0,0,0,0,0,0,0,0,0,0,0,0-.2.2-.4.4-.6.5,0,0,0,0,0,0,0,0,0,.1.2.1.5,0,.8-.4,1.3-.5,0,0,.1,0,.2,0,0,0,.1-.2.1-.3s0-.2,0-.3c-.2-.3-.6-.5-1-.6s-.8,0-1.1,0c-.2,0-.5.1-.7.2-.9.3-1.7.8-2.6.9,0,0,0-.2-.1-.2,0,0,0-.1-.2-.1-.1,0-.2.3-.2.4l-.4,1h0ZM39.4,63c0,.2-.1.3-.3.3-.2,0-.4,0-.6,0-.4-.1-.9,0-1.3,0-.2,0-.4,0-.6.1-.1,0-.2,0-.3.1,0,0-.1.2-.2.3-.2.6-.6,1.1-1,1.5.9.3,1.7.6,2.6.9,0,0,.1,0,.2.1,0,0,0,.2,0,.2,0,.2,0,.3,0,.5,0,.2,0,.4-.2.5-.1,0-.3,0-.4,0-.1,0-.2-.2-.3-.3-.6-.6-1.3-1.1-2.1-1.4,0,0-.2,0-.2,0,0,0-.1,0-.2.1-.5.5-1.1.9-1.8,1.2-.3.1-.6.2-.9.2-.1,0-.2,0-.2-.2,1-.4,1.9-1,2.6-1.8-.4-.3-.9-.5-1.4-.5,0,0-.1,0-.2,0,0,0,0-.2,0-.3-.2-.1-.5,0-.8.2-.6.3-1.3.4-1.9.1,0,0-.2-.1-.2-.2,0,0,.2,0,.2,0,.2,0,.5,0,.7,0,.5,0,.9-.2,1.4-.4.3,0,.5-.2.8-.3.2,0,.4-.2.6-.3.4-.3.4-.8.3-1.3,0,0,0-.1,0-.2,0-.2.3-.2.5-.1.3,0,.5.3.5.6,0,.3-.3.5-.4.7.2,0,.5-.1.7-.2,0,0,.2,0,.3-.2,0,0,0-.2,0-.2,0,0,.2-.1.3,0,.1,0,.2,0,.3,0,.2,0,.3,0,.5,0,.8-.2,1.5-.3,2.3-.3,0,0,.2,0,.3,0,.1,0,.2.2.2.4h0ZM35.3,63.8s0,0,0,0c-.1,0-.2,0-.3,0-.2,0-.4.2-.6.2,0,0-.2,0-.3,0-.2,0-.4.2-.5.4,0,0-.1.2,0,.2,0,0,.2.1.3.2,0,0,.2,0,.2.1,0,0,.2.1.3.2,0,0,.1,0,.2,0,0,0,0,0,0,0,.2-.4.6-.8.7-1.2,0,0,0,0,0,0Z"/>
  </g>
  <g id="_x31_2123">
    <path class="st0" d="M70.9,41v2.5h7.9c.2,0,.4.2.4.4v1.6c0,.2-.2.4-.4.4h-7.9v3h7.9c.2,0,.4.2.4.4v1.6c0,.2-.2.4-.4.4h-7.9v2.5h10c1,0,1.8-.8,1.8-1.8v-9.3c0-1-.8-1.8-1.8-1.8h-10Z"/>
    <path class="st0" d="M56,41v2.5h8.6c.1,0,.2,0,.2.2v1.9c0,0,0,.2-.2.2l-7.4,1.6c-.7.2-1.2.8-1.2,1.5v5h12.2v-2.5h-8.6v-1.6l7.4-1.6c.7-.2,1.3-.8,1.3-1.6v-3.7c0-1-.8-1.8-1.8-1.8,0,0-10.4,0-10.4,0Z"/>
    <polygon class="st0" points="47.9 44.6 48.9 44.6 48.9 53.9 52.5 53.9 52.5 41 51.1 41 47.9 42.4 47.9 44.6"/>
    <path class="st0" d="M33.1,41v2.5h8.6c.1,0,.2,0,.2.2v1.9c0,0,0,.2-.2.2l-7.4,1.6c-.7.2-1.2.8-1.2,1.5v5h12.2v-2.5h-8.6v-1.6l7.4-1.6c.7-.2,1.3-.8,1.3-1.6v-3.7c0-1-.8-1.8-1.8-1.8,0,0-10.4,0-10.4,0Z"/>
    <polygon class="st0" points="25 44.6 26.1 44.6 26.1 53.9 29.7 53.9 29.7 41 28.3 41 25 42.4 25 44.6"/>
  </g>
</svg>