<svg xmlns="http://www.w3.org/2000/svg" viewBox="0 0 704 704">
  <defs>
    <linearGradient id="a" x1="345.8733" y1="1439.825" x2="146.0924" y2="1582.2155" gradientTransform="translate(0 -972)" gradientUnits="userSpaceOnUse">
      <stop offset="0" stop-color="#ffc85c"/>
      <stop offset="1" stop-color="#ffa33f"/>
    </linearGradient>
    <linearGradient id="b" x1="352" y1="706" x2="352" y2="367.037" gradientTransform="translate(0 706) scale(1 -1)" gradientUnits="userSpaceOnUse">
      <stop offset="0" stop-color="#07e9f5"/>
      <stop offset="1" stop-color="#03cfe8"/>
    </linearGradient>
    <linearGradient id="c" x1="537.2524" y1="511.3263" x2="218.0823" y2="353.9354" gradientTransform="translate(0 706) scale(1 -1)" gradientUnits="userSpaceOnUse">
      <stop offset="0" stop-color="#f4fffe"/>
      <stop offset="1" stop-color="#fff"/>
    </linearGradient>
    <linearGradient id="d" x1="489.2937" y1="477.0748" x2="238.1006" y2="370.5421" gradientTransform="translate(0 706) scale(1 -1)" gradientUnits="userSpaceOnUse">
      <stop offset="0" stop-color="#061934"/>
      <stop offset="1" stop-color="#000"/>
    </linearGradient>
  </defs>
  <path d="M0,319.4074h704v384.5926H0v-384.5926Z" style="fill:#e1698b"/>
  <path d="M0,352h412.4593l110.4302,352H0v-352Z" style="fill:url(#a)"/>
  <path d="M704,338.963H0V0h704v338.963Z" style="fill:url(#b)"/>
  <path d="M342.2222,84.7407c-.7236,41.1058-20.6833,69.0572-59.8856,83.8542-34.7633,13.1218-67.7926,13.1218-99.101,0,47.2332,3.9046,80.269-.4498,99.101-13.0631,18.8385-12.6199,38.7982-36.2169,59.8856-70.7911,55.4074,26.0741,146.6667,3.2593,172.7407-19.5556,26.0741,78.2222,97.3802,63.6207,101.037,65.1852-17.3849,54.3188-18.467,117.3333-3.2593,189.037-8.6892,2.1707-17.3849,5.4299-26.0741,9.7778-8.6631,4.3348-19.5751,23.6687-32.7295,58.0083l.528.2738c-.1955-.0391-.3911-.0847-.5801-.1239-.0261.0587-.0457.1108-.0652.1695v-.1825c-36.5689-7.8353-65.3612-9.0542-86.3899-3.6634-21.0744,5.3973-42.4029,22.9778-63.9858,52.7414.1369.0913.2738.1825.4107.2673-.1564-.0587-.3194-.1108-.4759-.1695-.0587.0782-.1173.1565-.1695.2347.0261-.0913.0587-.176.0913-.2673-39.6652-14.4646-74.9173-22.1173-105.7499-22.9582-30.976-.8474-68.9007,6.877-113.7742,23.1603,44.3976-26.3674,81.3576-39.1307,110.8735-38.2833,35.4021,1.0104,71.6385,13.6628,108.6963,37.9508,12.6003-36.4581,30.7283-57.5324,54.384-63.2296,31.3737-7.5615,63.4056-2.8877,96.0895,14.0213-.0065-34.0071,9.0347-56.7698,27.1236-68.288,3.5917-2.5683-213.1099-147.8856-238.7212-224.3283-.7431-2.2228.4172-7.6853,0-9.7778ZM186.0776,353.5514c5.4234,11.4922,5.4234,37.325,0,77.4987-2.7769-33.6942-7.6853-57.6498-14.7253-71.8797s-20.6833-32.1558-40.9428-53.7778c27.2996,11.3096,45.8513,27.3582,55.6682,48.1588ZM176.1238,261.021c-5.5147,13.2522-20.7615,27.5016-45.7535,42.7484,20.0053-18.0628,34.1179-37.5662,42.3443-58.5167,8.2198-20.9505,11.3618-47.2136,9.4193-78.7893,11.0424,26.8302,9.0412,58.3473-6.0101,94.5576Z"/>
  <path d="M130.3704,304.9037c47.4744-33.5964,65.0809-78.9914,52.8065-136.1784,63.7902,7.3203,104.1333,12.4113,159.0453-77.4661,45.6296,13.037,122.8545,17.7695,172.7407-26.0741,8.0308,46.6139,40.6234,69.4287,97.7778,68.4444-26.6607,69.8394-13.1348,116.5185,0,185.7778-32.5926,0-52.3567,22.6128-59.2924,67.8317-30.1351-10.1754-108.7354-43.0613-150.2975,49.5016-61.8673-26.4717-117.3724-54.2602-219.9739,0,11.8507-55.2705-5.7558-99.2119-52.8065-131.837Z" style="fill:url(#c)"/>
  <path d="M350.1813,192.368c2.3076-.9191,5.0584-1.8121,8.2199-2.6661,16.3354-4.4065,56.0397-15.312,119.1063-32.7164,4.3609-7.4115,8.3372-11.8833,11.9289-13.4086,5.3974-2.2945,42.2726,19.4513,45.5709,22.3455,3.2918,2.9007.2086,12.3917-5.9384,14.1321s-20.0966.352-40.8646,3.2527c-20.768,2.8942-100.9914,22.365-113.7416,28.1796-5.984,4.387-8.9564,6.8966-12.8089,6.9618-3.4353.0587-15.1751-11.603-18.8515-16.6027-4.4,7.6527-10.0059,37.9769-12.6264,39.424-1.8904,1.0364-6.5902,1.5319-14.0996,1.4797l-1.8121-2.5031c-22.0065,7.0204-33.8702,10.9446-35.5911,11.7594-1.7209.8213-2.5487,2.1381-2.4901,3.9437-2.8356,3.005-6.6228,5.2213-11.3618,6.6684-1.0364.3129-3.7873-.4433-4.9019-.7953-2.0794-14.3603-12.0136-30.1873-29.8092-47.4809,1.773-4.6933,3.2267-7.731,4.3609-9.0999,6.3816-3.2071,9.8104-7.7049,11.101-8.5067,1.7079-1.0625,4.3348,1.0299,7.8874,6.2839,38.4918-11.7268,57.741-18.0433,57.741-18.9428,0-1.3559,4.5434-9.9733,4.5434-7.5876s8.2394-.5997,16.4202,2.7182c3.3375,4.3413,9.4779,8.435,18.4148,12.2874-.1239.2933-.2542.5867-.3976.8735ZM389.1099,358.3621c-.8996-.3976-1.7209-.9908-2.4314-1.7991,0-6.7076-10.2927-33.616-30.8912-80.7188-.7105-1.1277-1.5579-2.1642-2.5292-3.1159-.3064-.2933-.7105-.6714-1.219-1.1277-.7822,4.8563-1.6035,10.5665-2.451,17.1372-5.2344.6844-8.5914.9517-10.0711.8213-1.5253-.1434-1.8513-1.0038-2.477-1.773-1.5449-1.8969-23.0821,3.872-64.6115,17.2936l-4.1067,4.1914c-4.2175.7301-7.1964-1.1799-8.9304-5.7363-1.7404-4.5565-6.1339-13.0436-13.187-25.4613-1.8904-.3064-1.8904-2.3532,0-6.147,12.0984,2.1185,86.3052-29.053,90.8356-30.4415,4.5239-1.3885,3.7612-4.915,5.8732-4.915s17.4501,5.9579,17.8608,8.4154c.4172,2.4575-.4107,2.9464-3.6308,6.5707-.3976.4433-.8083,1.232-1.232,2.3532,2.2684-.4498,4.3739-.6779,6.323-.6779,4.2957,0,9.9342,1.4471,16.909,4.3348.1825,1.2124.6975,3.1745,1.5384,5.8862.352,1.1407,0,2.4705,0,3.872,5.8145,21.0222,16.1464,46.451,19.9988,54.6317,8.813-2.112,87.8892-13.9301,90.477-17.0264,1.7209-2.0664,5.0192-33.7268,9.9016-94.9813.9452-8.1612,4.4-12.2418,10.3644-12.2418,8.9499,0,29.1573,15.4424,29.5354,15.4424s-.3781,7.1052-8.1481,15.4424c-7.7701,8.3307-13.1413,118.7152-17.1372,124.1973-4.0024,5.4821-20.0901-5.456-23.923-6.7402-3.8329-1.2776-.1303-6.9227-4.1132-8.9956s-66.2282,5.808-80.9665,8.9956c0,1.5905.8474,1.9816,0,3.6113-2.5292,4.8693-8.8652,9.2954-14.2104,9.3476,10.6187,1.936,19.6468,2.3923,27.104,1.3754-16.3419,18.4604-68.5292,18.317-112.8095,0-47.6504,32.7556-82.4136,9.9929-67.6296,9.9929,9.8625,0,24.8421-7.7635,44.9582-23.2907-5.8015-2.4901-9.8364-4.3218-12.1114-5.4886s-5.4886-3.1028-9.6539-5.8015l30.8522-11.5704c8.0569,4.2501,12.5807,6.3751,13.5846,6.3751,3.9502-2.1642,10.2015-8.096,18.7473-17.7956-38.3093,10.4036-59.3707,16.3354-63.184,17.7956-5.7298,2.1902-5.8276,9.0933-9.1259,5.1953-2.1968-2.6009-2.1968-9.8234,0-21.6676l3.6113-2.7313c.5802-.9452,3.8394-.8213,9.7843.3585s29.2551-6.1013,69.9437-21.8436c15.3511,9.7061,23.4732,15.4619,24.3662,17.261,1.3363,2.7052,3.533,9.0281,3.533,10.195,0,.4433-5.0193,3.9567-10.4687,7.7961-3.1941,2.3467-9.7908,7.4376-19.7837,15.2729,21.3807,8.8326,39.6847,14.8101,54.9315,17.9259ZM189.037,224.4652c19.1318-3.2136,46.8225-6.4794,50.877,11.3879,4.061,17.8673-12.8806,21.7262-21.9479,12.0853-9.0607-9.6344-9.1846-13.6954-28.9292-23.4732ZM197.987,257.7096c18.4018-6.0948,41.5165-1.8773,45.597,12.0071,4.0871,13.8845-18.8972,21.309-30.7413,23.8708,8.7348-22.7105-9.139-29.6332-14.8557-35.8779ZM216.4278,298.3656c.515-2.5031,1.2255-4.0089,2.1185-4.5043,3.0246-1.6818,8.976-.8278,12.7176.2477,6.3686,1.8252,18.8059,12.861,19.5556,14.1126.7562,1.245-.1369,2.7052-.3585,2.9203-1.6818,1.6231-2.992,2.1642-4.0284,3.1875-9.3019,41.7707-35.5455,46.6987-47.5852,46.6987,13.1348-22.7366,18.995-43.6284,17.5804-62.6625ZM264.0456,217.5686l4.3087,6.9488c10.2406-4.0676,17.9716-7.0204,23.2059-8.8522,5.2344-1.8382,12.483-4.2631,21.7523-7.2747v-8.1807c-10.5013,3.5004-18.5452,6.2252-24.1381,8.1807-5.5994,1.9556-13.9692,5.0127-25.1289,9.1781ZM272.5718,234.9274l2.1837,7.6853c10.2341-4.0676,17.9716-7.0139,23.2059-8.8522,5.2278-1.8382,10.3579-3.6504,15.3837-5.4495v-8.9499c-6.9618,2.0859-13.2326,4.1067-18.832,6.0622-5.5929,1.9556-12.9067,5.1236-21.9413,9.504ZM264.6779,282.669l4.9345,11.3553,11.1206-3.9502-3.709-11.6486s-12.3461,4.2436-12.3461,4.2435ZM289.3049,274.2145l4.8367,11.8767,12.8219-3.6895v-13.8519s-17.6587,5.6646-17.6587,5.6646ZM319.8116,265.069v13.8388l13.5911-3.709c-.1173-3.005-.1173-5.3256,0-6.9488.1173-1.6296.3585-4.2175.7366-7.7701,0,0-14.3277,4.589-14.3277,4.5891ZM381.8027,219.8305c1.7339-1.8252,10.4557-2.816,13.5976,0,1.8904-1.219,25.7156-7.0596,71.469-17.5283,2.477-2.464,5.8341-4.1523,10.0776-5.0714s11.9354,4.061,23.069,14.9339c-3.9958,7.9982-7.2681,14.1321-9.8299,18.3953-3.8329,6.4012-3.3831,70.9997-6.2513,73.3007-1.8252,1.4667-7.9917,0-13.1674-1.043-2.8095-.5671-7.3203-2.9007-7.7701-5.1431-1.8317,0-22.3846,2.4379-41.1775,6.1861.3194,2.4249.3194,1.7209,0,2.2815s-11.9484,7.6658-16.1138,5.9188c-3.6243-17.6456-22.7562-57.6107-32.8599-71.7037-1.6557-5.7819,7.2225-18.7016,8.9565-20.5268ZM402.6945,237.5022l5.5994,15.6249,18.4735-3.9242-2.4835-16.1724s-21.5893,4.4717-21.5894,4.4717ZM413.0459,268.2436l5.1301,17.7108,14.8296-2.8551-3.3049-18.2062s-16.6548,3.3505-16.6548,3.3505ZM444.5239,261.7772l2.1381,18.2975,15.2012-2.7443.7561-18.493-18.0954,2.9399ZM440.5085,229.5366l2.1576,16.5244,20.6507-3.0116,1.4471-18.0433s-24.2554,4.5304-24.2554,4.5304Z" style="fill:url(#d)"/>
</svg>
