<svg xmlns="http://www.w3.org/2000/svg" viewBox="0 0 240 240">
  <defs>
    <clipPath id="e">
      <rect width="240" height="240"/>
    </clipPath>
    <linearGradient id="a" x1="116.8671" y1="62.7714" x2="14.7064" y2="-10.042" gradientTransform="translate(0 242) scale(1 -1)" gradientUnits="userSpaceOnUse">
      <stop offset="0" stop-color="#ffc85c"/>
      <stop offset="1" stop-color="#ffa33f"/>
    </linearGradient>
    <linearGradient id="b" x1="120" y1="912" x2="120" y2="1085.3333" gradientTransform="translate(0 -972)" gradientUnits="userSpaceOnUse">
      <stop offset="0" stop-color="#07e9f5"/>
      <stop offset="1" stop-color="#03cfe8"/>
    </linearGradient>
    <linearGradient id="c" x1="214.7313" y1="1011.5491" x2="51.5193" y2="1092.0331" gradientTransform="translate(0 -972)" gradientUnits="userSpaceOnUse">
      <stop offset="0" stop-color="#f4fffe"/>
      <stop offset="1" stop-color="#fff"/>
    </linearGradient>
    <linearGradient id="d" x1="190.2071" y1="1029.064" x2="61.756" y2="1083.5409" gradientTransform="translate(0 -972)" gradientUnits="userSpaceOnUse">
      <stop offset="0" stop-color="#061934"/>
      <stop offset="1" stop-color="#000"/>
    </linearGradient>
  </defs>
  <g style="clip-path:url(#e)">
    <path d="M-60,103.3333h360v196.6667H-60V103.3333Z" style="fill:#e1698b"/>
    <path d="M-60,120h210.9167l56.47,180H-60V120Z" style="fill:url(#a)"/>
    <path d="M300,113.3333H-60V-60h360V113.3333Z" style="fill:url(#b)"/>
    <path d="M115-16.6667c-.37,21.02-10.5767,35.3133-30.6233,42.88-17.7767,6.71-34.6667,6.71-50.6767,0,24.1533,1.9967,41.0467-.23,50.6767-6.68,9.6333-6.4533,19.84-18.52,30.6233-36.2,28.3333,13.3333,75,1.6667,88.3333-10,13.3333,40,49.7967,32.5333,51.6667,33.3333-8.89,27.7767-9.4433,60-1.6667,96.6667-4.4433,1.11-8.89,2.7767-13.3333,5-4.43,2.2167-10.01,12.1033-16.7367,29.6633l.27.14c-.1-.02-.2-.0433-.2967-.0633-.0133.03-.0233.0567-.0333.0867v-.0933c-18.7-4.0067-33.4233-4.63-44.1767-1.8733-10.7767,2.76-21.6833,11.75-32.72,26.97.07.0467.14.0933.21.1367-.08-.03-.1633-.0567-.2433-.0867-.03.04-.06.08-.0867.12.0133-.0467.03-.09.0467-.1367-20.2833-7.3967-38.31-11.31-54.0767-11.74-15.84-.4333-35.2333,3.5167-58.18,11.8433,22.7033-13.4833,41.6033-20.01,56.6967-19.5767,18.1033.5167,36.6333,6.9867,55.5833,19.4067,6.4433-18.6433,15.7133-29.42,27.81-32.3333,16.0433-3.8667,32.4233-1.4767,49.1367,7.17-.0033-17.39,4.62-29.03,13.87-34.92,1.8367-1.3133-108.9767-75.6233-122.0733-114.7133-.38-1.1367.2133-3.93,0-5ZM35.1533,120.7933c2.7733,5.8767,2.7733,19.0867,0,39.63-1.42-17.23-3.93-29.48-7.53-36.7567s-10.5767-16.4433-20.9367-27.5c13.96,5.7833,23.4467,13.99,28.4667,24.6267ZM30.0633,73.4767c-2.82,6.7767-10.6167,14.0633-23.3967,21.86,10.23-9.2367,17.4467-19.21,21.6533-29.9233,4.2033-10.7133,5.81-24.1433,4.8167-40.29,5.6467,13.72,4.6233,29.8367-3.0733,48.3533Z"/>
    <path d="M6.6667,95.9167c24.2767-17.18,33.28-40.3933,27.0033-69.6367,32.62,3.7433,53.25,6.3467,81.33-39.6133,23.3333,6.6667,62.8233,9.0867,88.3333-13.3333,4.1067,23.8367,20.7733,35.5033,50,35-13.6333,35.7133-6.7167,59.5833,0,95-16.6667,0-26.7733,11.5633-30.32,34.6867-15.41-5.2033-55.6033-22.02-76.8567,25.3133-31.6367-13.5367-60.02-27.7467-112.4867,0,6.06-28.2633-2.9433-50.7333-27.0034-67.4167Z" style="fill:url(#c)"/>
    <path d="M119.07,38.37c1.18-.47,2.5867-.9267,4.2033-1.3633,8.3533-2.2533,28.6567-7.83,60.9067-16.73,2.23-3.79,4.2633-6.0767,6.1-6.8567,2.76-1.1733,21.6167,9.9467,23.3033,11.4267,1.6833,1.4833.1067,6.3367-3.0367,7.2267s-10.2767.18-20.8967,1.6633c-10.62,1.48-51.6433,11.4367-58.1633,14.41-3.06,2.2433-4.58,3.5267-6.55,3.56-1.7567.03-7.76-5.9333-9.64-8.49-2.25,3.9133-5.1167,19.42-6.4567,20.16-.9667.53-3.37.7833-7.21.7567l-.9267-1.28c-11.2533,3.59-17.32,5.5967-18.2,6.0133-.88.42-1.3033,1.0933-1.2733,2.0167-1.45,1.5367-3.3867,2.67-5.81,3.41-.53.16-1.9367-.2267-2.5067-.4067-1.0633-7.3433-6.1433-15.4367-15.2433-24.28.9067-2.4,1.65-3.9533,2.23-4.6533,3.2633-1.64,5.0167-3.94,5.6767-4.35.8733-.5433,2.2167.5267,4.0333,3.2133,19.6833-5.9967,29.5267-9.2267,29.5267-9.6867,0-.6933,2.3233-5.1,2.3233-3.88s4.2133-.3067,8.3967,1.39c1.7067,2.22,4.8467,4.3133,9.4167,6.2833-.0633.15-.13.3-.2033.4467ZM138.9767,123.2533c-.46-.2033-.88-.5067-1.2433-.92,0-3.43-5.2633-17.19-15.7967-41.2767-.3633-.5767-.7967-1.1067-1.2933-1.5933-.1567-.15-.3633-.3433-.6233-.5767-.4,2.4833-.82,5.4033-1.2533,8.7633-2.6767.35-4.3933.4867-5.15.42-.78-.0733-.9467-.5133-1.2667-.9067-.79-.97-11.8033,1.98-33.04,8.8433l-2.1,2.1433c-2.1567.3733-3.68-.6033-4.5667-2.9333-.89-2.33-3.1367-6.67-6.7433-13.02-.9667-.1567-.9667-1.2033,0-3.1433,6.1867,1.0833,44.1333-14.8567,46.45-15.5667,2.3133-.71,1.9233-2.5133,3.0033-2.5133s8.9233,3.0467,9.1333,4.3033c.2133,1.2567-.21,1.5067-1.8567,3.36-.2033.2267-.4133.63-.63,1.2033,1.16-.23,2.2367-.3467,3.2333-.3467,2.1967,0,5.08.74,8.6467,2.2167.0933.62.3567,1.6233.7867,3.01.18.5833,0,1.2633,0,1.98,2.9733,10.75,8.2567,23.7533,10.2267,27.9367,4.5067-1.08,44.9433-7.1233,46.2667-8.7067.88-1.0567,2.5667-17.2467,5.0633-48.57.4833-4.1733,2.25-6.26,5.3-6.26,4.5767,0,14.91,7.8967,15.1033,7.8967s-.1933,3.6333-4.1667,7.8967c-3.9733,4.26-6.72,60.7067-8.7633,63.51-2.0467,2.8033-10.2733-2.79-12.2333-3.4467-1.96-.6533-.0667-3.54-2.1033-4.6s-33.8667,2.97-41.4033,4.6c0,.8133.4333,1.0133,0,1.8467-1.2933,2.49-4.5333,4.7533-7.2667,4.78,5.43.99,10.0467,1.2233,13.86.7033-8.3567,9.44-35.0433,9.3667-57.6867,0-24.3667,16.75-42.1433,5.11-34.5833,5.11,5.0433,0,12.7033-3.97,22.99-11.91-2.9667-1.2733-5.03-2.21-6.1933-2.8067s-2.8067-1.5867-4.9367-2.9667l15.7767-5.9167c4.12,2.1733,6.4333,3.26,6.9467,3.26,2.02-1.1067,5.2167-4.14,9.5867-9.1-19.59,5.32-30.36,8.3533-32.31,9.1-2.93,1.12-2.98,4.65-4.6667,2.6567-1.1233-1.33-1.1233-5.0233,0-11.08l1.8467-1.3967c.2967-.4833,1.9633-.42,5.0033.1833s14.96-3.12,35.7667-11.17c7.85,4.9633,12.0033,7.9067,12.46,8.8267.6833,1.3833,1.8067,4.6167,1.8067,5.2133,0,.2267-2.5667,2.0233-5.3533,3.9867-1.6333,1.2-5.0067,3.8033-10.1167,7.81,10.9333,4.5167,20.2933,7.5733,28.09,9.1667ZM36.6667,54.7833c9.7833-1.6433,23.9433-3.3133,26.0167,5.8233,2.0767,9.1367-6.5867,11.11-11.2233,6.18-4.6333-4.9267-4.6967-7.0033-14.7933-12.0033ZM41.2433,71.7833c9.41-3.1167,21.23-.96,23.3167,6.14,2.09,7.1-9.6633,10.8967-15.72,12.2067,4.4667-11.6133-4.6733-15.1533-7.5967-18.3467ZM50.6733,92.5733c.2633-1.28.6267-2.05,1.0833-2.3033,1.5467-.86,4.59-.4233,6.5033.1267,3.2567.9333,9.6167,6.5767,10,7.2167.3867.6367-.07,1.3833-.1833,1.4933-.86.83-1.53,1.1067-2.06,1.63-4.7567,21.36-18.1767,23.88-24.3333,23.88,6.7167-11.6267,9.7133-22.31,8.99-32.0433ZM75.0233,51.2567l2.2033,3.5533c5.2367-2.08,9.19-3.59,11.8667-4.5267,2.6767-.94,6.3833-2.18,11.1233-3.72v-4.1833c-5.37,1.79-9.4833,3.1833-12.3433,4.1833-2.8633,1-7.1433,2.5633-12.85,4.6933ZM79.3833,60.1333l1.1167,3.93c5.2333-2.08,9.19-3.5867,11.8667-4.5267,2.6733-.94,5.2967-1.8667,7.8667-2.7867v-4.5767c-3.56,1.0667-6.7667,2.1-9.63,3.1-2.86,1-6.6,2.62-11.22,4.86ZM75.3467,84.5467l2.5233,5.8067,5.6867-2.02-1.8967-5.9567s-6.3133,2.17-6.3133,2.17ZM87.94,80.2233l2.4733,6.0733,6.5567-1.8867v-7.0833s-9.03,2.8967-9.03,2.8967ZM103.54,75.5467v7.0767l6.95-1.8967c-.06-1.5367-.06-2.7233,0-3.5533.06-.8333.1833-2.1567.3767-3.9733,0,0-7.3267,2.3467-7.3267,2.3467ZM135.24,52.4133c.8867-.9333,5.3467-1.44,6.9533,0,.9667-.6233,13.15-3.61,36.5467-8.9633,1.2667-1.26,2.9833-2.1233,5.1533-2.5933s6.1033,2.0767,11.7967,7.6367c-2.0433,4.09-3.7167,7.2267-5.0267,9.4067-1.96,3.2733-1.73,36.3067-3.1967,37.4833-.9333.75-4.0867,0-6.7333-.5333-1.4367-.29-3.7433-1.4833-3.9733-2.63-.9367,0-11.4467,1.2467-21.0567,3.1633.1633,1.24.1633.88,0,1.1667s-6.11,3.92-8.24,3.0267c-1.8533-9.0233-11.6367-29.46-16.8033-36.6667-.8467-2.9567,3.6933-9.5633,4.58-10.4967ZM145.9233,61.45l2.8633,7.99,9.4467-2.0067-1.27-8.27s-11.04,2.2867-11.04,2.2867ZM151.2167,77.17l2.6233,9.0567,7.5833-1.46-1.69-9.31-8.5167,1.7133ZM167.3133,73.8633l1.0933,9.3567,7.7733-1.4033.3867-9.4567s-9.2533,1.5033-9.2533,1.5033ZM165.26,57.3767l1.1033,8.45,10.56-1.54.74-9.2267s-12.4033,2.3167-12.4033,2.3167Z" style="fill:url(#d)"/>
  </g>
</svg>
