<?xml version="1.0" encoding="utf-8"?>
<!-- Generator: Adobe Illustrator 25.4.1, SVG Export Plug-In . SVG Version: 6.00 Build 0)  -->
<svg version="1.1" id="图层_1" xmlns="http://www.w3.org/2000/svg" xmlns:xlink="http://www.w3.org/1999/xlink" x="0px" y="0px"
	 viewBox="0 0 108 108" style="enable-background:new 0 0 108 108;" xml:space="preserve">
<style type="text/css">
	.st0{fill:#E1698B;}
	.st1{fill:url(#SVGID_1_);}
	.st2{fill:url(#SVGID_00000158737353105914464540000000453780173993609655_);}
	.st3{fill:url(#SVGID_00000141456516923001422000000008683751429494135479_);}
	.st4{fill:url(#SVGID_00000081639063817066040100000005217359478895327115_);}
</style>
<g>
	<rect y="46.5" class="st0" width="108" height="61.5"/>
	
		<linearGradient id="SVGID_1_" gradientUnits="userSpaceOnUse" x1="56.22511" y1="36.83453" x2="24.1802" y2="13.99506" gradientTransform="matrix(1 0 0 -1 0 108)">
		<stop  offset="0" style="stop-color:#FFC85C"/>
		<stop  offset="1" style="stop-color:#FFA33F"/>
	</linearGradient>
	<polygon class="st1" points="67.91254,54 0,54 0,108 84.85355,108 	"/>
	
		<linearGradient id="SVGID_00000177460650509074946520000001834148013092686221_" gradientUnits="userSpaceOnUse" x1="54" y1="57" x2="54" y2="108" gradientTransform="matrix(1 0 0 -1 0 108)">
		<stop  offset="0" style="stop-color:#07E9F5"/>
		<stop  offset="1" style="stop-color:#03CFE8"/>
	</linearGradient>
	<rect style="fill:url(#SVGID_00000177460650509074946520000001834148013092686221_);" width="108" height="51"/>
	<g>
		<path d="M106.68301,46.371c-4.16254,2.65045-6.24298,7.88846-6.24152,15.71402c-7.52097-3.89099-14.89197-4.96655-22.11145-3.2265
			c-5.44354,1.31094-9.61505,6.16049-12.51453,14.55002c-8.5275-5.58902-16.86603-8.50058-25.01248-8.73303
			c-6.79202-0.19501-15.297,2.742-25.51355,8.80948c10.32605-3.74698,19.05304-5.52448,26.18097-5.32947
			c7.09506,0.19345,15.207,1.95447,24.36758,5.26794c4.96646-6.84897,9.87442-10.8945,14.72397-12.13651
			c4.83902-1.24045,11.46451-0.95993,19.90649,0.81152c3.02702-7.902,5.53804-12.35099,7.53151-13.34846V2.75583
			C105.63675,2.40225,102.92395,1.63156,100.3082,0H54.44275C66.43762,18.24619,107.43301,45.83469,106.68301,46.371z"/>
		<path d="M37.96948,8.78998c-4.33347,2.9025-11.93546,3.90454-22.8045,3.00604c7.20456,3.0195,14.80499,3.0195,22.8045,0
			C44.35794,9.3847,48.51416,5.44748,50.46176,0h-3.77829C43.67175,3.97586,40.76605,6.91663,37.96948,8.78998z"/>
	</g>
	
		<linearGradient id="SVGID_00000166642175106347577020000006812853578500837283_" gradientUnits="userSpaceOnUse" x1="86.45109" y1="57.28115" x2="25.45547" y2="87.35963" gradientTransform="matrix(1 0 0 -1 0 108)">
		<stop  offset="0" style="stop-color:#F4FFFE"/>
		<stop  offset="1" style="stop-color:#FFFFFF"/>
	</linearGradient>
	<path style="fill:url(#SVGID_00000166642175106347577020000006812853578500837283_);" d="M15.15152,11.82596
		C17.97601,24.98547,13.92453,35.43146,3,43.16254C13.82703,50.66995,17.87851,60.78149,15.15152,73.5
		c23.60999-12.48596,36.38251-6.09146,50.61896,0c9.56406-21.30002,27.65103-13.73254,34.58551-11.39099
		c1.11246-7.25262,3.6633-11.97025,7.64401-14.16797V3.40439C104.21777,2.87878,101.05472,1.75314,98.53931,0H47.72607
		C37.02676,14.40619,28.22974,13.32678,15.15152,11.82596z"/>
	
		<linearGradient id="SVGID_00000071532567431325292490000007435338099295050401_" gradientUnits="userSpaceOnUse" x1="85.59319" y1="25.67881" x2="27.79018" y2="50.19341">
		<stop  offset="0" style="stop-color:#061934"/>
		<stop  offset="1" style="stop-color:#000000"/>
	</linearGradient>
	<path style="fill:url(#SVGID_00000071532567431325292490000007435338099295050401_);" d="M53.5815,17.2665
		c0.531-0.2115,1.164-0.417,1.8915-0.6135c3.759-1.014,12.8955-3.5235,27.408-7.5285C83.88449,7.419,84.7995,6.39,85.626,6.039
		c1.242-0.528,9.7275,4.476,10.4865,5.142c0.75751,0.6675,0.04801,2.8515-1.36649,3.252s-4.6245,0.081-9.4035,0.7485
		c-4.779,0.666-23.2395,5.1465-26.1735,6.4845c-1.377,1.0095-2.061,1.587-2.9475,1.602c-0.7905,0.0135-3.492-2.67-4.338-3.8205
		c-1.0125,1.761-2.3025,8.739-2.9055,9.072c-0.435,0.2385-1.5165,0.3525-3.2445,0.3405l-0.417-0.576
		c-5.064,1.6155-7.794,2.5185-8.19,2.706c-0.396,0.189-0.5865,0.492-0.573,0.9075C35.901,32.589,35.0295,33.099,33.939,33.432
		c-0.2385,0.072-0.8715-0.102-1.128-0.183c-0.4785-3.3045-2.7645-6.9465-6.8595-10.926c0.408-1.08,0.7425-1.779,1.0035-2.094
		c1.4685-0.738,2.2575-1.773,2.5545-1.9575c0.393-0.2445,0.9975,0.237,1.815,1.446c8.8575-2.6985,13.287-4.152,13.287-4.359
		c0-0.312,1.04549-2.295,1.04549-1.746s1.896-0.138,3.7785,0.6255c0.768,0.999,2.181,1.941,4.2375,2.8275
		C53.6445,17.133,53.6145,17.2005,53.5815,17.2665z M62.5395,55.464c-0.207-0.0915-0.396-0.228-0.5595-0.414
		c0-1.5435-2.3685-7.7355-7.1085-18.5745c-0.1635-0.2595-0.3585-0.498-0.582-0.717C54.219,35.691,54.126,35.604,54.009,35.499
		c-0.18,1.1175-0.369,2.4315-0.564,3.9435c-1.2045,0.15751-1.977,0.21901-2.3175,0.189c-0.35099-0.033-0.426-0.231-0.57-0.408
		c-0.3555-0.4365-5.3115,0.891-14.868,3.9795l-0.945,0.9645c-0.9705,0.168-1.656-0.2715-2.055-1.32
		c-0.4005-1.0485-1.4115-3.0015-3.0345-5.859c-0.435-0.0705-0.435-0.5415,0-1.41451c2.784,0.4875,19.86-6.6855,20.9025-7.005
		c1.04099-0.3195,0.8655-1.131,1.35149-1.131c0.486,0,4.0155,1.371,4.11,1.9365c0.096,0.5655-0.0945,0.678-0.8355,1.512
		c-0.0915,0.102-0.186,0.2835-0.2835,0.5415c0.52201-0.1035,1.0065-0.156,1.455-0.156c0.9885,0,2.286,0.333,3.891,0.9975
		C60.288,32.5485,60.4065,33,60.6,33.624c0.081,0.2625,0,0.5685,0,0.891c1.338,4.8375,3.7155,10.689,4.60199,12.5715
		c2.028-0.486,20.2245-3.20549,20.82001-3.918c0.396-0.4755,1.15499-7.761,2.27849-21.8565
		c0.21751-1.878,1.01251-2.817,2.38501-2.817c2.0595,0,6.7095,3.5535,6.79649,3.5535c0.08701,0-0.08699,1.635-1.875,3.5535
		C93.819,27.519,92.583,52.92,91.6635,54.1815c-0.92099,1.26151-4.623-1.25549-5.50499-1.55099
		c-0.88201-0.294-0.03001-1.593-0.94651-2.07s-15.24,1.3365-18.63149,2.07c0,0.366,0.19499,0.456,0,0.831
		c-0.582,1.1205-2.04001,2.139-3.27,2.151c2.4435,0.4455,4.521,0.5505,6.237,0.3165c-3.7605,4.248-15.7695,4.215-25.959,0
		c-10.965,7.5375-18.9645,2.2995-15.5625,2.2995c2.2695,0,5.7165-1.7865,10.3455-5.3595c-1.335-0.573-2.2635-0.9945-2.787-1.263
		s-1.263-0.714-2.2215-1.335l7.0995-2.6625c1.854,0.978,2.895,1.467,3.126,1.467c0.909-0.498,2.3475-1.863,4.31401-4.095
		c-8.81551,2.394-13.662,3.759-14.53951,4.095c-1.3185,0.504-1.341,2.0925-2.1,1.1955c-0.5055-0.5985-0.5055-2.2605,0-4.986
		l0.831-0.62849c0.1335-0.2175,0.8835-0.189,2.2515,0.0825s6.732-1.404,16.095-5.0265c3.5325,2.2335,5.4015,3.558,5.607,3.972
		c0.3075,0.6225,0.813,2.0775,0.813,2.346c0,0.102-1.155,0.9105-2.409,1.794c-0.735,0.54-2.253,1.71149-4.5525,3.5145
		C54.819,53.3715,59.031,54.747,62.5395,55.464z M16.5,24.6525c4.4025-0.7395,10.7745-1.491,11.7075,2.6205
		c0.9345,4.1115-2.964,4.9995-5.0505,2.781C21.072,27.837,21.0435,26.9025,16.5,24.6525z M18.5595,32.3025
		c4.2345-1.4025,9.5535-0.432,10.4925,2.763c0.9405,3.195-4.3485,4.9035-7.074,5.493C23.988,35.3325,19.875,33.7395,18.5595,32.3025
		z M22.803,41.658c0.1185-0.576,0.282-0.92249,0.4875-1.0365c0.696-0.387,2.0655-0.1905,2.9265,0.057
		c1.4655,0.42,4.3275,2.9595,4.5,3.24751c0.174,0.2865-0.0315,0.6225-0.0825,0.672c-0.387,0.3735-0.6885,0.498-0.927,0.7335
		c-2.1405,9.612-8.1795,10.746-10.95,10.746C21.78,50.8455,23.1285,46.038,22.803,41.658z M33.7605,23.0655l0.9915,1.599
		c2.3565-0.936,4.1355-1.6155,5.34-2.037c1.20449-0.423,2.8725-0.981,5.00549-1.674V19.071
		c-2.4165,0.8055-4.26749,1.4325-5.5545,1.8825C38.2545,21.4035,36.3285,22.107,33.7605,23.0655z M35.7225,27.06l0.50251,1.7685
		c2.355-0.936,4.1355-1.614,5.34-2.037c1.203-0.423,2.3835-0.84,3.54-1.254V23.478c-1.602,0.48-3.045,0.945-4.3335,1.395
		C39.4845,25.323,37.8015,26.052,35.7225,27.06z M33.906,38.046l1.1355,2.613l2.559-0.909l-0.8535-2.6805L33.906,38.046z
		 M39.573,36.1005l1.113,2.733l2.9505-0.849V34.797L39.573,36.1005z M46.593,33.996v3.18449l3.12749-0.8535
		c-0.02699-0.6915-0.02699-1.22549,0-1.599c0.027-0.375,0.0825-0.9705,0.1695-1.788L46.593,33.996z M60.858,23.586
		c0.39901-0.42,2.406-0.648,3.129,0c0.43501-0.2805,5.9175-1.6245,16.446-4.0335c0.57-0.567,1.3425-0.9555,2.319-1.167
		s2.74651,0.9345,5.3085,3.4365c-0.91949,1.8405-1.6725,3.252-2.26201,4.233C84.9165,27.528,85.02,42.393,84.36,42.9225
		c-0.42,0.3375-1.839,0-3.03-0.24c-0.6465-0.1305-1.6845-0.6675-1.788-1.1835c-0.4215,0-5.15099,0.561-9.4755,1.4235
		c0.0735,0.558,0.0735,0.396,0,0.525c-0.07349,0.129-2.7495,1.764-3.708,1.362c-0.834-4.0605-5.2365-13.257-7.56149-16.5
		C58.416,26.979,60.459,24.006,60.858,23.586z M65.6655,27.6525L66.954,31.248l4.251-0.903l-0.5715-3.7215L65.6655,27.6525z
		 M68.0475,34.7265l1.1805,4.0755l3.41251-0.657L71.88,33.9555L68.0475,34.7265z M75.291,33.2385l0.492,4.21049l3.49799-0.6315
		L79.455,32.562L75.291,33.2385z M74.367,25.8195l0.49649,3.8025l4.75201-0.693l0.33299-4.152L74.367,25.8195z"/>
</g>
</svg>
