<svg xmlns="http://www.w3.org/2000/svg" viewBox="0 0 108 108">
  <defs>
    <clipPath id="e">
      <rect y="0" width="108" height="108"/>
    </clipPath>
    <linearGradient id="d" x1="52.5902" y1="80.6529" x2="6.6179" y2="113.4189" gradientUnits="userSpaceOnUse">
      <stop offset="0" stop-color="#ffc85c"/>
      <stop offset="1" stop-color="#ffa33f"/>
    </linearGradient>
    <linearGradient id="a" x1="54" y1="135" x2="54" y2="57" gradientTransform="translate(0 108) scale(1 -1)" gradientUnits="userSpaceOnUse">
      <stop offset="0" stop-color="#07e9f5"/>
      <stop offset="1" stop-color="#03cfe8"/>
    </linearGradient>
    <linearGradient id="b" x1="96.6291" y1="90.2029" x2="23.1837" y2="53.9851" gradientTransform="translate(0 108) scale(1 -1)" gradientUnits="userSpaceOnUse">
      <stop offset="0" stop-color="#f4fffe"/>
      <stop offset="1" stop-color="#fff"/>
    </linearGradient>
    <linearGradient id="c" x1="85.5932" y1="82.3212" x2="27.7902" y2="57.8066" gradientTransform="translate(0 108) scale(1 -1)" gradientUnits="userSpaceOnUse">
      <stop offset="0" stop-color="#061934"/>
      <stop offset="1" stop-color="#000"/>
    </linearGradient>
  </defs>
  <g style="clip-path:url(#e)">
    <path d="M-27,46.5h162v88.5H-27V46.5Z" style="fill:#e1698b"/>
    <path d="M-27,54h94.9125l25.4115,81H-27V54Z" style="fill:url(#d)"/>
    <path d="M135,51H-27V-27h162V51Z" style="fill:url(#a)"/>
    <path d="M51.75-7.5c-.1665,9.459-4.7595,15.891-13.7805,19.296-7.9995,3.0195-15.6,3.0195-22.8045,0,10.869.8985,18.471-.1035,22.8045-3.006,4.335-2.904,8.928-8.334,13.7805-16.29,12.75,6,33.75.75,39.75-4.5,6,18,22.4085,14.64,23.25,15-4.0005,12.4995-4.2495,27-.75,43.5-1.9995.4995-4.0005,1.2495-6,2.25-1.9935.9975-4.5045,5.4465-7.5315,13.3485l.1215.063c-.045-.009-.09-.0195-.1335-.0285-.006.0135-.0105.0255-.015.039v-.042c-8.415-1.803-15.0405-2.0835-19.8795-.843-4.8495,1.242-9.7575,5.2875-14.724,12.1365.0315.021.063.042.0945.0615-.036-.0135-.0735-.0255-.1095-.039-.0135.018-.027.036-.039.054.006-.021.0135-.0405.021-.0615-9.1275-3.3285-17.2395-5.0895-24.3345-5.283-7.128-.195-15.855,1.5825-26.181,5.3295,10.2165-6.0675,18.7215-9.0045,25.5135-8.8095,8.1465.2325,16.485,3.144,25.0125,8.733,2.8995-8.3895,7.071-13.239,12.5145-14.55,7.2195-1.74,14.5905-.6645,22.1115,3.2265-.0015-7.8255,2.079-13.0635,6.2415-15.714.8265-.591-49.0395-34.0305-54.933-51.621-.171-.5115.096-1.7685,0-2.25ZM15.819,54.357c1.248,2.6445,1.248,8.589,0,17.8335-.639-7.7535-1.7685-13.266-3.3885-16.5405s-4.7595-7.3995-9.4215-12.375c6.282,2.6025,10.551,6.2955,12.81,11.082ZM13.5285,33.0645c-1.269,3.0495-4.7775,6.3285-10.5285,9.837,4.6035-4.1565,7.851-8.6445,9.744-13.4655,1.8915-4.821,2.6145-10.8645,2.1675-18.1305,2.541,6.174,2.0805,13.4265-1.383,21.759Z"/>
    <path d="M3,43.1625c10.9245-7.731,14.976-18.177,12.1515-31.3365,14.679,1.6845,23.9625,2.856,36.5985-17.826,10.5,3,28.2705,4.089,39.75-6,1.848,10.7265,9.348,15.9765,22.5,15.75-6.135,16.071-3.0225,26.8125,0,42.75-7.5,0-12.048,5.2035-13.644,15.609-6.9345-2.3415-25.0215-9.909-34.5855,11.391-14.2365-6.0915-27.009-12.486-50.619,0,2.727-12.7185-1.3245-22.83-12.1515-30.3375Z" style="fill:url(#b)"/>
    <path d="M53.5815,17.2665c.531-.2115,1.164-.417,1.8915-.6135,3.759-1.014,12.8955-3.5235,27.408-7.5285,1.0035-1.7055,1.9185-2.7345,2.745-3.0855,1.242-.528,9.7275,4.476,10.4865,5.142.7575.6675.048,2.8515-1.3665,3.252s-4.6245.081-9.4035.7485c-4.779.666-23.2395,5.1465-26.1735,6.4845-1.377,1.0095-2.061,1.587-2.9475,1.602-.7905.0135-3.492-2.67-4.338-3.8205-1.0125,1.761-2.3025,8.739-2.9055,9.072-.435.2385-1.5165.3525-3.2445.3405l-.417-.576c-5.064,1.6155-7.794,2.5185-8.19,2.706-.396.189-.5865.492-.573.9075-.6525.6915-1.524,1.2015-2.6145,1.5345-.2385.072-.8715-.102-1.128-.183-.4785-3.3045-2.7645-6.9465-6.8595-10.926.408-1.08.7425-1.779,1.0035-2.094,1.4685-.738,2.2575-1.773,2.5545-1.9575.393-.2445.9975.237,1.815,1.446,8.8575-2.6985,13.287-4.152,13.287-4.359,0-.312,1.0455-2.295,1.0455-1.746s1.896-.138,3.7785.6255c.768.999,2.181,1.941,4.2375,2.8275-.0285.0675-.0585.135-.0915.201ZM62.5395,55.464c-.207-.0915-.396-.228-.5595-.414,0-1.5435-2.3685-7.7355-7.1085-18.5745-.1635-.2595-.3585-.498-.582-.717-.0705-.0675-.1635-.1545-.2805-.2595-.18,1.1175-.369,2.4315-.564,3.9435-1.2045.1575-1.977.219-2.3175.189-.351-.033-.426-.231-.57-.408-.3555-.4365-5.3115.891-14.868,3.9795l-.945.9645c-.9705.168-1.656-.2715-2.055-1.32-.4005-1.0485-1.4115-3.0015-3.0345-5.859-.435-.0705-.435-.5415,0-1.4145,2.784.4875,19.86-6.6855,20.9025-7.005,1.041-.3195.8655-1.131,1.3515-1.131s4.0155,1.371,4.11,1.9365c.096.5655-.0945.678-.8355,1.512-.0915.102-.186.2835-.2835.5415.522-.1035,1.0065-.156,1.455-.156.9885,0,2.286.333,3.891.9975.042.279.1605.7305.354,1.3545.081.2625,0,.5685,0,.891,1.338,4.8375,3.7155,10.689,4.602,12.5715,2.028-.486,20.2245-3.2055,20.82-3.918.396-.4755,1.155-7.761,2.2785-21.8565.2175-1.878,1.0125-2.817,2.385-2.817,2.0595,0,6.7095,3.5535,6.7965,3.5535s-.087,1.635-1.875,3.5535c-1.788,1.917-3.024,27.318-3.9435,28.5795-.921,1.2615-4.623-1.2555-5.505-1.551-.882-.294-.03-1.593-.9465-2.07s-15.24,1.3365-18.6315,2.07c0,.366.195.456,0,.831-.582,1.1205-2.04,2.139-3.27,2.151,2.4435.4455,4.521.5505,6.237.3165-3.7605,4.248-15.7695,4.215-25.959,0-10.965,7.5375-18.9645,2.2995-15.5625,2.2995,2.2695,0,5.7165-1.7865,10.3455-5.3595-1.335-.573-2.2635-.9945-2.787-1.263s-1.263-.714-2.2215-1.335l7.0995-2.6625c1.854.978,2.895,1.467,3.126,1.467.909-.498,2.3475-1.863,4.314-4.095-8.8155,2.394-13.662,3.759-14.5395,4.095-1.3185.504-1.341,2.0925-2.1,1.1955-.5055-.5985-.5055-2.2605,0-4.986l.831-.6285c.1335-.2175.8835-.189,2.2515.0825s6.732-1.404,16.095-5.0265c3.5325,2.2335,5.4015,3.558,5.607,3.972.3075.6225.813,2.0775.813,2.346,0,.102-1.155.9105-2.409,1.794-.735.54-2.253,1.7115-4.5525,3.5145,4.92,2.0325,9.132,3.408,12.6405,4.125ZM16.5,24.6525c4.4025-.7395,10.7745-1.491,11.7075,2.6205.9345,4.1115-2.964,4.9995-5.0505,2.781-2.085-2.217-2.1135-3.1515-6.657-5.4015ZM18.5595,32.3025c4.2345-1.4025,9.5535-.432,10.4925,2.763.9405,3.195-4.3485,4.9035-7.074,5.493,2.01-5.226-2.103-6.819-3.4185-8.256ZM22.803,41.658c.1185-.576.282-.9225.4875-1.0365.696-.387,2.0655-.1905,2.9265.057,1.4655.42,4.3275,2.9595,4.5,3.2475.174.2865-.0315.6225-.0825.672-.387.3735-.6885.498-.927.7335-2.1405,9.612-8.1795,10.746-10.95,10.746,3.0225-5.232,4.371-10.0395,4.0455-14.4195ZM33.7605,23.0655l.9915,1.599c2.3565-.936,4.1355-1.6155,5.34-2.037,1.2045-.423,2.8725-.981,5.0055-1.674v-1.8825c-2.4165.8055-4.2675,1.4325-5.5545,1.8825-1.2885.45-3.2145,1.1535-5.7825,2.112ZM35.7225,27.06l.5025,1.7685c2.355-.936,4.1355-1.614,5.34-2.037,1.203-.423,2.3835-.84,3.54-1.254v-2.0595c-1.602.48-3.045.945-4.3335,1.395-1.287.45-2.97,1.179-5.049,2.187ZM33.906,38.046l1.1355,2.613,2.559-.909-.8535-2.6805s-2.841.9765-2.841.9765ZM39.573,36.1005l1.113,2.733,2.9505-.849v-3.1875s-4.0635,1.3035-4.0635,1.3035ZM46.593,33.996v3.1845l3.1275-.8535c-.027-.6915-.027-1.2255,0-1.599.027-.375.0825-.9705.1695-1.788,0,0-3.297,1.056-3.297,1.056ZM60.858,23.586c.399-.42,2.406-.648,3.129,0,.435-.2805,5.9175-1.6245,16.446-4.0335.57-.567,1.3425-.9555,2.319-1.167s2.7465.9345,5.3085,3.4365c-.9195,1.8405-1.6725,3.252-2.262,4.233-.882,1.473-.7785,16.338-1.4385,16.8675-.42.3375-1.839,0-3.03-.24-.6465-.1305-1.6845-.6675-1.788-1.1835-.4215,0-5.151.561-9.4755,1.4235.0735.558.0735.396,0,.525s-2.7495,1.764-3.708,1.362c-.834-4.0605-5.2365-13.257-7.5615-16.5-.381-1.3305,1.662-4.3035,2.061-4.7235ZM65.6655,27.6525l1.2885,3.5955,4.251-.903-.5715-3.7215s-4.968,1.029-4.968,1.029ZM68.0475,34.7265l1.1805,4.0755,3.4125-.657-.7605-4.1895s-3.8325.771-3.8325.771ZM75.291,33.2385l.492,4.2105,3.498-.6315.174-4.2555-4.164.6765ZM74.367,25.8195l.4965,3.8025,4.752-.693.333-4.152s-5.5815,1.0425-5.5815,1.0425Z" style="fill:url(#c)"/>
  </g>
</svg>
