<svg xmlns="http://www.w3.org/2000/svg" viewBox="0 0 704 704">
  <defs>
    <clipPath id="a">
      <rect width="704" height="704"/>
    </clipPath>
  </defs>
  <g style="clip-path:url(#a)">
    <path d="M407.101,494.8273c5.7428-10.3644,9.491-16.8178,13.9497-23.6687,5.7689-8.8652,11.1467-15.7487,16.2702-20.4095.7236-7.9461,3.709-14.8818,8.787-21.3742,4.0284-5.1627,8.2785-9.0607,16.8504-16.0355.189-.1564,1.6296-1.3298,2.0533-1.6753,10.9576-8.9304,15.7357-13.8649,18.7407-20.5138,2.3141-5.117,4.1328-10.9837,5.8602-18.3953.4889-2.0924.9713-4.2892,1.5188-6.9422.3064-1.4797,1.3168-6.4338,1.4015-6.8575,1.6818-8.2003,2.8421-12.9001,4.4196-17.248,2.099-5.7884,4.7259-9.9147,8.3828-12.496,7.1117-5.0193,17.5739-4.1458,25.9568,1.6427,8.963,6.1861,14.0083,16.7265,12.7633,29.0009-1.4993,14.7644-6.9488,30.8782-16.3093,48.3674,14.3733.4628,24.5748,8.5197,30.0243,23.7339,10.4361,9.0803,16.3224,21.661,15.8335,34.2744-.528,13.4151-8.1091,25.5526-22.0391,34.0984-1.0951,15.5402-14.0018,34.0984-37.3185,52.3111-23.4993,18.3496-50.8705,32.0776-64.2791,40.6755-7.0921,4.5434-68.7508,41.9336-81.8074,46.7443,1.7144,19.9401-.3455,38.5049-2.7508,63.9467h-199.3754c2.7508-8.9434,38.8438-63.9467,70.8107-84.2258-19.8815,6.512-29.5615,8.5914-45.3754,8.5914-16.9156,0-30.9369-21.6545-34.7372-31.3345-3.7938-9.68-2.0859-5.2018-2.9138-7.2812-2.3532-5.9319-4.7064-11.9875-6.9031-17.8151-.4367-1.1538-.867-2.2945-1.2842-3.4092-3.7677-10.1298-6.512-18.1345-7.9004-23.3168-2.0533-7.6528-.2347-22.4628,4.211-39.8607,4.061-15.8987,9.6148-30.8978,14.0409-37.501,5.5212-8.2329,16.6027-14.9404,33.2184-20.3573-7.7375-6.6163-12.9588-12.835-15.6379-18.7407-3.5526-7.8157-2.6791-15.1751,2.627-21.4394l.1434-.1695.163-.1499c6.0296-5.5733,12.4699-7.3268,19.1514-5.3387,5.7624,1.7144,11.4204,6.0557,18.0107,13.2065,2.6204,2.8421,5.3648,6.1013,8.7413,10.3188,1.3885,1.7274,5.3322,6.7401,7.5354,9.5431,5.0388-1.5579,11.4791-3.6895,19.3274-6.3882-1.9882-15.8791-1.7926-28.0101.691-36.5233,2.8877-9.9082,9.0803-15.2859,18.0824-15.2859,8.8196,0,15.0252,4.4587,17.9129,12.8545,2.2554,6.5511,2.5422,15.5401.9517,27.0519,5.2344-1.7144,13.0501-4.2957,23.4406-7.744,17.6391-5.8471,40.5517,5.6711,46.4184,24.301,2.6921,8.5392,6.1535,18.5647,10.9902,32.0059.4693,1.3168.9647,2.6791,1.4797,4.1197,1.2646,3.4939,5.7819,15.9247,6.7076,18.4735,2.4966,6.9096,4.3153,12.0136,5.8667,16.4918,3.1485,9.1194,4.9997,15.1295,5.645,18.8059,9.4258-12.0788,15.9834-21.4459,19.6533-28.0622h-.0001Z" style="fill:#010119"/>
    <path d="M157.7221,480.4409l151.2818-60.8569c17.7043-7.1247,37.827,1.4536,44.9452,19.1579.7105,1.7731,1.2776,3.5982,1.6883,5.469l22.4367,101.9692-38.8634,46.7769-134.4444,30.7152c-16.7721,3.8329-33.805-5.2604-39.9585-21.322-10.8729-28.3751-17.6326-46.5879-20.2726-54.6317-3.4287-10.4296.9647-32.8599,13.187-67.2777Z" style="fill:#8590a9"/>
    <path d="M232.2418,452.861c-9.2041-14.6471-28.173-36.8231-36.4124-40.7473-8.2394-3.9307-23.3754-.0717-19.0732,14.2951,2.8682,9.5757,15.8596,20.9701,38.9742,34.1896,17.1437,4.6086,22.6453,2.0338,16.5114-7.7375Z" style="fill:#28324b"/>
    <path d="M209.8702,456.2963c-19.4969-12.3982-30.5393-23.1864-33.1336-32.3644-1.7796-6.2903-.163-10.6447,2.9073-13.2652-.6193,4.739,1.2581,9.3084,5.632,13.7084,4.9084,4.9411,17.0264,14.5232,36.3538,28.7532,0,0-11.7594,3.168-11.7594,3.168Z" style="fill:#001038"/>
    <path d="M274.0711,448.4219c5.5016-17.2415,10.4492-47.2267,8.0569-56.3005-2.3923-9.0738-15.6184-18.0693-24.1772-4.8107-5.7037,8.8456-6.0753,26.752-1.1081,53.7387,7.8222,16.4136,13.565,18.8711,17.2284,7.3724Z" style="fill:#28324b"/>
    <path d="M270.1209,380.7467c-4.061,2.6726-6.2773,7.203-6.6619,13.5846-.4367,7.1573.5084,23.0951,2.816,47.8003l-10.4818-7.1443c-3.8264-23.6231-3.1093-39.5153,2.1642-47.6764,3.6113-5.5994,8.0569-7.229,12.1636-6.5641Z" style="fill:#001038"/>
    <path d="M180.0741,455.4554l131.1004-43.0874c17.8477-5.8667,37.1099,3.6047,43.3677,21.3155l28.2252,79.9301c6.349,17.9911-3.0833,37.7292-21.0744,44.0847-.2542.0847-.5084.176-.7692.2607l-133.3493,43.5959c-18.1345,5.9319-37.6444-3.9633-43.5763-22.1043-.013-.0391-.0261-.0782-.0391-.1173l-25.9763-80.445c-5.8406-18.0889,4.035-37.501,22.0913-43.433Z" style="fill:#fff"/>
    <path d="M196.2791,466.8302l106.5191-35.1153c13.4151-4.4196,27.9123,2.6465,32.6969,15.9313l24.2424,67.3168c4.8759,13.5455-2.1511,28.4859-15.6966,33.3618-.2607.0978-.5215.1825-.7757.2673l-108.8201,35.3564c-13.6954,4.4521-28.4012-3.0442-32.8533-16.7396l-21.9479-67.5579c-4.4391-13.6563,2.9985-28.3295,16.6353-32.8207ZM198,472.0516c-10.7621,3.5461-16.6287,15.123-13.1283,25.8981l21.9544,67.5579c3.507,10.8077,15.1164,16.72,25.9242,13.213l108.8136-35.3565c.2021-.0652.4107-.1369.6128-.2086,10.6904-3.8525,16.2376-15.6379,12.3852-26.3283l-24.2424-67.3167c-3.7742-10.4883-15.2142-16.0551-25.8003-12.5677,0,0-106.5191,35.1088-106.5191,35.1088Z" style="fill:#4c5d86"/>
    <path d="M236.5375,494.573c4.0676,1.4601,6.1013,3.1485,6.1013,5.0649,0,1.9099-9.3541,9.8365-28.0622,23.7731-5.5538-2.8747-7.2421-4.9345-5.0649-6.1795,2.1707-1.245,11.1793-8.7935,27.0258-22.6584ZM331.219,476.8752c.8148,1.6753,1.2255,3.005,1.2255,3.9893,0,1.3624-.7562,3.2006-1.2255,4.4456-4.5434.2542-17.2089.2542-37.9834,0-2.1707-3.2397-2.1707-5.4821,0-6.7206,2.1185-1.2124,14.093-2.125,35.9171-2.7378.352-.0065,1.043.3325,2.0664,1.0234ZM288.8942,516.1102c-4.4782,2.1316-9.5692,1.7079-14.1061-1.1212-1.7013,7.0856-6.0492,11.6942-11.981,12.7828-7.3398,1.3493-14.2755-3.4613-15.2012-10.9251-.2216-1.7991,1.1603-3.4287,3.0963-3.6373,1.936-.2086,3.6895,1.0821,3.9111,2.8812.4628,3.683,3.5591,5.8341,6.8249,5.2344,4.0154-.7366,7.0856-5.2344,7.0856-13.4346,0-3.1941,4.3935-4.5108,6.3947-1.9164,3.5722,4.6347,7.5941,5.795,10.7621,4.2892,2.9073-1.3884,4.2696-4.6542,2.9138-7.92-.6975-1.6948.2021-3.5982,2.0207-4.2501,1.8187-.6518,3.859.189,4.563,1.8839,2.6596,6.4207-.176,13.2196-6.2838,16.1333Z" style="fill:#040405"/>
    <path d="M254.2222,485.4797l6.9227,7.229c.2347.2347.2477.6062.0391.8605-1.245,1.5188-2.1642,2.099-2.7508,1.7339-2.3336-1.8839-3.7416-5.1562-4.211-9.8234ZM280.2376,467.6776c-2.2228-4.0154-1.5188-5.5472,2.1185-4.5825,5.4495,1.4406,4.7064,3.7416,3.8916,5.5277-.8083,1.7861-9.7973,14.2039-18.7799,17.9455,2.3336-1.2581,6.5902-7.5484,12.7698-18.8906Z" style="fill:#343467"/>
    <path d="M415.7316,492.6044c14.5428-28.7271,22.1565-33.2053,29.8548-41.523,23.0756-20.1292,125.8205-2.1185,96.8717,62.1802-17.1828,38.1659-155.0495,114.0806-183.5811,126.7982-10.0842-4.5825-23.245-15.4358-39.4892-32.56,54.5274-57.4412,86.6441-95.744,96.3437-114.8954Z" style="fill:#1e2734"/>
    <path d="M451.1988,449.7778c-.1303.2347-.365.5736-.8278,1.1277-8.8847,10.6578-14.1582,22.4172-8.787,42.3769,3.5852,13.3043,15.0056,24.5944,34.2678,33.8702-16.9742,16.6353-29.1899,27.9058-36.6471,33.8115-1.2255.9713-38.9286,4.8628-40.128,5.7754-1.3428,1.0169,33.8246-.9452,32.5209,0-3.0637,2.2098-6.6163,4.3674-10.6773,6.4663-.8018.4237-12.659-.4433-13.6302,0-1.3102.6062,8.2003,2.5292,6.5967,3.1875-6.9162,2.8225-15.9639,5.9514-27.1431,9.3932-13.0044,3.4939-17.6587-3.4287-13.9627-20.7745,1.6492-7.744,3.2788-13.8584,4.8824-18.3366,19.3144-23.0299,31.6539-39.965,37.0187-50.8118,14.3407-28.9618,21.8371-33.4791,29.4246-41.8619,1.8708-1.6687,4.2696-3.0767,7.0921-4.224Z" style="fill:#344262"/>
    <path d="M443.2593,475.8519c0,12.0984,5.4951,23.7079,15.2729,32.2666,9.7778,8.5523,23.0495,13.363,36.8752,13.363s27.0975-4.8107,36.8752-13.363c9.7778-8.5588,15.2729-20.1683,15.2729-32.2666s-5.4951-23.7079-15.2729-32.2666c-9.7778-8.5523-23.0495-13.363-36.8752-13.363s-27.0975,4.8107-36.8752,13.363c-9.7778,8.5588-15.2729,20.1683-15.2729,32.2666Z" style="fill:#0c0f15"/>
    <path d="M456.2963,443.2593c-.1499.9061-.5215,1.9621-1.1473,3.1615-3.0702,5.9188-10.4296,4.2436-17.5152,13.2521-13.8779,17.6521-30.3568,45.4536-32.1428,48.1001-7.1834,10.6643-10.1558,20.7615-14.0735,33.264-1.0951-5.9775.7496-14.9535,5.5407-26.9345,7.5485-9.667,12.8741-17.4827,15.9704-23.4471,14.9274-28.7336,22.7301-33.2184,30.6305-41.536,3.0442-2.5879,7.4441-4.5499,12.7372-5.8601Z" style="fill:#555f80"/>
    <path d="M494.736,514.963c18.9102,0,40.4539-5.8015,52.272-19.8554,5.4495-3.7808,11.5639-8.7087,14.6471-12.5742,7.9461-9.9668,9.1911-32.6773-9.9147-48.9149-4.5825-17.9585-19.4121-20.7941-36.1387-17.9585,16.8504-22.9452,21.9478-44.9582,21.9478-62.2518,0-18.9363-25.8133-28.9162-33.1271-13.1478-4.7846,10.3253-3.8329,23.4406-8.259,38.8243-3.9893,13.8323-14.797,27.5798-18.8776,31.2237-14.2886,12.7893-21.7523,18.1215-26.9997,25.8264-5.0323,7.3855-7.027,17.6261-7.027,31.5757,0,28.5055,25.4483,47.2527,51.4768,47.2527Z" style="fill:#fff"/>
    <path d="M567.1111,473.5899c-.9778,3.0572-2.3662,5.7232-4.048,7.8418-3.181,3.9958-9.4845,9.0933-15.1034,12.9979-12.1831,14.5363-34.3917,20.5333-53.8886,20.5333-11.9875,0-23.8578-3.872-33.3227-10.7751-5.1822-6.6619-5.8406-15.1621-1.9686-25.5005,13.5976-36.3342,53.0216-30.6435,54.6708-29.9265,1.6557.717,1.2776,3.5852,0,5.1822-.8474,1.0625-3.2983,3.6047-7.3333,7.6332-.1238,2.0403,2.3206,2.5096,7.3333,1.408,7.5159-1.6492,19.5165-16.7787,20.7289-18.8776s12.0527-.7822,14.8492,9.3606c8.787,2.6139,14.8101,9.3215,18.0824,20.1227Z" style="fill:#8796b7"/>
    <path d="M515.2628,413.6521l-6.5902,10.0516c-.4693-5.5472-.2151-9.8039.7561-12.7763,1.4667-4.4587,1.9621-5.6907,11.6356-24.9594,6.3034-12.5481,8.6696-28.2187,7.1052-47.005,3.7286,3.5656,6.349,8.7087,6.349,14.8231,0,16.6613-4.6021,37.8595-19.7968,59.9639.176-.0326.3585-.0652.5411-.0978Z" style="fill:#b7cbe8"/>
    <path d="M458.0432,458.3105c3.6047-9.0999,9.1194-16.0812,16.544-20.9375,9.3019-6.0883,19.5686-8.9955,27.8993-9.6474,22.7888-1.7926,20.5138,19.3861,10.8599,27.8406-4.8237,4.2175-8.448,6.7858-10.8599,8.1938-.4367.2542.8278,11.5247-5.293,16.0616,4.061-8.435,1.6753-14.4841,1.7013-14.8362.0587-.8605,9.7191-8.0373,13.552-12.672,3.8394-4.6347,7.4637-19.9662-8.448-20.5399-6.4012-.2282-16.6483.9713-28.147,7.6397-5.0323,2.9138-10.9707,9.2172-17.8087,18.8972Z" style="fill:#57648f"/>
    <path d="M502.0498,469.392c-.9126.5671,3.1354,11.3879,12.672,18.4344,6.7532,4.9867,17.2284,6.7141,26.3153,7.5811-5.9319-2.0207-12.4438-3.2071-22.4498-9.9081-8.4415-5.658-14.973-17.072-16.5375-16.1073Z" style="fill:#57648f"/>
    <path d="M260.9037,600.877c5.8471-1.7209,45.6622-13.8519,53.6279-10.3123,2.9203,1.2972,7.8027,2.9659,10.6578,5.8406,4.1262-.6845,11.6877-1.3754,14.4385-1.0299,3.7156,6.0362,20.7354,20.0966,24.7443,44.6845,1.8382,11.2314,1.0364,32.5469-2.4053,63.9401h-192.4984c9.2824-19.2492,53.2824-77.6877,79.4086-85.5946.1564-7.9982,9.315-17.0264,12.0266-17.5284Z" style="fill-rule:evenodd;fill:#344262"/>
    <path d="M180.0415,704h-10.4427c.1695-.4433.352-.893.5476-1.3559,5.5864-10.8273,20.1162-31.5692,36.3407-49.8602.3455-.2282.6127-.3455.7953-.3455,3.0442,0-21.5437,23.3037-27.2409,51.5615Z" style="fill-rule:evenodd;fill:#555f80"/>
    <path d="M358.1861,704c1.6035-17.4175,2.4053-31.5105,2.4053-42.2791-5.4951-9.2824-16.4984-23.0364-18.2192-27.8471,0-1.7144,4.8172-4.4652,3.7873-6.8705-1.0886-2.5357-2.9203-5.7494-5.5016-9.6278,2.0599,5.7298,2.4053,8.5914,1.0299,8.5914-7.3855,0-16.1594-3.4353-22.6844-6.1861-12.7111,1.8056-25.0833,6.7336-37.1295,14.784-10.9967-3.7808-19.875-8.2394-31.7843-11.7464l-1.9034,6.5902c-6.1079.5085-13.9757,2.1446-23.6035,4.9149,8.7153-7.8483,17.1698-13.7606,24.2945-15.9182.1564-7.9982,9.315-17.0264,12.0267-17.5283,5.8471-1.7209,45.6622-13.8519,53.6279-10.3123,2.9203,1.2972,7.8027,2.9659,10.6578,5.8406,4.1262-.6845,11.6877-1.3754,14.4385-1.0299,3.7156,6.0362,20.7354,20.0966,24.7443,44.6845,1.8382,11.2314,1.0364,32.547-2.4053,63.9401h-3.7808ZM255.0631,704h-18.493c.1825-3.8264.2738-8.7479.2738-14.784,0-2.8095,0-7.216-1.3754-9.6213-3.6764-6.4403-11.3422-17.1893-18.9037-22.3455-7.5615-5.1562-7.3855-7.2942-2.7508-4.1262,19.5947,13.4086,34.3721,33.3487,41.2492,50.877Z" style="fill-rule:evenodd;fill:#1e2734"/>
    <path d="M260.9037,601.9069c5.1562-6.1861,37.1295-16.8438,50.5315-12.0332l-14.7775,12.7176-34.7176,7.9069s-1.0364-8.5914-1.0364-8.5914Z" style="fill-rule:evenodd;fill:#97a7c7"/>
    <path d="M314.877,600.1861c6.6424,25.6699,7.907,60.2702,3.7808,103.8139h-.691c-17.4175-31.165-35.7476-60.3876-54.9967-87.6545,10.723-5.0714,20.781-10.4361,30.5914-13.0631,7.4833-2.0077,15.0643-1.6101,21.3155-3.0963Z" style="fill-rule:evenodd;fill:#caced9"/>
    <path d="M315.0335,600.8118c1.6361,6.4338,2.9399,13.4281,3.9046,20.9701-.691,3.0377-1.7535,6.5381-4.752,4.8759.691,6.1861-8.5914,21.6545-23.3754,3.7808-.6844,1.7209-1.0299,5.8406-7.907,3.0898-4.2696-1.7079-8.611-4.1197-13.0175-7.2421-2.0664-3.0181-4.1458-6.0101-6.2382-8.9825,0,0,51.3855-16.4918,51.3855-16.4919Z" style="fill-rule:evenodd;fill:#76829c;fill-opacity:.4"/>
    <path d="M321.024,657.5556c.013,14.1452-.7757,29.6267-2.3662,46.4444h-.691c-6.1274-10.9707-12.3721-21.7002-18.7342-32.1885-.2477-20.0901-.7627-33.1923-1.5449-39.3132-1.7209.691-6.1861-1.7144-14.784-15.4685-.5932-4.2175,2.9594-8.8,10.6578-13.7476l16.4984,6.5315c.8865,9.4779,1.232,15.2077,1.0364,17.1893-.1564,1.5253-.7236,2.1707-1.0364,2.4054,3.7742,9.2954,7.4311,18.6755,10.9642,28.147Z" style="fill:#001038;fill-rule:evenodd"/>
    <path d="M259.1893,601.216c10.3123-2.7443,26.8107-2.7443,34.3721-1.7144,5.1562-4.4717,12.7176-10.3123,15.8139-11.6877s7.7245,7.5615,7.907,12.3722c.2281,6.1861-.5736,13.2913-2.4053,21.3155-7.4702-6.1861-14.6341-11.9941-21.3156-17.1893-2.9268,8.0243-4.8237,16.0421-6.877,24.0599-7.9005-.6845-26.1197-9.9668-29.216-19.9336-.528-1.7013.1304-6.7988,1.7209-7.2225Z" style="fill-rule:evenodd;fill:#e3e5eb"/>
    <path d="M266.7508,678.5647c2.288,5.7298,15.3511,15.3511,39.1893,28.8705,4.4913,11.44,12.3787,11.44,23.6492,0,10.3775-17.1828,22.7562-44,23.4406-47.7808.691-3.7808-6.7402-10.6252-18.5582-19.5946l14.432-10.9967-6.6424-13.1935c-2.7313-2.5357-3.6047-2.3792-2.6335.4758,2.4053,3.7808,6.1861,9.2824,6.1861,10.3123,0,3.0898-7.5615,7.5615-12.0332,12.3722-.1695.1825-.9517.6193.3455,1.7209,11.3422,9.6213,16.8438,14.2299,16.8438,16.4984,0,3.1485-8.7413,19.712-23.7209,48.1262h-20.6246c-20.0705-11.5247-33.3422-21.3155-37.4685-26.8107-.9778-1.3037-1.5449-5.3322.6844-10.6578.6323-1.4993,1.9295-4.2631,3.7873-7.2225,1.3102-2.0859,3.9437-5.8732,7.9005-11.3422-6.1144,1.7209-10.3514,2.979-12.7176,3.7808-10.032,3.4092-15.664,5.3191-17.1828,4.4717-2.0077-1.1147-2.4184-7.7636-2.4118-16.8438.0065-3.5526-.3194-7.1964-.0456-11.4139.0847-1.3102.3585-5.1431.3911-5.7167l-2.0599-.1173c-.0326.5541-.3064,4.3804-.3911,5.7037-.2738,4.2566-.4237,8.0112-.4302,11.616-.0065,9.7973.013,16.1594,2.8812,18.493,3.155,2.5618,11.6877-.691,24.4053-5.5016-2.1642,5.7232-3.7482,10.547-5.1562,14.4385-1.7144,4.7455-3.0898,7.7375-2.0598,10.3123Z" style="fill:#1e2734"/>
  </g>
</svg>
