<svg xmlns="http://www.w3.org/2000/svg" viewBox="0 0 108 108">
  <defs>
    <clipPath id="a">
      <rect width="108" height="108"/>
    </clipPath>
  </defs>
  <g style="clip-path:url(#a)">
    <path d="M66.6795,86.8665c1.3215-2.385,2.184-3.87,3.21-5.4465,1.3275-2.04,2.565-3.624,3.744-4.6965.1665-1.8285.8535-3.4245,2.022-4.9185.927-1.188,1.905-2.085,3.8775-3.69.0435-.036.375-.306.4725-.3855,2.5215-2.055,3.621-3.1905,4.3125-4.7205.5325-1.1775.951-2.5275,1.3485-4.233.1125-.4815.2235-.987.3495-1.5975.0705-.3405.303-1.4805.3225-1.578.387-1.887.654-2.9685,1.017-3.969.483-1.332,1.0875-2.2815,1.929-2.8755,1.6365-1.155,4.044-.954,5.973.378,2.0625,1.4235,3.2235,3.849,2.937,6.6735-.345,3.3975-1.599,7.1055-3.753,11.13,3.3075.1065,5.655,1.9605,6.909,5.4615,2.4015,2.0895,3.756,4.9845,3.6435,7.887-.1215,3.087-1.866,5.88-5.0715,7.8465-.252,3.576-3.222,7.8465-8.5875,12.0375-5.4075,4.2225-11.706,7.3815-14.7915,9.36-1.632,1.0455-15.8205,9.6495-18.825,10.7565.3945,4.5885-.0795,8.8605-.633,14.715H11.2065c.633-2.058,8.9385-14.715,16.2945-19.3815-4.575,1.4985-6.8025,1.977-10.4415,1.977-3.8925,0-7.119-4.983-7.9935-7.2105-.873-2.2275-.48-1.197-.6705-1.6755-.5415-1.365-1.083-2.7585-1.5885-4.0995-.1005-.2655-.1995-.528-.2955-.7845-.867-2.331-1.4985-4.173-1.818-5.3655-.4725-1.761-.054-5.169.969-9.1725.9345-3.6585,2.2125-7.11,3.231-8.6295,1.2705-1.8945,3.8205-3.438,7.644-4.6845-1.7805-1.5225-2.982-2.9535-3.5985-4.3125-.8175-1.7985-.6165-3.492.6045-4.9335l.033-.039.0375-.0345c1.3875-1.2825,2.8695-1.686,4.407-1.2285,1.326.3945,2.628,1.3935,4.1445,3.039.603.654,1.2345,1.404,2.0115,2.3745.3195.3975,1.227,1.551,1.734,2.196,1.1595-.3585,2.6415-.849,4.4475-1.47-.4575-3.654-.4125-6.4455.159-8.4045.6645-2.28,2.0895-3.5175,4.161-3.5175,2.0295,0,3.4575,1.026,4.122,2.958.519,1.5075.585,3.576.219,6.225,1.2045-.3945,3.003-.9885,5.394-1.782,4.059-1.3455,9.3315,1.305,10.6815,5.592.6195,1.965,1.416,4.272,2.529,7.365.108.303.222.6165.3405.948.291.804,1.3305,3.6645,1.5435,4.251.5745,1.59.993,2.7645,1.35,3.795.7245,2.0985,1.1505,3.4815,1.299,4.3275,2.169-2.7795,3.678-4.935,4.5225-6.4575h0Z" style="fill:#010119"/>
    <path d="M9.294,83.556l34.812-14.004c4.074-1.6395,8.7045.3345,10.3425,4.4085.1635.408.294.828.3885,1.2585l5.163,23.4645-8.943,10.764-30.9375,7.068c-3.8595.882-7.779-1.2105-9.195-4.9065-2.502-6.5295-4.0575-10.7205-4.665-12.5715-.789-2.4.222-7.5615,3.0345-15.4815Z" style="fill:#8590a9"/>
    <path d="M26.442,77.2095c-2.118-3.3705-6.483-8.4735-8.379-9.3765-1.896-.9045-5.379-.0165-4.389,3.2895.66,2.2035,3.6495,4.8255,8.9685,7.8675,3.945,1.0605,5.211.468,3.7995-1.7805Z" style="fill:#28324b"/>
    <path d="M21.294,78c-4.4865-2.853-7.0275-5.3355-7.6245-7.4475-.4095-1.4475-.0375-2.4495.669-3.0525-.1425,1.0905.2895,2.142,1.296,3.1545,1.1295,1.137,3.918,3.342,8.3655,6.6165,0,0-2.706.729-2.706.729Z" style="fill:#001038"/>
    <path d="M36.0675,76.188c1.266-3.9675,2.4045-10.8675,1.854-12.9555-.5505-2.088-3.594-4.158-5.5635-1.107-1.3125,2.0355-1.398,6.156-.255,12.366,1.8,3.777,3.1215,4.3425,3.9645,1.6965Z" style="fill:#28324b"/>
    <path d="M35.1585,60.615c-.9345.615-1.4445,1.6575-1.533,3.126-.1005,1.647.117,5.3145.648,10.9995l-2.412-1.644c-.8805-5.436-.7155-9.093.498-10.971.831-1.2885,1.854-1.6635,2.799-1.5105Z" style="fill:#001038"/>
    <path d="M14.4375,77.8065l30.168-9.915c4.107-1.35,8.5395.8295,9.9795,4.905l6.495,18.393c1.461,4.14-.7095,8.682-4.8495,10.1445-.0585.0195-.117.0405-.177.06l-30.6855,10.032c-4.173,1.365-8.6625-.912-10.0275-5.0865-.003-.009-.006-.018-.009-.027l-5.9775-18.5115c-1.344-4.1625.9285-8.6295,5.0835-9.9945Z" style="fill:#fff"/>
    <path d="M18.1665,80.424l24.5115-8.0805c3.087-1.017,6.423.609,7.524,3.666l5.5785,15.4905c1.122,3.117-.495,6.555-3.612,7.677-.06.0225-.12.042-.1785.0615l-25.041,8.136c-3.1515,1.0245-6.5355-.7005-7.56-3.852l-5.0505-15.546c-1.0215-3.1425.69-6.519,3.828-7.5525ZM18.5625,81.6255c-2.4765.816-3.8265,3.48-3.021,5.9595l5.052,15.546c.807,2.487,3.4785,3.8475,5.9655,3.0405l25.0395-8.136c.0465-.015.0945-.0315.141-.048,2.46-.8865,3.7365-3.5985,2.85-6.0585l-5.5785-15.4905c-.8685-2.4135-3.501-3.6945-5.937-2.892,0,0-24.5115,8.079-24.5115,8.079Z" style="fill:#4c5d86"/>
    <path d="M27.4305,86.808c.936.336,1.404.7245,1.404,1.1655,0,.4395-2.1525,2.2635-6.4575,5.4705-1.278-.6615-1.6665-1.1355-1.1655-1.422.4995-.2865,2.5725-2.0235,6.219-5.214ZM49.218,82.7355c.1875.3855.282.6915.282.918,0,.3135-.174.7365-.282,1.023-1.0455.0585-3.96.0585-8.7405,0-.4995-.7455-.4995-1.2615,0-1.5465.4875-.279,3.243-.489,8.265-.63.081-.0015.24.0765.4755.2355ZM39.4785,91.764c-1.0305.4905-2.202.393-3.246-.258-.3915,1.6305-1.392,2.691-2.757,2.9415-1.689.3105-3.285-.7965-3.498-2.514-.051-.414.267-.789.7125-.837.4455-.048.849.249.9.663.1065.8475.819,1.3425,1.5705,1.2045.924-.1695,1.6305-1.2045,1.6305-3.0915,0-.735,1.011-1.038,1.4715-.441.822,1.0665,1.7475,1.3335,2.4765.987.669-.3195.9825-1.071.6705-1.8225-.1605-.39.0465-.828.465-.978.4185-.15.888.0435,1.05.4335.612,1.4775-.0405,3.042-1.446,3.7125Z" style="fill:#040405"/>
    <path d="M31.5,84.7155l1.593,1.6635c.054.054.057.1395.009.198-.2865.3495-.498.483-.633.399-.537-.4335-.861-1.1865-.969-2.2605ZM37.4865,80.619c-.5115-.924-.3495-1.2765.4875-1.0545,1.254.3315,1.083.861.8955,1.272-.186.411-2.2545,3.2685-4.3215,4.1295.537-.2895,1.5165-1.737,2.9385-4.347Z" style="fill:#343467"/>
    <path d="M68.6655,86.355c3.3465-6.6105,5.0985-7.641,6.87-9.555,5.31-4.632,28.953-.4875,22.2915,14.3085-3.954,8.7825-35.679,26.2515-42.2445,29.178-2.3205-1.0545-5.349-3.552-9.087-7.4925,12.5475-13.218,19.938-22.032,22.17-26.439Z" style="fill:#1e2734"/>
    <path d="M76.827,76.5c-.03.054-.084.132-.1905.2595-2.0445,2.4525-3.258,5.1585-2.022,9.7515.825,3.0615,3.453,5.6595,7.8855,7.794-3.906,3.828-6.717,6.4215-8.433,7.7805-.282.2235-8.958,1.119-9.234,1.329-.309.234,7.7835-.2175,7.4835,0-.705.5085-1.5225,1.005-2.457,1.488-.1845.0975-2.913-.102-3.1365,0-.3015.1395,1.887.582,1.518.7335-1.5915.6495-3.6735,1.3695-6.246,2.1615-2.9925.804-4.0635-.789-3.213-4.7805.3795-1.782.7545-3.189,1.1235-4.2195,4.4445-5.2995,7.284-9.1965,8.5185-11.6925,3.3-6.6645,5.025-7.704,6.771-9.633.4305-.384.9825-.708,1.632-.972Z" style="fill:#344262"/>
    <path d="M75,82.5c0,2.784,1.2645,5.4555,3.5145,7.425,2.25,1.968,5.304,3.075,8.4855,3.075s6.2355-1.107,8.4855-3.075c2.25-1.9695,3.5145-4.641,3.5145-7.425s-1.2645-5.4555-3.5145-7.425c-2.25-1.968-5.304-3.075-8.4855-3.075s-6.2355,1.107-8.4855,3.075c-2.25,1.9695-3.5145,4.641-3.5145,7.425Z" style="fill:#0c0f15"/>
    <path d="M78,75c-.0345.2085-.12.4515-.264.7275-.7065,1.362-2.4.9765-4.0305,3.0495-3.1935,4.062-6.9855,10.4595-7.3965,11.0685-1.653,2.454-2.337,4.7775-3.2385,7.6545-.252-1.3755.1725-3.441,1.275-6.198,1.737-2.2245,2.9625-4.023,3.675-5.3955,3.435-6.612,5.2305-7.644,7.0485-9.558.7005-.5955,1.713-1.047,2.931-1.3485Z" style="fill:#555f80"/>
    <path d="M86.8455,91.5c4.3515,0,9.309-1.335,12.0285-4.569,1.254-.87,2.661-2.004,3.3705-2.8935,1.8285-2.2935,2.115-7.5195-2.2815-11.256-1.0545-4.1325-4.467-4.785-8.316-4.1325,3.8775-5.28,5.0505-10.3455,5.0505-14.325,0-4.3575-5.94-6.654-7.623-3.0255-1.101,2.376-.882,5.394-1.9005,8.934-.918,3.183-3.405,6.3465-4.344,7.185-3.288,2.943-5.0055,4.17-6.213,5.943-1.158,1.6995-1.617,4.056-1.617,7.266,0,6.5595,5.856,10.8735,11.8455,10.8735Z" style="fill:#fff"/>
    <path d="M103.5,81.9795c-.225.7035-.5445,1.317-.9315,1.8045-.732.9195-2.1825,2.0925-3.4755,2.991-2.8035,3.345-7.914,4.725-12.4005,4.725-2.7585,0-5.49-.891-7.668-2.4795-1.1925-1.533-1.344-3.489-.453-5.868,3.129-8.361,12.201-7.0515,12.5805-6.8865.381.165.294.825,0,1.1925-.195.2445-.759.8295-1.6875,1.7565-.0285.4695.534.5775,1.6875.324,1.7295-.3795,4.491-3.861,4.77-4.344s2.7735-.18,3.417,2.154c2.022.6015,3.408,2.145,4.161,4.6305Z" style="fill:#8796b7"/>
    <path d="M91.569,68.187l-1.5165,2.313c-.108-1.2765-.0495-2.256.174-2.94.3375-1.026.4515-1.3095,2.6775-5.7435,1.4505-2.8875,1.995-6.4935,1.635-10.8165.858.8205,1.461,2.004,1.461,3.411,0,3.834-1.059,8.712-4.5555,13.7985.0405-.0075.0825-.015.1245-.0225Z" style="fill:#b7cbe8"/>
    <path d="M78.402,78.4635c.8295-2.094,2.0985-3.7005,3.807-4.818,2.1405-1.401,4.503-2.07,6.42-2.22,5.244-.4125,4.7205,4.461,2.499,6.4065-1.11.9705-1.944,1.5615-2.499,1.8855-.1005.0585.1905,2.652-1.218,3.696.9345-1.941.3855-3.333.3915-3.414.0135-.198,2.2365-1.8495,3.1185-2.916.8835-1.0665,1.7175-4.5945-1.944-4.7265-1.473-.0525-3.831.2235-6.477,1.758-1.158.6705-2.5245,2.121-4.098,4.3485Z" style="fill:#57648f"/>
    <path d="M88.5285,81.0135c-.21.1305.7215,2.6205,2.916,4.242,1.554,1.1475,3.9645,1.545,6.0555,1.7445-1.365-.465-2.8635-.738-5.166-2.28-1.9425-1.302-3.4455-3.9285-3.8055-3.7065Z" style="fill:#57648f"/>
    <path d="M33.0375,111.27c1.3455-.396,10.5075-3.1875,12.3405-2.373.672.2985,1.7955.6825,2.4525,1.344.9495-.1575,2.6895-.3165,3.3225-.237.855,1.389,4.7715,4.6245,5.694,10.2825.423,2.5845.2385,7.4895-.5535,14.7135H11.997c2.136-4.4295,12.261-17.877,18.273-19.6965.036-1.8405,2.1435-3.918,2.7675-4.0335Z" style="fill-rule:evenodd;fill:#344262"/>
    <path d="M14.43,135h-2.403c.039-.102.081-.2055.126-.312,1.2855-2.4915,4.629-7.2645,8.3625-11.4735.0795-.0525.141-.0795.183-.0795.7005,0-4.9575,5.3625-6.2685,11.865Z" style="fill-rule:evenodd;fill:#555f80"/>
    <path d="M55.4235,135c.369-4.008.5535-7.251.5535-9.729-1.2645-2.136-3.7965-5.301-4.1925-6.408,0-.3945,1.1085-1.0275.8715-1.581-.2505-.5835-.672-1.323-1.266-2.2155.474,1.3185.5535,1.977.237,1.977-1.6995,0-3.7185-.7905-5.22-1.4235-2.925.4155-5.772,1.5495-8.544,3.402-2.5305-.87-4.5735-1.896-7.314-2.703l-.438,1.5165c-1.4055.117-3.216.4935-5.4315,1.131,2.0055-1.806,3.951-3.1665,5.5905-3.663.036-1.8405,2.1435-3.918,2.7675-4.0335,1.3455-.396,10.5075-3.1875,12.3405-2.373.672.2985,1.7955.6825,2.4525,1.344.9495-.1575,2.6895-.3165,3.3225-.237.855,1.389,4.7715,4.6245,5.694,10.2825.423,2.5845.2385,7.4895-.5535,14.7135h-.87ZM31.6935,135h-4.2555c.042-.8805.063-2.013.063-3.402,0-.6465,0-1.6605-.3165-2.214-.846-1.482-2.61-3.9555-4.35-5.142s-1.6995-1.6785-.633-.9495c4.509,3.0855,7.9095,7.674,9.492,11.7075Z" style="fill-rule:evenodd;fill:#1e2734"/>
    <path d="M33.0375,111.507c1.1865-1.4235,8.544-3.876,11.628-2.769l-3.4005,2.9265-7.989,1.8195s-.2385-1.977-.2385-1.977Z" style="fill-rule:evenodd;fill:#97a7c7"/>
    <path d="M45.4575,111.111c1.5285,5.907,1.8195,13.869.87,23.889h-.159c-4.008-7.1715-8.226-13.896-12.6555-20.1705,2.4675-1.167,4.782-2.4015,7.0395-3.006,1.722-.462,3.4665-.3705,4.905-.7125Z" style="fill-rule:evenodd;fill:#caced9"/>
    <path d="M45.4935,111.255c.3765,1.4805.6765,3.09.8985,4.8255-.159.699-.4035,1.5045-1.0935,1.122.159,1.4235-1.977,4.983-5.379.87-.1575.396-.237,1.344-1.8195.711-.9825-.393-1.9815-.948-2.9955-1.6665-.4755-.6945-.954-1.383-1.4355-2.067,0,0,11.8245-3.795,11.8245-3.795Z" style="fill-rule:evenodd;fill:#76829c;fill-opacity:.4"/>
    <path d="M46.872,124.3125c.003,3.255-.1785,6.8175-.5445,10.6875h-.159c-1.41-2.5245-2.847-4.9935-4.311-7.407-.057-4.623-.1755-7.638-.3555-9.0465-.396.159-1.4235-.3945-3.402-3.5595-.1365-.9705.681-2.025,2.4525-3.1635l3.7965,1.503c.204,2.181.2835,3.4995.2385,3.9555-.036.351-.1665.4995-.2385.5535.8685,2.139,1.71,4.2975,2.523,6.477Z" style="fill:#001038;fill-rule:evenodd"/>
    <path d="M32.643,111.348c2.373-.6315,6.1695-.6315,7.9095-.3945,1.1865-1.029,2.9265-2.373,3.639-2.6895s1.7775,1.74,1.8195,2.847c.0525,1.4235-.132,3.0585-.5535,4.905-1.719-1.4235-3.3675-2.76-4.905-3.9555-.6735,1.8465-1.11,3.6915-1.5825,5.5365-1.818-.1575-6.0105-2.2935-6.723-4.587-.1215-.3915.03-1.5645.396-1.662Z" style="fill-rule:evenodd;fill:#e3e5eb"/>
    <path d="M34.383,129.147c.5265,1.3185,3.5325,3.5325,9.018,6.6435,1.0335,2.6325,2.8485,2.6325,5.442,0,2.388-3.954,5.2365-10.125,5.394-10.995.159-.87-1.551-2.445-4.2705-4.509l3.321-2.5305-1.5285-3.036c-.6285-.5835-.8295-.5475-.606.1095.5535.87,1.4235,2.136,1.4235,2.373,0,.711-1.74,1.74-2.769,2.847-.039.042-.219.1425.0795.396,2.61,2.214,3.876,3.2745,3.876,3.7965,0,.7245-2.0115,4.536-5.4585,11.0745h-4.746c-4.6185-2.652-7.6725-4.905-8.622-6.1695-.225-.3-.3555-1.227.1575-2.4525.1455-.345.444-.981.8715-1.662.3015-.48.9075-1.3515,1.818-2.61-1.407.396-2.382.6855-2.9265.87-2.3085.7845-3.6045,1.224-3.954,1.029-.462-.2565-.5565-1.7865-.555-3.876.0015-.8175-.0735-1.656-.0105-2.6265.0195-.3015.0825-1.1835.09-1.3155l-.474-.027c-.0075.1275-.0705,1.008-.09,1.3125-.063.9795-.0975,1.8435-.099,2.673-.0015,2.2545.003,3.7185.663,4.2555.726.5895,2.6895-.159,5.616-1.266-.498,1.317-.8625,2.427-1.1865,3.3225-.3945,1.092-.711,1.7805-.474,2.373Z" style="fill:#1e2734"/>
  </g>
</svg>
