<?xml version="1.0" encoding="utf-8"?>
<!-- Generator: Adobe Illustrator 25.4.1, SVG Export Plug-In . SVG Version: 6.00 Build 0)  -->
<svg version="1.1" id="vector" xmlns="http://www.w3.org/2000/svg" xmlns:xlink="http://www.w3.org/1999/xlink" x="0px" y="0px"
	 viewBox="0 0 108 108" style="enable-background:new 0 0 108 108;" xml:space="preserve">
<style type="text/css">
	.st0{fill:#010119;}
	.st1{fill:#8590A9;}
	.st2{fill:#28324B;}
	.st3{fill:#001038;}
	.st4{fill:#FFFFFF;}
	.st5{fill:#4C5D86;}
	.st6{fill:#040405;}
	.st7{fill:#343467;}
	.st8{fill:#1E2734;}
	.st9{fill:#344262;}
	.st10{fill:#0C0F15;}
	.st11{fill:#555F80;}
	.st12{fill:#8796B7;}
	.st13{fill:#B7CBE8;}
	.st14{fill:#57648F;}
</style>
<g>
	<path class="st0" d="M91.33502,100.16995c5.36545-4.19092,8.33551-8.46149,8.58746-12.03745
		c3.20554-1.96655,4.94998-4.75955,5.07156-7.84653c0.11243-2.9025-1.242-5.79749-3.64352-7.88699
		c-1.254-3.50098-3.6015-5.35501-6.90903-5.46149c2.15405-4.02448,3.40805-7.73254,3.75302-11.12997
		c0.28647-2.82449-0.87451-5.25-2.93701-6.67355c-1.92902-1.332-4.33649-1.53296-5.97299-0.37793
		c-0.84155,0.59399-1.44598,1.54349-1.92902,2.87549c-0.36301,1.00049-0.62997,2.082-1.01697,3.96899
		c-0.0195,0.0975-0.25204,1.23743-0.32254,1.578c-0.12598,0.61047-0.23703,1.11594-0.34946,1.5975
		c-0.39752,1.70544-0.81601,3.05548-1.34857,4.23294c-0.6915,1.53003-1.79095,2.66556-4.3125,4.72055
		c-0.09741,0.07947-0.42892,0.34946-0.47241,0.38544c-1.9725,1.60501-2.95056,2.50204-3.87753,3.69003
		c-1.16849,1.49396-1.8555,3.09-2.02203,4.91849c-1.17902,1.07254-2.41644,2.65649-3.74396,4.69647
		c-1.02603,1.57654-1.88855,3.06152-3.21002,5.44656c-0.84448,1.52252-2.35355,3.67795-4.52252,6.45749
		c-0.1485-0.84604-0.57449-2.22903-1.29895-4.32751c-0.35706-1.03052-0.77554-2.20496-1.35004-3.79495
		c-0.21295-0.58658-1.25253-3.44705-1.54349-4.25107c-0.11847-0.33151-0.23254-0.64499-0.34048-0.94794
		c-1.11301-3.09302-1.90952-5.40005-2.52905-7.36505c-1.34995-4.28696-6.62247-6.9375-10.68146-5.59195
		c-2.39099,0.79349-4.18954,1.38748-5.39401,1.78198c0.36603-2.64899,0.30002-4.71753-0.21899-6.22504
		c-0.66449-1.93195-2.09253-2.95798-4.12198-2.95798c-2.07156,0-3.49649,1.23752-4.16098,3.51746
		c-0.57156,1.95905-0.61652,4.75058-0.15903,8.40454c-1.80606,0.621-3.28802,1.11154-4.44754,1.46997
		c-0.50702-0.64499-1.41449-1.79846-1.73401-2.19598c-0.77701-0.97046-1.40845-1.72046-2.01151-2.37451
		c-1.51648-1.64548-2.81845-2.6445-4.1445-3.039c-1.53745-0.45749-3.0195-0.05402-4.40698,1.22855l-0.03745,0.03452l-0.03305,0.039
		c-1.22095,1.4415-1.422,3.13495-0.60452,4.9335c0.61652,1.35892,1.81805,2.78998,3.59857,4.3125
		c-3.82352,1.24649-6.37354,2.78998-7.64401,4.68448C7.875,82.17902,6.59702,85.63046,5.66254,89.289
		c-1.02301,4.00351-1.4415,7.41147-0.96899,9.17249c0.31943,1.19247,0.95096,3.03452,1.81796,5.36554
		c0.09604,0.25644,0.19501,0.51901,0.29553,0.78442C7.22479,105.71997,7.6734,106.86566,8.12,108h70.97882
		C82.44882,106.06027,87.15015,103.43784,91.33502,100.16995z"/>
	<path class="st1" d="M54.83698,75.21899c-0.09448-0.43048-0.22495-0.85052-0.38846-1.25848
		c-1.63797-4.07401-6.26852-6.04797-10.34253-4.40854l-34.81201,14.004c-2.8125,7.92004-3.82352,13.08151-3.03452,15.48157
		C6.74551,100.51849,7.84918,103.5238,9.54822,108h42.71136L60,98.6835L54.83698,75.21899z"/>
	<path id="path_2" class="st2" d="M26.442,77.2095c-2.118-3.37051-6.483-8.4735-8.379-9.3765
		c-1.896-0.9045-5.379-0.0165-4.389,3.2895c0.66,2.20351,3.6495,4.82551,8.9685,7.86751
		C26.5875,80.05049,27.8535,79.458,26.442,77.2095z"/>
	<path id="path_3" class="st3" d="M21.294,78c-4.4865-2.853-7.0275-5.33549-7.6245-7.44749C13.26,69.105,13.632,68.103,14.3385,67.5
		c-0.1425,1.0905,0.2895,2.142,1.296,3.1545C16.764,71.7915,19.5525,73.99651,24,77.271L21.294,78z"/>
	<path id="path_4" class="st2" d="M36.0675,76.188c1.266-3.9675,2.4045-10.8675,1.854-12.95551
		c-0.5505-2.088-3.594-4.158-5.5635-1.107c-1.3125,2.0355-1.398,6.156-0.255,12.366C33.903,78.2685,35.2245,78.834,36.0675,76.188z"
		/>
	<path id="path_5" class="st3" d="M35.1585,60.615c-0.9345,0.615-1.4445,1.6575-1.533,3.126
		c-0.1005,1.647,0.117,5.31451,0.648,10.99951l-2.412-1.644c-0.8805-5.436-0.7155-9.09301,0.498-10.971
		C33.1905,60.837,34.2135,60.462,35.1585,60.615z"/>
	<path class="st4" d="M56.2305,101.33395c4.14001-1.46246,6.31055-6.00449,4.84955-10.1445l-6.49503-18.39294
		c-1.44003-4.07547-5.87256-6.25497-9.97952-4.90503l-30.168,9.91498c-4.15503,1.36505-6.42746,5.832-5.08347,9.99454
		l5.97748,18.51151c0.00302,0.00897,0.00595,0.01804,0.00897,0.02701c0.19473,0.59555,0.45923,1.14725,0.77115,1.66049h19.73566
		l20.20624-6.60599C56.11349,101.37451,56.172,101.35345,56.2305,101.33395z"/>
	<path id="path_7" class="st5" d="M18.1665,80.424l24.5115-8.08051c3.087-1.01698,6.423,0.60901,7.52399,3.666L55.7805,91.5
		c1.122,3.117-0.495,6.55501-3.612,7.67699c-0.06,0.02251-0.12,0.04202-0.1785,0.0615l-25.041,8.136
		c-3.1515,1.02451-6.5355-0.7005-7.56-3.852l-5.0505-15.546C13.317,84.834,15.0285,81.4575,18.1665,80.424z M18.5625,81.6255
		c-2.4765,0.81599-3.8265,3.48-3.021,5.9595l5.052,15.546c0.807,2.48701,3.4785,3.8475,5.9655,3.0405l25.03949-8.13599
		C51.645,98.0205,51.693,98.004,51.7395,97.9875c2.46-0.8865,3.7365-3.59849,2.85-6.05849L49.011,76.4385
		c-0.8685-2.41351-3.501-3.6945-5.937-2.89201L18.5625,81.6255z"/>
	<path id="path_8" class="st6" d="M27.4305,86.808c0.936,0.336,1.404,0.7245,1.404,1.1655c0,0.4395-2.1525,2.2635-6.4575,5.4705
		c-1.278-0.6615-1.6665-1.1355-1.1655-1.422C21.711,91.7355,23.784,89.9985,27.4305,86.808z M49.218,82.7355
		c0.1875,0.38551,0.282,0.6915,0.282,0.918c0,0.3135-0.174,0.7365-0.282,1.023c-1.0455,0.0585-3.96,0.0585-8.7405,0
		c-0.4995-0.7455-0.4995-1.2615,0-1.5465c0.4875-0.279,3.243-0.48899,8.265-0.63C48.8235,82.4985,48.9825,82.57651,49.218,82.7355z
		 M39.4785,91.76401c-1.0305,0.49049-2.202,0.393-3.246-0.25801c-0.39149,1.63051-1.392,2.69099-2.757,2.9415
		c-1.689,0.3105-3.285-0.79649-3.498-2.51399c-0.051-0.414,0.267-0.789,0.7125-0.837c0.4455-0.04801,0.849,0.249,0.9,0.66299
		c0.1065,0.8475,0.81899,1.34251,1.5705,1.20451c0.924-0.1695,1.6305-1.20451,1.6305-3.0915c0-0.73499,1.011-1.03799,1.4715-0.44099
		c0.822,1.0665,1.74751,1.3335,2.4765,0.987c0.669-0.3195,0.9825-1.071,0.6705-1.82249c-0.1605-0.39001,0.0465-0.828,0.465-0.978
		c0.4185-0.15001,0.888,0.0435,1.05,0.43349C41.5365,89.52899,40.884,91.09349,39.4785,91.76401z"/>
	<path id="path_9" class="st7" d="M31.5,84.7155l1.593,1.6635c0.054,0.054,0.057,0.1395,0.009,0.19801
		C32.8155,86.9265,32.604,87.06,32.469,86.976C31.932,86.5425,31.608,85.78951,31.5,84.7155z M37.4865,80.619
		c-0.5115-0.92401-0.3495-1.2765,0.4875-1.0545c1.254,0.3315,1.083,0.86099,0.8955,1.272
		c-0.186,0.411-2.2545,3.26849-4.3215,4.12949C35.085,84.6765,36.0645,83.229,37.4865,80.619z"/>
	<path class="st8" d="M97.82703,91.10852c6.66147-14.79602-16.98148-18.94052-22.29153-14.3085
		c-1.77145,1.914-3.5235,2.94452-6.87003,9.55499C66.71521,90.20572,60.82553,97.422,50.99945,108h26.51413
		C86.82028,102.14246,95.83786,95.52667,97.82703,91.10852z"/>
	<path id="path_11" class="st9" d="M76.827,76.5c-0.03001,0.054-0.084,0.132-0.1905,0.25949
		C74.592,79.212,73.37849,81.918,74.61449,86.511c0.825,3.06149,3.453,5.6595,7.88551,7.79401
		c-3.90599,3.82799-6.717,6.42149-8.433,7.78049c-0.282,0.22351-8.95801,1.119-9.234,1.32901
		c-0.309,0.23399,7.7835-0.21751,7.4835,0c-0.705,0.50849-1.5225,1.00499-2.457,1.48799c-0.1845,0.0975-2.91299-0.10201-3.1365,0
		c-0.30151,0.1395,1.887,0.582,1.518,0.73351c-1.5915,0.64951-3.6735,1.36949-6.24599,2.1615
		c-2.9925,0.804-4.06351-0.789-3.21301-4.7805c0.37951-1.782,0.75451-3.189,1.1235-4.2195
		c4.4445-5.2995,7.284-9.1965,8.5185-11.6925c3.3-6.6645,5.025-7.70399,6.77099-9.633C75.6255,77.088,76.17751,76.76401,76.827,76.5
		z"/>
	<path id="path_12" class="st10" d="M75,82.5c0,2.784,1.2645,5.45551,3.5145,7.425C80.7645,91.89301,83.8185,93,87,93
		s6.2355-1.10699,8.4855-3.075C97.7355,87.95551,99,85.284,99,82.5s-1.2645-5.45551-3.5145-7.425C93.2355,73.10699,90.1815,72,87,72
		s-6.2355,1.10699-8.4855,3.075C76.2645,77.04449,75,79.716,75,82.5z"/>
	<path id="path_13" class="st11" d="M78,75c-0.0345,0.2085-0.12,0.45151-0.26401,0.7275
		c-0.7065,1.36199-2.39999,0.9765-4.03049,3.04949c-3.1935,4.062-6.9855,10.4595-7.3965,11.06851
		C64.656,92.2995,63.972,94.623,63.0705,97.5c-0.252-1.3755,0.17249-3.44099,1.27499-6.19801
		c1.73701-2.22449,2.9625-4.023,3.675-5.39548c3.43501-6.61201,5.2305-7.644,7.0485-9.55801C75.7695,75.753,76.78201,75.3015,78,75z
		"/>
	<path id="path_14" class="st4" d="M86.8455,91.5c4.35149,0,9.30899-1.335,12.0285-4.569c1.254-0.87,2.661-2.00401,3.37051-2.89349
		c1.8285-2.2935,2.11499-7.5195-2.28151-11.256c-1.05449-4.13251-4.467-4.785-8.31599-4.13251
		c3.87749-5.28001,5.05049-10.3455,5.05049-14.325c0-4.3575-5.94-6.654-7.62299-3.0255c-1.10101,2.376-0.88201,5.394-1.90051,8.934
		c-0.918,3.183-3.405,6.3465-4.34399,7.185c-3.288,2.943-5.00549,4.17-6.213,5.943C75.459,75.06,75,77.4165,75,80.6265
		C75,87.186,80.856,91.5,86.8455,91.5z"/>
	<path id="path_15" class="st12" d="M103.5,81.9795c-0.22501,0.7035-0.54449,1.31699-0.9315,1.8045
		c-0.73199,0.9195-2.1825,2.09249-3.4755,2.99099C96.28951,90.12,91.179,91.5,86.6925,91.5c-2.75849,0-5.49-0.89101-7.668-2.4795
		c-1.1925-1.533-1.34399-3.48899-0.453-5.868c3.12901-8.36099,12.201-7.0515,12.5805-6.88649
		c0.38101,0.16499,0.29401,0.82499,0,1.19249C90.957,77.703,90.39301,78.288,89.46449,79.215
		c-0.02849,0.46951,0.53401,0.5775,1.6875,0.32401c1.72951-0.3795,4.49101-3.86099,4.77-4.34401
		C96.201,74.712,98.6955,75.015,99.339,77.349C101.36099,77.9505,102.747,79.494,103.5,81.9795z"/>
	<path id="path_16" class="st13" d="M91.569,68.187L90.05251,70.5c-0.10801-1.2765-0.04951-2.256,0.174-2.94
		c0.33749-1.026,0.45151-1.30949,2.67749-5.7435C94.3545,58.929,94.899,55.323,94.539,51C95.397,51.8205,96,53.004,96,54.411
		c0,3.83401-1.05901,8.71201-4.5555,13.79851C91.485,68.202,91.52699,68.1945,91.569,68.187z"/>
	<path id="path_17" class="st14" d="M78.40199,78.4635c0.82951-2.09399,2.09851-3.7005,3.80701-4.818
		c2.1405-1.40099,4.503-2.07,6.42-2.22001c5.244-0.41249,4.7205,4.46101,2.499,6.40651c-1.10999,0.9705-1.94399,1.5615-2.499,1.8855
		c-0.1005,0.0585,0.1905,2.65201-1.21799,3.696c0.9345-1.94099,0.38549-3.33299,0.3915-3.414
		c0.01349-0.198,2.2365-1.8495,3.11849-2.916c0.88351-1.0665,1.71751-4.5945-1.94399-4.7265
		C87.504,72.3045,85.146,72.58051,82.5,74.11501C81.342,74.78551,79.9755,76.23599,78.40199,78.4635z"/>
	<path id="path_18" class="st14" d="M88.5285,81.0135c-0.21,0.13049,0.7215,2.62049,2.916,4.24199
		C92.9985,86.403,95.409,86.80049,97.5,87c-1.36501-0.465-2.86349-0.73799-5.166-2.28
		C90.3915,83.418,88.8885,80.7915,88.5285,81.0135z"/>
</g>
</svg>
