<svg xmlns="http://www.w3.org/2000/svg" viewBox="0 0 240 240">
  <defs>
    <clipPath id="a">
      <rect width="240" height="240"/>
    </clipPath>
  </defs>
  <g style="clip-path:url(#a)">
    <path d="M148.1767,193.0367c2.9367-5.3,4.8533-8.6,7.1333-12.1033,2.95-4.5333,5.7-8.0533,8.32-10.4367.37-4.0633,1.8967-7.61,4.4933-10.93,2.06-2.64,4.2333-4.6333,8.6167-8.2.0967-.08.8333-.68,1.05-.8567,5.6033-4.5667,8.0467-7.09,9.5833-10.49,1.1833-2.6167,2.1133-5.6167,2.9967-9.4067.25-1.07.4967-2.1933.7767-3.55.1567-.7567.6733-3.29.7167-3.5067.86-4.1933,1.4533-6.5967,2.26-8.82,1.0733-2.96,2.4167-5.07,4.2867-6.39,3.6367-2.5667,8.9867-2.12,13.2733.84,4.5833,3.1633,7.1633,8.5533,6.5267,14.83-.7667,7.55-3.5533,15.79-8.34,24.7333,7.35.2367,12.5667,4.3567,15.3533,12.1367,5.3367,4.6433,8.3467,11.0767,8.0967,17.5267-.27,6.86-4.1467,13.0667-11.27,17.4367-.56,7.9467-7.16,17.4367-19.0833,26.75-12.0167,9.3833-26.0133,16.4033-32.87,20.8-3.6267,2.3233-35.1567,21.4433-41.8333,23.9033.8767,10.1967-.1767,19.69-1.4067,32.7H24.9033c1.4067-4.5733,19.8633-32.7,36.21-43.07-10.1667,3.33-15.1167,4.3933-23.2033,4.3933-8.65,0-15.82-11.0733-17.7633-16.0233-1.94-4.95-1.0667-2.66-1.49-3.7233-1.2033-3.0333-2.4067-6.13-3.53-9.11-.2233-.59-.4433-1.1733-.6567-1.7433-1.9267-5.18-3.33-9.2733-4.04-11.9233-1.05-3.9133-.12-11.4867,2.1533-20.3833,2.0767-8.13,4.9167-15.8,7.18-19.1767,2.8233-4.21,8.49-7.64,16.9867-10.41-3.9567-3.3833-6.6267-6.5633-7.9967-9.5833-1.8167-3.9967-1.37-7.76,1.3433-10.9633l.0733-.0867.0833-.0767c3.0833-2.85,6.3767-3.7467,9.7933-2.73,2.9467.8767,5.84,3.0967,9.21,6.7533,1.34,1.4533,2.7433,3.12,4.47,5.2767.71.8833,2.7267,3.4467,3.8533,4.88,2.5767-.7967,5.87-1.8867,9.8833-3.2667-1.0167-8.12-.9167-14.3233.3533-18.6767,1.4767-5.0667,4.6433-7.8167,9.2467-7.8167,4.51,0,7.6833,2.28,9.16,6.5733,1.1533,3.35,1.3,7.9467.4867,13.8333,2.6767-.8767,6.6733-2.1967,11.9867-3.96,9.02-2.99,20.7367,2.9,23.7367,12.4267,1.3767,4.3667,3.1467,9.4933,5.62,16.3667.24.6733.4933,1.37.7567,2.1067.6467,1.7867,2.9567,8.1433,3.43,9.4467,1.2767,3.5333,2.2067,6.1433,3,8.4333,1.61,4.6633,2.5567,7.7367,2.8867,9.6167,4.82-6.1767,8.1733-10.9667,10.05-14.35h0Z" style="fill:#010119"/>
    <path d="M20.6533,185.68l77.36-31.12c9.0533-3.6433,19.3433.7433,22.9833,9.7967.3633.9067.6533,1.84.8633,2.7967l11.4733,52.1433-19.8733,23.92-68.75,15.7067c-8.5767,1.96-17.2867-2.69-20.4333-10.9033-5.56-14.51-9.0167-23.8233-10.3667-27.9367-1.7533-5.3333.4933-16.8033,6.7433-34.4033Z" style="fill:#8590a9"/>
    <path d="M58.76,171.5767c-4.7067-7.49-14.4067-18.83-18.62-20.8367-4.2133-2.01-11.9533-.0367-9.7533,7.31,1.4667,4.8967,8.11,10.7233,19.93,17.4833,8.7667,2.3567,11.58,1.04,8.4433-3.9567Z" style="fill:#28324b"/>
    <path d="M47.32,173.3333c-9.97-6.34-15.6167-11.8567-16.9433-16.55-.91-3.2167-.0833-5.4433,1.4867-6.7833-.3167,2.4233.6433,4.76,2.88,7.01,2.51,2.5267,8.7067,7.4267,18.59,14.7033l-6.0133,1.62Z" style="fill:#001038"/>
    <path d="M80.15,169.3067c2.8133-8.8167,5.3433-24.15,4.12-28.79-1.2233-4.64-7.9867-9.24-12.3633-2.46-2.9167,4.5233-3.1067,13.68-.5667,27.48,4,8.3933,6.9367,9.65,8.81,3.77Z" style="fill:#28324b"/>
    <path d="M78.13,134.7c-2.0767,1.3667-3.21,3.6833-3.4067,6.9467-.2233,3.66.26,11.81,1.44,24.4433l-5.36-3.6533c-1.9567-12.08-1.59-20.2067,1.1067-24.38,1.8467-2.8633,4.12-3.6967,6.22-3.3567Z" style="fill:#001038"/>
    <path d="M32.0833,172.9033l67.04-22.0333c9.1267-3,18.9767,1.8433,22.1767,10.9l14.4333,40.8733c3.2467,9.2-1.5767,19.2933-10.7767,22.5433-.13.0433-.26.09-.3933.1333l-68.19,22.2933c-9.2733,3.0333-19.25-2.0267-22.2833-11.3033-.0067-.02-.0133-.04-.02-.06l-13.2833-41.1367c-2.9867-9.25,2.0633-19.1767,11.2967-22.21Z" style="fill:#fff"/>
    <path d="M40.37,178.72l54.47-17.9567c6.86-2.26,14.2733,1.3533,16.72,8.1467l12.3967,34.4233c2.4933,6.9267-1.1,14.5667-8.0267,17.06-.1333.05-.2667.0933-.3967.1367l-55.6467,18.08c-7.0033,2.2767-14.5233-1.5567-16.8-8.56l-11.2233-34.5467c-2.27-6.9833,1.5333-14.4867,8.5067-16.7833h0ZM41.25,181.39c-5.5033,1.8133-8.5033,7.7333-6.7133,13.2433l11.2267,34.5467c1.7933,5.5267,7.73,8.55,13.2567,6.7567l55.6433-18.08c.1033-.0333.21-.07.3133-.1067,5.4667-1.97,8.3033-7.9967,6.3333-13.4633l-12.3967-34.4233c-1.93-5.3633-7.78-8.21-13.1933-6.4267,0,0-54.47,17.9533-54.47,17.9533Z" style="fill:#4c5d86"/>
    <path d="M60.9567,192.9067c2.08.7467,3.12,1.61,3.12,2.59,0,.9767-4.7833,5.03-14.35,12.1567-2.84-1.47-3.7033-2.5233-2.59-3.16,1.11-.6367,5.7167-4.4967,13.82-11.5867ZM109.3733,183.8567c.4167.8567.6267,1.5367.6267,2.04,0,.6967-.3867,1.6367-.6267,2.2733-2.3233.13-8.8.13-19.4233,0-1.11-1.6567-1.11-2.8033,0-3.4367,1.0833-.62,7.2067-1.0867,18.3667-1.4.18-.0033.5333.17,1.0567.5233ZM87.73,203.92c-2.29,1.09-4.8933.8733-7.2133-.5733-.87,3.6233-3.0933,5.98-6.1267,6.5367-3.7533.69-7.3-1.77-7.7733-5.5867-.1133-.92.5933-1.7533,1.5833-1.86s1.8867.5533,2,1.4733c.2367,1.8833,1.82,2.9833,3.49,2.6767,2.0533-.3767,3.6233-2.6767,3.6233-6.87,0-1.6333,2.2467-2.3067,3.27-.98,1.8267,2.37,3.8833,2.9633,5.5033,2.1933,1.4867-.71,2.1833-2.38,1.49-4.05-.3567-.8667.1033-1.84,1.0333-2.1733.93-.3333,1.9733.0967,2.3333.9633,1.36,3.2833-.09,6.76-3.2133,8.25Z" style="fill:#040405"/>
    <path d="M70,188.2567l3.54,3.6967c.12.12.1267.31.02.44-.6367.7767-1.1067,1.0733-1.4067.8867-1.1933-.9633-1.9133-2.6367-2.1533-5.0233ZM83.3033,179.1533c-1.1367-2.0533-.7767-2.8367,1.0833-2.3433,2.7867.7367,2.4067,1.9133,1.99,2.8267-.4133.9133-5.01,7.2633-9.6033,9.1767,1.1933-.6433,3.37-3.86,6.53-9.66Z" style="fill:#343467"/>
    <path d="M152.59,191.9c7.4367-14.69,11.33-16.98,15.2667-21.2333,11.8-10.2933,64.34-1.0833,49.5367,31.7967-8.7867,19.5167-79.2867,58.3367-93.8767,64.84-5.1567-2.3433-11.8867-7.8933-20.1933-16.65,27.8833-29.3733,44.3067-48.96,49.2667-58.7533Z" style="fill:#1e2734"/>
    <path d="M170.7267,170c-.0667.12-.1867.2933-.4233.5767-4.5433,5.45-7.24,11.4633-4.4933,21.67,1.8333,6.8033,7.6733,12.5767,17.5233,17.32-8.68,8.5067-14.9267,14.27-18.74,17.29-.6267.4967-19.9067,2.4867-20.52,2.9533-.6867.52,17.2967-.4833,16.63,0-1.5667,1.13-3.3833,2.2333-5.46,3.3067-.41.2167-6.4733-.2267-6.97,0-.67.31,4.1933,1.2933,3.3733,1.63-3.5367,1.4433-8.1633,3.0433-13.88,4.8033-6.65,1.7867-9.03-1.7533-7.14-10.6233.8433-3.96,1.6767-7.0867,2.4967-9.3767,9.8767-11.7767,16.1867-20.4367,18.93-25.9833,7.3333-14.81,11.1667-17.12,15.0467-21.4067.9567-.8533,2.1833-1.5733,3.6267-2.16Z" style="fill:#344262"/>
    <path d="M166.6667,183.3333c0,6.1867,2.81,12.1233,7.81,16.5,5,4.3733,11.7867,6.8333,18.8567,6.8333s13.8567-2.46,18.8567-6.8333c5-4.3767,7.81-10.3133,7.81-16.5s-2.81-12.1233-7.81-16.5c-5-4.3733-11.7867-6.8333-18.8567-6.8333s-13.8567,2.46-18.8567,6.8333c-5,4.3767-7.81,10.3133-7.81,16.5Z" style="fill:#0c0f15"/>
    <path d="M173.3333,166.6667c-.0767.4633-.2667,1.0033-.5867,1.6167-1.57,3.0267-5.3333,2.17-8.9567,6.7767-7.0967,9.0267-15.5233,23.2433-16.4367,24.5967-3.6733,5.4533-5.1933,10.6167-7.1967,17.01-.56-3.0567.3833-7.6467,2.8333-13.7733,3.86-4.9433,6.5833-8.94,8.1667-11.99,7.6333-14.6933,11.6233-16.9867,15.6633-21.24,1.5567-1.3233,3.8067-2.3267,6.5133-2.9967Z" style="fill:#555f80"/>
    <path d="M192.99,203.3333c9.67,0,20.6867-2.9667,26.73-10.1533,2.7867-1.9333,5.9133-4.4533,7.49-6.43,4.0633-5.0967,4.7-16.71-5.07-25.0133-2.3433-9.1833-9.9267-10.6333-18.48-9.1833,8.6167-11.7333,11.2233-22.99,11.2233-31.8333,0-9.6833-13.2-14.7867-16.94-6.7233-2.4467,5.28-1.96,11.9867-4.2233,19.8533-2.04,7.0733-7.5667,14.1033-9.6533,15.9667-7.3067,6.54-11.1233,9.2667-13.8067,13.2067-2.5733,3.7767-3.5933,9.0133-3.5933,16.1467,0,14.5767,13.0133,24.1633,26.3233,24.1633Z" style="fill:#fff"/>
    <path d="M230,182.1767c-.5,1.5633-1.21,2.9267-2.07,4.01-1.6267,2.0433-4.85,4.65-7.7233,6.6467-6.23,7.4333-17.5867,10.5-27.5567,10.5-6.13,0-12.2-1.98-17.04-5.51-2.65-3.4067-2.9867-7.7533-1.0067-13.04,6.9533-18.58,27.1133-15.67,27.9567-15.3033.8467.3667.6533,1.8333,0,2.65-.4333.5433-1.6867,1.8433-3.75,3.9033-.0633,1.0433,1.1867,1.2833,3.75.72,3.8433-.8433,9.98-8.58,10.6-9.6533s6.1633-.4,7.5933,4.7867c4.4933,1.3367,7.5733,4.7667,9.2467,10.29Z" style="fill:#8796b7"/>
    <path d="M203.4867,151.5267l-3.37,5.14c-.24-2.8367-.11-5.0133.3867-6.5333.75-2.28,1.0033-2.91,5.95-12.7633,3.2233-6.4167,4.4333-14.43,3.6333-24.0367,1.9067,1.8233,3.2467,4.4533,3.2467,7.58,0,8.52-2.3533,19.36-10.1233,30.6633.09-.0167.1833-.0333.2767-.05Z" style="fill:#b7cbe8"/>
    <path d="M174.2267,174.3633c1.8433-4.6533,4.6633-8.2233,8.46-10.7067,4.7567-3.1133,10.0067-4.6,14.2667-4.9333,11.6533-.9167,10.49,9.9133,5.5533,14.2367-2.4667,2.1567-4.32,3.47-5.5533,4.19-.2233.13.4233,5.8933-2.7067,8.2133,2.0767-4.3133.8567-7.4067.87-7.5867.03-.44,4.97-4.11,6.93-6.48,1.9633-2.37,3.8167-10.21-4.32-10.5033-3.2733-.1167-8.5133.4967-14.3933,3.9067-2.5733,1.49-5.61,4.7133-9.1067,9.6633Z" style="fill:#57648f"/>
    <path d="M196.73,180.03c-.4667.29,1.6033,5.8233,6.48,9.4267,3.4533,2.55,8.81,3.4333,13.4567,3.8767-3.0333-1.0333-6.3633-1.64-11.48-5.0667-4.3167-2.8933-7.6567-8.73-8.4567-8.2367Z" style="fill:#57648f"/>
    <path d="M73.4167,247.2667c2.99-.88,23.35-7.0833,27.4233-5.2733,1.4933.6633,3.99,1.5167,5.45,2.9867,2.11-.35,5.9767-.7033,7.3833-.5267,1.9,3.0867,10.6033,10.2767,12.6533,22.85.94,5.7433.53,16.6433-1.23,32.6967H26.66c4.7467-9.8433,27.2467-39.7267,40.6067-43.77.08-4.09,4.7633-8.7067,6.15-8.9633Z" style="fill-rule:evenodd;fill:#344262"/>
    <path d="M32.0667,300h-5.34c.0867-.2267.18-.4567.28-.6933,2.8567-5.5367,10.2867-16.1433,18.5833-25.4967.1767-.1167.3133-.1767.4067-.1767,1.5567,0-11.0167,11.9167-13.93,26.3667Z" style="fill-rule:evenodd;fill:#555f80"/>
    <path d="M123.1633,300c.82-8.9067,1.23-16.1133,1.23-21.62-2.81-4.7467-8.4367-11.78-9.3167-14.24,0-.8767,2.4633-2.2833,1.9367-3.5133-.5567-1.2967-1.4933-2.94-2.8133-4.9233,1.0533,2.93,1.23,4.3933.5267,4.3933-3.7767,0-8.2633-1.7567-11.6-3.1633-6.5.9233-12.8267,3.4433-18.9867,7.56-5.6233-1.9333-10.1633-4.2133-16.2533-6.0067l-.9733,3.37c-3.1233.26-7.1467,1.0967-12.07,2.5133,4.4567-4.0133,8.78-7.0367,12.4233-8.14.08-4.09,4.7633-8.7067,6.15-8.9633,2.99-.88,23.35-7.0833,27.4233-5.2733,1.4933.6633,3.99,1.5167,5.45,2.9867,2.11-.35,5.9767-.7033,7.3833-.5267,1.9,3.0867,10.6033,10.2767,12.6533,22.85.94,5.7433.53,16.6433-1.23,32.6967h-1.9333,0ZM70.43,300h-9.4567c.0933-1.9567.14-4.4733.14-7.56,0-1.4367,0-3.69-.7033-4.92-1.88-3.2933-5.8-8.79-9.6667-11.4267s-3.7767-3.73-1.4067-2.11c10.02,6.8567,17.5767,17.0533,21.0933,26.0167Z" style="fill-rule:evenodd;fill:#1e2734"/>
    <path d="M73.4167,247.7933c2.6367-3.1633,18.9867-8.6133,25.84-6.1533l-7.5567,6.5033-17.7533,4.0433s-.53-4.3933-.53-4.3933Z" style="fill-rule:evenodd;fill:#97a7c7"/>
    <path d="M101.0167,246.9133c3.3967,13.1267,4.0433,30.82,1.9333,53.0867h-.3533c-8.9067-15.9367-18.28-30.88-28.1233-44.8233,5.4833-2.5933,10.6267-5.3367,15.6433-6.68,3.8267-1.0267,7.7033-.8233,10.9-1.5833Z" style="fill-rule:evenodd;fill:#caced9"/>
    <path d="M101.0967,247.2333c.8367,3.29,1.5033,6.8667,1.9967,10.7233-.3533,1.5533-.8967,3.3433-2.43,2.4933.3533,3.1633-4.3933,11.0733-11.9533,1.9333-.35.88-.5267,2.9867-4.0433,1.58-2.1833-.8733-4.4033-2.1067-6.6567-3.7033-1.0567-1.5433-2.12-3.0733-3.19-4.5933,0,0,26.2767-8.4333,26.2767-8.4333Z" style="fill-rule:evenodd;fill:#76829c;fill-opacity:.4"/>
    <path d="M104.16,276.25c.0067,7.2333-.3967,15.15-1.21,23.75h-.3533c-3.1333-5.61-6.3267-11.0967-9.58-16.46-.1267-10.2733-.39-16.9733-.79-20.1033-.88.3533-3.1633-.8767-7.56-7.91-.3033-2.1567,1.5133-4.5,5.45-7.03l8.4367,3.34c.4533,4.8467.63,7.7767.53,8.79-.08.78-.37,1.11-.53,1.23,1.93,4.7533,3.8,9.55,5.6067,14.3933Z" style="fill:#001038;fill-rule:evenodd"/>
    <path d="M72.54,247.44c5.2733-1.4033,13.71-1.4033,17.5767-.8767,2.6367-2.2867,6.5033-5.2733,8.0867-5.9767s3.95,3.8667,4.0433,6.3267c.1167,3.1633-.2933,6.7967-1.23,10.9-3.82-3.1633-7.4833-6.1333-10.9-8.79-1.4967,4.1033-2.4667,8.2033-3.5167,12.3033-4.04-.35-13.3567-5.0967-14.94-10.1933-.27-.87.0667-3.4767.88-3.6933Z" style="fill-rule:evenodd;fill:#e3e5eb"/>
    <path d="M76.4067,286.9933c1.17,2.93,7.85,7.85,20.04,14.7633,2.2967,5.85,6.33,5.85,12.0933,0,5.3067-8.7867,11.6367-22.5,11.9867-24.4333.3533-1.9333-3.4467-5.4333-9.49-10.02l7.38-5.6233-3.3967-6.7467c-1.3967-1.2967-1.8433-1.2167-1.3467.2433,1.23,1.9333,3.1633,4.7467,3.1633,5.2733,0,1.58-3.8667,3.8667-6.1533,6.3267-.0867.0933-.4867.3167.1767.88,5.8,4.92,8.6133,7.2767,8.6133,8.4367,0,1.61-4.47,10.08-12.13,24.61h-10.5467c-10.2633-5.8933-17.05-10.9-19.16-13.71-.5-.6667-.79-2.7267.35-5.45.3233-.7667.9867-2.18,1.9367-3.6933.67-1.0667,2.0167-3.0033,4.04-5.8-3.1267.88-5.2933,1.5233-6.5033,1.9333-5.13,1.7433-8.01,2.72-8.7867,2.2867-1.0267-.57-1.2367-3.97-1.2333-8.6133.0033-1.8167-.1633-3.68-.0233-5.8367.0433-.67.1833-2.63.2-2.9233l-1.0533-.06c-.0167.2833-.1567,2.24-.2,2.9167-.14,2.1767-.2167,4.0967-.22,5.94-.0033,5.01.0067,8.2633,1.4733,9.4567,1.6133,1.31,5.9767-.3533,12.48-2.8133-1.1067,2.9267-1.9167,5.3933-2.6367,7.3833-.8767,2.4267-1.58,3.9567-1.0533,5.2733h0Z" style="fill:#1e2734"/>
  </g>
</svg>
