<?xml version="1.0" encoding="UTF-8"?>
<svg id="_图层_1" data-name="图层_1" xmlns="http://www.w3.org/2000/svg" version="1.1" xmlns:xlink="http://www.w3.org/1999/xlink" viewBox="0 0 108 108">
  <!-- Generator: Adobe Illustrator 29.3.1, SVG Export Plug-In . SVG Version: 2.1.0 Build 151)  -->
  <defs>
    <linearGradient id="_未命名的渐变_26" data-name="未命名的渐变 26" x1="54" y1="79.242" x2="54" y2="25.805" gradientUnits="userSpaceOnUse">
      <stop offset="0" stop-color="#ff578c"/>
      <stop offset=".25" stop-color="#fe6495"/>
      <stop offset=".5" stop-color="#ff6fa0"/>
      <stop offset=".75" stop-color="#ff7ba8"/>
      <stop offset="1" stop-color="#ff81ac"/>
    </linearGradient>
  </defs>
  <path d="M81.752,47.655c-.07-.92-.15-1.839-.238-2.757-.045-.461-.092-.92-.143-1.379l-.037-.342c-.008-.059-.012-.111-.021-.176l-.025-.196-.025-.194-.035-.194c-.023-.131-.045-.259-.076-.386-.437-2.056-1.561-3.944-3.125-5.302-.781-.681-1.668-1.237-2.621-1.629-.477-.198-.969-.354-1.469-.471l-.189-.042-.377-.073-.191-.028c-.127-.018-.254-.038-.381-.047l-.191-.02-.096-.008-.084-.006c-1.801-.137-3.602-.237-5.402-.321-.855-.038-1.711-.069-2.566-.097.111-.144.225-.285.336-.429.609-.796,1.199-1.605,1.783-2.423l.432-.616.215-.309c.07-.103.143-.206.205-.317.123-.22.217-.463.271-.734.053-.273.072-.57.004-.934-.291-1.524-1.697-2.591-3.232-2.399-.359.046-.631.156-.871.291-.236.139-.434.303-.6.491-.084.093-.158.196-.232.297l-.223.303-.441.61c-.582.815-1.158,1.637-1.711,2.474-.555.839-1.096,1.686-1.613,2.551-.199.334-.395.671-.588,1.009-.654-.006-1.309-.014-1.961-.016-2.131-.01-4.262-.002-6.392.024-.193-.342-.391-.681-.592-1.017-.518-.865-1.059-1.712-1.611-2.551-.555-.837-1.131-1.659-1.713-2.474l-.441-.61-.223-.303c-.074-.101-.146-.204-.23-.297-.168-.188-.365-.352-.602-.491-.238-.135-.512-.245-.871-.291-1.512-.186-2.939.851-3.232,2.399-.068.364-.049.661.004.934.055.271.148.515.271.734.062.111.135.214.205.317l.215.309.432.616c.584.817,1.174,1.627,1.785,2.423.113.148.23.295.346.443-1.18.04-2.357.083-3.537.141-.9.046-1.801.093-2.701.15l-1.352.089-.336.024-.17.012-.189.018c-.254.022-.508.059-.762.103-2.025.35-3.924,1.403-5.326,2.931-.703.762-1.283,1.645-1.713,2.597-.43.954-.705,1.979-.818,3.02-.391,3.665-.646,7.345-.75,11.034-.104,3.689-.053,7.388.176,11.077.057.922.125,1.845.207,2.767.039.461.082.922.129,1.381l.035.346.049.392c.039.261.084.523.145.78.461,2.068,1.602,3.972,3.199,5.328.797.683,1.701,1.233,2.672,1.623.484.194.984.35,1.492.463l.383.077.387.059c.129.018.258.03.387.046l.096.01.084.006.168.014c1.799.156,3.598.283,5.396.384,3.602.206,7.203.323,10.808.358,3.603.038,7.207-.02,10.808-.154,1.801-.069,3.602-.158,5.4-.269.9-.057,1.801-.117,2.699-.186l1.35-.105.674-.055.383-.042c.131-.014.258-.038.387-.055,2.057-.334,4.002-1.372,5.432-2.911.719-.766,1.314-1.651,1.758-2.609.443-.958.738-1.989.859-3.04.008-.067.014-.123.02-.182l.02-.172.035-.346.07-.691c.043-.461.084-.922.123-1.383.074-.922.139-1.847.189-2.769.102-1.847.162-3.695.176-5.542.029-3.693-.094-7.382-.369-11.064ZM76.639,58.63c-.012,1.739-.068,3.539-.166,5.352-.049.884-.109,1.779-.18,2.653-.037.438-.074.878-.115,1.317l-.066.667-.057.548-.012.096c-.051.444-.18.902-.371,1.325-.191.42-.449.807-.764,1.147l-.016.016c-.592.647-1.424,1.101-2.289,1.249-.045.008-.166.028-.166.028l-.273.028-.602.05-1.336.108c-.889.068-1.818.129-2.623.181-1.732.108-3.506.199-5.26.265-2.887.11-5.734.167-8.461.167-.697,0-1.395-.004-2.09-.012-3.555-.036-7.105-.155-10.556-.353-1.766-.102-3.527-.229-5.24-.38l-.25-.022-.197-.022-.191-.03-.201-.04c-.207-.05-.41-.114-.607-.195-.422-.173-.812-.414-1.158-.715-.687-.592-1.186-1.434-1.379-2.32l-.01-.038c-.016-.07-.033-.171-.053-.293l-.031-.251-.027-.281c-.045-.442-.084-.884-.123-1.323-.074-.864-.139-1.759-.195-2.663-.211-3.452-.268-7.059-.166-10.722.096-3.508.338-7.123.719-10.742.049-.448.17-.902.352-1.309.182-.412.432-.795.723-1.117.602-.667,1.418-1.125,2.252-1.271.127-.022.232-.036.301-.042l.176-.016.436-.032,1.336-.09c.887-.058,1.814-.106,2.613-.147,1.689-.082,3.465-.149,5.268-.197,2.695-.074,5.541-.11,8.711-.11.639,0,1.277,0,1.916.004,3.797.018,7.258.098,10.58.247,1.9.086,3.615.191,5.236.313l.074.006.195.02.186.028.174.032.07.018c.213.048.422.118.625.203.395.165.779.408,1.115.705.668.59,1.15,1.416,1.33,2.271l.02.092.033.189.033.241.01.102.035.319c.047.434.092.876.135,1.319.082.868.158,1.769.227,2.681.262,3.547.381,7.163.354,10.744ZM61.605,58.048l.174.02c.494.096.848.5.752.998h0l-.023.119-.023.105-.047.201c-.033.133-.068.264-.105.393-.076.262-.162.519-.258.775-.199.51-.443,1.014-.766,1.498-.324.484-.736.949-1.279,1.318-.271.18-.574.336-.896.441-.322.107-.662.166-.994.176-.65.02-1.303-.127-1.873-.404-.572-.275-1.057-.656-1.455-1.08-.33-.353-.609-.73-.853-1.119-.246.389-.525.766-.855,1.119-.398.424-.883.805-1.455,1.08-.57.277-1.224.424-1.871.404-.334-.01-.674-.07-.996-.176-.322-.105-.625-.26-.896-.441-.543-.369-.957-.834-1.279-1.318-.322-.484-.568-.988-.766-1.498-.096-.256-.182-.512-.258-.775-.037-.129-.072-.26-.105-.393h0l-.047-.201-.023-.105-.023-.119c-.096-.498.258-.902.754-.998.465-.092.887.113,1.017.564h0l.025.082.039.137.098.314h0l.053.156c.074.209.154.414.244.613.174.4.375.779.611,1.101.236.322.49.594.762.771.271.176.545.262.851.268.326.01.65-.053.959-.197.312-.143.609-.373.894-.65.285-.279.543-.615.775-.978.117-.18.227-.369.33-.562.051-.096.1-.195.146-.291h0l.07-.146.057-.125.037-.082c.154-.344.494-.545.846-.539h0c.363-.006.703.195.857.539h0l.037.082.057.125.07.146c.045.096.094.195.146.291.102.193.213.381.332.562.23.363.49.699.773.978.285.277.582.506.894.65.309.143.635.207.959.197.307-.006.58-.092.853-.268.271-.176.527-.449.762-.771.234-.322.434-.701.609-1.101.09-.199.172-.404.244-.613.037-.105.072-.209.105-.314l.047-.156.039-.137.025-.082c.129-.451.551-.656,1.019-.564l-.174-.02ZM59.195,49.469c.283-.998,1.086-1.672,2.078-1.385.459.133.92.266,1.373.412h0l.684.217.676.229c.9.309,1.793.633,2.678.977.443.168.883.348,1.32.523.439.18.879.357,1.312.547.436.188.865.387,1.293.594.213.105.426.213.637.324.213.111.418.225.635.352.758.445.885,1.264.604,2.137-.324,1.01-1.369,1.895-2.371,1.568h0l-.043-.016c-.205-.066-.424-.146-.637-.225-.215-.08-.43-.16-.643-.244l-.318-.127h0l-.639-.258h0l-.316-.133c-.424-.176-.844-.359-1.268-.535h0l-1.268-.529c-.848-.35-1.695-.691-2.543-1.029h0l-1.273-.5c-.424-.168-.85-.32-1.273-.49h0l-.051-.02c-.879-.354-.914-1.453-.646-2.389ZM46.723,48.014c.992-.287,1.795.387,2.08,1.385.268.936.232,2.035-.648,2.389h0l-.051.021c-.422.168-.85.32-1.273.488h0l-1.271.5c-.848.338-1.697.68-2.543,1.029h0l-1.27.529c-.424.176-.844.359-1.268.535-.211.09-.422.178-.635.262-.211.088-.426.172-.639.256-.213.084-.428.164-.641.244-.213.078-.434.158-.639.225h0l-.043.016c-1.002.326-2.047-.559-2.371-1.568-.281-.873-.154-1.691.604-2.137.219-.127.424-.24.637-.352.211-.111.422-.219.637-.324.426-.207.855-.406,1.291-.594.434-.189.873-.367,1.312-.547.439-.176.879-.355,1.322-.523.883-.344,1.775-.668,2.676-.977h0l.678-.229.682-.217c.453-.146.914-.279,1.373-.412Z" fill="url(#_未命名的渐变_26)" fill-rule="evenodd"/>
  <path d="M83.528,62.259v3.341c.026.157-.052.235-.209.209h-.627c-.444,0-.887.026-1.331.052-.235.026-.261.026-.287-.261l-.417-4.698-.209-2.323-.313-3.55c-.026-.287.026-.339.261-.366.731-.078,1.462-.078,2.193-.052l.548.078c.209.078.235.105.235.313l.078,1.409.026,1.566c.026,1.436.052,2.845.052,4.281h0ZM83.32,51.218v1.801c.026.287-.026.287-.261.287-.339,0-.652-.026-.966-.052-.209-.026-.235-.026-.209-.235l-.078-2.219c0-.496,0-.992-.026-1.488-.026-.235,0-.261.235-.261.365,0,.731.026,1.096.078.209,0,.209.052.209.261v1.827h0ZM81.336,51.897c0,.417-.026.809-.052,1.174,0,.131-.052.183-.183.209l-.809.078c-.13.026-.183-.052-.183-.183-.052-.392-.078-.757-.104-1.149-.052-.705-.105-1.436-.131-2.166l-.052-.522c-.026-.105.026-.157.13-.157l1.07-.078c.183,0,.235.026.235.235l.078,2.558h0ZM76.766,43.649h.47c.235,0,.287.078.287.313l.209,3.158.47,6.551.287,3.419.209,2.636.418,4.542c0,.209-.026.235-.235.235l-1.88-.078c-.13.026-.209-.052-.209-.183l-.078-.914c-.078-.783-.157-1.566-.209-2.375l-.418-4.124-.444-3.733-.313-2.636-.339-2.402c-.157-1.07-.339-2.166-.522-3.237l-.131-.731c-.026-.131,0-.183.131-.209.731-.13,1.436-.261,2.297-.235h0ZM73.206,54.379c.705-.026.783.052.861.705.183,1.07.313,2.114.418,3.184l.339,3.132.209,2.114.183,1.696c0,.235-.026.287-.235.313l-1.931.183c-.209.026-.261,0-.287-.209l-1.592-8.196-.417-2.323c-.026-.13.026-.209.157-.235.809-.183,1.566-.313,2.297-.365h0ZM72.554,48.819c.209,0,.418.026.6.052.105.026.157.078.183.209l.104.914.261,2.845c.026.209.026.235-.183.235l-1.018.052c-.209.026-.235,0-.261-.209l-.235-2.088-.209-1.749c-.026-.131.026-.209.157-.209.183-.026.392-.052.6-.052h0ZM71.744,52.865c.026.313,0,.365-.313.392l-.627.157c-.209.078-.235.026-.261-.157l-.653-3.68c-.078-.235-.026-.287.209-.313l.914-.157c.209-.026.261-.026.261.183.078.444.157.887.209,1.331l.261,2.088v.157h0ZM70.445,60.31c-.13-.157-.261-.287-.444-.417-.47-.366-.966-.679-1.514-.94-1.122-.496-2.245-.887-3.419-1.175-1.331-.339-2.715-.496-4.098-.496-.444,0-.861.026-1.305.105-.235.026-.261.026-.261-.183-.209-2.062-.418-4.15-.548-6.238-.078-1.331-.157-2.688-.183-4.02-.026-1.54-.026-3.054,0-4.568l.026-.339c.026-.444.026-.861.026-1.279.026-.157-.052-.209-.209-.183-.235.052-.444.13-.679.235l-3.628,1.514c-.13.026-.157.13-.13.261.235,1.07.417,2.14.6,3.21.235,1.331.47,2.662.652,3.994l.339,2.427.313,2.532.548,4.751.496,4.985.183,2.532c.026.209.078.261.287.261h.783c.366,0,.731,0,1.096-.026,1.174-.078,2.349-.235,3.524-.47,1.645-.287,3.185-.835,4.672-1.618.861-.444,1.644-1.018,2.323-1.723.418-.418.705-.914.861-1.488.183-.6.105-1.148-.313-1.644ZM64.128,63.233c-.939.731-1.618,1.201-2.01,1.436l-.627-4.62c1.514.496,2.976,1.044,4.385,1.671-.235.261-.809.757-1.749,1.514ZM53.083,62.259v3.341c.026.157-.052.235-.209.209h-.627c-.444,0-.887.026-1.331.052-.235.026-.261.026-.287-.261l-.417-4.698-.209-2.323-.313-3.55c-.026-.287.026-.339.261-.366.731-.078,1.462-.078,2.193-.052l.548.078c.209.078.235.105.235.313l.078,1.409.026,1.566c.026,1.436.052,2.845.052,4.281h0ZM52.874,51.218v1.801c.026.287-.026.287-.261.287-.339,0-.652-.026-.966-.052-.209-.026-.235-.026-.209-.235l-.078-2.219c0-.496,0-.992-.026-1.488-.026-.235,0-.261.235-.261.365,0,.731.026,1.096.078.209,0,.209.052.209.261v1.827h0ZM50.891,51.897c0,.417-.026.809-.052,1.174,0,.131-.052.183-.183.209l-.809.078c-.13.026-.183-.052-.183-.183-.052-.392-.078-.757-.104-1.149-.052-.705-.105-1.436-.131-2.166l-.052-.522c-.026-.105.026-.157.13-.157l1.07-.078c.183,0,.235.026.235.235l.078,2.558h0ZM46.321,43.649h.47c.235,0,.287.078.287.313l.209,3.158.47,6.551.287,3.419.209,2.636.418,4.542c0,.209-.026.235-.235.235l-1.88-.078c-.13.026-.209-.052-.209-.183l-.078-.914c-.078-.783-.157-1.566-.209-2.375l-.418-4.124-.444-3.733-.313-2.636-.339-2.402c-.157-1.07-.339-2.166-.522-3.237l-.131-.731c-.026-.131,0-.183.131-.209.731-.13,1.436-.261,2.297-.235h0ZM42.761,54.379c.705-.026.783.052.861.705.183,1.07.313,2.114.418,3.184l.339,3.132.209,2.114.183,1.696c0,.235-.026.287-.235.313l-1.931.183c-.209.026-.261,0-.287-.209l-1.592-8.196-.417-2.323c-.026-.13.026-.209.157-.235.809-.183,1.566-.313,2.297-.365h0ZM42.108,48.819c.209,0,.418.026.6.052.105.026.157.078.183.209l.104.914.261,2.845c.026.209.026.235-.183.235l-1.018.052c-.209.026-.235,0-.261-.209l-.235-2.088-.209-1.749c-.026-.131.026-.209.157-.209.183-.026.392-.052.6-.052h0ZM41.299,52.865c.026.313,0,.365-.313.392l-.627.157c-.209.078-.235.026-.261-.157l-.653-3.68c-.078-.235-.026-.287.209-.313l.914-.157c.209-.026.261-.026.261.183.078.444.157.887.209,1.331l.261,2.088v.157h0ZM40,60.31c-.13-.157-.261-.287-.444-.417-.47-.366-.966-.679-1.514-.94-1.122-.496-2.245-.887-3.419-1.175-1.331-.339-2.715-.496-4.098-.496-.444,0-.861.026-1.305.105-.235.026-.261.026-.261-.183-.209-2.062-.418-4.15-.548-6.238-.078-1.331-.157-2.688-.183-4.02-.026-1.54-.026-3.054,0-4.568l.026-.339c.026-.444.026-.861.026-1.279.026-.157-.052-.209-.209-.183-.235.052-.444.13-.679.235l-3.628,1.514c-.13.026-.157.13-.13.261.235,1.07.417,2.14.6,3.21.235,1.331.47,2.662.652,3.994l.339,2.427.313,2.532.548,4.751.496,4.985.183,2.532c.026.209.078.261.287.261h.783c.366,0,.731,0,1.096-.026,1.174-.078,2.349-.235,3.524-.47,1.645-.287,3.185-.835,4.672-1.618.861-.444,1.644-1.018,2.323-1.723.418-.418.705-.914.861-1.488.183-.6.105-1.148-.313-1.644ZM33.683,63.233c-.939.731-1.618,1.201-2.01,1.436l-.627-4.62c1.514.496,2.976,1.044,4.385,1.671-.235.261-.809.757-1.749,1.514Z" fill="#fff"/>
</svg>