<?xml version="1.0" encoding="UTF-8"?>
<svg id="_图层_1" data-name="图层_1" xmlns="http://www.w3.org/2000/svg" version="1.1" viewBox="0 0 108 108">
  <!-- Generator: Adobe Illustrator 29.3.1, SVG Export Plug-In . SVG Version: 2.1.0 Build 151)  -->
  <defs>
    <style>
      .st0 {
        fill: #ee301a;
      }

      .st1 {
        fill: #ea6331;
      }

      .st2 {
        fill: #eb3f72;
      }

      .st3 {
        fill: #ea522f;
      }

      .st4 {
        fill: #eb645d;
        opacity: .75;
      }

      .st5 {
        fill: #e90e1f;
      }

      .st6 {
        fill: #e83942;
      }

      .st7 {
        fill: #ea2125;
      }

      .st8 {
        fill: #ea422e;
      }
    </style>
  </defs>
  <rect class="st5" x="0" y="0" width="108" height="108" transform="translate(108 108) rotate(-180)"/>
  <polygon class="st6" points="21.152 0 59.454 27.828 40.174 87.167 90.65 50.494 96.078 54.437 79.734 86.513 79.734 108 108 108 108 63.099 108 58.2 108 0 21.152 0"/>
  <g>
    <polygon class="st1" points="103.75 0 90.809 17.884 90.809 50.217 108 62.708 108 0 103.75 0"/>
    <polygon class="st3" points="90.809 17.275 90.809 0 103.359 0 90.809 17.275"/>
    <polygon class="st3" points="35.768 0 21.69 0 59.826 27.707 40.776 86.339 90.381 50.298 90.492 17.781 35.768 0"/>
    <polygon class="st1" points="90.492 0 90.492 17.448 36.792 0 90.492 0"/>
  </g>
  <g>
    <path class="st8" d="M96.346,54.632l-16.189,31.747h20.776v-10.024c-1.936-.083-3.48-1.678-3.48-3.635,0-2.01,1.629-3.639,3.639-3.639s3.639,1.629,3.639,3.639c0,1.957-1.544,3.552-3.48,3.635v10.024h6.75v-23.28l-11.654-8.467Z"/>
    <circle class="st8" cx="101.092" cy="72.721" r="3.322"/>
    <circle class="st5" cx="101.092" cy="72.721" r="3.322"/>
    <rect class="st2" x="101.25" y="86.695" width="6.75" height="21.305"/>
    <rect class="st8" x="80.051" y="95.871" width="20.883" height="9.281"/>
    <rect class="st7" x="80.051" y="105.469" width="20.883" height="2.531"/>
    <rect class="st7" x="80.051" y="86.695" width="20.883" height="8.859"/>
    <polygon class="st4" points="101.08 44.619 93.237 60.012 108 60.012 108 59.695 108 58.897 108 58.2 101.08 44.619"/>
    <path class="st6" d="M108,58.897v-.697l-6.92-13.581-7.843,15.393h14.763v-.316h-2.961l1.684-3.305,1.277,2.507ZM93.754,59.695l7.318-14.363,1.676,3.258-5.658,11.105h-3.336ZM97.445,59.695l5.481-10.757,1.721,3.377-3.76,7.38h-3.442ZM104.684,59.695h-3.442l3.582-7.031,1.721,3.377-1.862,3.653Z"/>
  </g>
  <path class="st0" d="M12.92,16.875C7.229,16.875,2.973,18.081,0,19.406v54.527c2.074.686,5.17,1.582,8.965,1.582.68,0,3.099-.382,6.328-1.169L0,104.73v3.27h17.613l22.641-47.691c.917-1.929,2.882-10.111,2.882-13.481,0-19.012-14.06-29.953-30.217-29.953ZM12.92,60.855c-6.844,0-12.393-6.28-12.393-14.027s5.548-14.027,12.393-14.027,12.393,6.28,12.393,14.027-5.548,14.027-12.393,14.027Z"/>
</svg>