<?xml version="1.0" encoding="utf-8"?>
<!-- Generator: Adobe Illustrator 25.4.1, SVG Export Plug-In . SVG Version: 6.00 Build 0)  -->
<svg version="1.1" id="图层_1" xmlns="http://www.w3.org/2000/svg" xmlns:xlink="http://www.w3.org/1999/xlink" x="0px" y="0px"
	 viewBox="0 0 108 108" enable-background="new 0 0 108 108" xml:space="preserve">
<g>
	
		<linearGradient id="SVGID_1_" gradientUnits="userSpaceOnUse" x1="36.633" y1="23.1325" x2="46.617" y2="23.1325" gradientTransform="matrix(1 0 0 -1 0 108)">
		<stop  offset="0" style="stop-color:#FFFFFF;stop-opacity:0"/>
		<stop  offset="0" style="stop-color:#000000;stop-opacity:0"/>
		<stop  offset="1" style="stop-color:#000000"/>
	</linearGradient>
	<rect x="36.633" y="84.797" fill="url(#SVGID_1_)" width="9.984" height="0.141"/>
	
		<linearGradient id="SVGID_00000083769620514569809090000014500641261289300109_" gradientUnits="userSpaceOnUse" x1="-315.367" y1="23.1325" x2="-305.383" y2="23.1325" gradientTransform="matrix(-1 0 0 -1 -244 108)">
		<stop  offset="0" style="stop-color:#FFFFFF;stop-opacity:0"/>
		<stop  offset="0" style="stop-color:#000000;stop-opacity:0"/>
		<stop  offset="1" style="stop-color:#000000"/>
	</linearGradient>
	
		<rect x="61.383" y="84.797" fill="url(#SVGID_00000083769620514569809090000014500641261289300109_)" width="9.984" height="0.141"/>
	<g>
		<path d="M33.402,80.457v-6.489h6.046v6.489H38.51v-0.34h-4.193v0.34H33.402z M34.317,74.787v4.526h4.193v-4.526H34.317z
			 M34.598,75.954v-0.753h3.618v0.753h-1.432v0.554h1.329v0.746h-0.591c0.138,0.123,0.34,0.318,0.605,0.583l-0.34,0.295h0.495V78.9
			h-3.736v-0.768h1.373v-0.879h-1.203v-0.746h1.203v-0.554L34.598,75.954L34.598,75.954z M37.499,78.132
			c-0.103-0.128-0.266-0.308-0.487-0.539l0.369-0.34h-0.598v0.879H37.499z"/>
		<path d="M41.471,76.197v-0.664h3.979v0.664h-1.285c-0.261,0.167-0.487,0.303-0.679,0.406c0.118,0.143,0.271,0.359,0.458,0.65
			c0.743-0.34,1.373-0.664,1.89-0.974l0.472,0.716c-0.379,0.197-0.726,0.369-1.041,0.517c0.153,0.438,0.342,0.79,0.568,1.056
			c0.217,0.256,0.524,0.492,0.923,0.709c-0.212,0.271-0.404,0.534-0.576,0.79c-0.433-0.315-0.77-0.635-1.011-0.96
			c-0.256-0.344-0.465-0.768-0.628-1.27l-0.295,0.125c0.098,0.3,0.148,0.657,0.148,1.071c0,0.448-0.086,0.778-0.258,0.989
			c-0.177,0.217-0.453,0.33-0.827,0.34c-0.374,0.01-0.696,0.015-0.967,0.015c-0.074-0.325-0.14-0.583-0.199-0.775
			c0.202,0.005,0.46,0.007,0.775,0.007c0.241,0,0.404-0.042,0.487-0.125c0.084-0.084,0.125-0.241,0.125-0.473
			c0-0.059-0.005-0.148-0.015-0.266c-0.891,0.63-1.897,1.125-3.02,1.484c-0.069-0.192-0.187-0.45-0.354-0.775
			c1.206-0.276,2.274-0.76,3.204-1.454c-0.02-0.054-0.054-0.14-0.103-0.258c-0.802,0.502-1.701,0.908-2.695,1.218
			c-0.094-0.226-0.209-0.475-0.347-0.746c1.019-0.222,1.92-0.566,2.702-1.034c-0.049-0.064-0.101-0.13-0.155-0.199
			c-0.62,0.276-1.336,0.517-2.148,0.724c-0.143-0.335-0.254-0.581-0.332-0.738c1.097-0.162,1.979-0.418,2.643-0.768h-1.439V76.197z
			 M40.342,75.895v-1.558h2.687l-0.199-0.613l1.056-0.081c0.074,0.202,0.143,0.433,0.207,0.694h2.466v1.558H45.65V75.09h-4.408
			v0.805H40.342z"/>
		<path d="M47.348,74.898c-0.035-0.394-0.064-0.664-0.089-0.812c0.876-0.03,1.624-0.079,2.244-0.148l0.125,0.812
			c-0.025,0.005-0.278,0.027-0.76,0.066v0.849h0.701v0.849h-0.701v0.517c0.384,0.251,0.684,0.455,0.901,0.613V74.95h0.738
			c-0.015-0.03-0.185-0.357-0.509-0.982l0.827-0.244c0.276,0.458,0.465,0.797,0.568,1.019l-0.657,0.207h1.019
			c0.182-0.349,0.374-0.763,0.576-1.24l0.901,0.281c-0.148,0.276-0.335,0.596-0.561,0.96h0.775v2.85h-0.923v1.41
			c0,0.094,0.017,0.16,0.052,0.199c0.034,0.039,0.091,0.059,0.17,0.059h0.081c0.079,0,0.138-0.022,0.177-0.066
			c0.039-0.044,0.066-0.121,0.081-0.229c0.025-0.276,0.049-0.551,0.074-0.827c0.226,0.099,0.45,0.195,0.672,0.288
			c-0.049,0.477-0.094,0.824-0.133,1.041c-0.039,0.226-0.128,0.394-0.266,0.502s-0.337,0.162-0.598,0.162h-0.258
			c-0.32,0-0.549-0.069-0.687-0.207s-0.207-0.372-0.207-0.701V77.8h-0.428c0,0.054-0.003,0.108-0.007,0.162
			c-0.02,0.596-0.13,1.071-0.332,1.425c-0.202,0.359-0.586,0.721-1.152,1.085c-0.177-0.261-0.359-0.502-0.546-0.724
			c0.448-0.271,0.751-0.527,0.908-0.768s0.248-0.588,0.273-1.041c0-0.059,0.002-0.106,0.007-0.14H49.77v-0.052l-0.34,0.65
			l-0.561-0.487v2.488h-0.827v-2.252c-0.172,0.394-0.372,0.76-0.598,1.1c-0.103-0.344-0.204-0.66-0.303-0.945
			c0.369-0.522,0.669-1.112,0.901-1.772v-0.015h-0.797v-0.849h0.797v-0.797L47.348,74.898z M50.619,75.777v1.196h1.971v-1.196
			H50.619z"/>
		<path d="M54.495,77.386c-0.108-0.266-0.219-0.534-0.332-0.805c0.989-0.123,1.796-0.271,2.422-0.443
			c-0.31-0.207-0.608-0.453-0.893-0.738c-0.143,0.123-0.406,0.332-0.79,0.628c-0.158-0.177-0.362-0.399-0.613-0.664
			c0.812-0.527,1.452-1.078,1.92-1.654l1.011,0.096c-0.113,0.143-0.226,0.283-0.34,0.421h3.241v0.805
			c-0.497,0.458-0.97,0.824-1.418,1.1c0.566,0.128,1.28,0.236,2.141,0.325c-0.143,0.354-0.249,0.63-0.318,0.827
			c-1.275-0.158-2.249-0.367-2.924-0.628C56.835,76.951,55.799,77.194,54.495,77.386z M57.566,80.347
			c-0.03-0.197-0.081-0.492-0.155-0.886c0.472,0.015,0.886,0.022,1.24,0.022c0.197,0,0.335-0.034,0.413-0.103
			c0.074-0.069,0.123-0.202,0.148-0.399c0.015-0.148,0.027-0.34,0.037-0.576h-1.89c-0.153,0.507-0.423,0.913-0.812,1.218
			c-0.379,0.295-0.982,0.586-1.809,0.871c-0.177-0.335-0.345-0.618-0.502-0.849c0.655-0.182,1.132-0.357,1.432-0.524
			c0.325-0.187,0.559-0.426,0.701-0.716h-1.742v-0.783h1.956c0.015-0.128,0.032-0.33,0.052-0.605h0.945l-0.059,0.605h2.709
			c-0.015,0.295-0.047,0.773-0.096,1.432c-0.03,0.463-0.138,0.785-0.325,0.967c-0.192,0.187-0.532,0.29-1.019,0.31
			C58.555,80.342,58.147,80.347,57.566,80.347z M58.917,74.987h-2.518c0.354,0.325,0.763,0.591,1.226,0.797
			C58.063,75.592,58.494,75.326,58.917,74.987z"/>
		<path d="M62.025,79.97c-0.217-0.113-0.477-0.222-0.783-0.325c0.246-0.595,0.44-1.179,0.583-1.75l0.827,0.258
			C62.446,78.863,62.237,79.468,62.025,79.97z M61.996,77.438v-2.717h1.107c-0.182-0.305-0.357-0.571-0.524-0.797l0.96-0.251
			c0.31,0.477,0.529,0.824,0.657,1.041l-0.022,0.007h0.724c0.222-0.34,0.423-0.687,0.605-1.041l1.004,0.251l-0.554,0.79h1.13v2.717
			h-2.34c0.172,0.202,0.426,0.519,0.76,0.952l-0.746,0.546c-0.33-0.507-0.591-0.879-0.783-1.115l0.591-0.384L61.996,77.438
			L61.996,77.438z M67.031,79.822c-0.276-0.551-0.443-0.881-0.502-0.989c-0.084,0.389-0.153,0.662-0.207,0.819
			c-0.069,0.226-0.187,0.389-0.354,0.487s-0.406,0.148-0.716,0.148h-1.477c-0.315,0-0.549-0.086-0.701-0.258
			c-0.158-0.177-0.236-0.45-0.236-0.82v-1.351h0.893v1.093c0,0.172,0.037,0.295,0.111,0.369c0.074,0.074,0.192,0.111,0.354,0.111
			h0.812c0.187,0,0.322-0.03,0.406-0.089s0.135-0.158,0.155-0.295c0.034-0.197,0.059-0.386,0.074-0.568
			c0.177,0.064,0.453,0.15,0.827,0.258c-0.113-0.202-0.226-0.404-0.34-0.605l0.731-0.369c0.31,0.492,0.637,1.031,0.982,1.617
			L67.031,79.822z M62.933,75.555v1.056h3.212v-1.056H62.933z"/>
		<path d="M70.065,79.608v-1.956h3.005v1.838h0.059c0.202,0,0.34-0.042,0.413-0.126c0.079-0.084,0.12-0.244,0.126-0.48
			c0.02-0.354,0.034-0.903,0.044-1.646h-3.994c-0.015,0.714-0.074,1.29-0.177,1.728c-0.108,0.468-0.308,0.972-0.598,1.514
			c-0.177-0.212-0.399-0.465-0.664-0.76c0.236-0.468,0.391-0.901,0.465-1.299c0.074-0.399,0.111-0.997,0.111-1.794v-2.614h5.463
			v2.082h-4.592v0.413h4.873c-0.02,1.034-0.044,1.922-0.074,2.665c-0.02,0.374-0.103,0.65-0.251,0.827
			c-0.153,0.177-0.401,0.283-0.746,0.317c-0.32,0.025-0.687,0.037-1.1,0.037c-0.094-0.409-0.155-0.657-0.185-0.746
			C72.243,79.608,70.065,79.608,70.065,79.608z M69.725,74.787v0.576h3.728v-0.576H69.725z M70.885,78.338v0.591h1.366v-0.591
			H70.885z"/>
	</g>
	<g>
		<path d="M47.988,83.405v-0.753c0.15-0.357,0.273-0.694,0.37-1.011l0.813,0.106c-0.115,0.304-0.229,0.606-0.344,0.905h0.879
			c0.128-0.471,0.222-0.881,0.284-1.229l0.853,0.079c-0.132,0.568-0.227,0.952-0.284,1.15h1.745c-0.3-0.3-0.546-0.538-0.74-0.714
			l0.502-0.483c0.247,0.198,0.557,0.467,0.932,0.806l-0.403,0.39h1.071v0.753h-3.311c-0.031,0.101-0.09,0.282-0.178,0.542h2.928
			v0.681c-0.348,0.617-0.738,1.102-1.17,1.454c0.449,0.194,1.029,0.355,1.738,0.482c-0.11,0.194-0.251,0.483-0.423,0.866
			c-0.85-0.242-1.54-0.522-2.069-0.839c-0.533,0.3-1.24,0.599-2.122,0.899c-0.145-0.348-0.275-0.615-0.39-0.8
			c0.718-0.185,1.322-0.39,1.811-0.615c-0.313-0.291-0.582-0.634-0.806-1.031c-0.392,0.705-0.941,1.401-1.646,2.089
			c-0.128-0.511-0.214-0.837-0.258-0.978c0.432-0.427,0.78-0.853,1.044-1.276c0.256-0.414,0.478-0.905,0.668-1.474L47.988,83.405
			L47.988,83.405z M52.125,84.654h-1.824c0.238,0.414,0.531,0.749,0.879,1.005C51.568,85.381,51.883,85.046,52.125,84.654z"/>
		<path d="M54.472,82.955v-0.773h1.751c0.057-0.141,0.15-0.397,0.278-0.767l0.866,0.112c-0.15,0.401-0.231,0.619-0.245,0.654h2.968
			v0.773h-3.318c-0.207,0.392-0.408,0.725-0.601,0.998h0.925V83.22h0.826v0.734H59.7v2.089c0,0.264-0.055,0.463-0.165,0.595
			c-0.106,0.128-0.278,0.198-0.516,0.211c-0.264,0.013-0.509,0.02-0.734,0.02c-0.031-0.176-0.09-0.436-0.178-0.78
			c0.079,0.004,0.245,0.007,0.496,0.007c0.106,0,0.183-0.024,0.231-0.073c0.048-0.048,0.073-0.126,0.073-0.231v-1.084h-0.985v2.756
			h-0.826v-2.756h-0.972v2.254h-0.8v-1.976c-0.251,0.269-0.524,0.542-0.82,0.82c-0.084-0.352-0.163-0.672-0.238-0.958
			c0.67-0.555,1.198-1.185,1.586-1.89h-1.38V82.955z"/>
	</g>
	<path d="M73.441,29.883c-3.211-0.409-7.018-1.148-11.18-2.492c-3.149-1.017-5.91-2.188-8.262-3.344
		c-2.352,1.156-5.112,2.327-8.262,3.344c-4.162,1.344-7.969,2.084-11.18,2.492c-0.074,0.932-0.154,2.294-0.141,3.938
		c0.032,3.884,0.241,13.849,6.609,23.337c4.12,6.139,9.298,9.813,12.973,11.89c3.674-2.077,8.852-5.751,12.973-11.89
		c6.368-9.488,6.578-19.453,6.609-23.337C73.595,32.177,73.516,30.815,73.441,29.883z M64.91,54.422
		c-3.541,5.755-8.031,9.213-10.91,10.969c-2.879-1.756-7.369-5.213-10.91-10.969c-5.508-8.952-5.508-18.169-5.508-21.727
		c2.726-0.476,5.814-1.191,9.141-2.275c2.714-0.885,5.144-1.871,7.277-2.858c2.133,0.986,4.563,1.973,7.277,2.858
		c3.327,1.085,6.415,1.799,9.141,2.275C70.418,36.253,70.418,45.47,64.91,54.422z"/>
	<path d="M52.277,41.344v9.422h-1.266v-9.422H52.277z M46.02,50.836L46.02,50.836c1.01,0,1.828-0.818,1.828-1.828v-7.594h-1.406
		v7.523c0,0.233-0.189,0.422-0.422,0.422V50.836z M51.827,37.477c0.288,0,0.52-0.233,0.52-0.52V35.93H46.23v1.547h2.391v1.266H46.23
		v1.617h2.391v10.477h1.547V40.359h1.659c0.288,0,0.52-0.233,0.52-0.52v-1.097h-2.18v-1.266L51.827,37.477L51.827,37.477z
		 M53.473,50.766h0.984c0.297,0,1.213-0.677,1.547-1.477c0.142-0.341,0.25-0.608,0.387-1.125c0.133-0.505,0.291-1.22,0.387-2.109
		H55.09c0,0.277-0.255,1.716-0.492,2.32c-0.088,0.224-0.211,0.346-0.281,0.422c-0.286,0.309-0.671,0.492-0.844,0.492V50.766z
		 M62.613,49.289v1.617h-1.477c-1.204,0-2.18-0.976-2.18-2.18v-3.375h-5.484v-6.82h8.719v5.344c0,0.816-0.661,1.477-1.477,1.477
		h-0.141v3.164c0,0.427,0.346,0.773,0.773,0.773H62.613z M60.152,43.734c0.233,0,0.422-0.189,0.422-0.422v-3.234H55.09v3.656
		C55.09,43.734,60.152,43.734,60.152,43.734z M53.402,37.477h2.426c0.369,0,0.668-0.299,0.668-0.668v-1.02h-3.094
		C53.402,35.789,53.402,37.477,53.402,37.477z M58.887,37.477h2.426c0.369,0,0.668-0.299,0.668-0.668v-1.02h-3.094
		C58.887,35.789,58.887,37.477,58.887,37.477z"/>
</g>
</svg>
