<?xml version="1.0" encoding="utf-8"?>
<!-- Generator: Adobe Illustrator 25.4.1, SVG Export Plug-In . SVG Version: 6.00 Build 0)  -->
<svg version="1.1" id="图层_1" xmlns="http://www.w3.org/2000/svg" xmlns:xlink="http://www.w3.org/1999/xlink" x="0px" y="0px"
	 viewBox="0 0 108 108" enable-background="new 0 0 108 108" xml:space="preserve">
<g>
	
		<linearGradient id="SVGID_1_" gradientUnits="userSpaceOnUse" x1="54" y1="108" x2="54" y2="26.473" gradientTransform="matrix(1 0 0 -1 0 108)">
		<stop  offset="0" style="stop-color:#37AFFF"/>
		<stop  offset="0.1" style="stop-color:#33A9FF"/>
		<stop  offset="0.2" style="stop-color:#2FA3FF"/>
		<stop  offset="0.25" style="stop-color:#2DA1FF"/>
		<stop  offset="0.4" style="stop-color:#2797FF"/>
		<stop  offset="0.5" style="stop-color:#2391FF"/>
		<stop  offset="0.75" style="stop-color:#1883FF"/>
		<stop  offset="0.8" style="stop-color:#157EFF"/>
		<stop  offset="0.9" style="stop-color:#147CFF"/>
		<stop  offset="1" style="stop-color:#0E74FF"/>
	</linearGradient>
	<polygon fill="url(#SVGID_1_)" points="108,0 0,0 0,81.527 108,81.527 	"/>
	<g>
		
			<linearGradient id="SVGID_00000058563594455711269300000009039774196659820735_" gradientUnits="userSpaceOnUse" x1="-519.4986" y1="60.4194" x2="-472.7761" y2="13.6969" gradientTransform="matrix(-1 0 0 -1 -406 108)">
			<stop  offset="0" style="stop-color:#299BFF"/>
			<stop  offset="0.1" style="stop-color:#2899FF"/>
			<stop  offset="0.2" style="stop-color:#2797FF"/>
			<stop  offset="0.25" style="stop-color:#2696FF"/>
			<stop  offset="0.4" style="stop-color:#2190FF"/>
			<stop  offset="0.5" style="stop-color:#208EFF"/>
			<stop  offset="0.75" style="stop-color:#1781FF"/>
			<stop  offset="0.8" style="stop-color:#157EFF"/>
			<stop  offset="0.9" style="stop-color:#127AFF"/>
			<stop  offset="1" style="stop-color:#0E74FF"/>
		</linearGradient>
		<path fill="url(#SVGID_00000058563594455711269300000009039774196659820735_)" d="M54,81.527h54V42.082
			c-6.952,2.751-14.565,6.34-22.465,11.061c-4.347,2.598-7.985,5.108-8.754,5.641c-1.578,1.093-5.787,4.114-9.176,6.981
			C64.084,68.743,54,77.242,54,81.527"/>
		
			<linearGradient id="SVGID_00000084498860639272330130000000381445610049808549_" gradientUnits="userSpaceOnUse" x1="-5.4986" y1="60.4194" x2="41.2239" y2="13.6969" gradientTransform="matrix(1 0 0 -1 0 108)">
			<stop  offset="0" style="stop-color:#299BFF"/>
			<stop  offset="0.1" style="stop-color:#2899FF"/>
			<stop  offset="0.2" style="stop-color:#2797FF"/>
			<stop  offset="0.25" style="stop-color:#2696FF"/>
			<stop  offset="0.4" style="stop-color:#2190FF"/>
			<stop  offset="0.5" style="stop-color:#208EFF"/>
			<stop  offset="0.75" style="stop-color:#1781FF"/>
			<stop  offset="0.8" style="stop-color:#157EFF"/>
			<stop  offset="0.9" style="stop-color:#127AFF"/>
			<stop  offset="1" style="stop-color:#0E74FF"/>
		</linearGradient>
		<path fill="url(#SVGID_00000084498860639272330130000000381445610049808549_)" d="M54,81.527H0V42.082
			c6.952,2.751,14.565,6.34,22.465,11.061c4.347,2.598,7.985,5.108,8.754,5.641c1.578,1.093,5.787,4.114,9.176,6.981
			C43.916,68.743,54,77.242,54,81.527"/>
	</g>
	<g>
		
			<linearGradient id="SVGID_00000150824066012111532940000004267650245325743235_" gradientUnits="userSpaceOnUse" x1="-516.4134" y1="56.2276" x2="-473.3294" y2="13.1436" gradientTransform="matrix(-1 0 0 -1 -406 108)">
			<stop  offset="0" style="stop-color:#2797FF"/>
			<stop  offset="0.1" style="stop-color:#2595FF"/>
			<stop  offset="0.2" style="stop-color:#2696FF"/>
			<stop  offset="0.25" style="stop-color:#2591FE"/>
			<stop  offset="0.4" style="stop-color:#258EFD"/>
			<stop  offset="0.5" style="stop-color:#2387FB"/>
			<stop  offset="0.75" style="stop-color:#207EF9"/>
			<stop  offset="0.8" style="stop-color:#207BF8"/>
			<stop  offset="0.9" style="stop-color:#1F75F7"/>
			<stop  offset="1" style="stop-color:#206FF5"/>
		</linearGradient>
		<path fill="url(#SVGID_00000150824066012111532940000004267650245325743235_)" d="M54,81.527h54V49.359
			c-6.847,1.748-15.423,4.462-22.676,8.442c-1.529,0.839-4.67,2.651-8.068,4.746c-1.13,0.696-5.609,3.457-8.807,5.719
			C64.895,70.779,58.042,75.803,54,81.527"/>
		
			<linearGradient id="SVGID_00000092415808265749153060000016992414398267172228_" gradientUnits="userSpaceOnUse" x1="-2.4134" y1="56.2276" x2="40.6706" y2="13.1436" gradientTransform="matrix(1 0 0 -1 0 108)">
			<stop  offset="0" style="stop-color:#2797FF"/>
			<stop  offset="0.1" style="stop-color:#2595FF"/>
			<stop  offset="0.2" style="stop-color:#2696FF"/>
			<stop  offset="0.25" style="stop-color:#2591FE"/>
			<stop  offset="0.4" style="stop-color:#258EFD"/>
			<stop  offset="0.5" style="stop-color:#2387FB"/>
			<stop  offset="0.75" style="stop-color:#207EF9"/>
			<stop  offset="0.8" style="stop-color:#207BF8"/>
			<stop  offset="0.9" style="stop-color:#1F75F7"/>
			<stop  offset="1" style="stop-color:#206FF5"/>
		</linearGradient>
		<path fill="url(#SVGID_00000092415808265749153060000016992414398267172228_)" d="M54,81.527H0V49.359
			c6.847,1.748,15.423,4.462,22.676,8.442c1.529,0.839,4.67,2.651,8.068,4.746c1.13,0.696,5.609,3.457,8.807,5.719
			C43.105,70.779,49.958,75.803,54,81.527"/>
	</g>
	<g>
		
			<linearGradient id="SVGID_00000041262576767939868060000001660544979678051234_" gradientUnits="userSpaceOnUse" x1="-514" y1="38.0405" x2="-461.894" y2="38.0405" gradientTransform="matrix(-1 0 0 -1 -406 108)">
			<stop  offset="0" style="stop-color:#208EFF"/>
			<stop  offset="0.1" style="stop-color:#2492FF"/>
			<stop  offset="0.25" style="stop-color:#2995FD"/>
			<stop  offset="0.5" style="stop-color:#349DFD"/>
			<stop  offset="0.75" style="stop-color:#40A6FB"/>
			<stop  offset="0.8" style="stop-color:#42A7FB"/>
			<stop  offset="0.9" style="stop-color:#48ABFB"/>
			<stop  offset="1" style="stop-color:#4CADFA"/>
		</linearGradient>
		<path fill="url(#SVGID_00000041262576767939868060000001660544979678051234_)" d="M55.894,81.489H108V58.43
			c-15.066,2.799-25.64,7.707-30.164,9.726c-4.627,2.065-8.596,4.3-8.596,4.3c-1.706,0.96-3.062,1.792-3.902,2.318
			C62.844,76.336,59.291,78.426,55.894,81.489"/>
		
			<linearGradient id="SVGID_00000183213848625251198380000009768134461318736535_" gradientUnits="userSpaceOnUse" x1="0" y1="38.0405" x2="52.106" y2="38.0405" gradientTransform="matrix(1 0 0 -1 0 108)">
			<stop  offset="0" style="stop-color:#208EFF"/>
			<stop  offset="0.1" style="stop-color:#2492FF"/>
			<stop  offset="0.25" style="stop-color:#2995FD"/>
			<stop  offset="0.5" style="stop-color:#349DFD"/>
			<stop  offset="0.75" style="stop-color:#40A6FB"/>
			<stop  offset="0.8" style="stop-color:#42A7FB"/>
			<stop  offset="0.9" style="stop-color:#48ABFB"/>
			<stop  offset="1" style="stop-color:#4CADFA"/>
		</linearGradient>
		<path fill="url(#SVGID_00000183213848625251198380000009768134461318736535_)" d="M52.106,81.489H0V58.43
			c15.066,2.799,25.64,7.707,30.164,9.726c4.627,2.065,8.596,4.3,8.596,4.3c1.706,0.96,3.062,1.792,3.902,2.318
			C45.156,76.336,48.709,78.426,52.106,81.489"/>
	</g>
	
		<linearGradient id="SVGID_00000067930900573779841650000006301077499871216307_" gradientUnits="userSpaceOnUse" x1="54" y1="-9.094947e-13" x2="54" y2="38.18" gradientTransform="matrix(1 0 0 -1 0 108)">
		<stop  offset="0" style="stop-color:#1B86FF"/>
		<stop  offset="0.1" style="stop-color:#1E8BFF"/>
		<stop  offset="0.25" style="stop-color:#329FFF"/>
		<stop  offset="0.5" style="stop-color:#4FBDFF"/>
		<stop  offset="0.75" style="stop-color:#6BDBFF"/>
		<stop  offset="0.8" style="stop-color:#73E3FF"/>
		<stop  offset="0.9" style="stop-color:#78E8FE"/>
		<stop  offset="1" style="stop-color:#78E8FE"/>
	</linearGradient>
	<path fill="url(#SVGID_00000067930900573779841650000006301077499871216307_)" d="M108,69.82
		c-5.965,1.824-10.967,3.263-14.765,4.324c-3.943,1.102-6.435,1.756-8.648,2.312c-2.782,0.699-5.35,1.344-8.227,1.928
		c-1.614,0.328-2.501,0.469-4.324,0.885c-0.512,0.117-1.401,0.324-2.637,0.552c0,0-0.883,0.163-1.846,0.308
		c-1.629,0.246-7.752,1.398-13.553,1.398s-11.924-1.153-13.553-1.398c-0.963-0.145-1.846-0.308-1.846-0.308
		c-1.235-0.228-2.125-0.436-2.637-0.552c-1.823-0.416-2.711-0.557-4.324-0.885c-2.877-0.584-5.444-1.229-8.227-1.928
		c-2.214-0.556-4.706-1.21-8.648-2.312C10.967,73.082,5.966,71.644,0,69.82V108h108V69.82L108,69.82z"/>
</g>
</svg>
