<?xml version="1.0" encoding="UTF-8"?>
<svg xmlns="http://www.w3.org/2000/svg" xmlns:xlink="http://www.w3.org/1999/xlink" viewBox="0 0 108 108">
  <defs>
    <style>.st0{fill:url(#b);}.st1{fill:none;}.st2{fill:url(#h);}.st3{fill:url(#g);}.st4{fill:url(#f);}.st5{fill:url(#a);}.st6{fill:url(#d);}.st7{fill:url(#c);}.st8{fill:url(#e);}.st9{clip-path:url(#clippath);}</style>
    <clipPath id="clippath">
      <rect class="st1" width="108" height="108"/>
    </clipPath>
    <linearGradient id="a" x1="54" y1="-27" x2="54" y2="135" gradientUnits="userSpaceOnUse">
      <stop offset=".1667" stop-color="#36aeff"/>
      <stop offset=".2" stop-color="#34aaff"/>
      <stop offset=".3" stop-color="#2b9eff"/>
      <stop offset=".4" stop-color="#2495ff"/>
      <stop offset=".5" stop-color="#1b86ff"/>
      <stop offset=".6" stop-color="#137dff"/>
      <stop offset=".6706" stop-color="#1f71f6"/>
    </linearGradient>
    <linearGradient id="b" x1="28.1256" y1="151.4148" x2="156.7425" y2="61.3563" gradientUnits="userSpaceOnUse">
      <stop offset=".3899" stop-color="#0e75ff"/>
      <stop offset=".4" stop-color="#0e75ff"/>
      <stop offset=".5" stop-color="#1883ff"/>
      <stop offset=".6" stop-color="#208eff"/>
      <stop offset=".6998" stop-color="#2495ff"/>
      <stop offset=".71" stop-color="#2693ff"/>
      <stop offset=".8173" stop-color="#289aff"/>
    </linearGradient>
    <linearGradient id="c" x1="232.9728" y1="151.4148" x2="361.5897" y2="61.3563" gradientTransform="translate(312.8472) rotate(-180) scale(1 -1)" xlink:href="#b"/>
    <linearGradient id="d" x1="20.2888" y1="152.7145" x2="155.0308" y2="68.5184" gradientUnits="userSpaceOnUse">
      <stop offset=".417" stop-color="#1f71f6"/>
      <stop offset=".5001" stop-color="#1f77f8"/>
      <stop offset=".6001" stop-color="#2286fb"/>
      <stop offset=".7003" stop-color="#2490fe"/>
      <stop offset=".741" stop-color="#2495ff"/>
      <stop offset=".8158" stop-color="#2796ff"/>
    </linearGradient>
    <linearGradient id="e" x1="189.9963" y1="152.7145" x2="324.7383" y2="68.5184" gradientTransform="translate(277.7075) rotate(-180) scale(1 -1)" xlink:href="#d"/>
    <linearGradient id="f" x1="-139.47" y1="83.6562" x2="12.8647" y2="139.1015" gradientTransform="translate(15.5137) rotate(-180) scale(1 -1)" gradientUnits="userSpaceOnUse">
      <stop offset=".2191" stop-color="#208eff"/>
      <stop offset=".2998" stop-color="#2796ff"/>
      <stop offset=".4001" stop-color="#349dfd"/>
      <stop offset=".5003" stop-color="#40a5fc"/>
      <stop offset=".5713" stop-color="#4eb5fd"/>
    </linearGradient>
    <linearGradient id="g" x1="-46.9837" y1="83.6562" x2="105.3511" y2="139.1015" gradientTransform="matrix(1,0,0,1,0,0)" xlink:href="#f"/>
    <linearGradient id="h" x1="54" y1="59.9927" x2="54" y2="135" gradientUnits="userSpaceOnUse">
      <stop offset=".131" stop-color="#79eafe"/>
      <stop offset=".2" stop-color="#78e7fe"/>
      <stop offset=".2885" stop-color="#63d2ff"/>
      <stop offset=".3" stop-color="#62d1ff"/>
      <stop offset=".4" stop-color="#4ab9ff"/>
      <stop offset=".5" stop-color="#33a0ff"/>
      <stop offset=".6" stop-color="#1e8aff"/>
      <stop offset=".64" stop-color="#1883ff"/>
    </linearGradient>
  </defs>
  <g class="st9">
    <g>
      <rect class="st5" x="-27" y="-27" width="162" height="162"/>
      <g>
        <path class="st0" d="M54,81.6328c12.465-17.8019,31.61-30.3632,54-39.8672l27-11.4608v104.6952H16.6318l37.3682-53.3672Z"/>
        <path class="st7" d="M54,81.6328C41.535,63.8309,22.39,51.2696,0,41.7656l-27-11.4608v104.6952s118.3682,0,118.3682,0l-37.3682-53.3672Z"/>
      </g>
      <g>
        <path class="st6" d="M97.0312,53.3672c-25.1897,11.2152-36.285,20.2258-43.0312,28.2656l-44.7805,53.3672h125.7805s0-98.5376,0-98.5376l-37.9688,16.9048Z"/>
        <path class="st8" d="M10.9688,53.3672c25.1897,11.2152,36.285,20.2258,43.0312,28.2656l44.7805,53.3672H-27s0-98.5376,0-98.5376L10.9688,53.3672Z"/>
      </g>
      <g>
        <path class="st4" d="M108,58.4297c-18.6734,3.2926-40.2553,13.1231-52.3125,23.2031L-7.913,135h142.913s0-81.3311,0-81.3311l-27,4.7608Z"/>
        <path class="st3" d="M0,58.4297c18.6734,3.2926,40.2553,13.1231,52.3125,23.2031l63.6005,53.3672H-27V53.6689L0,58.4297Z"/>
      </g>
      <path class="st2" d="M135,59.9927v75.0073H-27V59.9927L0,69.8203c5.1532,1.8752,38.8125,11.8125,54,11.8125s48.8468-9.9373,54-11.8125l27-9.8276Z"/>
    </g>
  </g>
</svg>
