<?xml version="1.0" encoding="UTF-8"?>
<svg xmlns="http://www.w3.org/2000/svg" xmlns:xlink="http://www.w3.org/1999/xlink" viewBox="0 0 108 108">
  <defs>
    <style>.st0{fill:#fff;}.st1{fill:url(#b);}.st2{fill:url(#a);}</style>
    <linearGradient id="a" x1="27.9495" y1="7.6988" x2="42.9255" y2="7.6988" gradientTransform="translate(0 108) scale(1 -1)" gradientUnits="userSpaceOnUse">
      <stop offset="0" stop-color="#fff" stop-opacity="0"/>
      <stop offset="0" stop-color="#fff" stop-opacity="0"/>
      <stop offset="1" stop-color="#fff"/>
    </linearGradient>
    <linearGradient id="b" x1="-984.0505" x2="-969.0745" gradientTransform="translate(-904 108) rotate(-180)" xlink:href="#a"/>
  </defs>
  <rect class="st2" x="27.9495" y="100.1955" width="14.976" height=".2115"/>
  <rect class="st1" x="65.0745" y="100.1955" width="14.976" height=".2115"/>
  <g>
    <path class="st0" d="M23.103,93.6855v-9.7335h9.069v9.7335h-1.407v-.51h-6.2895v.51h-1.3725ZM24.4755,85.1805v6.789h6.2895v-6.789h-6.2895ZM24.897,86.931v-1.1295h5.427v1.1295h-2.148v.831h1.9935v1.119h-.8865c.207.1845.51.477.9075.8745l-.51.4425h.7425v1.152h-5.604v-1.152h2.0595v-1.3185h-1.8045v-1.119h1.8045v-.831h-1.9815v.0015ZM29.2485,90.198c-.1545-.192-.399-.462-.7305-.8085l.5535-.51h-.897v1.3185h1.074Z"/>
    <path class="st0" d="M35.2065,87.2955v-.996h5.9685v.996h-1.9275c-.3915.2505-.7305.4545-1.0185.609.177.2145.4065.5385.687.975,1.1145-.51,2.0595-.996,2.835-1.461l.708,1.074c-.5685.2955-1.089.5535-1.5615.7755.2295.657.513,1.185.852,1.584.3255.384.786.738,1.3845,1.0635-.318.4065-.606.801-.864,1.185-.6495-.4725-1.155-.9525-1.5165-1.44-.384-.516-.6975-1.152-.942-1.905l-.4425.1875c.147.45.222.9855.222,1.6065,0,.672-.129,1.167-.387,1.4835-.2655.3255-.6795.495-1.2405.51-.561.015-1.044.0225-1.4505.0225-.111-.4875-.21-.8745-.2985-1.1625.303.0075.69.0105,1.1625.0105.3615,0,.606-.063.7305-.1875.126-.126.1875-.3615.1875-.7095,0-.0885-.0075-.222-.0225-.399-1.3365.945-2.8455,1.6875-4.53,2.226-.1035-.288-.2805-.675-.531-1.1625,1.809-.414,3.411-1.14,4.806-2.181-.03-.081-.081-.21-.1545-.387-1.203.753-2.5515,1.362-4.0425,1.827-.141-.339-.3135-.7125-.5205-1.119,1.5285-.333,2.88-.849,4.053-1.551-.0735-.096-.1515-.195-.2325-.2985-.93.414-2.004.7755-3.222,1.086-.2145-.5025-.381-.8715-.498-1.107,1.6455-.243,2.9685-.627,3.9645-1.152h-2.1585v-.003ZM33.513,86.8425v-2.337h4.0305l-.2985-.9195,1.584-.1215c.111.303.2145.6495.3105,1.041h3.699v2.337h-1.3635v-1.2075h-6.612v1.2075h-1.35Z"/>
    <path class="st0" d="M44.022,85.347c-.0525-.591-.096-.996-.1335-1.218,1.314-.045,2.436-.1185,3.366-.222l.1875,1.218c-.0375.0075-.417.0405-1.14.099v1.2735h1.0515v1.2735h-1.0515v.7755c.576.3765,1.026.6825,1.3515.9195v-4.041h1.107c-.0225-.045-.2775-.5355-.7635-1.473l1.2405-.366c.414.687.6975,1.1955.852,1.5285l-.9855.3105h1.5285c.273-.5235.561-1.1445.864-1.86l1.3515.4215c-.222.414-.5025.894-.8415,1.44h1.1625v4.275h-1.3845v2.115c0,.141.0255.24.078.2985.051.0585.1365.0885.255.0885h.1215c.1185,0,.207-.033.2655-.099.0585-.066.099-.1815.1215-.3435.0375-.414.0735-.8265.111-1.2405.339.1485.675.2925,1.008.432-.0735.7155-.141,1.236-.1995,1.5615-.0585.339-.192.591-.399.753s-.5055.243-.897.243h-.387c-.48,0-.8235-.1035-1.0305-.3105s-.3105-.558-.3105-1.0515v-2.448h-.642c0,.081-.0045.162-.0105.243-.03.894-.195,1.6065-.498,2.1375-.303.5385-.879,1.0815-1.728,1.6275-.2655-.3915-.5385-.753-.819-1.086.672-.4065,1.1265-.7905,1.362-1.152s.372-.882.4095-1.5615c0-.0885.003-.159.0105-.21h-.951v-.078l-.51.975-.8415-.7305v3.732h-1.2405v-3.378c-.258.591-.558,1.14-.897,1.65-.1545-.516-.306-.99-.4545-1.4175.5535-.783,1.0035-1.668,1.3515-2.658v-.0225h-1.1955v-1.2735h1.1955v-1.1955l-1.041.045ZM48.9285,86.6655v1.794h2.9565v-1.794h-2.9565Z"/>
    <path class="st0" d="M54.7425,89.079c-.162-.399-.3285-.801-.498-1.2075,1.4835-.1845,2.694-.4065,3.633-.6645-.465-.3105-.912-.6795-1.3395-1.107-.2145.1845-.609.498-1.185.942-.237-.2655-.543-.5985-.9195-.996,1.218-.7905,2.178-1.617,2.88-2.481l1.5165.144c-.1695.2145-.339.4245-.51.6315h4.8615v1.2075c-.7455.687-1.455,1.236-2.127,1.65.849.192,1.92.354,3.2115.4875-.2145.531-.3735.945-.477,1.2405-1.9125-.237-3.3735-.5505-4.386-.942-1.1505.4425-2.7045.807-4.6605,1.095ZM59.349,93.5205c-.045-.2955-.1215-.738-.2325-1.329.708.0225,1.329.033,1.86.033.2955,0,.5025-.051.6195-.1545.111-.1035.1845-.303.222-.5985.0225-.222.0405-.51.0555-.864h-2.835c-.2295.7605-.6345,1.3695-1.218,1.827-.5685.4425-1.473.879-2.7135,1.3065-.2655-.5025-.5175-.927-.753-1.2735.9825-.273,1.698-.5355,2.148-.786.4875-.2805.8385-.639,1.0515-1.074h-2.613v-1.1745h2.934c.0225-.192.048-.495.078-.9075h1.4175l-.0885.9075h4.0635c-.0225.4425-.0705,1.1595-.144,2.148-.045.6945-.207,1.1775-.4875,1.4505-.288.2805-.798.435-1.5285.465-.3525.0165-.9645.024-1.836.024ZM61.3755,85.4805h-3.777c.531.4875,1.1445.8865,1.839,1.1955.657-.288,1.3035-.687,1.938-1.1955Z"/>
    <path class="st0" d="M66.0375,92.955c-.3255-.1695-.7155-.333-1.1745-.4875.369-.8925.66-1.7685.8745-2.625l1.2405.387c-.309,1.065-.6225,1.9725-.9405,2.7255ZM65.994,89.157v-4.0755h1.6605c-.273-.4575-.5355-.8565-.786-1.1955l1.44-.3765c.465.7155.7935,1.236.9855,1.5615l-.033.0105h1.086c.333-.51.6345-1.0305.9075-1.5615l1.506.3765-.831,1.185h1.695v4.0755h-3.51c.258.303.639.7785,1.14,1.428l-1.119.819c-.495-.7605-.8865-1.3185-1.1745-1.6725l.8865-.576h-3.8535v.0015ZM73.5465,92.733c-.414-.8265-.6645-1.3215-.753-1.4835-.126.5835-.2295.993-.3105,1.2285-.1035.339-.2805.5835-.531.7305s-.609.222-1.074.222h-2.2155c-.4725,0-.8235-.129-1.0515-.387-.237-.2655-.354-.675-.354-1.23v-2.0265h1.3395v1.6395c0,.258.0555.4425.1665.5535.111.111.288.1665.531.1665h1.218c.2805,0,.483-.045.609-.1335s.2025-.237.2325-.4425c.051-.2955.0885-.579.111-.852.2655.096.6795.225,1.2405.387-.1695-.303-.339-.606-.51-.9075l1.0965-.5535c.465.738.9555,1.5465,1.473,2.4255l-1.218.663ZM67.3995,86.3325v1.584h4.818v-1.584h-4.818Z"/>
    <path class="st0" d="M78.0975,92.412v-2.934h4.5075v2.757h.0885c.303,0,.51-.063.6195-.189.1185-.126.18-.366.189-.72.03-.531.051-1.3545.066-2.469h-5.991c-.0225,1.071-.111,1.935-.2655,2.592-.162.702-.462,1.458-.897,2.271-.2655-.318-.5985-.6975-.996-1.14.354-.702.5865-1.3515.6975-1.9485.111-.5985.1665-1.4955.1665-2.691v-3.921h8.1945v3.123h-6.888v.6195h7.3095c-.03,1.551-.066,2.883-.111,3.9975-.03.561-.1545.975-.3765,1.2405-.2295.2655-.6015.4245-1.119.4755-.48.0375-1.0305.0555-1.65.0555-.141-.6135-.2325-.9855-.2775-1.119,0,0-3.267,0-3.267,0ZM77.5875,85.1805v.864h5.592v-.864h-5.592ZM79.3275,90.507v.8865h2.049v-.8865h-2.049Z"/>
  </g>
  <g>
    <path class="st0" d="M44.982,98.1075v-1.1295c.225-.5355.4095-1.041.555-1.5165l1.2195.159c-.1725.456-.3435.909-.516,1.3575h1.3185c.192-.7065.333-1.3215.426-1.8435l1.2795.1185c-.198.852-.3405,1.428-.426,1.725h2.6175c-.45-.45-.819-.807-1.11-1.071l.753-.7245c.3705.297.8355.7005,1.398,1.209l-.6045.585h1.6065v1.1295h-4.9665c-.0465.1515-.135.423-.267.813h4.392v1.0215c-.522.9255-1.107,1.653-1.755,2.181.6735.291,1.5435.5325,2.607.723-.165.291-.3765.7245-.6345,1.299-1.275-.363-2.31-.783-3.1035-1.2585-.7995.45-1.86.8985-3.183,1.3485-.2175-.522-.4125-.9225-.585-1.2,1.077-.2775,1.983-.585,2.7165-.9225-.4695-.4365-.873-.951-1.209-1.5465-.588,1.0575-1.4115,2.1015-2.469,3.1335-.192-.7665-.321-1.2555-.387-1.467.648-.6405,1.17-1.2795,1.566-1.914.384-.621.717-1.3575,1.002-2.211h-2.241v.0015ZM51.1875,99.981h-2.736c.357.621.7965,1.1235,1.3185,1.5075.582-.417,1.0545-.9195,1.4175-1.5075Z"/>
    <path class="st0" d="M54.708,97.4325v-1.1595h2.6265c.0855-.2115.225-.5955.417-1.1505l1.299.168c-.225.6015-.3465.9285-.3675.981h4.452v1.1595h-4.977c-.3105.588-.612,1.0875-.9015,1.497h1.3875v-1.098h1.239v1.101h2.667v3.1335c0,.396-.0825.6945-.2475.8925-.159.192-.417.297-.774.3165-.396.0195-.7635.03-1.101.03-.0465-.264-.135-.654-.267-1.17.1185.006.3675.0105.744.0105.159,0,.2745-.036.3465-.1095.072-.072.1095-.189.1095-.3465v-1.626h-1.4775v4.134h-1.239v-4.134h-1.458v3.381h-1.2v-2.964c-.3765.4035-.786.813-1.23,1.23-.126-.528-.2445-1.008-.357-1.437,1.005-.8325,1.797-1.7775,2.379-2.835h-2.07v-.0045Z"/>
  </g>
  <path class="st0" d="M83.1615,17.8245c-4.8165-.6135-10.527-1.722-16.77-3.738-4.7235-1.5255-8.865-3.282-12.393-5.016-3.528,1.734-7.668,3.4905-12.393,5.016-6.243,2.016-11.9535,3.126-16.77,3.738-.111,1.398-.231,3.441-.2115,5.907.048,5.826.3615,20.7735,9.9135,35.0055,6.18,9.2085,13.947,14.7195,19.4595,17.835,5.511-3.1155,13.278-8.6265,19.4595-17.835,9.552-14.232,9.867-29.1795,9.9135-35.0055.0225-2.466-.096-4.509-.2085-5.907ZM70.365,54.633c-5.3115,8.6325-12.0465,13.8195-16.365,16.4535-4.3185-2.634-11.0535-7.8195-16.365-16.4535-8.262-13.428-8.262-27.2535-8.262-32.5905,4.089-.714,8.721-1.7865,13.7115-3.4125,4.071-1.3275,7.716-2.8065,10.9155-4.287,3.1995,1.479,6.8445,2.9595,10.9155,4.287,4.9905,1.6275,9.6225,2.6985,13.7115,3.4125,0,5.337,0,19.1625-8.262,32.5905Z"/>
  <path class="st0" d="M51.4155,35.016v14.133h-1.899v-14.133h1.899ZM42.03,49.254h0c1.515,0,2.742-1.227,2.742-2.742v-11.391h-2.109v11.2845c0,.3495-.2835.633-.633.633v2.2155ZM50.7405,29.2155c.432,0,.78-.3495.78-.78v-1.5405h-9.1755v2.3205h3.5865v1.899h-3.5865v2.4255h3.5865v15.7155h2.3205v-15.717h2.4885c.432,0,.78-.3495.78-.78v-1.6455h-3.27v-1.899h2.49v.0015ZM53.2095,49.149h1.476c.4455,0,1.8195-1.0155,2.3205-2.2155.213-.5115.375-.912.5805-1.6875.1995-.7575.4365-1.83.5805-3.1635h-2.532c0,.4155-.3825,2.574-.738,3.48-.132.336-.3165.519-.4215.633-.429.4635-1.0065.738-1.266.738v2.2155ZM66.9195,46.9335v2.4255h-2.2155c-1.806,0-3.27-1.464-3.27-3.27v-5.0625h-8.226v-10.23h13.0785v8.016c0,1.224-.9915,2.2155-2.2155,2.2155h-.2115v4.746c0,.6405.519,1.1595,1.1595,1.1595h1.9005ZM63.228,38.601c.3495,0,.633-.2835.633-.633v-4.851h-8.226v5.484s7.593,0,7.593,0ZM53.103,29.2155h3.639c.5535,0,1.002-.4485,1.002-1.002v-1.53h-4.641s0,2.532,0,2.532ZM61.3305,29.2155h3.639c.5535,0,1.002-.4485,1.002-1.002v-1.53h-4.641s0,2.532,0,2.532Z"/>
</svg>
