<?xml version="1.0" encoding="utf-8"?>
<!-- Generator: Adobe Illustrator 25.4.1, SVG Export Plug-In . SVG Version: 6.00 Build 0)  -->
<svg version="1.1" id="图层_1" xmlns="http://www.w3.org/2000/svg" xmlns:xlink="http://www.w3.org/1999/xlink" x="0px" y="0px"
	 viewBox="0 0 108 108" enable-background="new 0 0 108 108" xml:space="preserve">
<g>
	<linearGradient id="SVGID_1_" gradientUnits="userSpaceOnUse" x1="27.9492" y1="100.3008" x2="42.9258" y2="100.3008">
		<stop  offset="0" style="stop-color:#FFFFFF;stop-opacity:0"/>
		<stop  offset="0" style="stop-color:#FFFFFF;stop-opacity:0"/>
		<stop  offset="1" style="stop-color:#FFFFFF"/>
	</linearGradient>
	<rect x="27.949" y="100.195" fill="url(#SVGID_1_)" width="14.977" height="0.211"/>
	
		<linearGradient id="SVGID_00000139990415776115205050000008974037833741919890_" gradientUnits="userSpaceOnUse" x1="-324.0508" y1="100.3008" x2="-309.0742" y2="100.3008" gradientTransform="matrix(-1 0 0 1 -244 0)">
		<stop  offset="0" style="stop-color:#FFFFFF;stop-opacity:0"/>
		<stop  offset="0" style="stop-color:#FFFFFF;stop-opacity:0"/>
		<stop  offset="1" style="stop-color:#FFFFFF"/>
	</linearGradient>
	
		<rect x="65.074" y="100.195" fill="url(#SVGID_00000139990415776115205050000008974037833741919890_)" width="14.977" height="0.211"/>
	<g>
		<path fill="#FFFFFF" d="M23.103,93.686v-9.734h9.07v9.734h-1.406v-0.509h-6.29v0.509H23.103z M24.476,85.181v6.789h6.29v-6.789
			H24.476z M24.897,86.931v-1.13h5.426v1.13h-2.148v0.831h1.993v1.118h-0.886c0.207,0.185,0.509,0.476,0.908,0.875l-0.509,0.443
			h0.742v1.152h-5.604v-1.152h2.06V88.88h-1.805v-1.118h1.805v-0.831H24.897z M29.249,90.198c-0.155-0.192-0.399-0.461-0.731-0.808
			l0.554-0.509h-0.897v1.318H29.249z"/>
		<path fill="#FFFFFF" d="M35.207,87.296v-0.997h5.969v0.997h-1.927c-0.391,0.251-0.731,0.454-1.019,0.609
			c0.177,0.214,0.406,0.539,0.687,0.974c1.115-0.509,2.06-0.997,2.835-1.462l0.709,1.074c-0.569,0.295-1.089,0.554-1.561,0.775
			c0.229,0.657,0.513,1.185,0.853,1.584c0.325,0.384,0.786,0.738,1.384,1.063c-0.318,0.406-0.605,0.801-0.864,1.185
			c-0.65-0.473-1.156-0.952-1.517-1.44c-0.384-0.517-0.698-1.152-0.941-1.905l-0.443,0.188c0.148,0.45,0.221,0.986,0.221,1.606
			c0,0.672-0.129,1.166-0.388,1.484c-0.266,0.325-0.679,0.495-1.24,0.509c-0.561,0.015-1.045,0.022-1.451,0.022
			c-0.111-0.487-0.21-0.875-0.299-1.163c0.303,0.007,0.69,0.011,1.163,0.011c0.362,0,0.605-0.063,0.731-0.188
			c0.125-0.125,0.188-0.362,0.188-0.709c0-0.089-0.007-0.221-0.022-0.399c-1.336,0.945-2.846,1.687-4.529,2.226
			c-0.103-0.288-0.281-0.676-0.532-1.163c1.809-0.413,3.411-1.141,4.806-2.182c-0.03-0.081-0.081-0.21-0.155-0.388
			c-1.203,0.753-2.551,1.362-4.042,1.827c-0.14-0.34-0.314-0.712-0.52-1.119c1.528-0.332,2.879-0.849,4.053-1.55
			c-0.074-0.096-0.151-0.195-0.233-0.299c-0.93,0.414-2.004,0.775-3.223,1.085c-0.214-0.502-0.38-0.871-0.498-1.107
			c1.646-0.244,2.968-0.627,3.965-1.152H35.207z M33.513,86.842v-2.337h4.031l-0.299-0.919l1.584-0.122
			c0.111,0.303,0.214,0.65,0.31,1.041h3.699v2.337h-1.362v-1.207h-6.611v1.207H33.513z"/>
		<path fill="#FFFFFF" d="M44.022,85.347c-0.052-0.591-0.096-0.997-0.133-1.218c1.314-0.044,2.436-0.118,3.367-0.221l0.188,1.218
			c-0.037,0.007-0.417,0.041-1.141,0.1v1.274h1.052v1.273h-1.052v0.775c0.576,0.377,1.026,0.683,1.351,0.919v-4.042h1.107
			c-0.022-0.044-0.277-0.535-0.764-1.473l1.24-0.365c0.413,0.687,0.698,1.196,0.853,1.528l-0.986,0.31h1.528
			c0.273-0.524,0.561-1.144,0.864-1.86l1.351,0.421c-0.221,0.414-0.502,0.893-0.842,1.44h1.163v4.275h-1.384v2.115
			c0,0.14,0.026,0.24,0.077,0.299c0.052,0.059,0.137,0.089,0.255,0.089h0.122c0.118,0,0.207-0.033,0.266-0.1
			c0.059-0.066,0.1-0.181,0.122-0.343c0.037-0.413,0.074-0.827,0.111-1.24c0.339,0.148,0.676,0.292,1.008,0.432
			c-0.074,0.716-0.14,1.237-0.199,1.561c-0.059,0.339-0.192,0.591-0.399,0.753c-0.207,0.162-0.506,0.244-0.897,0.244h-0.388
			c-0.48,0-0.823-0.104-1.03-0.31c-0.207-0.207-0.31-0.558-0.31-1.052v-2.447H49.88c0,0.081-0.004,0.162-0.011,0.244
			c-0.03,0.893-0.196,1.606-0.498,2.137c-0.303,0.539-0.879,1.081-1.728,1.628c-0.266-0.391-0.539-0.753-0.819-1.085
			c0.672-0.406,1.126-0.79,1.362-1.152c0.236-0.362,0.373-0.882,0.41-1.561c0-0.089,0.004-0.159,0.011-0.21h-0.952v-0.078
			l-0.509,0.975l-0.842-0.731v3.732h-1.24V90.22c-0.259,0.591-0.558,1.141-0.897,1.65c-0.155-0.517-0.306-0.989-0.454-1.418
			c0.554-0.782,1.004-1.668,1.351-2.658v-0.022h-1.196v-1.273h1.196v-1.196L44.022,85.347z M48.928,86.665v1.794h2.957v-1.794
			H48.928z"/>
		<path fill="#FFFFFF" d="M54.742,89.079c-0.162-0.399-0.329-0.801-0.498-1.207c1.484-0.184,2.695-0.406,3.632-0.664
			c-0.465-0.31-0.912-0.679-1.34-1.107c-0.214,0.185-0.609,0.498-1.185,0.941c-0.236-0.266-0.543-0.598-0.919-0.997
			c1.218-0.79,2.178-1.617,2.879-2.481l1.517,0.144c-0.17,0.214-0.34,0.425-0.509,0.631h4.862v1.207
			c-0.746,0.687-1.455,1.237-2.126,1.65c0.849,0.192,1.919,0.354,3.212,0.487c-0.214,0.532-0.373,0.945-0.476,1.24
			c-1.912-0.236-3.374-0.55-4.385-0.941C58.252,88.426,56.698,88.791,54.742,89.079z M59.349,93.52
			c-0.044-0.295-0.122-0.738-0.233-1.329c0.709,0.022,1.329,0.033,1.86,0.033c0.295,0,0.502-0.052,0.62-0.155
			c0.111-0.103,0.184-0.303,0.222-0.598c0.022-0.221,0.04-0.509,0.055-0.864h-2.835c-0.229,0.76-0.635,1.37-1.218,1.827
			c-0.569,0.443-1.473,0.879-2.713,1.307c-0.266-0.502-0.517-0.927-0.753-1.274c0.982-0.273,1.698-0.535,2.148-0.786
			c0.487-0.28,0.838-0.638,1.052-1.074h-2.613v-1.174h2.935c0.022-0.192,0.048-0.494,0.078-0.908h1.418l-0.089,0.908h4.064
			c-0.022,0.443-0.07,1.159-0.144,2.148c-0.044,0.694-0.207,1.178-0.487,1.451c-0.288,0.281-0.797,0.436-1.528,0.465
			C60.833,93.512,60.22,93.52,59.349,93.52z M61.375,85.48h-3.776c0.532,0.487,1.144,0.886,1.838,1.196
			C60.094,86.388,60.74,85.989,61.375,85.48z"/>
		<path fill="#FFFFFF" d="M66.038,92.955c-0.325-0.17-0.716-0.332-1.174-0.487c0.369-0.893,0.661-1.768,0.875-2.625l1.24,0.388
			C66.669,91.294,66.355,92.202,66.038,92.955z M65.993,89.157v-4.075h1.661c-0.273-0.458-0.535-0.856-0.786-1.196l1.44-0.377
			c0.465,0.716,0.794,1.237,0.986,1.562l-0.033,0.011h1.085c0.332-0.509,0.635-1.03,0.908-1.561l1.506,0.376l-0.831,1.185h1.694
			v4.075h-3.511c0.258,0.303,0.638,0.779,1.141,1.429l-1.119,0.819c-0.495-0.76-0.886-1.318-1.174-1.672l0.886-0.576H65.993z
			 M73.546,92.734c-0.414-0.827-0.664-1.321-0.753-1.484c-0.126,0.583-0.229,0.993-0.31,1.229c-0.103,0.34-0.281,0.583-0.532,0.731
			c-0.251,0.148-0.609,0.221-1.074,0.221h-2.215c-0.473,0-0.823-0.129-1.052-0.388c-0.236-0.266-0.354-0.676-0.354-1.229v-2.027
			h1.34v1.639c0,0.259,0.055,0.443,0.166,0.554c0.111,0.111,0.288,0.166,0.532,0.166h1.218c0.28,0,0.483-0.044,0.609-0.133
			c0.125-0.089,0.203-0.236,0.233-0.443c0.052-0.295,0.089-0.579,0.111-0.853c0.266,0.096,0.679,0.225,1.24,0.388
			c-0.17-0.303-0.34-0.605-0.509-0.908l1.096-0.554c0.465,0.738,0.956,1.547,1.473,2.425L73.546,92.734z M67.4,86.333v1.584h4.817
			v-1.584H67.4z"/>
		<path fill="#FFFFFF" d="M78.097,92.412v-2.935h4.507v2.757h0.089c0.303,0,0.509-0.063,0.62-0.188
			c0.118-0.125,0.181-0.365,0.188-0.72c0.029-0.532,0.051-1.355,0.066-2.47h-5.991c-0.022,1.071-0.111,1.934-0.266,2.591
			c-0.163,0.702-0.462,1.458-0.897,2.27c-0.266-0.318-0.598-0.698-0.997-1.141c0.354-0.701,0.587-1.351,0.698-1.949
			c0.111-0.598,0.166-1.495,0.166-2.691v-3.92h8.195v3.123h-6.888v0.62h7.309c-0.03,1.55-0.066,2.883-0.111,3.998
			c-0.03,0.561-0.155,0.974-0.377,1.24c-0.229,0.266-0.602,0.424-1.118,0.476c-0.48,0.037-1.03,0.055-1.65,0.055
			c-0.14-0.613-0.233-0.986-0.277-1.119H78.097z M77.588,85.181v0.864h5.593v-0.864H77.588z M79.327,90.508v0.886h2.049v-0.886
			H79.327z"/>
	</g>
	<g>
		<path fill="#FFFFFF" d="M44.982,98.107v-1.13c0.225-0.535,0.41-1.041,0.555-1.517l1.219,0.159
			c-0.172,0.456-0.344,0.909-0.516,1.358h1.319c0.192-0.707,0.334-1.322,0.426-1.844l1.279,0.119
			c-0.198,0.853-0.34,1.428-0.426,1.725h2.617c-0.45-0.449-0.82-0.806-1.11-1.071l0.753-0.724c0.37,0.297,0.836,0.701,1.398,1.21
			l-0.605,0.585h1.606v1.13h-4.967c-0.046,0.152-0.136,0.423-0.268,0.813h4.392v1.021c-0.522,0.925-1.107,1.652-1.755,2.181
			c0.674,0.291,1.543,0.532,2.607,0.724c-0.165,0.291-0.377,0.724-0.634,1.299c-1.276-0.364-2.31-0.783-3.103-1.259
			c-0.8,0.449-1.861,0.899-3.182,1.348c-0.218-0.522-0.413-0.922-0.585-1.2c1.077-0.278,1.983-0.585,2.716-0.922
			c-0.469-0.436-0.872-0.952-1.209-1.547c-0.588,1.058-1.411,2.102-2.469,3.133c-0.192-0.767-0.321-1.256-0.387-1.467
			c0.648-0.641,1.17-1.279,1.566-1.913c0.383-0.621,0.717-1.358,1.001-2.211H44.982z M51.188,99.981h-2.736
			c0.357,0.621,0.796,1.124,1.319,1.507C50.352,101.071,50.824,100.569,51.188,99.981z"/>
		<path fill="#FFFFFF" d="M54.707,97.433v-1.16h2.627c0.086-0.211,0.225-0.595,0.416-1.15l1.299,0.169
			c-0.225,0.602-0.347,0.929-0.367,0.982h4.451v1.16h-4.977c-0.311,0.588-0.611,1.087-0.902,1.497h1.388v-1.1h1.239v1.1h2.667v3.133
			c0,0.397-0.083,0.694-0.248,0.892c-0.159,0.192-0.416,0.297-0.773,0.317c-0.397,0.02-0.763,0.03-1.1,0.03
			c-0.046-0.264-0.136-0.654-0.268-1.17c0.119,0.007,0.367,0.01,0.744,0.01c0.159,0,0.274-0.036,0.347-0.109
			c0.073-0.073,0.109-0.188,0.109-0.347v-1.626h-1.477v4.134h-1.239v-4.134h-1.457v3.381h-1.2v-2.964
			c-0.377,0.403-0.787,0.813-1.229,1.229c-0.126-0.529-0.245-1.008-0.357-1.438c1.005-0.833,1.798-1.778,2.379-2.835H54.707z"/>
	</g>
	<path fill="#FFFFFF" d="M83.162,17.824c-4.816-0.613-10.526-1.723-16.77-3.738C61.668,12.561,57.528,10.804,54,9.07
		c-3.528,1.734-7.668,3.491-12.393,5.016c-6.243,2.016-11.954,3.125-16.77,3.738c-0.112,1.398-0.231,3.442-0.211,5.906
		c0.047,5.825,0.362,20.773,9.914,35.005C40.721,67.944,48.489,73.455,54,76.57c5.511-3.115,13.279-8.626,19.459-17.835
		c9.552-14.232,9.867-29.18,9.914-35.005C83.393,21.266,83.274,19.222,83.162,17.824z M70.365,54.633
		C65.053,63.266,58.319,68.453,54,71.086c-4.319-2.633-11.053-7.82-16.365-16.453c-8.262-13.428-8.262-27.254-8.262-32.59
		c4.089-0.714,8.72-1.786,13.711-3.413c4.071-1.327,7.717-2.807,10.916-4.287c3.199,1.48,6.845,2.959,10.916,4.287
		c4.991,1.627,9.622,2.699,13.711,3.413C78.627,27.379,78.627,41.205,70.365,54.633z"/>
	<path fill="#FFFFFF" d="M51.416,35.016v14.133h-1.898V35.016H51.416z M42.029,49.254L42.029,49.254
		c1.514,0,2.742-1.228,2.742-2.742V35.121h-2.109c0,0,0,11.285,0,11.285c0,0.349-0.283,0.633-0.633,0.633
		C42.029,47.039,42.029,49.254,42.029,49.254z M50.741,29.215c0.431,0,0.78-0.349,0.78-0.78v-1.54h-9.176v2.32h3.586v1.898h-3.586
		v2.426h3.586v15.715h2.32V33.539h2.489c0.431,0,0.78-0.349,0.78-0.78v-1.645h-3.27v-1.898H50.741z M53.209,49.148h1.477
		c0.446,0,1.82-1.016,2.32-2.215c0.214-0.512,0.375-0.911,0.58-1.688c0.2-0.757,0.437-1.83,0.58-3.164h-2.531
		c0,0.415-0.382,2.573-0.738,3.48c-0.132,0.337-0.317,0.519-0.422,0.633c-0.43,0.464-1.007,0.738-1.266,0.738V49.148z M66.92,46.934
		v2.426h-2.215c-1.806,0-3.27-1.464-3.27-3.27v-5.062h-8.227v-10.23h13.078v8.016c0,1.223-0.991,2.215-2.215,2.215h-0.211v4.746
		c0,0.641,0.519,1.16,1.16,1.16H66.92z M63.229,38.602c0.349,0,0.633-0.284,0.633-0.633v-4.852h-8.227v5.484H63.229z M53.104,29.215
		h3.639c0.553,0,1.002-0.449,1.002-1.002v-1.529h-4.641V29.215z M61.33,29.215h3.639c0.553,0,1.002-0.449,1.002-1.002v-1.529H61.33
		V29.215z"/>
</g>
</svg>
