<?xml version="1.0" encoding="utf-8"?>
<!-- Generator: Adobe Illustrator 25.4.1, SVG Export Plug-In . SVG Version: 6.00 Build 0)  -->
<svg version="1.1" id="图层_1" xmlns="http://www.w3.org/2000/svg" xmlns:xlink="http://www.w3.org/1999/xlink" x="0px" y="0px"
	 viewBox="0 0 108 108" enable-background="new 0 0 108 108" xml:space="preserve">
<g>
	<linearGradient id="SVGID_1_" gradientUnits="userSpaceOnUse" x1="55.9798" y1="62.2436" x2="79.9171" y2="58.0228">
		<stop  offset="0" style="stop-color:#4ED5FF"/>
		<stop  offset="0.25" style="stop-color:#53D6FF"/>
		<stop  offset="0.5" style="stop-color:#61CEFF"/>
		<stop  offset="0.75" style="stop-color:#82B3FF"/>
		<stop  offset="1" style="stop-color:#929DFF"/>
	</linearGradient>
	<path fill="url(#SVGID_1_)" d="M62.85,64.978c-1.121-1.121-2.938-1.121-4.059,0c-1.121,1.121-1.121,2.938,0,4.059
		c2.265,2.265,5.394,3.666,8.85,3.666s6.585-1.401,8.85-3.666s3.666-5.394,3.666-8.85s-1.401-6.585-3.666-8.85
		c-2.265-2.265-5.394-3.666-8.85-3.666s-6.585,1.401-8.85,3.666c-2.265,2.265-3.666,5.394-3.666,8.85
		c0,0.912,0.098,1.801,0.283,2.657l7.706-7.698c1.2-1.078,2.787-1.734,4.527-1.734c1.871,0,3.565,0.758,4.791,1.984
		c1.226,1.226,1.984,2.92,1.984,4.791s-0.758,3.565-1.984,4.791c-1.226,1.226-2.92,1.984-4.791,1.984S64.076,66.204,62.85,64.978z"
		/>
	
		<linearGradient id="SVGID_00000138545476142719158450000013730536831777134267_" gradientUnits="userSpaceOnUse" x1="28.4449" y1="56.2844" x2="60.5063" y2="64.8753">
		<stop  offset="0" style="stop-color:#49F3FF"/>
		<stop  offset="0.25" style="stop-color:#50E4FF"/>
		<stop  offset="0.5" style="stop-color:#49D0FF"/>
		<stop  offset="0.75" style="stop-color:#34BDFF"/>
		<stop  offset="1" style="stop-color:#1BA8FF"/>
	</linearGradient>
	<path fill="url(#SVGID_00000138545476142719158450000013730536831777134267_)" d="M59.278,50.875l-6.682,6.671
		c-0.515-2.396-1.716-4.537-3.387-6.209c-2.265-2.265-5.394-3.665-8.85-3.665s-6.585,1.401-8.85,3.665
		c-2.265,2.265-3.666,5.394-3.666,8.85c0,3.456,1.401,6.585,3.666,8.85c2.265,2.265,5.394,3.666,8.85,3.666s6.585-1.401,8.85-3.666
		l0.001,0.001l13.904-13.892L59.278,50.875z M40.359,66.963c-1.871,0-3.565-0.759-4.791-1.985c-1.226-1.226-1.984-2.919-1.984-4.79
		s0.759-3.565,1.984-4.791c1.226-1.226,2.92-1.984,4.791-1.984s3.565,0.759,4.791,1.984c1.226,1.226,1.984,2.92,1.984,4.791
		c0,1.853-0.745,3.532-1.95,4.755l-0.035,0.035C43.924,66.204,42.23,66.963,40.359,66.963z"/>
	
		<linearGradient id="SVGID_00000181076674269655471980000012288907598573845659_" gradientUnits="userSpaceOnUse" x1="40.3594" y1="44.9975" x2="67.6406" y2="44.9975">
		<stop  offset="0" style="stop-color:#76EAFC"/>
		<stop  offset="1" style="stop-color:#8CA6FF"/>
	</linearGradient>
	<path fill="url(#SVGID_00000181076674269655471980000012288907598573845659_)" d="M54,31.357c-7.534,0-13.641,6.107-13.641,13.641
		S46.466,58.638,54,58.638s13.641-6.107,13.641-13.641S61.534,31.357,54,31.357z M54,52.898c-4.363,0-7.9-3.537-7.9-7.9
		s3.537-7.9,7.9-7.9s7.9,3.537,7.9,7.9S58.363,52.898,54,52.898z"/>
	
		<linearGradient id="SVGID_00000168085881499717283810000016549398184436516771_" gradientUnits="userSpaceOnUse" x1="40.3594" y1="50.3827" x2="67.6406" y2="50.3827">
		<stop  offset="0" style="stop-color:#FF5099"/>
		<stop  offset="1" style="stop-color:#FF2E74"/>
	</linearGradient>
	<path fill="url(#SVGID_00000168085881499717283810000016549398184436516771_)" d="M46.1,44.997c0,4.363,3.537,7.9,7.9,7.9
		s7.9-3.537,7.9-7.9c0-1.585,1.285-2.87,2.87-2.87c1.585,0,2.87,1.285,2.87,2.87c0,7.534-6.107,13.641-13.641,13.641
		s-13.641-6.107-13.641-13.641c0-1.585,1.285-2.87,2.87-2.87S46.1,43.412,46.1,44.997z"/>
</g>
</svg>
