<?xml version="1.0" encoding="UTF-8"?>
<svg id="_图层_1" xmlns="http://www.w3.org/2000/svg" version="1.1" viewBox="0 0 108 108">
  <!-- Generator: Adobe Illustrator 29.3.1, SVG Export Plug-In . SVG Version: 2.1.0 Build 151)  -->
  <defs>
    <style>
      .st0 {
        fill: #006a65;
      }

      .st1 {
        fill: #fff;
      }

      .st2 {
        fill: #ed171f;
      }

      .st3 {
        fill: #082f67;
      }
    </style>
  </defs>
  <g>
    <path class="st2" d="M48.2,71.8h6.3c.7,0,1.1.5.9,1.2l-2.2,9.5c-.2.7-.8,1.2-1.5,1.2h-6.3c-.7,0-1.1-.5-.9-1.2l2.2-9.5c.2-.7.8-1.2,1.5-1.2"/>
    <path class="st3" d="M53.7,71.8h6.2c.7,0,.4.5.2,1.2l-2.2,9.5c-.2.7-.1,1.2-.8,1.2h-6.2c-.7,0-1.1-.5-.9-1.2l2.2-9.5c.2-.7.5-1.2,1.2-1.2"/>
    <path class="st0" d="M60,71.8h2.5c.7,0,1.1.5.9,1.2l-2.2,9.5c-.2.7-.8,1.2-1.5,1.2h-3.3c-.7,0-1.1-.5-.9-1.2l2.2-9.5c.2-.7.8-1.2,1.5-1.2,0,0,.8,0,.8,0Z"/>
  </g>
  <g>
    <path class="st1" d="M37.8,59.6c-1.2,0-1.9-.7-1.7-1.9l1-4.3h1.2l-1,4.3c-.1.5.2.9.7.9s1-.3,1.1-.9l1-4.3h1.2l-1,4.3c-.3,1.2-1.3,1.9-2.5,1.9h0Z"/>
    <path class="st1" d="M43.7,59.6l.7-3c.1-.5-.1-.7-.6-.7s-.5,0-.7.1l-.8,3.6h-1.2l1-4.3c.5-.2,1.1-.3,1.9-.3,1.4,0,1.9.6,1.6,1.5l-.7,3.1h-1.2,0Z"/>
    <path class="st1" d="M46,59.6l1-4.6h1.2l-1,4.6h-1.2ZM47.8,54.3c-.4,0-.6-.3-.5-.6,0-.3.4-.6.8-.6s.6.3.5.6c0,.3-.4.6-.8.6Z"/>
    <path class="st1" d="M50.1,59.7c-1.3,0-1.8-1-1.5-2.4.3-1.4,1.3-2.4,2.6-2.4s1.8,1,1.5,2.4c-.3,1.4-1.3,2.4-2.6,2.4h0ZM51,55.8c-.6,0-1,.6-1.3,1.5-.2.9,0,1.5.6,1.5s1-.5,1.3-1.5c.2-.9,0-1.5-.6-1.5h0Z"/>
    <path class="st1" d="M55.8,59.6l.7-3c.1-.5-.1-.7-.6-.7s-.5,0-.7.1l-.8,3.6h-1.2l1-4.3c.5-.2,1.1-.3,1.9-.3,1.4,0,1.9.6,1.6,1.5l-.7,3.1h-1.2Z"/>
    <path class="st1" d="M60.4,57.2c-.2,0-.4,0-.6,0l-.5,2.4h-1.2l1.4-5.9c.5-.2,1.2-.3,1.8-.3,1.5,0,2.2.8,1.9,2-.3,1.1-1.3,1.9-2.8,1.9h0ZM61.1,54.2c-.2,0-.5,0-.6,0l-.4,1.9c.1,0,.3,0,.5,0,.8,0,1.4-.4,1.5-1,.2-.7-.2-1-.9-1Z"/>
    <path class="st1" d="M64.8,59.7c-1.4,0-1.9-.5-1.7-1.5.3-1.2,1.6-1.5,3-1.6v-.2c.2-.5-.1-.7-.7-.7s-1,.1-1.3.3v-.8c.3-.2,1-.3,1.7-.3,1.2,0,1.7.5,1.5,1.6l-.6,2.8c-.4.2-1.1.3-1.8.3ZM66,57.4c-.9,0-1.6.1-1.8.8,0,.4.2.7.8.7s.5,0,.7,0c0,0,.3-1.4.3-1.4Z"/>
    <path class="st1" d="M69,61.4h-1.2l1.1-1.8-.7-4.6h1.3l.2,2.9c0,.3,0,.7,0,.7h0s.1-.4.3-.7l1.5-2.9h1.3l-3.9,6.4h0Z"/>
  </g>
  <g>
    <path class="st1" d="M27.6,35.6h13.5c.6,0,1.1-.5,1.1-1.1s-.5-1.1-1.1-1.1h-13.5c-.6,0-1.1.5-1.1,1.1s.5,1.1,1.1,1.1Z"/>
    <path class="st1" d="M48,37.6c0-.6-.5-1.1-1.1-1.1s-1.1.5-1.1,1.1v10.4h0c0,.6.5,1.1,1.1,1.1s1.1-.5,1.1-1.1h0v-10.4h0Z"/>
    <path class="st1" d="M75.8,42.5h0l-3.3-3.3h0c-.4-.4-1.1-.4-1.6,0-.4.4-.4,1.1,0,1.6h0l3.3,3.3h0c.4.4,1.1.4,1.6,0,.4-.4.4-1.1,0-1.6h0Z"/>
    <path class="st1" d="M42.1,39.1h-15.6c-.6,0-1.1.5-1.1,1.1s.5,1.1,1.1,1.1h2.5l-1.8,4.6h0c0,.3-.1.5-.1.8,0,1.3,1,2.3,2.3,2.3h10.2c1.4,0,2.5-1.1,2.5-2.5s0-.7-.2-1l-.8-1.8h0c-.3-.6-.9-.8-1.5-.5s-.8.9-.5,1.5h0l.6,1.3h0c0,0,0,.2,0,.3,0,.4-.3.7-.7.7h-8.7c-.4,0-.7-.3-.7-.7s0-.2,0-.3h0l1.8-4.6h10.6c.6,0,1.1-.5,1.1-1.1s-.5-1.1-1.1-1.1h0Z"/>
    <path class="st1" d="M82.1,35.3h-1.4v-1.6h0c0-.6-.5-1.1-1.1-1.1s-1.1.5-1.1,1.1h0v1.6h-7.2c-.6,0-1.1.5-1.1,1.1s.5,1.1,1.1,1.1h7.2v8.8c0,.4-.3.7-.7.7h-.9c-.6,0-1.1.5-1.1,1.1s.5,1.1,1.1,1.1h1.6c1.3,0,2.4-1.1,2.4-2.4h0v-9.3h1.4c.6,0,1.1-.5,1.1-1.1s-.5-1.1-1.1-1.1h0Z"/>
    <path class="st1" d="M59.7,46.2c0,.4-.3.7-.7.7h-.9c-.6,0-1.1.5-1.1,1.1s.5,1.1,1.1,1.1h1.6c1.3,0,2.4-1.1,2.4-2.4v-4.1l-2.2,2.2v1.4h0Z"/>
    <path class="st1" d="M68.6,36l-2.2,2.2v9.8h0c0,.6.5,1.1,1.1,1.1s1.1-.5,1.1-1.1c0,0,0-12,0-12Z"/>
    <g>
      <path class="st1" d="M68.6,33c-.4-.4-1.1-.4-1.6,0h0l-5.1,5.1v-2.3h0,0c0-1.3-1.1-2.4-2.4-2.4h-10c-.2,0-.4,0-.5-.2l-.4-.4c-.4-.4-1.1-.4-1.5,0-.4.4-.4,1.1,0,1.5h0l.7.7h0c.3.3.7.4,1.2.4h9.9c.4,0,.7.3.7.7v4.1l-1.1,1.1-3.6-3.6h0c-.4-.4-1.1-.4-1.6,0h0l-.8.8,5,5h0c.5.6,1.4.6,2,0h0s9-9,9-9h0c.4-.4.4-1.1,0-1.6h0Z"/>
      <path class="st1" d="M52.6,38.7l-3.6,3.6h0c-.4.4-.4,1.1,0,1.6.4.4,1.1.4,1.6,0h0l2.9-2.9-.8-2.3h0Z"/>
    </g>
  </g>
</svg>