<?xml version="1.0" encoding="UTF-8"?>
<svg id="_图层_1" xmlns="http://www.w3.org/2000/svg" version="1.1" viewBox="0 0 108 108">
  <!-- Generator: Adobe Illustrator 29.3.1, SVG Export Plug-In . SVG Version: 2.1.0 Build 151)  -->
  <defs>
    <style>
      .st0 {
        opacity: .6;
      }
    </style>
  </defs>
  <g>
    <path class="st0" d="M62.545,71.82h-14.322c-.664,0-1.326.539-1.48,1.203l-2.208,9.476c-.154.662.257,1.2.919,1.2h14.322c.663,0,1.326-.538,1.481-1.2l2.207-9.476c.156-.663-.256-1.203-.919-1.203Z"/>
    <path class="st0" d="M62.545,71.82h-9.15c-.662,0-1.053.539-1.21,1.203l-2.206,9.476c-.154.662.255,1.2.918,1.2h8.879c.663,0,1.326-.538,1.481-1.2l2.207-9.476c.156-.663-.256-1.203-.919-1.203Z"/>
    <path d="M60.04,71.82h2.505c.663,0,1.075.54.919,1.203l-2.207,9.476c-.155.662-.818,1.2-1.481,1.2h-3.306c-.664,0-1.075-.538-.919-1.2l2.206-9.476c.155-.664.817-1.203,1.48-1.203,0,0,.803,0,.803,0Z"/>
  </g>
  <g>
    <path d="M37.774,59.646c-1.196,0-1.938-.687-1.66-1.901l.991-4.333h1.195l-.992,4.342c-.124.542.201.865.701.865s.973-.323,1.097-.865l.992-4.342h1.196l-.99,4.333c-.278,1.214-1.334,1.901-2.531,1.901h0Z"/>
    <path d="M43.692,59.561l.689-3.017c.106-.457-.11-.737-.637-.737-.271,0-.546.05-.712.109l-.833,3.644h-1.154l.994-4.348c.529-.195,1.145-.331,1.9-.331,1.357,0,1.856.559,1.631,1.545l-.717,3.134h-1.162,0Z"/>
    <path d="M45.975,59.561l1.046-4.578h1.153l-1.046,4.578h-1.153ZM47.765,54.253c-.365,0-.598-.281-.518-.628.08-.347.438-.619.803-.619s.6.272.52.619c-.08.348-.441.628-.805.628Z"/>
    <path d="M50.132,59.663c-1.331,0-1.835-1.027-1.522-2.396.313-1.367,1.284-2.385,2.615-2.385s1.838,1.018,1.525,2.385c-.313,1.368-1.286,2.396-2.619,2.396h0ZM51.018,55.789c-.611,0-1.042.552-1.252,1.471-.209.916-.029,1.46.582,1.46s1.041-.544,1.251-1.46c.211-.919.031-1.471-.58-1.471h0Z"/>
    <path d="M55.815,59.561l.689-3.017c.106-.457-.111-.737-.637-.737-.271,0-.545.05-.712.109l-.833,3.644h-1.154l.994-4.348c.529-.195,1.144-.331,1.9-.331,1.357,0,1.857.559,1.632,1.545l-.717,3.134h-1.162Z"/>
    <path d="M60.408,57.217c-.204,0-.429-.018-.558-.043l-.546,2.387h-1.171l1.354-5.92c.513-.204,1.154-.331,1.849-.331,1.527,0,2.19.773,1.917,1.971-.255,1.113-1.258,1.936-2.844,1.936h0ZM61.142,54.228c-.237,0-.484.042-.64.093l-.445,1.946c.113.024.304.041.499.041.84,0,1.379-.391,1.527-1.036.161-.704-.169-1.044-.941-1.044Z"/>
    <path d="M64.837,59.663c-1.374,0-1.938-.542-1.723-1.477.285-1.25,1.64-1.496,3.04-1.572l.054-.238c.109-.476-.181-.652-.707-.652-.433,0-.989.134-1.344.271l-.109-.782c.418-.162,1.11-.331,1.772-.331,1.171,0,1.719.457,1.451,1.63l-.645,2.82c-.379.177-1.102.331-1.789.331ZM65.985,57.353c-.858.043-1.622.119-1.779.807-.1.434.183.679.786.679.246,0,.545-.042.675-.093,0,0,.318-1.393.318-1.393Z"/>
    <path d="M69,61.387h-1.213l1.104-1.825-.676-4.578h1.307l.199,2.879c.024.34-.013.722-.013.722h.017s.138-.382.318-.722l1.515-2.879h1.298l-3.857,6.403h.001Z"/>
  </g>
  <g>
    <path d="M27.571,35.603h13.451c.594,0,1.075-.481,1.075-1.075s-.481-1.076-1.075-1.076h-13.451c-.594,0-1.076.482-1.076,1.076s.482,1.075,1.076,1.075Z"/>
    <path d="M47.985,37.57c0-.617-.501-1.119-1.12-1.119s-1.119.502-1.119,1.119v10.371h0c0,.62.501,1.121,1.119,1.121s1.12-.501,1.12-1.12h0v-10.371h0Z"/>
    <path d="M75.834,42.474h0l-3.259-3.26h0c-.436-.437-1.144-.437-1.581,0-.436.435-.436,1.144,0,1.58h0l3.259,3.259h0c.437.438,1.144.438,1.581,0,.436-.436.436-1.144,0-1.58h0Z"/>
    <path d="M42.09,39.07h-15.563c-.594,0-1.076.481-1.076,1.075s.482,1.077,1.076,1.077h2.52l-1.815,4.607h0c-.093.252-.144.523-.144.807,0,1.29,1.046,2.337,2.338,2.337h10.205c1.384,0,2.506-1.121,2.506-2.505,0-.358-.077-.698-.212-1.006l-.843-1.808h0c-.265-.569-.941-.815-1.509-.55s-.814.941-.549,1.509h0l.589,1.263h0c.043.088.069.185.069.288,0,.364-.295.658-.658.658h-8.671c-.413,0-.746-.334-.746-.745,0-.101.02-.196.056-.284h0l1.801-4.57h10.629c.594,0,1.076-.483,1.076-1.077s-.482-1.076-1.076-1.076h-.003Z"/>
    <path d="M82.051,35.288h-1.407v-1.583h0c0-.622-.503-1.124-1.123-1.124s-1.123.502-1.123,1.123h0v1.584h-7.161c-.585,0-1.058.474-1.058,1.058s.474,1.058,1.058,1.058h7.161v8.797c0,.41-.333.744-.743.744h-.948c-.584,0-1.058.472-1.058,1.057s.474,1.059,1.058,1.059h1.561c1.312,0,2.376-1.063,2.376-2.375h0v-9.281h1.407c.584,0,1.058-.472,1.058-1.058s-.474-1.058-1.058-1.058h0Z"/>
    <path d="M59.691,46.202c0,.41-.333.744-.743.744h-.948c-.585,0-1.058.472-1.058,1.057s.473,1.059,1.058,1.059h1.56c1.313,0,2.376-1.063,2.376-2.375v-4.113l-2.246,2.246v1.383h0Z"/>
    <path d="M68.559,35.951l-2.237,2.238v9.753h0c0,.618.501,1.12,1.119,1.12s1.118-.502,1.118-1.119c0,0,0-11.992,0-11.992Z"/>
    <g>
      <path d="M68.603,33.047c-.433-.434-1.136-.434-1.57,0h0l-5.095,5.096v-2.314h-.007.007c0-1.313-1.064-2.377-2.376-2.377h-10.016c-.188,0-.357-.073-.487-.191l-.404-.404c-.422-.423-1.107-.423-1.529,0-.422.421-.422,1.106,0,1.528h0l.731.731h0c.312.275.721.445,1.171.445h9.922c.41,0,.743.332.743.742v4.085l-1.093,1.094-3.605-3.605h0c-.433-.434-1.136-.434-1.57,0h0l-.784.784,4.961,4.961h0l.002.003c.55.55,1.442.55,1.993,0l.002-.002h0l9.007-9.007h0c.434-.434.434-1.137,0-1.57h-.003Z"/>
      <path d="M52.637,38.663l-3.604,3.604h0c-.433.434-.433,1.138,0,1.571.434.433,1.137.433,1.57,0h0l2.873-2.874-.838-2.302h0Z"/>
    </g>
  </g>
</svg>