<?xml version="1.0" encoding="utf-8"?>
<!-- Generator: Adobe Illustrator 25.4.1, SVG Export Plug-In . SVG Version: 6.00 Build 0)  -->
<svg version="1.1" id="图层_1" xmlns="http://www.w3.org/2000/svg" xmlns:xlink="http://www.w3.org/1999/xlink" x="0px" y="0px"
	 viewBox="0 0 108 108" style="enable-background:new 0 0 108 108;" xml:space="preserve">
<style type="text/css">
	.st0{fill:#FFDC00;}
	.st1{fill:url(#SVGID_1_);}
</style>
<path class="st0" d="M76.638,23.174L75.778,15l-4.675,4.836C65.784,17.209,59.931,15.848,54,15.855
	c-21.332,0-38.625,17.271-38.625,38.572C15.375,75.732,32.668,93,54,93s38.625-17.268,38.625-38.573
	C92.625,41.571,86.324,30.185,76.638,23.174"/>
<linearGradient id="SVGID_1_" gradientUnits="userSpaceOnUse" x1="4.183" y1="108.7957" x2="4.183" y2="107.5343" gradientTransform="matrix(30.5927 0 0 -58.7435 -71.4858 6406.0391)">
	<stop  offset="0" style="stop-color:#00CBCB"/>
	<stop  offset="0.1617" style="stop-color:#0FC8B2"/>
	<stop  offset="0.4497" style="stop-color:#28C48B"/>
	<stop  offset="0.6" style="stop-color:#31C27C"/>
	<stop  offset="0.7" style="stop-color:#21C077"/>
	<stop  offset="0.8857" style="stop-color:#09BD71"/>
	<stop  offset="1" style="stop-color:#00BC6E"/>
</linearGradient>
<path class="st1" d="M42.183,24.008c-0.717-0.004-1.382,0.374-1.741,0.993c-0.36,0.619-0.36,1.385,0.001,2.004l3.221,5.554
	L59.44,59.771c-1.971-0.413-3.992-0.531-5.996-0.353c-9.667,0.844-16.925,8.157-16.208,16.33
	c0.718,8.174,9.135,14.115,18.802,13.269c9.668-0.845,16.924-8.157,16.207-16.331c-0.19-2.184-0.932-3.967-2.106-5.985
	L54.185,39.264C62.225,35.076,71.919,26.382,75.778,15C65.815,22.289,53.225,24.092,42.183,24.008L42.183,24.008z"/>
</svg>
