<?xml version="1.0" encoding="UTF-8"?>
<svg id="_图层_1" data-name="图层_1" xmlns="http://www.w3.org/2000/svg" version="1.1" viewBox="0 0 108 108">
  <!-- Generator: Adobe Illustrator 29.3.1, SVG Export Plug-In . SVG Version: 2.1.0 Build 151)  -->
  <defs>
    <style>
      .st0 {
        fill: #fff;
      }
    </style>
  </defs>
  <path class="st0" d="M83.742,53.895v17.93c0,14.864-11.333,17.297-13.078,17.297-3.44,0-13.289-7.409-13.289-11.391,1.45-1.306,2.51-2.165,3.691-5.801.699-2.152.738-8.85.738-9.281,3.083-.599,7.484-2.03,11.18-3.375,2.488-.905,6.524-2.934,10.758-5.379Z"/>
  <path class="st0" d="M66.34,91.863c-2.103.267-4.32.211-6.645.211-11.101,0-18.395-2.173-22.992-5.273-3.186-2.149-4.854-3.958-6.223-6.645-1.625-3.19-1.688-5.598-1.688-5.906v-7.383c9.025,0,11.497-.22,21.938-1.688v9.703c0,1.819.883,5.852,4.113,9.703,1.016,1.211,3.111,3.131,4.852,4.219,1.509.943,2.109,1.408,6.645,3.059Z"/>
  <path class="st0" d="M96.188,37.758c0,2.581-2.809,8.042-12.445,13.605-5.907,3.411-13.513,5.985-21.938,7.699-4.012.816-7.266,1.254-11.074,1.688-6.751.769-12.533,1.16-17.191,1.16-4.943,0-9.761-.256-13.922-1.371-2.945-.789-3.381-1.127-4.535-1.793-3.57-2.062-4.535-5.038-4.535-6.328,0-2.967,3.91-6.862,8.648-9.598l2.32.211c-1.117,1.935-1.266,2.783-1.266,3.533,0,5.211,7.117,5.729,8.543,5.854V18.984h21.938v33.855c3.695-.323,7.412-.831,11.074-1.477V18.984h21.938v25.418c4.943-2.306,9.07-5.808,9.07-8.332,0-.601-.06-1.482-1.688-2.848h1.688c2.546,1.47,3.375,3.013,3.375,4.535Z"/>
</svg>