<?xml version="1.0" encoding="utf-8"?>
<!-- Generator: Adobe Illustrator 25.4.1, SVG Export Plug-In . SVG Version: 6.00 Build 0)  -->
<svg version="1.1" id="图层_1" xmlns="http://www.w3.org/2000/svg" xmlns:xlink="http://www.w3.org/1999/xlink" x="0px" y="0px"
	 viewBox="0 0 108 108" style="enable-background:new 0 0 108 108;" xml:space="preserve">
<style type="text/css">
	.st0{fill:url(#SVGID_1_);}
	.st1{fill:url(#SVGID_00000050657244971662269130000001488130211268422805_);}
	.st2{fill:url(#SVGID_00000120522442470397759480000014820980743807037615_);}
	.st3{fill:url(#SVGID_00000057852450813051419260000009497956636804528290_);}
</style>
<g>
	<linearGradient id="SVGID_1_" gradientUnits="userSpaceOnUse" x1="35.2323" y1="46.9847" x2="71.3733" y2="46.9847">
		<stop  offset="0.1629" style="stop-color:#FFFFFF"/>
		<stop  offset="1" style="stop-color:#FFFFFF;stop-opacity:0.5"/>
	</linearGradient>
	<path class="st0" d="M70.992,38.518H56.985v-6.569c0-0.212-0.174-0.381-0.386-0.381c-5.687,0-6.933,1.402-6.933,3.232v3.719H36.373
		c-0.793,0-1.141,1.839-1.141,3.136c0,0.215,0.166,0.393,0.381,0.393h14.053l0,4.651l-9.313,0c-0.796,0-1.143,1.896-1.141,3.149
		c0,0.21,0.171,0.38,0.381,0.38l18.705,0c-0.38,3.338-1.292,6.298-2.565,8.858c2.297,1.083,4.596,2.246,7.015,3.317
		c2.824-4.542,4.552-9.746,4.584-14.934c0.003-0.424-0.339-0.77-0.763-0.77h-0.038c0,0,0,0,0,0l-9.548,0v-4.651h13.247
		c0.793,0,1.141-1.764,1.141-3.136C71.373,38.696,71.207,38.518,70.992,38.518z"/>
	
		<linearGradient id="SVGID_00000052092021385217400890000009070518370946129317_" gradientUnits="userSpaceOnUse" x1="31.4589" y1="68.7007" x2="58.4029" y2="68.7007">
		<stop  offset="0.1629" style="stop-color:#FFFFFF"/>
		<stop  offset="1" style="stop-color:#FFFFFF;stop-opacity:0.5"/>
	</linearGradient>
	<path style="fill:url(#SVGID_00000052092021385217400890000009070518370946129317_);" d="M31.459,65.19
		c-0.013,7.593,15.644,10.655,22.928,5.947c1.445-0.966,2.787-2.068,4.016-3.28c-0.247-0.165-1.49-1.07-2.918-1.997
		c-1.045-0.679-2.218-1.354-3.031-1.834C43.733,74.088,31.459,71.422,31.459,65.19z"/>
	<g>
		
			<linearGradient id="SVGID_00000156562780544935471240000009151588524481031329_" gradientUnits="userSpaceOnUse" x1="28.35" y1="65.1644" x2="74.8213" y2="65.1644">
			<stop  offset="0.1629" style="stop-color:#FFFFFF"/>
			<stop  offset="1" style="stop-color:#FFFFFF;stop-opacity:0.5"/>
		</linearGradient>
		<path style="fill:url(#SVGID_00000156562780544935471240000009151588524481031329_);" d="M39.369,59.596
			c4.527,0,8.866,1.923,13.084,4.429c2.009,1.194,3.99,2.519,5.951,3.832c5.586,3.741,11.005,7.38,16.417,7.566
			c-8.685-0.316-11.852-10.132-19.086-16.338c0,0-0.001,0-0.001,0c-4.81-2.268-9.617-4.188-15.523-4.188
			c-6.966,0-11.862,4.534-11.862,10.292c0,0,0,0,0,0c0,5.686,5.009,10.241,11.862,10.241c5.382,0,10.173-1.625,14.167-4.289
			c-7.3,4.691-22.919,1.634-22.919-5.952c0,0,0,0,0,0C31.459,61.939,35.033,59.596,39.369,59.596z"/>
	</g>
	
		<linearGradient id="SVGID_00000053538043777245957850000002920129956820779908_" gradientUnits="userSpaceOnUse" x1="55.735" y1="67.2589" x2="79.85" y2="67.2589">
		<stop  offset="0.1629" style="stop-color:#FFFFFF"/>
		<stop  offset="1" style="stop-color:#FFFFFF;stop-opacity:0.5"/>
	</linearGradient>
	<path style="fill:url(#SVGID_00000053538043777245957850000002920129956820779908_);" d="M75.254,75.432
		c3.512,0,4.433-4.384,4.594-7.833c0.032-0.674-0.495-1.242-1.17-1.263c-9.612-0.301-16.282-4.11-22.944-7.251
		C63.088,65.393,66.239,75.432,75.254,75.432z"/>
</g>
</svg>
