<?xml version="1.0" encoding="utf-8"?>
<!-- Generator: Adobe Illustrator 25.4.1, SVG Export Plug-In . SVG Version: 6.00 Build 0)  -->
<svg version="1.1" id="图层_1" xmlns="http://www.w3.org/2000/svg" xmlns:xlink="http://www.w3.org/1999/xlink" x="0px" y="0px"
	 viewBox="0 0 108 108" style="enable-background:new 0 0 108 108;" xml:space="preserve">
<style type="text/css">
	.st0{fill:url(#SVGID_1_);}
	.st1{fill:url(#SVGID_00000103980149400252225050000016246068195608939710_);}
	.st2{fill:#FFFFFF;}
	.st3{fill:url(#SVGID_00000177473237330812702010000003147570680478849161_);}
</style>
<g>
	<linearGradient id="SVGID_1_" gradientUnits="userSpaceOnUse" x1="49.8079" y1="60.1197" x2="54.8964" y2="31.2612">
		<stop  offset="0" style="stop-color:#FFFFFF;stop-opacity:0.7"/>
		<stop  offset="0.0465" style="stop-color:#FFFFFF;stop-opacity:0.7231"/>
		<stop  offset="0.6045" style="stop-color:#FFFFFF"/>
	</linearGradient>
	<path class="st0" d="M70.992,38.518H56.985v-6.569c0-0.212-0.174-0.381-0.386-0.381c-5.687,0-6.933,1.402-6.933,3.232v3.719H36.373
		c-0.793,0-1.141,1.839-1.141,3.136c0,0.215,0.166,0.393,0.381,0.393h14.053l0,4.651l-9.313,0c-0.796,0-1.143,1.896-1.141,3.149
		c0,0.21,0.171,0.38,0.381,0.38l18.705,0c-0.38,3.338-1.292,6.298-2.565,8.858c2.297,1.083,4.596,2.246,7.015,3.317
		c2.824-4.542,4.552-9.746,4.584-14.934c0.003-0.424-0.339-0.77-0.763-0.77h-0.038c0,0,0,0,0,0l-9.548,0v-4.651h13.247
		c0.793,0,1.141-1.764,1.141-3.136C71.373,38.696,71.207,38.518,70.992,38.518z"/>
	
		<linearGradient id="SVGID_00000143601919138597337550000003845753589387549838_" gradientUnits="userSpaceOnUse" x1="40.6359" y1="73.9624" x2="47.8932" y2="61.3923">
		<stop  offset="0.2826" style="stop-color:#FFFFFF"/>
		<stop  offset="1" style="stop-color:#FFFFFF;stop-opacity:0.7"/>
	</linearGradient>
	<path style="fill:url(#SVGID_00000143601919138597337550000003845753589387549838_);" d="M31.459,65.19
		c-0.013,7.593,15.644,10.655,22.928,5.947c1.445-0.966,2.787-2.068,4.016-3.28c-0.247-0.165-1.49-1.07-2.918-1.997
		c-1.045-0.679-2.218-1.354-3.031-1.834C43.733,74.088,31.459,71.422,31.459,65.19z"/>
	<path class="st2" d="M39.369,59.596c4.527,0,8.866,1.923,13.084,4.429c2.009,1.193,3.99,2.519,5.951,3.832
		c5.586,3.741,11.005,7.38,16.417,7.566c-8.685-0.316-11.852-10.132-19.085-16.338c0,0-0.001,0-0.001-0.001
		c-4.811-2.268-9.617-4.188-15.523-4.188c-6.966,0-11.861,4.534-11.861,10.293l0,0c0,5.687,5.009,10.241,11.861,10.241
		c5.382,0,10.173-1.625,14.167-4.289c-7.299,4.691-22.919,1.634-22.919-5.952l0,0C31.459,61.939,35.033,59.596,39.369,59.596z"/>
	
		<linearGradient id="SVGID_00000002374248090194547540000015220027509022096830_" gradientUnits="userSpaceOnUse" x1="55.7347" y1="40.741" x2="79.85" y2="40.741" gradientTransform="matrix(1 0 0 -1 0 108)">
		<stop  offset="0.1629" style="stop-color:#FFFFFF"/>
		<stop  offset="1" style="stop-color:#FFFFFF;stop-opacity:0.5"/>
	</linearGradient>
	<path style="fill:url(#SVGID_00000002374248090194547540000015220027509022096830_);" d="M75.255,75.433
		c3.511,0,4.433-4.385,4.594-7.833c0.031-0.674-0.495-1.242-1.17-1.263c-9.612-0.301-16.282-4.11-22.944-7.251
		C63.087,65.393,66.239,75.433,75.255,75.433z"/>
</g>
</svg>
