<svg xmlns="http://www.w3.org/2000/svg" viewBox="0 0 108 108">
  <path d="M69.6671,45.1447c-2.4262-2.2664-5.5816-3.5946-8.9097-3.8888-.1769-.6674-.4435-1.6928-.6503-2.4603-.1556-.5671-.2281-1.211-.0618-1.7845.0469-.1599.1194-.3049.1983-.452.3454-.6417.9893-1.0809,1.7034-1.2003.3241-.0554.6588-.0384.9765.0448.3326.0895.646.2452.921.452.2878.2175.5117.4989.7739.7419.4243.3965.9956.6396,1.6203.6396,1.3154,0,2.3793-1.0638,2.3793-2.3793,0-.3901-.0938-.7568-.2601-1.0809-.0149-.0298-.0298-.0576-.0469-.0832-.0107-.0213-.0192-.0383-.0298-.0576-.2665-.4477-.6524-.8379-1.049-1.1769-.7611-.6545-1.6608-1.1491-2.6181-1.454-.4498-.145-.9125-.2452-1.3837-.2985-1.0319-.1194-2.0872-.0106-3.0743.3156-3.8888,1.2834-5.7543,4.9079-4.6393,9.0205.1109.4136.3006,1.1385.4008,1.518-.8315.1791-1.6587.4221-2.4689.7355-3.7992,1.4626-6.8138,4.7117-7.8671,8.4769-.3752,1.341-.5032,2.7289-.3817,4.1297.2644,3.0275,1.8783,5.8459,4.3173,7.5388,2.2983,1.599,5.0464,2.0659,7.7413,1.3218,1.9081-.5266,3.6052-1.6608,4.7778-3.1916,1.8548-2.422,2.407-5.6072,1.5563-8.9651-.3091-1.2217-.6993-2.5797-1.0745-3.8931-.1365-.4733-.2729-.9509-.4072-1.4242,1.6118.4158,3.1,1.2003,4.3088,2.3303,4.1979,3.9208,5.0081,10.6771,1.8826,15.715-2.746,4.4239-8.0931,7.285-13.6257,7.285-9.3275,0-16.9153-7.5878-16.9153-16.9153,0-.8293.0639-1.6672.1918-2.4923.1002-.663.243-1.324.4243-1.9678.1769-.6353.3965-1.2643.6481-1.8719.2494-.6034.5372-1.1982.8571-1.7675.3155-.5649.6694-1.1172,1.0511-1.6459.3773-.5223.7931-1.0298,1.2302-1.5073.437-.4755.9061-.9317,1.3943-1.3539.4883-.4243,1.0085-.8229,1.5436-1.1875.5373-.3667,1.1022-.7036,1.6779-1.0042.3156-.1642.6353-.3198.9594-.4648.1748-.0746.3517-.1492.5287-.2217,1.2195-.4861,1.8143-1.8698,1.3282-3.0893-.4861-1.2216-1.8676-1.8165-3.0892-1.3282-.2324.0917-.4605.1898-.6929.29-.42.1876-.8315.3859-1.2366.5969-.7377.3859-1.4625.8187-2.1533,1.2899-.6865.4669-1.3538.9807-1.9785,1.5222-.6246.5416-1.228,1.1257-1.7866,1.7355-.5628.614-1.0937,1.2643-1.5798,1.9337-.4882.678-.9424,1.3879-1.3453,2.1107-.4114.7313-.7824,1.4945-1.1022,2.2706-.324.7824-.6055,1.5947-.8336,2.4092-.2324.8251-.4157,1.6779-.5479,2.5307-.162,1.0617-.2452,2.1426-.2452,3.2129,0,11.9499,9.7219,21.6697,21.6718,21.6697,7.138,0,14.0734-3.7417,17.6658-9.5322,4.3727-7.042,3.2449-16.1691-2.6757-21.6974ZM58.2587,57.6809c-.5458.7142-1.3517,1.2451-2.2663,1.4988-1.6779.4605-2.972-.0938-3.7609-.6439-1.2941-.8976-2.149-2.4092-2.2941-4.0444-.0724-.8293.0043-1.648.2239-2.4348.6567-2.3494,2.5712-4.3876,4.9974-5.3215.6524-.2516,1.3154-.4413,1.9807-.5714.2515.9316.5308,1.8996.8058,2.8633.3731,1.2963.7419,2.584,1.0362,3.7459.3433,1.3602.4989,3.3131-.7228,4.9079Z"/>
</svg>
