<svg xmlns="http://www.w3.org/2000/svg" viewBox="0 0 108 108">
  <path d="M77.5006,40.717c-3.6393-3.3996-8.3724-5.3919-13.3645-5.8332-.2653-1.0011-.6653-2.5392-.9754-3.6905-.2334-.8507-.3421-1.8165-.0927-2.6768.0704-.2399.1791-.4574.2974-.678.5181-.9626,1.4839-1.6213,2.5551-1.8004.4862-.0831.9882-.0576,1.4648.0672.4989.1343.969.3678,1.3815.678.4317.3262.7676.7484,1.1609,1.1129.6365.5947,1.4934.9594,2.4305.9594,1.9731,0,3.569-1.5957,3.569-3.5689,0-.5851-.1407-1.1352-.3902-1.6213-.0224-.0447-.0447-.0864-.0703-.1248-.016-.032-.0288-.0574-.0447-.0864-.3998-.6716-.9786-1.2568-1.5735-1.7653-1.1417-.9817-2.4912-1.7236-3.9272-2.181-.6747-.2175-1.3687-.3678-2.0756-.4478-1.5478-.1791-3.1308-.0159-4.6114.4734-5.8332,1.9251-8.6314,7.3619-6.959,13.5308.1664.6204.4509,1.7078.6012,2.277-1.2473.2687-2.488.6332-3.7033,1.1033-5.6988,2.1939-10.2207,7.0676-11.8006,12.7154-.5628,2.0115-.7548,4.0934-.5725,6.1945.3966,4.5413,2.8174,8.7689,6.4759,11.3082,3.4475,2.3985,7.5696,3.0988,11.6119,1.9827,2.8622-.7899,5.4078-2.4912,7.1667-4.7874,2.7822-3.633,3.6105-8.4108,2.3345-13.4476-.4637-1.8325-1.0489-3.8696-1.6118-5.8397-.2048-.71-.4093-1.4264-.6108-2.1363,2.4177.6237,4.65,1.8004,6.4632,3.4954,6.2968,5.8812,7.5122,16.0157,2.8239,23.5725-4.119,6.6358-12.1397,10.9275-20.4386,10.9275-13.9912,0-25.3729-11.3817-25.3729-25.3729,0-1.2439.0958-2.5008.2877-3.7385.1503-.9945.3645-1.986.6365-2.9517.2653-.9529.5947-1.8965.9722-2.8078.3741-.9051.8058-1.7973,1.2857-2.6513.4732-.8473,1.0041-1.6758,1.5767-2.4689.566-.7835,1.1896-1.5447,1.8453-2.261.6555-.7132,1.3592-1.3976,2.0914-2.0309.7325-.6365,1.5127-1.2343,2.3154-1.7812.806-.55,1.6533-1.0554,2.5168-1.5063.4734-.2463.9529-.4797,1.4391-.6972.2622-.1119.5275-.2238.7931-.3325,1.8293-.7291,2.7215-2.8047,1.9923-4.6339-.7291-1.8324-2.8014-2.7248-4.6338-1.9923-.3486.1376-.6907.2847-1.0394.435-.63.2814-1.2473.5788-1.8549.8954-1.1066.5788-2.1938,1.228-3.23,1.9349-1.0298.7003-2.0307,1.4711-2.9678,2.2833-.9369.8124-1.842,1.6886-2.6799,2.6033-.8442.921-1.6406,1.8965-2.3697,2.9006-.7323,1.017-1.4136,2.0819-2.0179,3.166-.6171,1.097-1.1736,2.2417-1.6533,3.4059-.486,1.1736-.9082,2.392-1.2504,3.6138-.3486,1.2376-.6235,2.5168-.8219,3.7961-.243,1.5925-.3678,3.2139-.3678,4.8193,0,17.9249,14.5829,32.5045,32.5077,32.5045,10.707,0,21.1101-5.6125,26.4987-14.2983,6.5591-10.563,4.8674-24.2536-4.0135-32.5461h.0004ZM60.3881,59.5214c-.8187,1.0713-2.0275,1.8677-3.3995,2.2482-2.5168.6907-4.458-.1407-5.6413-.9659-1.9412-1.3464-3.2235-3.6138-3.4412-6.0666-.1086-1.2439.0064-2.472.3358-3.6522.9851-3.5241,3.8568-6.5814,7.4961-7.9822.9786-.3774,1.9731-.6619,2.9711-.8571.3772,1.3974.7962,2.8494,1.2087,4.295.5597,1.9444,1.1129,3.876,1.5543,5.6188.5149,2.0403.7484,4.9696-1.0842,7.3619h.0001Z" style="fill:#fff"/>
</svg>
