<?xml version="1.0" encoding="utf-8"?>
<!-- Generator: Adobe Illustrator 25.4.1, SVG Export Plug-In . SVG Version: 6.00 Build 0)  -->
<svg version="1.1" id="图层_1" xmlns="http://www.w3.org/2000/svg" xmlns:xlink="http://www.w3.org/1999/xlink" x="0px" y="0px"
	 viewBox="0 0 108 108" style="enable-background:new 0 0 108 108;" xml:space="preserve">
<g>
	<path d="M36.83,44.87c2.03,0,3.675-1.646,3.675-3.675c0-2.03-1.646-3.675-3.675-3.675c-2.03,0-3.675,1.646-3.675,3.675
		C33.155,43.225,34.801,44.87,36.83,44.87z"/>
	<path d="M35.014,47.812l-2.404,3.591c2.715,1.176,4.761,2.359,5.608,2.937c1.004,0.686,1.198,1.427,0.686,2.579
		c-0.48,1.079-3.64,5.81-8.737,11.653l6.528,3.111c2.704-6.441,4.888-11.822,5.591-14.545c0.386-1.495,0.472-2.996-0.162-3.983
		C41.069,51.513,39.379,50.128,35.014,47.812z M64.576,66.793c2.447-0.189,3.63-1.535,3.515-3.213l-0.302-4.394
		c-2.593,1.446-5.368,2.643-8.001,3.532c0.037-2.009,0.063-4.01,0.079-6.004c2.152-0.065,4.287-0.136,6.377-0.209
		c1.9-0.067,2.751-0.855,2.817-3.227c-3.044,0.115-6.118,0.229-9.178,0.329c0.004-1.185,0.004-2.369,0.002-3.552
		c1.997-0.062,3.818-0.131,5.166-0.198c1.899-0.094,2.665-0.751,2.818-3.227c-4.679,0.19-10.261,0.371-15.101,0.433
		c0.442-0.545,0.864-1.134,1.262-1.776l-4.34-0.686c-1.227,1.963-3.069,4.023-5.035,5.783l1.642,1.747
		c1.03-0.551,2.044-1.152,3.017-1.849c1.476-0.014,3.212-0.043,5.016-0.081c0.009,1.152,0.014,2.349,0.016,3.57
		c-2.991,0.078-5.94,0.134-8.802,0.157l-0.202,3.116c2.945-0.039,5.969-0.1,9.001-0.176c-0.009,2.464-0.033,4.952-0.076,7.299
		c-0.213,0.037-0.422,0.072-0.628,0.104c-2.548,0.385-3.763-0.083-3.818-1.627c-0.024-0.659,0.113-1.507,0.371-2.651l-4.792-0.578
		c-0.474,1.547-0.644,3.312-0.565,4.591c0.238,3.87,3.999,5.33,10.636,3.648c2.28-0.578,6.441-2.321,8.888-3.654L64.576,66.793z
		 M63.007,37.48c-4.065-0.137-9.396,1.092-13.042,3.079c0.927-1.111,1.82-3.053,2.154-4.153l-6.18-0.935
		c-0.621,3.608-2.768,8.462-4.85,10.783l1.681,1.497c5.928-4.444,12.76-6.48,19.829-6.331c5.227,0.11,8.064,2.547,8.748,6.824
		c0.616,3.851,0.651,8.958-0.186,13.273c-1.396,7.195-4.112,9.071-11.102,7.649l-0.428,2.418c2.005,0.519,3.562,0.832,5.625,0.924
		c9.295,0.417,12.419-5.925,12.577-17.476C77.82,40.728,71.778,37.777,63.007,37.48z"/>
</g>
</svg>
