<?xml version="1.0" encoding="utf-8"?>
<!-- Generator: Adobe Illustrator 25.4.1, SVG Export Plug-In . SVG Version: 6.00 Build 0)  -->
<svg version="1.1" id="图层_1" xmlns="http://www.w3.org/2000/svg" xmlns:xlink="http://www.w3.org/1999/xlink" x="0px" y="0px"
	 viewBox="0 0 108 108" style="enable-background:new 0 0 108 108;" xml:space="preserve">
<style type="text/css">
	.st0{fill:#FFFF00;}
	.st1{fill:#FFFFFF;}
</style>
<g>
	<path class="st0" d="M28.246,40.305c3.045,0,5.513-2.468,5.513-5.513c0-3.045-2.468-5.513-5.513-5.513
		c-3.045,0-5.513,2.468-5.513,5.513C22.732,37.837,25.201,40.305,28.246,40.305z"/>
	<path class="st1" d="M25.521,44.718l-3.607,5.386c4.073,1.765,7.142,3.538,8.412,4.405c1.506,1.029,1.798,2.141,1.029,3.869
		c-0.72,1.618-5.46,8.714-13.105,17.479l9.793,4.667c4.057-9.662,7.332-17.733,8.386-21.817c0.579-2.243,0.708-4.495-0.243-5.974
		C34.603,50.27,32.069,48.192,25.521,44.718z M69.864,73.19c3.67-0.283,5.445-2.303,5.272-4.819l-0.452-6.592
		c-3.889,2.17-8.052,3.965-12.001,5.298c0.056-3.014,0.095-6.014,0.119-9.006c3.228-0.098,6.43-0.203,9.566-0.313
		c2.85-0.1,4.126-1.283,4.226-4.84c-4.566,0.173-9.178,0.343-13.766,0.493c0.006-1.777,0.007-3.553,0.003-5.328
		c2.995-0.093,5.727-0.196,7.749-0.296c2.849-0.142,3.998-1.126,4.226-4.84c-7.018,0.285-15.392,0.556-22.651,0.649
		c0.664-0.817,1.297-1.701,1.893-2.664l-6.51-1.03c-1.841,2.945-4.604,6.034-7.552,8.674l2.463,2.62
		c1.545-0.827,3.066-1.727,4.526-2.773c2.213-0.021,4.819-0.064,7.524-0.122c0.013,1.728,0.021,3.523,0.024,5.355
		c-4.486,0.116-8.91,0.201-13.203,0.235l-0.303,4.673c4.417-0.059,8.953-0.151,13.501-0.265c-0.013,3.697-0.05,7.428-0.114,10.949
		c-0.319,0.056-0.634,0.109-0.942,0.155c-3.822,0.577-5.644-0.124-5.727-2.44c-0.035-0.989,0.169-2.26,0.556-3.977l-7.187-0.867
		c-0.712,2.321-0.966,4.969-0.848,6.886c0.356,5.805,5.998,7.995,15.955,5.472c3.42-0.867,9.662-3.482,13.332-5.481L69.864,73.19z
		 M67.51,29.221c-6.098-0.206-14.094,1.638-19.562,4.619c1.391-1.667,2.73-4.579,3.232-6.229l-9.27-1.402
		c-0.932,5.412-4.153,12.692-7.275,16.175l2.521,2.246c8.892-6.666,19.14-9.72,29.743-9.497c7.84,0.165,12.095,3.82,13.122,10.236
		c0.924,5.776,0.977,13.437-0.279,19.909C77.649,76.069,73.575,78.883,63.09,76.75l-0.642,3.627
		c3.008,0.778,5.344,1.248,8.437,1.386c13.942,0.626,18.628-8.888,18.865-26.214C89.73,34.092,80.667,29.665,67.51,29.221z"/>
</g>
</svg>
