<?xml version="1.0" encoding="utf-8"?>
<!-- Generator: Adobe Illustrator 25.4.1, SVG Export Plug-In . SVG Version: 6.00 Build 0)  -->
<svg version="1.1" id="图层_1" xmlns="http://www.w3.org/2000/svg" xmlns:xlink="http://www.w3.org/1999/xlink" x="0px" y="0px"
	 viewBox="0 0 108 108" style="enable-background:new 0 0 108 108;" xml:space="preserve">
<style type="text/css">
	.st0{fill:#FFFF00;}
	.st1{fill:#FFFFFF;}
</style>
<g>
	<path class="st0" d="M25.904,39.06c3.322,0,6.014-2.693,6.014-6.014c0-3.322-2.693-6.014-6.014-6.014
		c-3.322,0-6.014,2.693-6.014,6.014C19.89,36.367,22.583,39.06,25.904,39.06z"/>
	<path class="st1" d="M22.932,43.874l-3.934,5.876c4.443,1.925,7.791,3.86,9.176,4.806c1.643,1.122,1.961,2.335,1.123,4.221
		C28.512,60.542,23.341,68.283,15,77.845l10.683,5.091c4.425-10.54,7.999-19.345,9.149-23.801c0.631-2.447,0.773-4.903-0.265-6.518
		C32.839,49.931,30.076,47.664,22.932,43.874z M71.307,74.934c4.004-0.309,5.94-2.512,5.752-5.257l-0.494-7.191
		c-4.243,2.367-8.784,4.326-13.092,5.78c0.061-3.288,0.104-6.561,0.13-9.825c3.522-0.107,7.014-0.222,10.435-0.342
		c3.11-0.109,4.501-1.4,4.61-5.28c-4.981,0.188-10.012,0.374-15.018,0.538c0.006-1.939,0.007-3.876,0.003-5.812
		c3.267-0.102,6.247-0.214,8.454-0.323c3.108-0.155,4.361-1.228,4.61-5.28c-7.656,0.311-16.791,0.607-24.71,0.708
		c0.724-0.891,1.414-1.855,2.065-2.906l-7.101-1.123c-2.008,3.213-5.023,6.582-8.238,9.463l2.687,2.859
		c1.685-0.902,3.344-1.884,4.937-3.025c2.415-0.023,5.257-0.07,8.209-0.133c0.014,1.886,0.023,3.844,0.027,5.841
		c-4.894,0.127-9.72,0.219-14.403,0.256l-0.33,5.098c4.818-0.064,9.767-0.164,14.729-0.289c-0.014,4.033-0.054,8.103-0.124,11.944
		c-0.348,0.061-0.691,0.119-1.027,0.169c-4.169,0.63-6.158-0.136-6.248-2.662c-0.039-1.079,0.184-2.466,0.606-4.338l-7.841-0.946
		c-0.776,2.532-1.054,5.42-0.925,7.512c0.389,6.333,6.544,8.721,17.405,5.969c3.731-0.946,10.54-3.798,14.544-5.979L71.307,74.934z
		 M68.738,26.968c-6.652-0.225-15.375,1.786-21.341,5.039c1.517-1.819,2.979-4.996,3.525-6.795l-10.113-1.53
		c-1.016,5.905-4.53,13.846-7.936,17.645l2.751,2.45c9.7-7.272,20.88-10.604,32.447-10.36c8.553,0.18,13.195,4.167,14.315,11.166
		c1.008,6.301,1.066,14.658-0.304,21.719c-2.284,11.774-6.728,14.844-18.167,12.517l-0.701,3.956
		c3.282,0.849,5.829,1.361,9.204,1.512C87.629,84.969,92.741,74.591,93,55.69C92.979,32.282,83.091,27.453,68.738,26.968z"/>
</g>
</svg>
