<?xml version="1.0" encoding="utf-8"?>
<!-- Generator: Adobe Illustrator 25.4.1, SVG Export Plug-In . SVG Version: 6.00 Build 0)  -->
<svg version="1.1" id="图层_1" xmlns="http://www.w3.org/2000/svg" xmlns:xlink="http://www.w3.org/1999/xlink" x="0px" y="0px"
	 viewBox="0 0 108 108" style="enable-background:new 0 0 108 108;" xml:space="preserve">
<style type="text/css">
	.st0{fill:#95C11F;}
	.st1{fill:#0085CC;}
</style>
<g>
	<path class="st0" d="M85.359,61.54c-5.805-7.698-14.512-15.522-16.91-17.541c-1.641-1.388-3.407-2.019-5.048-2.019
		c-1.641,0-3.281,0.757-4.669,1.893c-0.252,0.252-0.631,0.631-1.136,1.01C54.189,47.785,43.463,57.628,43.21,57.88
		c-0.757,0.757-1.893,1.262-3.029,1.262c-1.01,0-2.145-0.505-3.281-1.514c-0.757-0.757-4.417-3.66-8.707-8.455
		c-2.65-2.902-4.795-5.553-4.795-5.553s-0.505,1.01-0.757,1.641c-0.252,0.631,0,0.883,0.126,1.136
		c1.388,2.019,7.95,9.843,16.91,17.541c1.641,1.388,3.407,2.019,5.048,2.019c1.641,0,3.281-0.757,4.669-1.893
		c0.252-0.252,0.757-0.631,1.136-1.01c3.407-2.902,9.969-8.834,12.998-11.736c0.631-0.631,1.136-1.01,1.388-1.262
		c0.757-0.757,1.893-1.262,3.029-1.262c1.01,0,2.145,0.505,3.281,1.514c1.893,1.641,5.048,4.543,8.707,8.329
		c2.65,2.902,4.795,5.553,4.795,5.553s0.505-1.01,0.757-1.767C85.738,62.045,85.486,61.666,85.359,61.54"/>
	<path class="st1" d="M50.782,33.272c-3.029,2.145-15.396,13.629-17.794,16.405c0,0,1.767,1.893,4.291,4.038
		c0.631,0.631,1.514,0.505,2.145-0.252c4.795-4.795,14.512-13.377,15.774-14.386c3.66-3.155,7.95-3.407,11.862-0.505
		c9.465,7.067,17.92,18.298,19.308,20.444c0,0,0.252-1.01,0.379-1.893c0,0,0.126-0.883-0.252-1.641
		c-8.96-12.872-18.424-20.822-22.084-22.841C60.499,30.496,55.577,29.739,50.782,33.272"/>
	<path class="st1" d="M40.686,26.458c-6.057,4.922-14.008,12.241-16.027,14.386c0,0,1.514,1.893,3.786,4.164
		c0.505,0.379,0.883,0.252,1.388-0.126c6.057-5.805,12.62-11.862,16.405-14.765c6.436-4.922,13.881-5.426,21.327,0.379
		c2.776,2.145,5.174,4.291,8.707,7.95c4.543,4.922,7.445,9.086,10.727,13.755c0,0,0-1.262-0.379-2.902
		c0-0.252-0.126-0.757-0.379-1.136c-0.631-1.262-3.533-6.184-7.698-10.979c-8.203-9.591-13.377-12.493-16.784-14.26
		C57.47,20.653,48.889,20.022,40.686,26.458"/>
	<path class="st1" d="M57.218,74.79c3.029-2.145,15.396-13.629,17.794-16.405c0,0-1.767-1.893-4.291-4.038
		c-0.631-0.631-1.514-0.505-2.145,0.252c-4.922,4.669-14.639,13.25-15.901,14.26c-3.66,3.155-7.95,3.407-11.862,0.505
		c-9.465-7.067-17.92-18.298-19.308-20.444c0,0-0.252,1.01-0.379,1.893c0,0-0.126,0.883,0.252,1.641
		c8.96,12.872,18.424,20.822,22.084,22.841C47.627,77.567,52.423,78.198,57.218,74.79"/>
	<path class="st1" d="M67.187,81.479c6.057-4.922,14.008-12.241,16.027-14.386c0,0-1.514-1.893-3.786-4.164
		c-0.505-0.379-0.883-0.252-1.262,0.126c-6.057,5.805-12.62,11.862-16.405,14.765c-6.436,4.922-13.881,5.426-21.327-0.379
		c-2.776-2.145-5.174-4.291-8.707-7.95C27.184,64.569,24.281,60.404,21,55.735c0,0,0,1.136,0.379,2.902
		c0.126,0.252,0.126,0.757,0.379,1.136c0.631,1.262,3.533,6.184,7.698,11.105c8.203,9.591,13.377,12.493,16.784,14.26
		C50.53,87.284,59.237,88.041,67.187,81.479"/>
</g>
</svg>
