<?xml version="1.0" encoding="UTF-8"?>
<svg xmlns="http://www.w3.org/2000/svg" viewBox="0 0 108 108">
  <polygon points="70.5 35.5 66.25 35.5 66.25 37.75 70.5 37.75 70.5 41.75 72.75 41.75 72.75 37.75 76.75 37.75 76.75 35.5 72.75 35.5 72.75 31.25 70.5 31.25 70.5 35.5"/>
  <circle cx="61.125" cy="59.125" r=".625"/>
  <circle cx="58.75" cy="59.125" r=".625"/>
  <path d="M68,50.75c0 -9 -5.035 -12 -10.25 -12 -5.435,0 -7.9625,3.2925 -9,7 -.435 -.53 -1.61 -1.25 -3.375 -1.25 -2.255,0 -5.125,1.25 -5.125,6 -3.9125.65 -6.5,3.8925 -6.5,7.5,0,.05,0,.1025.0025.1525.075,6.05,4.595,8.3475,8.4975,8.3475h22.25c3.2475,0,9.6475 -.76,9.7475 -8.32.0025 -.06.0025 -.12.0025 -.18,0 -3.7775 -2.4925 -6.9725 -6.25 -7.25ZM50.9275,51.75h2.9475v-4.25c0 -.275.225 -.5.5 -.5h2c.275,0,.5.225.5.5v4.25h2.9475c.1575,0,.2375.19.125.3025l-4.36,4.36c-.1175.1175 -.3075.1175 -.425,0l-4.36 -4.36c-.1125 -.1125 -.0325 -.3025.125 -.3025ZM62.75,59.75c0,.5525 -.4475,1 -1,1h-12.75c-.5525,0 -1 -.4475 -1 -1v-2.5c0 -.5525.4475 -1,1 -1h3.75l1.175,1.3425c.7675.8775,2.1325.8775,2.9,0l1.175 -1.3425h3.75c.5525,0,1,.4475,1,1v2.5Z"/>
</svg>
