<?xml version="1.0" encoding="UTF-8"?>
<svg xmlns="http://www.w3.org/2000/svg" viewBox="0 0 108 108">
  <defs>
    <style>.st0{fill:#fff;}.st1{fill:#f59714;}.st2{fill:#1b1b1b;}.st3{fill:#bc740f;}</style>
  </defs>
  <polygon class="st0" points="78.75 26.25 72.375 26.25 72.375 29.625 78.75 29.625 78.75 35.625 82.125 35.625 82.125 29.625 88.125 29.625 88.125 26.25 82.125 26.25 82.125 19.875 78.75 19.875 78.75 26.25"/>
  <path class="st3" d="M84.375,60c0,.09,0,.18 -.0038.27 -.15,11.34 -9.75,12.48 -14.6212,12.48h-33.375c-5.8538,0 -12.6338 -3.4463 -12.7463 -12.5212 -.0037 -.075 -.0037 -.1538 -.0037 -.2288,0 -5.4112,3.8813 -10.275,9.75 -11.25,0 -7.125,4.305 -9,7.6875 -9,2.6475,0,4.41,1.08,5.0625,1.875,1.5562 -5.5613,5.3475 -10.5,13.5 -10.5,7.8225,0,15.375,4.5,15.375,18,5.6362.4163,9.375,5.2087,9.375,10.875Z"/>
  <path class="st1" d="M84.375,60c0,5.8013 -5.8125,10.5 -11.625,10.5h-37.875c-5.5237,0 -11.25 -5.625 -11.25 -10.5,0 -5.4112,3.8805 -10.2758,9.75 -11.25,0 -7.125,4.305 -9,7.6875 -9,2.6475,0,4.41,1.08,5.0625,1.875,1.5562 -5.5613,5.3475 -10.5,13.5 -10.5,7.8225,0,15.375,4.5,15.375,18,5.6362.4163,9.375,5.2087,9.375,10.875Z"/>
  <path class="st2" d="M65.625,57.375h-5.625l-1.7625,2.0137c-1.1513,1.3162 -3.1987,1.3162 -4.35,0l-1.7625 -2.0137h-5.625c-.8288,0 -1.5.6712 -1.5,1.5v3.75c0,.8288.6712,1.5,1.5,1.5h19.125c.8288,0,1.5 -.6712,1.5 -1.5v-3.75c0 -.8288 -.6712 -1.5 -1.5 -1.5ZM61.125,62.625c-.5178,0 -.9375 -.4197 -.9375 -.9375s.4197 -.9375.9375 -.9375.9375.4197.9375.9375 -.4197.9375 -.9375.9375ZM64.6875,62.625c-.5178,0 -.9375 -.4197 -.9375 -.9375s.4197 -.9375.9375 -.9375.9375.4197.9375.9375 -.4197.9375 -.9375.9375Z"/>
  <path class="st2" d="M62.9212,51.0788l-6.54,6.54c-.1763.1763 -.4612.1763 -.6375,0l-6.54 -6.54c-.1687 -.1687 -.0488 -.4538.1875 -.4538h4.4212v-6.375c0 -.4125.3375 -.75.75 -.75h3c.4125,0,.75.3375.75.75v6.375h4.4212c.2363,0,.3562.285.1875.4538Z"/>
</svg>
