<?xml version="1.0" encoding="utf-8"?>
<!-- Generator: Adobe Illustrator 25.4.1, SVG Export Plug-In . SVG Version: 6.00 Build 0)  -->
<svg version="1.1" id="图层_1" xmlns="http://www.w3.org/2000/svg" xmlns:xlink="http://www.w3.org/1999/xlink" x="0px" y="0px"
	 viewBox="0 0 108 108" enable-background="new 0 0 108 108" xml:space="preserve">
<g>
	<path id="path_1" d="M81.972,42.724v24.449H58.006c-1.076,0-1.672-0.597-1.672-1.642V41.083h23.937
		C81.347,41.083,81.972,41.679,81.972,42.724z M78.839,64.517V43.741h-19.37v20.776H78.839z M61.05,49.943v-2.508h10.417v-2.269
		h3.074v2.269h2.925v2.508h-2.925v7.075c0,2.418-0.297,4.209-0.955,6.058h-3.343c1.014-2.149,1.224-3.671,1.224-5.971v-7.164h-2.805
		c-0.418,4.626-2.208,10.356-4.088,13.133h-3.402c1.821-2.567,3.909-7.582,4.416-13.133H61.05V49.943z"/>
	<path id="path" d="M41.651,59.615c2.328,2.805,6.655,4.595,11.342,4.954l-1.611,2.805c-4.329-0.507-9.313-2.536-12.088-6.119
		c-2.567,3.581-7.462,5.761-13.581,6.209l0.955-3.015c4.149-0.059,8.448-2.208,10.297-4.836H26.1v-2.597h11.58v-2.449H26.756v-2.567
		h10.925v-2H26.756v-2.567h10.925v-2.09H26.1v-2.597h4.685l-0.269-2.208h3.253c0.12,0.717,0.21,1.463,0.328,2.208h10.417
		c0.149-0.746,0.238-1.493,0.3-2.208h3.312c-0.059,0.717-0.149,1.463-0.269,2.208h4.687v2.597h-11.67v2.09H51.8V50H40.875v2H51.8
		v2.567H40.875v2.449h11.67v2.597H41.651V59.615z"/>
</g>
</svg>
