<?xml version="1.0" encoding="utf-8"?>
<!-- Generator: Adobe Illustrator 25.4.1, SVG Export Plug-In . SVG Version: 6.00 Build 0)  -->
<svg version="1.1" id="图层_1" xmlns="http://www.w3.org/2000/svg" xmlns:xlink="http://www.w3.org/1999/xlink" x="0px" y="0px"
	 viewBox="0 0 108 108" enable-background="new 0 0 108 108" xml:space="preserve">
<g>
	<path id="path_1" d="M95.958,37.087V73.76H60.009c-1.613,0-2.509-0.895-2.509-2.463V34.624h35.906
		C95.02,34.624,95.958,35.519,95.958,37.087z M91.258,69.775V38.612H62.203v31.164H91.258z M64.574,47.915v-3.761H80.2V40.75h4.611
		v3.404h4.388v3.761h-4.388v10.612c0,3.627-0.446,6.313-1.433,9.087h-5.014c1.522-3.224,1.836-5.506,1.836-8.956V47.912h-4.207
		c-0.626,6.939-3.312,15.534-6.132,19.699h-5.103c2.732-3.85,5.863-11.373,6.624-19.699h-6.808V47.915z"/>
	<path id="path" d="M35.477,62.423c3.493,4.207,9.982,6.893,17.013,7.431l-2.417,4.207c-6.493-0.761-13.97-3.804-18.132-9.179
		c-3.85,5.372-11.192,8.641-20.371,9.313l1.433-4.522c6.224-0.089,12.671-3.312,15.446-7.254H12.151v-3.896h17.371v-3.673H13.134
		v-3.85h16.387V48H13.134v-3.85h16.387v-3.135H12.151V37.12h7.028l-0.403-3.312h4.88c0.18,1.076,0.315,2.194,0.492,3.312h15.626
		c0.223-1.118,0.357-2.24,0.449-3.312h4.968c-0.089,1.076-0.223,2.194-0.403,3.312h7.031v3.896H34.312v3.135h16.387V48H34.312v3.001
		h16.387v3.85H34.312v3.673h17.505v3.896H35.477V62.423z"/>
</g>
</svg>
