<?xml version="1.0" encoding="UTF-8"?>
<svg id="_图层_1" data-name="图层_1" xmlns="http://www.w3.org/2000/svg" version="1.1" viewBox="0 0 108 108">
  <!-- Generator: Adobe Illustrator 29.3.1, SVG Export Plug-In . SVG Version: 2.1.0 Build 151)  -->
  <defs>
    <style>
      .st0 {
        fill: #fc0;
      }

      .st1 {
        fill: #2dbc00;
      }

      .st2 {
        fill: #0082ef;
      }

      .st3 {
        fill: #fb6500;
      }

      .st4 {
        fill: #0079de;
      }
    </style>
  </defs>
  <path class="st3" d="M64.812,70.776c.018.022.036.043.056.063.035.035.072.065.112.092.078.073.155.147.231.223,1.496,1.496,2.436,3.337,2.822,5.267.007.109.019.217.036.325.019.119.044.236.076.353.148.543.434,1.055.86,1.481,1.305,1.305,3.422,1.305,4.727,0,1.305-1.305,1.305-3.422,0-4.727-.46-.46-1.021-.757-1.612-.893-.066-.015-.133-.028-.199-.039-.067-.011-.135-.021-.202-.028-1.978-.369-3.869-1.317-5.399-2.847-.11-.11-.217-.223-.322-.337h0c-.312-.312-.818-.312-1.13,0-.292.292-.311.754-.056,1.067Z"/>
  <path class="st2" d="M75.381,73.344c.022-.018.043-.036.063-.056.035-.035.065-.072.092-.112.073-.078.147-.155.223-.231,1.496-1.496,3.337-2.436,5.267-2.822.109-.007.217-.019.325-.036.119-.019.236-.044.353-.076.543-.148,1.055-.434,1.481-.86,1.305-1.305,1.305-3.422,0-4.727-1.305-1.305-3.422-1.305-4.727,0-.46.46-.757,1.021-.893,1.612-.015.066-.028.133-.039.199-.011.067-.021.135-.028.202-.369,1.978-1.317,3.869-2.847,5.399-.11.11-.223.217-.337.322h0c-.312.313-.312.819,0,1.131.292.292.754.311,1.067.056Z"/>
  <path class="st1" d="M77.949,62.775c-.018-.022-.036-.043-.056-.063-.035-.035-.072-.065-.112-.092-.078-.073-.155-.147-.231-.223-1.496-1.496-2.436-3.337-2.822-5.267-.007-.109-.019-.217-.036-.325-.019-.119-.044-.236-.076-.353-.148-.543-.434-1.055-.86-1.481-1.305-1.305-3.422-1.305-4.727,0s-1.305,3.422,0,4.727c.46.46,1.021.757,1.612.893.066.015.133.028.199.039.067.011.135.021.202.028,1.978.369,3.869,1.317,5.399,2.847.11.11.217.223.322.337h0c.312.312.818.312,1.13,0,.292-.292.311-.754.056-1.067Z"/>
  <path class="st0" d="M67.38,60.207c-.022.018-.043.036-.063.056-.035.035-.065.072-.092.112-.073.078-.147.155-.223.231-1.496,1.496-3.337,2.436-5.267,2.822-.109.007-.217.019-.325.036-.119.019-.236.044-.353.076-.543.148-1.055.434-1.481.86-1.305,1.305-1.305,3.422,0,4.727s3.422,1.305,4.727,0c.46-.46.757-1.021.893-1.612.015-.066.028-.133.039-.199.011-.067.021-.135.028-.202.369-1.978,1.317-3.869,2.847-5.399.11-.11.223-.217.337-.322h0c.312-.313.312-.819,0-1.131-.292-.292-.754-.311-1.067-.056Z"/>
  <path class="st4" d="M72.351,43.874c-.93-1.91-2.179-3.684-3.713-5.271-3.876-4.009-9.303-6.591-15.28-7.271-1.073-.122-2.137-.184-3.161-.184-.977,0-1.995.057-3.027.169-6.004.653-11.461,3.222-15.366,7.233-1.541,1.584-2.797,3.353-3.733,5.258-1.27,2.586-1.914,5.33-1.914,8.158,0,3.64,1.108,7.23,3.204,10.38,1.185,1.782,3.212,4.085,4.946,5.496h0s-.961,3.974-.961,3.974l-.277,1.119c-.049.11-.087.225-.113.345-.016.073-.021.15-.028.226-.006.058-.018.114-.018.173,0,1.022.828,1.85,1.85,1.85.334,0,.643-.095.913-.25.009-.005.018-.009.026-.014.04-.023.08-.044.118-.07l6.862-3.444c1.477.424,2.943.695,4.488.865,1.004.11,2.024.166,3.03.166,1.026,0,2.09-.062,3.161-.184,2.107-.239,4.134-.725,6.058-1.416-.208-.069-.412-.159-.61-.272-1.177-.673-1.787-1.954-1.666-3.221-1.375.437-2.811.75-4.295.918-.901.102-1.792.154-2.649.154-.842,0-1.695-.047-2.536-.139-.176-.019-.35-.046-.525-.069-1.155-.154-2.296-.389-3.399-.713-.225-.072-.463-.108-.707-.108-.38,0-.749.1-1.124.294-.048.025-.097.046-.145.075l-4.403,2.595-.005.003c-.091.053-.143.073-.19.073-.155,0-.28-.131-.28-.292l.163-.657c.045-.173.11-.418.188-.715.193-.733.456-1.735.651-2.48.043-.152.086-.335.086-.54,0-.567-.271-1.102-.723-1.431-.23-.17-.459-.348-.701-.545-.37-.301-.723-.614-1.063-.937-.956-.907-1.795-1.896-2.5-2.956-1.66-2.495-2.537-5.327-2.537-8.188,0-2.221.508-4.381,1.509-6.419.748-1.523,1.756-2.941,2.995-4.214,3.21-3.298,7.723-5.412,12.709-5.954.868-.094,1.721-.142,2.536-.142.856,0,1.747.052,2.649.154,4.963.564,9.45,2.689,12.636,5.984,1.234,1.276,2.236,2.697,2.979,4.224.985,2.025,1.485,4.168,1.485,6.368,0,.229-.015.457-.026.685,1.287-.788,2.989-.633,4.103.481.056.056.104.118.155.177.037-.469.057-.939.057-1.41,0-2.801-.634-5.524-1.884-8.093Z"/>
</svg>