<?xml version="1.0" encoding="UTF-8"?>
<svg xmlns="http://www.w3.org/2000/svg" viewBox="0 0 108 108">
  <defs>
    <style>.st0{fill:#fff;}.st1{fill:#f59714;}.st2{fill:#1b1b1b;}.st3{fill:#bc740f;}</style>
  </defs>
  <polygon class="st0" points="70.5 35.5 66.25 35.5 66.25 37.75 70.5 37.75 70.5 41.75 72.75 41.75 72.75 37.75 76.75 37.75 76.75 35.5 72.75 35.5 72.75 31.25 70.5 31.25 70.5 35.5"/>
  <path class="st3" d="M74.25,58c0,.06,0,.12 -.0025.18 -.1,7.56 -6.5,8.32 -9.7475,8.32h-22.25c-3.9025,0 -8.4225 -2.2975 -8.4975 -8.3475 -.0025 -.05 -.0025 -.1025 -.0025 -.1525,0 -3.6075,2.5875 -6.85,6.5 -7.5,0 -4.75,2.87 -6,5.125 -6,1.765,0,2.94.72,3.375,1.25,1.0375 -3.7075,3.565 -7,9 -7,5.215,0,10.25,3,10.25,12,3.7575.2775,6.25,3.4725,6.25,7.25Z"/>
  <path class="st1" d="M74.25,58c0,3.8675 -3.875,7 -7.75,7h-25.25c-3.6825,0 -7.5 -3.75 -7.5 -7,0 -3.6075,2.587 -6.8505,6.5 -7.5,0 -4.75,2.87 -6,5.125 -6,1.765,0,2.94.72,3.375,1.25,1.0375 -3.7075,3.565 -7,9 -7,5.215,0,10.25,3,10.25,12,3.7575.2775,6.25,3.4725,6.25,7.25Z"/>
  <path class="st2" d="M61.75,56.25h-3.75l-1.175,1.3425c-.7675.8775 -2.1325.8775 -2.9,0l-1.175 -1.3425h-3.75c-.5525,0 -1,.4475 -1,1v2.5c0,.5525.4475,1,1,1h12.75c.5525,0,1 -.4475,1 -1v-2.5c0 -.5525 -.4475 -1 -1 -1ZM58.75,59.75c-.3452,0 -.625 -.2798 -.625 -.625s.2798 -.625.625 -.625.625.2798.625.625 -.2798.625 -.625.625ZM61.125,59.75c-.3452,0 -.625 -.2798 -.625 -.625s.2798 -.625.625 -.625.625.2798.625.625 -.2798.625 -.625.625Z"/>
  <path class="st2" d="M59.9475,52.0525l-4.36,4.36c-.1175.1175 -.3075.1175 -.425,0l-4.36 -4.36c-.1125 -.1125 -.0325 -.3025.125 -.3025h2.9475v-4.25c0 -.275.225 -.5.5 -.5h2c.275,0,.5.225.5.5v4.25h2.9475c.1575,0,.2375.19.125.3025Z"/>
</svg>
