<?xml version="1.0" encoding="UTF-8"?>
<svg id="_图层_1" data-name="图层_1" xmlns="http://www.w3.org/2000/svg" version="1.1" viewBox="0 0 108 108">
  <!-- Generator: Adobe Illustrator 29.3.1, SVG Export Plug-In . SVG Version: 2.1.0 Build 151)  -->
  <path id="path" d="M75.983,56.263c2.447-11.971-4.829-23.909-16.8-27.128-12.373-3.32-25.15,4.024-28.471,16.397-2.046,7.612-.604,15.896,3.856,22.401,3.152,4.627,7.713,8.149,12.977,10.06,14.621,5.332,30.349-2.582,35.11-16.867.335-1.039.134-1.71-1.107-1.978l-4.46-1.207c-1.072-.268-1.34-.637-1.106-1.677ZM52.342,69.542c-4.494-1.207-8.283-4.091-10.597-8.149-2.314-4.058-2.951-8.719-1.744-13.212,1.978-7.344,9.591-11.736,16.968-9.758,6.841,1.81,11.133,8.551,10.128,15.392-.202,1.274.068,1.676,1.241,1.978l3.923,1.039c1.173.335,1.442.737,1.039,1.946-3.185,8.349-12.173,13.144-20.958,10.764Z"/>
</svg>