<?xml version="1.0" encoding="UTF-8"?>
<svg id="_图层_1" data-name="图层_1" xmlns="http://www.w3.org/2000/svg" version="1.1" viewBox="0 0 108 108">
  <!-- Generator: Adobe Illustrator 29.3.1, SVG Export Plug-In . SVG Version: 2.1.0 Build 151)  -->
  <path id="path" d="M86.974,57.394c3.671-17.956-7.243-35.863-25.2-40.692-18.56-4.979-37.725,6.036-42.706,24.596-3.069,11.418-.906,23.844,5.784,33.601,4.727,6.941,11.57,12.223,19.466,15.09,21.931,7.997,45.523-3.874,52.665-25.301.502-1.559.201-2.565-1.66-2.967l-6.69-1.811c-1.608-.402-2.01-.955-1.659-2.516ZM51.513,77.313c-6.741-1.811-12.424-6.136-15.895-12.223-3.471-6.087-4.427-13.078-2.616-19.818,2.967-11.016,14.387-17.605,25.452-14.637,10.261,2.715,16.7,12.826,15.192,23.088-.303,1.911.101,2.514,1.862,2.967l5.884,1.559c1.76.502,2.163,1.106,1.559,2.918-4.778,12.524-18.259,19.716-31.437,16.145Z" fill="#fff"/>
</svg>