<?xml version="1.0" encoding="utf-8"?>
<!-- Generator: Adobe Illustrator 25.4.1, SVG Export Plug-In . SVG Version: 6.00 Build 0)  -->
<svg version="1.1" id="图层_1" xmlns="http://www.w3.org/2000/svg" xmlns:xlink="http://www.w3.org/1999/xlink" x="0px" y="0px"
	 viewBox="0 0 108 108" enable-background="new 0 0 108 108" xml:space="preserve">
<g id="XMLID_540_">
	<path id="XMLID_545_" fill="#FFFFFF" d="M52.644,42.15c-1.77,0-3.204-1.446-3.204-3.23s1.435-3.23,3.204-3.23
		c1.77,0,3.205,1.446,3.205,3.23S54.414,42.15,52.644,42.15 M34.573,42.15c-1.771,0-3.206-1.446-3.206-3.23s1.436-3.23,3.206-3.23
		c1.769,0,3.204,1.446,3.204,3.23S36.342,42.15,34.573,42.15 M43.608,23.437c-14.972,0-27.108,10.194-27.108,22.769
		c0,6.861,3.651,13.037,9.366,17.21c0.459,0.33,0.759,0.872,0.759,1.485c0,0.201-0.043,0.386-0.096,0.58
		c-0.456,1.717-1.187,4.464-1.221,4.593c-0.057,0.216-0.145,0.44-0.145,0.666c0,0.503,0.404,0.91,0.904,0.91
		c0.197,0,0.356-0.073,0.521-0.169l5.936-3.453c0.446-0.259,0.918-0.419,1.439-0.419c0.278,0,0.545,0.041,0.797,0.119
		c2.769,0.802,5.755,1.248,8.849,1.248c0.5,0,0.996-0.014,1.489-0.036c-0.59-1.777-0.91-3.646-0.91-5.581
		c0-11.468,11.068-20.766,24.723-20.766c0.495,0,0.621,0.016,1.108,0.04C67.976,31.756,57.132,23.437,43.608,23.437"/>
	<path id="XMLID_541_" fill="#FFFFFF" d="M76.44,60.13c-1.558,0-2.82-1.272-2.82-2.842s1.262-2.843,2.82-2.843
		c1.558,0,2.821,1.273,2.821,2.843S77.998,60.13,76.44,60.13 M61.38,60.13c-1.558,0-2.821-1.272-2.821-2.842
		s1.263-2.843,2.821-2.843c1.558,0,2.821,1.273,2.821,2.843S62.937,60.13,61.38,60.13 M83.695,77.701
		c4.762-3.479,7.805-8.625,7.805-14.342c0-10.48-10.113-18.974-22.59-18.974c-12.476,0-22.591,8.494-22.591,18.974
		c0,10.48,10.115,18.974,22.591,18.974c2.577,0,5.066-0.372,7.374-1.04c0.21-0.064,0.432-0.1,0.664-0.1
		c0.433,0,0.827,0.133,1.199,0.35l4.945,2.878c0.139,0.08,0.272,0.141,0.436,0.141c0.417,0,0.753-0.34,0.753-0.758
		c0-0.189-0.075-0.376-0.122-0.555c-0.029-0.107-0.637-2.398-1.018-3.828c-0.044-0.161-0.08-0.316-0.08-0.483
		C83.062,78.429,83.312,77.977,83.695,77.701"/>
</g>
</svg>
