<?xml version="1.0" encoding="utf-8"?>
<!-- Generator: Adobe Illustrator 25.4.1, SVG Export Plug-In . SVG Version: 6.00 Build 0)  -->
<svg version="1.1" id="图层_1" xmlns="http://www.w3.org/2000/svg" xmlns:xlink="http://www.w3.org/1999/xlink" x="0px" y="0px"
	 viewBox="0 0 108 108" enable-background="new 0 0 108 108" xml:space="preserve">
<path d="M69.766,48.385c-3.874-6.519-6.429-12.629-8.141-17.666h-15.25c-1.711,5.037-4.266,11.147-8.141,17.666
	C34.824,54.124,31.219,58.786,28,62.438l7.625,13.156c4.981-0.993,11.204-1.812,18.375-1.812c5.079,0,11.342,0.411,18.375,1.812
	L80,62.438C76.781,58.786,73.176,54.124,69.766,48.385z M67.443,49.344c2.872,4.866,5.868,8.937,8.62,12.25
	c-4.807-0.991-9.312-1.582-13.415-1.908c-1.063-1.576-2.121-3.238-3.163-4.989c-1.557-2.618-2.924-5.181-4.126-7.656
	c2.167-4.587,3.778-8.848,4.986-12.572C61.974,38.836,64.246,43.929,67.443,49.344z M59.583,59.486
	c-1.975-0.101-3.84-0.143-5.583-0.143c-1.92,0-3.782,0.051-5.583,0.143c0.754-1.16,1.504-2.363,2.245-3.611
	c1.224-2.061,2.333-4.088,3.338-6.064c1.005,1.977,2.114,4.004,3.338,6.064C58.079,57.123,58.828,58.326,59.583,59.486z
	 M58.188,33.156c-1.041,3.275-2.399,6.984-4.188,10.974c-1.788-3.99-3.146-7.699-4.188-10.974H58.188z M40.557,49.344
	c3.196-5.414,5.468-10.508,7.099-14.875c1.208,3.724,2.818,7.985,4.986,12.572c-1.202,2.475-2.569,5.038-4.126,7.656
	c-1.042,1.751-2.101,3.414-3.163,4.99c-5.057,0.401-9.562,1.112-13.415,1.907C34.689,58.281,37.686,54.209,40.557,49.344z
	 M31.875,64.188c3.357-0.739,7.264-1.423,11.642-1.871c-2.551,3.54-5.085,6.583-7.423,9.152L31.875,64.188z M54,71.344
	c-5.987,0-11.278,0.569-15.688,1.312c2.641-2.934,5.521-6.463,8.394-10.616c2.319-0.165,4.754-0.259,7.294-0.259
	c2.222,0,4.664,0.072,7.294,0.259c2.872,4.153,5.752,7.682,8.394,10.616C63.784,71.661,58.471,71.344,54,71.344z M71.906,71.469
	c-2.338-2.569-4.872-5.612-7.424-9.153c3.607,0.369,7.51,0.961,11.643,1.871L71.906,71.469z"/>
</svg>
