<?xml version="1.0" encoding="utf-8"?>
<!-- Generator: Adobe Illustrator 25.4.1, SVG Export Plug-In . SVG Version: 6.00 Build 0)  -->
<svg version="1.1" id="图层_1" xmlns="http://www.w3.org/2000/svg" xmlns:xlink="http://www.w3.org/1999/xlink" x="0px" y="0px"
	 viewBox="0 0 108 108" enable-background="new 0 0 108 108" xml:space="preserve">
<linearGradient id="SVGID_1_" gradientUnits="userSpaceOnUse" x1="54" y1="86.3906" x2="54" y2="19.0781">
	<stop  offset="0" style="stop-color:#FED0C4"/>
	<stop  offset="0.3333" style="stop-color:#FFF2DF"/>
	<stop  offset="0.6667" style="stop-color:#FFEEDD"/>
	<stop  offset="1" style="stop-color:#FEEADC"/>
</linearGradient>
<path fill="url(#SVGID_1_)" d="M77.648,45.577c-5.812-9.779-9.644-18.943-12.211-26.499H42.562
	c-2.567,7.556-6.399,16.72-12.211,26.499C25.236,54.187,19.829,61.179,15,66.656l11.438,19.734
	c7.471-1.489,16.806-2.719,27.562-2.719c7.618,0,17.013,0.617,27.562,2.719L93,66.656C88.171,61.179,82.764,54.187,77.648,45.577z
	 M74.164,47.016c4.308,7.298,8.802,13.405,12.93,18.375c-7.211-1.486-13.968-2.373-20.122-2.861
	c-1.595-2.363-3.182-4.857-4.745-7.484c-2.335-3.927-4.386-7.772-6.189-11.484c3.251-6.88,5.666-13.272,7.478-18.858
	C65.962,31.253,69.369,38.894,74.164,47.016z M62.374,62.229c-2.963-0.151-5.76-0.214-8.374-0.214c-2.88,0-5.673,0.076-8.374,0.214
	c1.132-1.74,2.256-3.545,3.367-5.417c1.836-3.091,3.499-6.131,5.006-9.097c1.507,2.965,3.171,6.006,5.006,9.097
	C60.118,58.685,61.242,60.489,62.374,62.229z M60.281,22.734C58.719,27.647,56.682,33.211,54,39.196
	c-2.682-5.985-4.719-11.549-6.281-16.462H60.281z M33.836,47.016c4.794-8.122,8.202-15.762,10.648-22.312
	c1.812,5.586,4.227,11.978,7.478,18.858c-1.804,3.712-3.854,7.557-6.189,11.484c-1.563,2.627-3.151,5.122-4.745,7.485
	c-7.585,0.601-14.344,1.669-20.123,2.86C25.034,60.421,29.528,54.314,33.836,47.016z M20.812,69.281
	c5.035-1.108,10.896-2.134,17.463-2.806c-3.827,5.31-7.628,9.875-11.135,13.728L20.812,69.281z M54,80.016
	c-8.98,0-16.917,0.854-23.531,1.969c3.962-4.402,8.282-9.695,12.591-15.924c3.479-0.247,7.131-0.388,10.941-0.388
	c3.333,0,6.996,0.108,10.941,0.388c4.309,6.23,8.629,11.523,12.591,15.924C68.676,80.492,60.707,80.016,54,80.016z M80.859,80.203
	c-3.507-3.853-7.309-8.418-11.136-13.729c5.41,0.554,11.265,1.442,17.464,2.807L80.859,80.203z"/>
</svg>
