<?xml version="1.0" encoding="utf-8"?>
<!-- Generator: Adobe Illustrator 25.4.1, SVG Export Plug-In . SVG Version: 6.00 Build 0)  -->
<svg version="1.1" id="图层_1" xmlns="http://www.w3.org/2000/svg" xmlns:xlink="http://www.w3.org/1999/xlink" x="0px" y="0px"
	 viewBox="0 0 108 108" enable-background="new 0 0 108 108" xml:space="preserve">
<g>
	<path d="M76.49,51.34c-2.26-2.27-5.39-3.67-8.85-3.67c-0.09,0-0.18,0-0.27,0.01c0.18-0.87,0.27-1.76,0.27-2.68
		c0-7.54-6.11-13.64-13.64-13.64S40.36,37.46,40.36,45c0,0.92,0.09,1.81,0.27,2.68c-0.09-0.01-0.18-0.01-0.27-0.01
		c-3.46,0-6.59,1.4-8.85,3.67c-2.27,2.26-3.67,5.39-3.67,8.85c0,3.45,1.4,6.58,3.67,8.85c2.26,2.26,5.39,3.66,8.85,3.66
		c3.46,0,6.58-1.4,8.85-3.66l6.2-6.2l7.7-7.69c1.2-1.08,2.79-1.74,4.53-1.74c1.87,0,3.57,0.76,4.79,1.99
		c1.23,1.22,1.99,2.92,1.99,4.79s-0.76,3.56-1.99,4.79c-1.22,1.22-2.92,1.98-4.79,1.98s-3.56-0.76-4.79-1.98
		c-1.12-1.12-2.94-1.12-4.06,0s-1.12,2.94,0,4.06c2.27,2.26,5.39,3.66,8.85,3.66c3.46,0,6.59-1.4,8.85-3.66
		c2.27-2.27,3.67-5.4,3.67-8.85C80.16,56.73,78.76,53.6,76.49,51.34z M45.18,64.94l-0.03,0.04c-1.23,1.22-2.92,1.98-4.79,1.98
		s-3.57-0.76-4.79-1.98c-1.23-1.23-1.99-2.92-1.99-4.79s0.76-3.57,1.99-4.79c1.22-1.23,2.92-1.99,4.79-1.99s3.56,0.76,4.79,1.99
		c1.23,1.22,1.98,2.92,1.98,4.79C47.13,62.04,46.39,63.72,45.18,64.94z M48.78,50.92c-0.03-0.02-0.06-0.05-0.09-0.08
		C47.1,49.4,46.1,47.32,46.1,45c0-4.37,3.54-7.9,7.9-7.9s7.9,3.53,7.9,7.9c0,2.32-1,4.4-2.59,5.84c-0.03,0.03-0.06,0.06-0.09,0.08
		C57.83,52.16,56,52.9,54,52.9S50.17,52.16,48.78,50.92z"/>
</g>
</svg>
