<?xml version="1.0" encoding="utf-8"?>
<!-- Generator: Adobe Illustrator 25.4.1, SVG Export Plug-In . SVG Version: 6.00 Build 0)  -->
<svg version="1.1" id="图层_1" xmlns="http://www.w3.org/2000/svg" xmlns:xlink="http://www.w3.org/1999/xlink" x="0px" y="0px"
	 viewBox="0 0 108 108" enable-background="new 0 0 108 108" xml:space="preserve">
<g>
	<path d="M76.491,51.337c-2.51-2.509-5.82-3.731-9.109-3.663c0.169-0.86,0.259-1.748,0.259-2.658
		c0-7.533-6.107-13.641-13.641-13.641s-13.641,6.107-13.641,13.641c0,0.91,0.089,1.798,0.259,2.658
		c-3.289-0.067-6.599,1.153-9.108,3.663c-4.888,4.887-4.888,12.812,0,17.699c4.887,4.888,12.812,4.888,17.699,0l6.199-6.198
		l7.443-7.442c0.001-0.001,0.001-0.001,0.002-0.002c0.171-0.171,0.349-0.33,0.533-0.48c1.237-1.002,2.746-1.503,4.255-1.503
		c1.734,0,3.468,0.662,4.79,1.985c1.323,1.323,1.985,3.056,1.985,4.79s-0.662,3.468-1.985,4.79c-1.323,1.323-3.056,1.985-4.79,1.985
		s-3.468-0.662-4.79-1.985c-1.121-1.121-2.938-1.121-4.06,0c-1.121,1.121-1.121,2.938,0,4.06c4.888,4.887,12.812,4.887,17.7,0
		C81.378,64.15,81.378,56.225,76.491,51.337z M54,37.16c4.339,0,7.857,3.517,7.857,7.857c0,4.339-3.518,7.857-7.857,7.857
		s-7.857-3.518-7.857-7.857C46.143,40.677,49.661,37.16,54,37.16z M35.568,64.979c-2.645-2.646-2.645-6.936,0-9.582
		c2.473-2.472,6.382-2.634,9.042-0.485c0.186,0.15,0.367,0.312,0.54,0.485c0.002,0.002,0.004,0.004,0.006,0.006
		c2.639,2.647,2.637,6.932-0.006,9.576C42.505,67.624,38.214,67.624,35.568,64.979z"/>
</g>
</svg>
