<?xml version="1.0" encoding="utf-8"?>
<!-- Generator: Adobe Illustrator 25.4.1, SVG Export Plug-In . SVG Version: 6.00 Build 0)  -->
<svg version="1.1" id="图层_1" xmlns="http://www.w3.org/2000/svg" xmlns:xlink="http://www.w3.org/1999/xlink" x="0px" y="0px"
	 viewBox="0 0 108 108" enable-background="new 0 0 108 108" xml:space="preserve">
<g>
	<linearGradient id="SVGID_1_" gradientUnits="userSpaceOnUse" x1="56.9697" y1="66.3654" x2="92.8756" y2="60.0342">
		<stop  offset="0" style="stop-color:#4ED5FF"/>
		<stop  offset="0.25" style="stop-color:#53D6FF"/>
		<stop  offset="0.5" style="stop-color:#61CEFF"/>
		<stop  offset="0.75" style="stop-color:#82B3FF"/>
		<stop  offset="1" style="stop-color:#929DFF"/>
	</linearGradient>
	<path fill="url(#SVGID_1_)" d="M67.275,70.467c-1.681-1.681-4.407-1.681-6.089,0s-1.681,4.407,0,6.089
		c3.397,3.397,8.091,5.499,13.275,5.499s9.878-2.101,13.275-5.499s5.499-8.091,5.499-13.275s-2.101-9.878-5.499-13.275
		s-8.091-5.499-13.275-5.499s-9.878,2.101-13.275,5.499s-5.499,8.091-5.499,13.275c0,1.368,0.146,2.701,0.424,3.986L67.671,55.72
		c1.8-1.617,4.18-2.601,6.79-2.601c2.806,0,5.347,1.137,7.186,2.977c1.839,1.839,2.977,4.38,2.977,7.186s-1.137,5.347-2.977,7.186
		s-4.38,2.977-7.186,2.977S69.114,72.306,67.275,70.467z"/>
	
		<linearGradient id="SVGID_00000173144811976461924740000015923730672391143614_" gradientUnits="userSpaceOnUse" x1="15.6673" y1="57.4266" x2="63.7594" y2="70.3129">
		<stop  offset="0" style="stop-color:#49F3FF"/>
		<stop  offset="0.25" style="stop-color:#50E4FF"/>
		<stop  offset="0.5" style="stop-color:#49D0FF"/>
		<stop  offset="0.75" style="stop-color:#34BDFF"/>
		<stop  offset="1" style="stop-color:#1BA8FF"/>
	</linearGradient>
	<path fill="url(#SVGID_00000173144811976461924740000015923730672391143614_)" d="M61.918,49.313L51.894,59.319
		c-0.772-3.593-2.573-6.806-5.08-9.313c-3.397-3.397-8.091-5.498-13.274-5.498s-9.877,2.101-13.274,5.498
		c-3.398,3.398-5.499,8.092-5.499,13.275c0,5.184,2.101,9.877,5.499,13.274c3.397,3.398,8.091,5.499,13.274,5.499
		s9.877-2.101,13.274-5.499l0.001,0.001L67.67,55.719L61.918,49.313z M33.539,73.444c-2.807,0-5.347-1.138-7.187-2.977
		c-1.838-1.838-2.976-4.379-2.976-7.186c0-2.807,1.138-5.347,2.976-7.187c1.839-1.838,4.38-2.976,7.187-2.976
		s5.347,1.138,7.187,2.976c1.838,1.839,2.976,4.38,2.976,7.187c0,2.78-1.117,5.299-2.925,7.133l-0.053,0.053
		C38.885,72.306,36.345,73.444,33.539,73.444z"/>
	
		<linearGradient id="SVGID_00000079459995208863361210000006325765159935657610_" gradientUnits="userSpaceOnUse" x1="33.5391" y1="40.4962" x2="74.4609" y2="40.4962">
		<stop  offset="0" style="stop-color:#76EAFC"/>
		<stop  offset="1" style="stop-color:#8CA6FF"/>
	</linearGradient>
	<path fill="url(#SVGID_00000079459995208863361210000006325765159935657610_)" d="M54,20.035c-11.3,0-20.461,9.161-20.461,20.461
		S42.7,60.957,54,60.957s20.461-9.161,20.461-20.461S65.3,20.035,54,20.035z M54,52.346c-6.545,0-11.85-5.306-11.85-11.85
		c0-6.545,5.306-11.85,11.85-11.85s11.85,5.306,11.85,11.85C65.85,47.041,60.545,52.346,54,52.346z"/>
	
		<linearGradient id="SVGID_00000053533197185981930570000008913915290254108562_" gradientUnits="userSpaceOnUse" x1="33.5391" y1="48.574" x2="74.4609" y2="48.574">
		<stop  offset="0" style="stop-color:#FF5099"/>
		<stop  offset="1" style="stop-color:#FF2E74"/>
	</linearGradient>
	<path fill="url(#SVGID_00000053533197185981930570000008913915290254108562_)" d="M42.15,40.496c0,6.545,5.306,11.85,11.85,11.85
		s11.85-5.306,11.85-11.85c0-2.378,1.928-4.305,4.305-4.305c2.378,0,4.305,1.928,4.305,4.305c0,11.3-9.161,20.461-20.461,20.461
		s-20.461-9.161-20.461-20.461c0-2.378,1.928-4.305,4.305-4.305C40.222,36.191,42.15,38.118,42.15,40.496z"/>
</g>
</svg>
