<?xml version="1.0" encoding="utf-8"?>
<!-- Generator: Adobe Illustrator 25.4.1, SVG Export Plug-In . SVG Version: 6.00 Build 0)  -->
<svg version="1.1" id="图层_1" xmlns="http://www.w3.org/2000/svg" xmlns:xlink="http://www.w3.org/1999/xlink" x="0px" y="0px"
	 viewBox="0 0 108 108" enable-background="new 0 0 108 108" xml:space="preserve">
<g>
	<path id="path" fill="#89E219" d="M47.658,41.778c0.917,0.947,0.645,2.513-0.538,3.088c-3.93,1.907-8.7,1.042-11.795-2.16
		c-3.093-3.203-3.793-7.995-1.748-11.853c0.615-1.16,1.958-1.37,2.875-0.425L47.658,41.778z"/>
	<path id="path_1" fill-rule="evenodd" clip-rule="evenodd" fill="#89E219" d="M46.38,40.522c3.917,3.952,10.825,3.952,15.188,0
		c4.362-3.955-0.655,23.02-0.655,22.95c0-0.033-2.332-0.042-6.995-0.028c-1.252,0.002-3.502,0.013-6.757,0.028
		C44.03,45.537,43.77,37.885,46.38,40.522z"/>
	<path id="path_2" fill="#89E219" d="M30.458,34.635l10.57,11.728c0.885,0.98,0.56,2.535-0.643,3.068
		c-3.995,1.77-8.732,0.74-11.712-2.57c-2.98-3.307-3.513-8.123-1.333-11.908C27.995,33.815,29.575,33.653,30.458,34.635z"/>
	<path id="path_3" fill="#89E219" d="M60.347,41.778c-0.917,0.947-0.647,2.513,0.537,3.088c3.928,1.907,8.697,1.042,11.792-2.16
		c3.095-3.203,3.795-7.995,1.75-11.853c-0.615-1.16-1.957-1.37-2.875-0.425L60.347,41.778z"/>
	<path id="path_4" fill="#89E219" d="M77.545,34.635l-10.57,11.728c-0.882,0.98-0.557,2.535,0.645,3.068
		c3.993,1.77,8.73,0.74,11.712-2.57c2.98-3.307,3.513-8.123,1.333-11.908C80.01,33.815,78.43,33.653,77.545,34.635z"/>
	<path id="path_5" fill-rule="evenodd" clip-rule="evenodd" fill="#89E219" d="M35.882,36.408h0.615
		c7.762,0,14.055,6.292,14.055,14.055v7.245c0,7.763-6.293,14.055-14.055,14.055h-0.615c-7.762,0-14.055-6.292-14.055-14.055v-7.245
		C21.827,42.7,28.12,36.408,35.882,36.408z"/>
	<path id="path_6" fill-rule="evenodd" clip-rule="evenodd" fill="#89E219" d="M71.505,36.408h0.493
		c7.763,0,14.055,6.29,14.055,14.052v7.25c0,7.76-6.292,14.052-14.055,14.052h-0.435c-7.717,0-13.993-6.225-14.053-13.942
		l-0.057-7.248c-0.062-7.762,6.18-14.102,13.942-14.165C71.43,36.408,71.467,36.408,71.505,36.408z"/>
	<path id="path_7" fill-rule="evenodd" clip-rule="evenodd" fill="#FFFFFF" d="M36.755,41.405c5.403,0,9.782,4.38,9.782,9.783v5.792
		c0,5.405-4.38,9.785-9.782,9.785c-5.405,0-9.785-4.38-9.785-9.785v-5.792C26.97,45.785,31.35,41.405,36.755,41.405z"/>
	<path id="path_8" fill-rule="evenodd" clip-rule="evenodd" fill="#FFFFFF" d="M71.125,41.405c5.402,0,9.783,4.38,9.783,9.783v5.792
		c0,5.405-4.38,9.785-9.783,9.785c-5.405,0-9.785-4.38-9.785-9.785v-5.792C61.34,45.785,65.72,41.405,71.125,41.405z"/>
	<path id="path_9" fill-rule="evenodd" clip-rule="evenodd" fill="#4B4B4B" d="M38.26,47.025c2.562,0,4.64,2.08,4.64,4.642v4.96
		c0,2.562-2.078,4.64-4.64,4.64s-4.642-2.078-4.642-4.64v-4.96C33.618,49.105,35.697,47.025,38.26,47.025z"/>
	<path id="path_10" fill-rule="evenodd" clip-rule="evenodd" fill="#F48000" d="M54.002,58.28c2.938,0,5.318,2.382,5.318,5.32v1.845
		c0,2.938-2.38,5.317-5.318,5.317s-5.317-2.38-5.317-5.317V63.6C48.685,60.662,51.065,58.28,54.002,58.28z"/>
	<path id="path_11" fill="#FFC200" d="M46.665,64.105c0.632-3.388,3.778-5.835,7.54-5.835c3.422,0,6.512,2.507,7.135,5.835v0.27
		c0,0.21-0.075,0.3-0.27,0.272l-6.865,1.22c-0.193,0.003-0.215,0.003-0.405,0l-6.868-1.22c-0.192,0.028-0.267-0.062-0.267-0.272
		V64.105z"/>
	<path id="path_12" fill-rule="evenodd" clip-rule="evenodd" fill="#FFDE00" d="M52.877,59.445c0.36-0.088,0.722-0.132,1.093-0.132
		c0.395,0,0.792,0.05,1.188,0.153l0,0c0.798,0.205,1.357,0.925,1.357,1.75c0,0.662-0.537,1.2-1.2,1.2h-2.63
		c-0.663,0-1.2-0.538-1.2-1.2C51.485,60.375,52.06,59.643,52.877,59.445L52.877,59.445z"/>
	<path id="path_13" fill-rule="evenodd" clip-rule="evenodd" fill="#4B4B4B" d="M69.62,47.025c2.562,0,4.64,2.08,4.64,4.642v4.96
		c0,2.562-2.077,4.64-4.64,4.64c-2.565,0-4.643-2.078-4.643-4.64v-4.96C64.978,49.105,67.055,47.025,69.62,47.025z"/>
	<path id="path_14" fill="#FFFFFF" d="M34.338,52.658c1.657,0,3-1.338,3-2.988c0-1.647-1.343-2.985-3-2.985
		c-1.655,0-2.998,1.337-2.998,2.985C31.34,51.32,32.682,52.658,34.338,52.658z"/>
	<path id="path_15" fill="#FFFFFF" d="M65.24,52.658c1.655,0,3-1.338,3-2.988c0-1.647-1.345-2.985-3-2.985s-3,1.337-3,2.985
		C62.24,51.32,63.585,52.658,65.24,52.658z"/>
</g>
</svg>
