<?xml version="1.0" encoding="utf-8"?>
<!-- Generator: Adobe Illustrator 25.4.1, SVG Export Plug-In . SVG Version: 6.00 Build 0)  -->
<svg version="1.1" id="图层_1" xmlns="http://www.w3.org/2000/svg" xmlns:xlink="http://www.w3.org/1999/xlink" x="0px" y="0px"
	 viewBox="0 0 108 108" enable-background="new 0 0 108 108" xml:space="preserve">
<g>
	<path fill-rule="evenodd" clip-rule="evenodd" d="M81.972,40.562c0.115-1.924-0.307-3.875-1.307-5.61
		c-0.655-1.137-2.235-1.3-3.12-0.317l-2.017,2.237c-0.01-0.003-0.021-0.005-0.031-0.008c0.266-2.031-0.073-4.132-1.07-6.012
		c-0.615-1.16-1.957-1.37-2.875-0.425l-9.859,9.986c-0.027,0.026-0.057,0.05-0.084,0.077c-0.015,0.013-0.027,0.018-0.043,0.031
		c-4.235,3.837-10.859,3.938-14.828,0.325l-0.121-0.122c-0.111-0.115-0.222-0.23-0.337-0.341l-9.83-9.957
		c-0.918-0.945-2.26-0.735-2.875,0.425c-0.991,1.87-1.332,3.959-1.073,5.981c-0.018,0.004-0.035,0.009-0.053,0.014l-1.994-2.212
		c-0.883-0.983-2.463-0.82-3.117,0.317c-0.98,1.701-1.407,3.611-1.315,5.498c-2.589,2.549-4.198,6.091-4.198,10.012v7.245
		c0,7.763,6.292,14.055,14.055,14.055h0.615c5.117,0,9.58-2.743,12.036-6.831l-1.601-0.284c-0.193,0.028-0.268-0.062-0.268-0.272
		v-0.27c0.633-3.388,3.778-5.835,7.54-5.835c3.422,0,6.513,2.508,7.135,5.835v0.27c0,0.21-0.075,0.3-0.27,0.272l-1.551,0.276
		c2.456,4.095,6.927,6.839,12.044,6.839h0.435c7.763,0,14.055-6.293,14.055-14.053v-7.25C86.052,46.598,84.493,43.102,81.972,40.562
		z M46.537,56.98c0,5.405-4.38,9.785-9.782,9.785c-5.405,0-9.785-4.38-9.785-9.785v-5.792c0-5.403,4.38-9.783,9.785-9.783
		c5.403,0,9.782,4.38,9.782,9.783V56.98z M80.908,56.98c0,5.405-4.38,9.785-9.783,9.785c-5.405,0-9.785-4.38-9.785-9.785v-5.792
		c0-5.403,4.38-9.783,9.785-9.783c5.403,0,9.783,4.38,9.783,9.783V56.98z"/>
	<path fill-rule="evenodd" clip-rule="evenodd" d="M54.205,65.867c-0.193,0.003-0.215,0.003-0.405,0l-5.115-0.909v0.486
		c0,2.938,2.38,5.318,5.318,5.318s5.318-2.38,5.318-5.318v-0.487L54.205,65.867z"/>
	<path opacity="0.5" d="M54.205,58.27c-3.763,0-6.908,2.448-7.54,5.835v0.27c0,0.21,0.075,0.3,0.268,0.272l6.867,1.22
		c0.19,0.003,0.213,0.003,0.405,0l6.865-1.22c0.195,0.028,0.27-0.062,0.27-0.272v-0.27C60.718,60.777,57.628,58.27,54.205,58.27z
		 M55.315,62.415h-2.63c-0.662,0-1.2-0.537-1.2-1.2c0-0.84,0.575-1.572,1.393-1.77c0.36-0.088,0.722-0.133,1.093-0.133
		c0.395,0,0.792,0.05,1.188,0.152c0.797,0.205,1.357,0.925,1.357,1.75C56.515,61.878,55.977,62.415,55.315,62.415z"/>
	<path fill-rule="evenodd" clip-rule="evenodd" d="M38.26,47.025c-0.69,0-1.339,0.161-1.927,0.431
		c0.612,0.547,1.005,1.332,1.005,2.214c0,1.65-1.343,2.987-3,2.987c-0.25,0-0.488-0.039-0.72-0.097v4.067
		c0,2.562,2.08,4.64,4.643,4.64s4.64-2.078,4.64-4.64v-4.96C42.9,49.105,40.823,47.025,38.26,47.025z"/>
	<path fill-rule="evenodd" clip-rule="evenodd" d="M69.62,47.025c-0.807,0-1.555,0.225-2.216,0.587
		c0.515,0.536,0.836,1.259,0.836,2.058c0,1.65-1.345,2.987-3,2.987c-0.09,0-0.175-0.019-0.263-0.026v3.996
		c0,2.562,2.078,4.64,4.643,4.64c2.562,0,4.64-2.078,4.64-4.64v-4.96C74.26,49.105,72.182,47.025,69.62,47.025z"/>
</g>
</svg>
