<svg xmlns="http://www.w3.org/2000/svg" viewBox="0 0 108 108">
  <g>
    <polygon points="53.75 68.5 43.75 81.25 37.75 79 34.25 73 39.5 68.5 48.75 70 53.75 68.5" style="fill:#f58bf9"/>
    <polygon points="53.75 68.5 51.2 71.75 48.06 75.75 43.75 81.25 37.75 79 34.25 73 40.25 73.5 41 69.75 48.75 70 53.75 68.5" style="fill:#ecae34"/>
    <polygon points="40.25 73.5 37.75 79 34.25 73 40.25 73.5" style="fill:#ef80f6"/>
    <polygon points="44 78 43.75 81.25 37.75 79 40.25 73.5 44 78" style="fill:#3c85d8"/>
    <polygon points="51.2 71.75 43.75 81.25 44 78 46.5 76 47 74.5 51.2 71.75" style="fill:#568e40"/>
    <polygon points="47 74.5 48.0637 75.75 51.201 71.75 47 74.5" style="fill:#db2323"/>
    <polygon points="44 78 37.75 79 43.75 81.25 44 78" style="fill:#377ccd"/>
  </g>
  <g>
    <polygon points="69 48 67.5 59.75 56.5 66.5 57.25 61.75 57.75 57.25 54.25 51.5 47.25 53.75 41.5 51.5 39 41.5 49.5 37.25 69 48" style="fill:#3f8de2"/>
    <polygon points="69 48 67.5 59.75 56.5 66.5 57.25 61.75 57.75 57.25 54.25 51.5 47.25 53.75 52.61 42 49.5 37.25 69 48" style="fill:#e22625"/>
    <polygon points="69 48 68.25 53.88 67.5 59.75 65.06 61.25 56.5 66.5 57.25 61.75 57.75 57.25 54.25 51.5 47.25 53.75 41.5 51.5 52.61 42 62.65 44.5 69 48" style="fill:#3578c7"/>
    <polygon points="69 48 67.5 59.75 56.5 66.5 57.25 61.75 57.75 57.25 54.25 51.5 47.25 53.75 41.5 51.5 48.5 45.51 53.75 43.75 52.61 42 62.65 44.5 69 48" style="fill:#e8a02f"/>
    <polygon points="69 48 67.5 59.75 56.5 66.5 57.25 61.75 57.75 57.25 54.25 51.5 47.25 53.75 41.5 51.5 48.5 45.51 53.75 43.75 62.65 44.5 69 48" style="fill:#eba832"/>
    <polygon points="69 48 67.5 59.75 56.5 66.5 57.25 61.75 57.75 57.25 54.25 51.5 47.25 53.75 48.5 45.51 53.75 43.75 62.65 44.5 69 48" style="fill:#ebac34"/>
    <polygon points="69 48 67.5 59.75 56.5 66.5 57.25 61.75 57.75 57.25 54.25 51.5 53.75 43.75 62.65 44.5 69 48" style="fill:#edb135"/>
    <polygon points="69 48 67.5 59.75 56.5 66.5 57.25 61.75 57.75 57.25 54.25 51.5 56.75 51.45 53.75 43.75 62.65 44.5 69 48" style="fill:#edab33"/>
    <polygon points="69 48 67.5 59.75 56.5 66.5 57.25 61.75 57.75 57.25 54.25 51.5 67.25 51.25 62.65 44.5 69 48" style="fill:#69ab4d"/>
    <polygon points="69 48 67.5 59.75 56.5 66.5 57.25 61.75 57.75 57.25 54.25 51.5 67.25 51.25 69 48" style="fill:#568d3f"/>
    <polygon points="68.25 53.88 67.5 59.75 56.5 66.5 57.25 61.75 57.75 57.25 54.25 51.5 67.25 51.25 68.25 53.88" style="fill:#3a81d2"/>
    <polygon points="68.25 53.88 67.5 59.75 56.5 66.5 57.25 61.75 57.75 57.25 56.75 51.45 67.25 51.25 68.25 53.88" style="fill:#3c86d9"/>
    <polygon points="68.25 53.88 67.5 59.75 56.5 66.5 57.25 61.75 57.75 57.25 62 57.5 56.75 51.45 67.25 51.25 68.25 53.88" style="fill:#3a81d2"/>
    <polygon points="68.25 53.88 67.5 59.75 56.5 66.5 57.25 61.75 57.75 57.25 62 57.5 67.25 51.25 68.25 53.88" style="fill:#5d9944"/>
    <polygon points="67.5 59.75 67.25 51.25 68.25 53.875 67.5 59.75" style="fill:#db62ea"/>
    <polygon points="67.5 59.75 56.5 66.5 57.25 61.75 57.75 57.25 62 57.5 67.5 59.75" style="fill:#4294eb"/>
    <polygon points="67.5 59.75 65.06 61.25 56.5 66.5 57.25 61.75 62 57.5 67.5 59.75" style="fill:#5b9542"/>
    <polygon points="57.25 61.75 56.5 66.5 65.0555 61.25 57.25 61.75" style="fill:#568d3f"/>
  </g>
  <g>
    <g>
      <polygon points="37.75 26.75 38.5 37.25 43.75 33 37.75 26.75" style="fill:#df2525"/>
      <polygon points="40.75 31.25 38.5 37.25 37.75 26.75 40.75 31.25" style="fill:#f12d2d"/>
    </g>
    <g>
      <polygon points="49.5 26.25 46 34.25 51 34.75 49.5 26.25" style="fill:#70b652"/>
      <polygon points="46 34.25 49.9853 29 51 34.75 46 34.25" style="fill:#68ab4c"/>
      <polygon points="49.5 26.25 49 34.55 50.4265 31.5 49.5 26.25" style="fill:#5b9643"/>
    </g>
    <g>
      <polygon points="60.25 29 54.25 35.125 60.25 37.25 60.25 29" style="fill:#3f90e5"/>
      <polygon points="60.25 29 58.25 36.5417 60.25 37.25 60.25 29" style="fill:#3475c3"/>
      <polygon points="59.5 35.25 58.25 36.5417 59.5 36.9844 59.5 35.25" style="fill:#2f6bb7"/>
    </g>
    <g>
      <polygon points="68.75 43.75 64.25 40 69.5 36 68.75 43.75" style="fill:#fbd841"/>
      <polygon points="64.25 40 69.1129 40 68.75 43.75 64.25 40" style="fill:#f1ba38"/>
      <polygon points="69.5 36 66.65 42 68.75 43.75 69.5 36" style="fill:#e3942c"/>
      <polygon points="67.6 40 66.5 41.875 68.75 43.75 67.6 40" style="fill:#e79f2f"/>
    </g>
    <g>
      <polygon points="72.25 44.5 75.75 48.75 78 41.25 72.25 44.5" style="fill:#fc94fd"/>
      <polygon points="72.25 44.5 77.125 44.1667 75.75 48.75 72.25 44.5" style="fill:#ef80f6"/>
      <polygon points="75.75 48.75 76 42.3804 78 41.25 75.75 48.75" style="fill:#e877f2"/>
      <polygon points="76 42.3804 77.125 44.1667 75.75 48.75 76 42.3804" style="fill:#db63eb"/>
    </g>
  </g>
</svg>
