<?xml version="1.0" encoding="UTF-8"?>
<svg id="_图层_1" data-name="图层_1" xmlns="http://www.w3.org/2000/svg" version="1.1" viewBox="0 0 108 108">
  <!-- Generator: Adobe Illustrator 29.3.1, SVG Export Plug-In . SVG Version: 2.1.0 Build 151)  -->
  <g>
    <circle cx="76.084" cy="69.375" r="6"/>
    <path d="M38.624,74.181c10.398,3.773,22.319-.331,28.042-10.243,2.188-3.79,3.188-7.94,3.115-12.019v-.002c2.784,2.409,4.277,5.916,4.2,9.481l-.033.008c-2.039.546-3.87,1.871-5.009,3.844-2.183,3.781-1.033,8.572,2.539,10.97h0c-8.223,7.337-20.538,8.949-30.603,3.138-1.584-.915-3.037-1.969-4.351-3.139.837-.562,1.541-1.256,2.101-2.038"/>
  </g>
  <g>
    <circle cx="31.916" cy="69.375" r="6"/>
    <path d="M46.484,34.531c-8.467,7.118-10.873,19.494-5.15,29.407,2.188,3.79,5.282,6.731,8.851,8.707v.002c-3.477,1.206-7.261.745-10.309-1.104l.009-.032c.546-2.039.315-4.287-.824-6.26-2.183-3.781-6.907-5.18-10.77-3.286h0c-2.243-10.79,2.518-22.261,12.584-28.072,1.584-.915,3.224-1.645,4.894-2.199.068,1.006.317,1.963.714,2.838"/>
  </g>
  <g>
    <circle cx="54" cy="31.125" r="6"/>
    <path d="M76.892,61.163c-1.931-10.892-11.446-19.163-22.892-19.163-4.376,0-8.47,1.209-11.966,3.312h-.002c.695-3.615,2.986-6.661,6.111-8.377l.023.024c1.493,1.493,3.555,2.416,5.834,2.416,4.366,0,7.94-3.392,8.231-7.684h0c10.466,3.453,18.02,13.311,18.02,24.934,0,1.829-.187,3.615-.543,5.338-.906-.444-1.859-.707-2.815-.8"/>
  </g>
</svg>