<?xml version="1.0" encoding="UTF-8"?>
<svg id="_图层_1" data-name="图层_1" xmlns="http://www.w3.org/2000/svg" version="1.1" viewBox="0 0 108 108">
  <!-- Generator: Adobe Illustrator 29.3.1, SVG Export Plug-In . SVG Version: 2.1.0 Build 151)  -->
  <defs>
    <style>
      .st0 {
        fill: #ffa40b;
      }

      .st1 {
        fill: #328dff;
      }

      .st2 {
        fill: #43d2ac;
      }
    </style>
  </defs>
  <g>
    <circle class="st1" cx="87.125" cy="77.063" r="9"/>
    <path class="st1" d="M30.936,84.271c15.597,5.66,33.478-.496,42.063-15.365,3.282-5.685,4.782-11.91,4.673-18.028l.002-.002c4.174,3.613,6.413,8.874,6.298,14.221l-.049.012c-3.059.82-5.806,2.806-7.514,5.766-3.275,5.672-1.549,12.858,3.808,16.455h0c-12.335,11.005-30.806,13.424-45.905,4.707-2.376-1.372-4.555-2.954-6.527-4.709,1.256-.844,2.312-1.884,3.151-3.057"/>
  </g>
  <g>
    <circle class="st0" cx="20.875" cy="77.063" r="9"/>
    <path class="st0" d="M42.726,24.796c-12.7,10.678-16.309,29.241-7.725,44.11,3.282,5.685,7.923,10.096,13.276,13.061v.003c-5.215,1.808-10.891,1.117-15.464-1.656l.014-.049c.82-3.059.472-6.431-1.236-9.39-3.275-5.672-10.361-7.771-16.155-4.929h0c-3.364-16.185,3.777-33.391,18.875-42.108,2.376-1.372,4.836-2.468,7.341-3.298.103,1.509.476,2.944,1.072,4.257"/>
  </g>
  <g>
    <circle class="st2" cx="54" cy="19.687" r="9"/>
    <path class="st2" d="M88.338,64.745c-2.897-16.338-17.169-28.745-34.338-28.745-6.565,0-12.705,1.814-17.949,4.967h-.003c1.042-5.422,4.479-9.992,9.167-12.566l.035.036c2.239,2.239,5.333,3.625,8.75,3.625,6.549,0,11.91-5.087,12.346-11.526h0c15.699,5.179,27.029,19.967,27.029,37.401,0,2.744-.281,5.422-.814,8.007-1.358-.666-2.788-1.06-4.222-1.2"/>
  </g>
</svg>