<svg xmlns="http://www.w3.org/2000/svg" viewBox="0 0 108 108">
  <path d="M36.105,61.383c-1.584,4.8939-.9689,8.1956.6747,9.8372,1.6416,1.6436,4.9433,2.2587,9.8372.6747.5513-.1769,1.1129-.3806,1.6827-.6089-1.8123-1.3125-3.5321-2.7607-5.147-4.3015-2.2073-2.1086-3.0466-5.3239-1.7218-8.0743.2242-.467.8578-.5225,1.187-.1214.9566,1.1705,2.0036,2.3266,3.1351,3.458,4.9721,4.9741,10.4626,8.3026,15.2207,9.7488,4.8775,1.4811,8.2923.8249,10.0697-.9525s2.4336-5.1922.9525-10.0697c-.2016-.6583-.4382-1.333-.7097-2.018-1.4935,2.0798-3.1639,4.0423-4.9454,5.8731-2.1106,2.1682-5.3239,2.9232-8.0187,1.5429-.432-.2201-.4793-.8126-.1029-1.1191,1.2446-1.0203,2.4809-2.1353,3.6905-3.3428,5.0338-5.0338,8.4507-10.5469,9.9853-15.2927,1.5819-4.8939.9689-8.1956-.6747-9.8372-1.6437-1.6437-4.9433-2.2587-9.8393-.6747-.5493.1769-1.1109.3806-1.6807.6089,1.8123,1.3125,3.5321,2.7607,5.147,4.3035,2.2073,2.1065,3.0466,5.3218,1.7218,8.0722-.2263.467-.8578.5225-1.1849.1214-.9586-1.1685-2.0057-2.3266-3.1371-3.458-4.9721-4.9721-10.4626-8.3026-15.2207-9.7488-4.8775-1.4811-8.2923-.8249-10.0697.9525-1.7774,1.7774-2.4336,5.1922-.9525,10.0697.2057.6768.4505,1.3701.7323,2.0736.5801-.8105,1.1952-1.6169,1.8411-2.4171.6789-.8373,1.1458-1.8699.9586-2.9314-.1358-.7632-.3888-1.512-.7611-2.2155l-.4361-.8208c-.4773-.899.4978-1.874,1.3989-1.3989l.8208.4341c2.2114,1.1664,4.8548,1.1643,7.0642-.0041l.8229-.4341c.901-.4773,1.8761.4958,1.3989,1.3968l-.4341.8208c-1.1664,2.2094-1.1643,4.8507.0041,7.056l.4361.8208c.4752.901-.4978,1.874-1.3989,1.3988l-.8229-.4341c-.9195-.4834-1.9152-.7673-2.9232-.8475-1.1623-.0946-2.2238.5616-2.9314,1.4894-2.7072,3.5506-4.6265,7.1362-5.6695,10.37ZM33.4657,54.3826c-.9586,1.8267-1.7301,3.6391-2.2999,5.4041-1.7877,5.5275-1.7959,11.3657,1.944,15.1035,3.7378,3.7399,9.5739,3.7316,15.1035,1.944,1.7527-.5657,3.5527-1.333,5.3671-2.2814,1.8885.9771,3.853,1.7938,5.8855,2.411,5.6036,1.7012,11.4582,1.5408,15.2475-2.2484,3.7913-3.7913,3.9518-9.6459,2.2505-15.2495-.5781-1.8987-1.3865-3.851-2.411-5.8114.9051-1.7527,1.6745-3.5671,2.2814-5.4411,1.7876-5.5275,1.7938-11.3657-1.944-15.1035-3.7378-3.7399-9.576-3.7316-15.1055-1.944-1.7506.5657-3.5506,1.331-5.365,2.2814-1.8885-.9771-3.853-1.7938-5.8855-2.411-5.6036-1.7012-11.4582-1.5408-15.2495,2.2505-3.7892,3.7892-3.9497,9.6438-2.2484,15.2475.5822,1.9111,1.3968,3.8756,2.4295,5.8484Z" style="fill-rule:evenodd"/>
</svg>
