<svg xmlns="http://www.w3.org/2000/svg" viewBox="0 0 108 108">
<path d="M71.6,38.6H51.536L49.6,32H36.4c-2.42,0-4.4,1.98-4.4,4.4V65c0,2.42,1.98,4.4,4.4,4.4h15.4L54,76h17.6  c2.42,0,4.4-1.98,4.4-4.4V43C76,40.58,74.02,38.6,71.6,38.6z M43.374,59.698c-4.95,0-8.998-4.026-8.998-8.998  s4.026-8.998,8.998-8.998c2.288,0,4.378,0.814,6.028,2.354l0.154,0.132l-2.706,2.596l-0.132-0.11  c-0.638-0.594-1.716-1.298-3.344-1.298c-2.882,0-5.236,2.398-5.236,5.324s2.354,5.324,5.236,5.324c3.014,0,4.312-1.914,4.664-3.212  h-4.862v-3.41h8.69l0.022,0.154c0.088,0.462,0.11,0.88,0.11,1.342C51.998,56.068,48.456,59.698,43.374,59.698z M56.64,55.936  c0.726,1.32,1.628,2.596,2.618,3.74l-1.188,1.166L56.64,55.936z M58.334,54.264h-2.178l-0.682-2.288h8.778  c0,0-0.748,2.882-3.432,6.028C59.676,56.64,58.862,55.298,58.334,54.264z M73.8,71.6c0,1.21-0.99,2.2-2.2,2.2H56.2l4.4-4.4  l-1.782-6.094l2.024-2.024l5.896,5.918l1.606-1.606l-5.962-5.896c1.98-2.266,3.52-4.95,4.224-7.722H69.4v-2.288h-8.008V47.4h-2.288  v2.288h-4.312L52.196,40.8H71.6c1.21,0,2.2,0.99,2.2,2.2V71.6z"/>
</svg>
