<?xml version="1.0" encoding="utf-8"?>
<!-- Generator: Adobe Illustrator 25.4.1, SVG Export Plug-In . SVG Version: 6.00 Build 0)  -->
<svg version="1.1" id="图层_1" xmlns="http://www.w3.org/2000/svg" xmlns:xlink="http://www.w3.org/1999/xlink" x="0px" y="0px"
	 viewBox="0 0 108 108" style="enable-background:new 0 0 108 108;" xml:space="preserve">
<style type="text/css">
	.st0{fill:#E1698B;}
	.st1{fill:url(#SVGID_1_);}
	.st2{fill:url(#SVGID_00000114763583842610698320000002589798128839274170_);}
	.st3{fill:url(#SVGID_00000155147065489993999810000013531935835139367099_);}
	.st4{fill:url(#SVGID_00000137119095027696913820000013690910524604879780_);}
</style>
<path class="st0" d="M0,49h108v59H0V49z"/>
<linearGradient id="SVGID_1_" gradientUnits="userSpaceOnUse" x1="53.0601" y1="71.7686" x2="22.4119" y2="93.6126">
	<stop  offset="0" style="stop-color:#FFC85C"/>
	<stop  offset="1" style="stop-color:#FFA33F"/>
</linearGradient>
<path class="st1" d="M0,54h63.275l16.941,54H0V54z"/>
<linearGradient id="SVGID_00000062149776000808949860000011056960231207559814_" gradientUnits="userSpaceOnUse" x1="54" y1="108" x2="54" y2="56" gradientTransform="matrix(1 0 0 -1 0 108)">
	<stop  offset="0" style="stop-color:#07E9F5"/>
	<stop  offset="1" style="stop-color:#03CFE8"/>
</linearGradient>
<path style="fill:url(#SVGID_00000062149776000808949860000011056960231207559814_);" d="M108,52H0V0h108V52z"/>
<path d="M52.5,13c-0.111,6.306-3.173,10.594-9.187,12.864c-5.333,2.013-10.4,2.013-15.203,0c7.246,0.599,12.314-0.069,15.203-2.004
	C46.203,21.924,49.265,18.304,52.5,13C61,17,75,13.5,79,10c4,12,14.939,9.76,15.5,10c-2.667,8.333-2.833,18-0.5,29
	c-1.333,0.333-2.667,0.833-4,1.5c-1.329,0.665-3.003,3.631-5.021,8.899c-5.628-1.181-10.045-1.368-13.271-0.541
	c-3.233,0.828-6.505,3.525-9.816,8.091c-6.107-2.209-11.515-3.383-16.245-3.512c-4.752-0.13-10.57,1.055-17.454,3.553
	c6.811-4.045,12.481-6.003,17.009-5.873c5.431,0.155,10.99,2.096,16.675,5.822c1.933-5.593,4.714-8.826,8.343-9.7
	c4.813-1.16,9.727-0.443,14.741,2.151c-0.001-5.217,1.386-8.709,4.161-10.476C89.673,48.52,56.429,26.227,52.5,14.5
	C52.386,14.159,52.564,13.321,52.5,13z"/>
<linearGradient id="SVGID_00000150096745932166557190000003290418178422437777_" gradientUnits="userSpaceOnUse" x1="82.41941" y1="78.13529" x2="33.45583" y2="53.9901" gradientTransform="matrix(1 0 0 -1 0 108)">
	<stop  offset="0" style="stop-color:#F4FFFE"/>
	<stop  offset="1" style="stop-color:#FFFFFF"/>
</linearGradient>
<path style="fill:url(#SVGID_00000150096745932166557190000003290418178422437777_);" d="M20,46.775
	c7.283-5.154,9.984-12.118,8.101-20.891C37.887,27.007,44.076,27.788,52.5,14c7,2,18.847,2.726,26.5-4
	c1.232,7.151,6.232,10.651,15,10.5c-4.09,10.714-2.015,17.875,0,28.5c-5,0-8.032,3.469-9.096,10.406
	C80.281,57.845,68.223,52.8,61.847,67c-9.491-4.061-18.006-8.324-33.746,0C29.919,58.521,27.218,51.78,20,46.775z"/>
<linearGradient id="SVGID_00000163758106907959258600000011767976002980267400_" gradientUnits="userSpaceOnUse" x1="75.06212" y1="72.88079" x2="36.52679" y2="56.53773" gradientTransform="matrix(1 0 0 -1 0 108)">
	<stop  offset="0" style="stop-color:#061934"/>
	<stop  offset="1" style="stop-color:#000000"/>
</linearGradient>
<path style="fill:url(#SVGID_00000163758106907959258600000011767976002980267400_);" d="M53.721,29.511
	c0.354-0.141,0.776-0.278,1.261-0.409c2.506-0.676,8.597-2.349,18.272-5.019c0.669-1.137,1.279-1.823,1.83-2.057
	c0.828-0.352,6.485,2.984,6.991,3.428c0.505,0.445,0.03201,1.901-0.911,2.168s-3.083,0.054-6.269,0.499
	c-3.186,0.444-15.493,3.431-17.449,4.323c-0.918,0.673-1.374,1.058-1.965,1.068c-0.527,0.009-2.328-1.78-2.892-2.547
	c-0.675,1.174-1.535,5.826-1.937,6.048c-0.29,0.159-1.011,0.235-2.163,0.227l-0.278-0.384c-3.376,1.077-5.196,1.679-5.46,1.804
	c-0.264,0.126-0.391,0.328-0.382,0.605c-0.435,0.461-1.016,0.801-1.743,1.023c-0.159,0.048-0.581-0.068-0.752-0.122
	c-0.319-2.203-1.843-4.631-4.573-7.284c0.272-0.72,0.495-1.186,0.669-1.396c0.979-0.492,1.505-1.182,1.703-1.305
	c0.262-0.163,0.665,0.158,1.21,0.964c5.905-1.799,8.858-2.768,8.858-2.906c0-0.208,0.697-1.53,0.697-1.164
	c0,0.366,1.264-0.092,2.519,0.417c0.512,0.666,1.454,1.294,2.825,1.885C53.763,29.422,53.743,29.467,53.721,29.511z M59.693,54.976
	c-0.138-0.061-0.264-0.152-0.373-0.276c0-1.029-1.579-5.157-4.739-12.383c-0.109-0.173-0.239-0.332-0.388-0.478
	c-0.047-0.045-0.109-0.103-0.187-0.173c-0.12,0.745-0.246,1.621-0.376,2.629c-0.803,0.105-1.318,0.146-1.545,0.126
	c-0.234-0.022-0.284-0.154-0.38-0.272c-0.237-0.291-3.541,0.594-9.912,2.653l-0.63,0.643c-0.647,0.112-1.104-0.181-1.37-0.88
	c-0.267-0.699-0.941-2.001-2.023-3.906c-0.29-0.047-0.29-0.361,0-0.943c1.856,0.325,13.24-4.457,13.935-4.67
	c0.694-0.213,0.577-0.754,0.901-0.754c0.324,0,2.677,0.914,2.74,1.291c0.064,0.377-0.063,0.452-0.557,1.008
	c-0.061,0.068-0.124,0.189-0.189,0.361c0.348-0.069,0.671-0.104,0.97-0.104c0.659,0,1.524,0.222,2.594,0.665
	c0.028,0.186,0.107,0.487,0.236,0.903c0.054,0.175,0,0.379,0,0.594c0.892,3.225,2.477,7.126,3.068,8.381
	c1.352-0.324,13.483-2.137,13.88-2.612c0.264-0.317,0.77-5.174,1.519-14.571c0.145-1.252,0.675-1.878,1.59-1.878
	c1.373,0,4.473,2.369,4.531,2.369s-0.058,1.09-1.25,2.369c-1.192,1.278-2.016,18.212-2.629,19.053
	c-0.614,0.841-3.082-0.837-3.67-1.034c-0.58801-0.196-0.02-1.062-0.631-1.38s-10.16,0.891-12.421,1.38c0,0.244,0.13,0.304,0,0.554
	c-0.388,0.747-1.36,1.426-2.18,1.434c1.629,0.297,3.014,0.367,4.158,0.211c-2.507,2.832-10.513,2.81-17.306,0
	c-7.31,5.025-12.643,1.533-10.375,1.533c1.513,0,3.811-1.191,6.897-3.573c-0.89-0.382-1.509-0.663-1.858-0.842
	s-0.842-0.476-1.481-0.89l4.733-1.775c1.236,0.652,1.93,0.978,2.084,0.978c0.606-0.332,1.565-1.242,2.876-2.73
	c-5.877,1.596-9.108,2.506-9.693,2.73c-0.879,0.336-0.894,1.395-1.4,0.797c-0.337-0.399-0.337-1.507,0-3.324l0.554-0.419
	c0.089-0.145,0.589-0.126,1.501,0.055s4.488-0.936,10.73-3.351c2.355,1.489,3.601,2.372,3.738,2.648
	c0.205,0.415,0.542,1.385,0.542,1.564c0,0.068-0.77,0.607-1.606,1.196c-0.49,0.36-1.502,1.141-3.035,2.343
	C54.546,53.581,57.354,54.498,59.693,54.976z M29,34.435c2.935-0.493,7.183-0.994,7.805,1.747c0.623,2.741-1.976,3.333-3.367,1.854
	C32.048,36.558,32.029,35.935,29,34.435z M30.373,39.535c2.823-0.935,6.369-0.288,6.995,1.842c0.627,2.13-2.899,3.269-4.716,3.662
	C33.992,41.555,31.25,40.493,30.373,39.535z M33.202,45.772c0.079-0.384,0.188-0.615,0.325-0.691
	c0.464-0.258,1.377-0.127,1.951,0.038c0.977,0.28,2.885,1.973,3,2.165c0.116,0.191-0.021,0.415-0.055,0.448
	c-0.258,0.249-0.459,0.332-0.618,0.489c-1.427,6.408-5.453,7.164-7.3,7.164C32.52,51.897,33.419,48.692,33.202,45.772z
	 M40.507,33.377l0.661,1.066c1.571-0.624,2.757-1.077,3.56-1.358c0.803-0.282,1.915-0.654,3.337-1.116v-1.255
	c-1.611,0.537-2.845,0.955-3.703,1.255C43.503,32.269,42.219,32.738,40.507,33.377z M41.815,36.04l0.335,1.179
	c1.57-0.624,2.757-1.076,3.56-1.358c0.802-0.282,1.589-0.56,2.36-0.836v-1.373c-1.068,0.32-2.03,0.63-2.889,0.93
	C44.323,34.882,43.201,35.368,41.815,36.04z M40.604,43.364l0.757,1.742l1.706-0.606l-0.569-1.787L40.604,43.364z M44.382,42.067
	l0.742,1.822l1.967-0.566v-2.125L44.382,42.067z M49.062,40.664v2.123l2.085-0.569c-0.018-0.461-0.018-0.817,0-1.066
	c0.018-0.25,0.055-0.647,0.113-1.192L49.062,40.664z M58.572,33.724c0.266-0.28,1.604-0.432,2.086,0
	c0.29-0.187,3.945-1.083,10.964-2.689c0.38-0.378,0.895-0.637,1.546-0.778s1.831,0.623,3.539,2.291
	c-0.613,1.227-1.115,2.168-1.508,2.822c-0.588,0.982-0.519,10.892-0.959,11.245c-0.28,0.225-1.226,0-2.02-0.16
	c-0.431-0.087-1.123-0.445-1.192-0.789c-0.281,0-3.434,0.374-6.317,0.949c0.049,0.372,0.049,0.264,0,0.35
	c-0.049,0.086-1.833,1.176-2.472,0.908c-0.556-2.707-3.491-8.838-5.041-11C56.944,35.986,58.306,34.004,58.572,33.724z
	 M61.777,36.435l0.859,2.397l2.834-0.602l-0.381-2.481L61.777,36.435z M63.365,41.151l0.787,2.717l2.275-0.438l-0.507-2.793
	L63.365,41.151z M68.194,40.159l0.328,2.807l2.33199-0.421l0.116-2.837L68.194,40.159z M67.578,35.213l0.33099,2.535l3.16801-0.462
	l0.222-2.768L67.578,35.213z"/>
</svg>
