<svg xmlns="http://www.w3.org/2000/svg" viewBox="0 0 108 108">
  <defs>
    <linearGradient id="a" x1="53.0601" y1="36.2314" x2="22.4119" y2="14.3874" gradientTransform="translate(0 108) scale(1 -1)" gradientUnits="userSpaceOnUse">
      <stop offset="0" stop-color="#ffc85c"/>
      <stop offset="1" stop-color="#ffa33f"/>
    </linearGradient>
    <linearGradient id="b" x1="54" y1="0" x2="54" y2="52" gradientUnits="userSpaceOnUse">
      <stop offset="0" stop-color="#07e9f5"/>
      <stop offset="1" stop-color="#03cfe8"/>
    </linearGradient>
    <linearGradient id="c" x1="82.4194" y1="29.8647" x2="33.4558" y2="54.0099" gradientUnits="userSpaceOnUse">
      <stop offset="0" stop-color="#f4fffe"/>
      <stop offset="1" stop-color="#fff"/>
    </linearGradient>
    <linearGradient id="d" x1="75.0621" y1="35.1192" x2="36.5268" y2="51.4623" gradientUnits="userSpaceOnUse">
      <stop offset="0" stop-color="#061934"/>
      <stop offset="1" stop-color="#000"/>
    </linearGradient>
  </defs>
  <path d="M0,49h108v59H0v-59Z" style="fill:#e1698b"/>
  <path d="M0,54h63.275l16.941,54H0v-54Z" style="fill:url(#a)"/>
  <path d="M108,52H0V0h108v52Z" style="fill:url(#b)"/>
  <path d="M52.5,13c-.111,6.306-3.173,10.594-9.187,12.864-5.333,2.013-10.4,2.013-15.203,0,7.246.599,12.314-.069,15.203-2.004,2.89-1.936,5.952-5.556,9.187-10.86,8.5,4,22.5.5,26.5-3,4,12,14.939,9.76,15.5,10-2.667,8.333-2.833,18-.5,29-1.333.333-2.667.833-4,1.5-1.329.665-3.003,3.631-5.021,8.899.027.014.054.028.081.042-.03-.006-.06-.013-.089-.019-.004.009-.007.017-.01.026v-.028c-5.61-1.202-10.027-1.389-13.253-.562-3.233.828-6.505,3.525-9.816,8.091.021.014.042.028.063.041-.024-.009-.049-.017-.073-.026-.009.012-.018.024-.026.036.004-.014.009-.027.014-.041-6.085-2.219-11.493-3.393-16.223-3.522-4.752-.13-10.57,1.055-17.454,3.553,6.811-4.045,12.481-6.003,17.009-5.873,5.431.155,10.99,2.096,16.675,5.822,1.933-5.593,4.714-8.826,8.343-9.7,4.813-1.16,9.727-.443,14.741,2.151-.001-5.217,1.386-8.709,4.161-10.476.551-.394-32.693-22.687-36.622-34.414-.114-.341.064-1.179,0-1.5ZM28.546,54.238c.832,1.763.832,5.726,0,11.889-.426-5.169-1.179-8.844-2.259-11.027-1.08-2.183-3.173-4.933-6.281-8.25,4.188,1.735,7.034,4.197,8.54,7.388ZM27.019,40.043c-.846,2.033-3.185,4.219-7.019,6.558,3.069-2.771,5.234-5.763,6.496-8.977,1.261-3.214,1.743-7.243,1.445-12.087,1.694,4.116,1.387,8.951-.922,14.506Z"/>
  <path d="M20,46.775c7.283-5.154,9.984-12.118,8.101-20.891,9.786,1.123,15.975,1.904,24.399-11.884,7,2,18.847,2.726,26.5-4,1.232,7.151,6.232,10.651,15,10.5-4.09,10.714-2.015,17.875,0,28.5-5,0-8.032,3.469-9.096,10.406-4.623-1.561-16.681-6.606-23.057,7.594-9.491-4.061-18.006-8.324-33.746,0,1.818-8.479-.883-15.22-8.101-20.225Z" style="fill:url(#c)"/>
  <path d="M53.721,29.511c.354-.141.776-.278,1.261-.409,2.506-.676,8.597-2.349,18.272-5.019.669-1.137,1.279-1.823,1.83-2.057.828-.352,6.485,2.984,6.991,3.428.505.445.032,1.901-.911,2.168s-3.083.054-6.269.499c-3.186.444-15.493,3.431-17.449,4.323-.918.673-1.374,1.058-1.965,1.068-.527.009-2.328-1.78-2.892-2.547-.675,1.174-1.535,5.826-1.937,6.048-.29.159-1.011.235-2.163.227l-.278-.384c-3.376,1.077-5.196,1.679-5.46,1.804-.264.126-.391.328-.382.605-.435.461-1.016.801-1.743,1.023-.159.048-.581-.068-.752-.122-.319-2.203-1.843-4.631-4.573-7.284.272-.72.495-1.186.669-1.396.979-.492,1.505-1.182,1.703-1.305.262-.163.665.158,1.21.964,5.905-1.799,8.858-2.768,8.858-2.906,0-.208.697-1.53.697-1.164s1.264-.092,2.519.417c.512.666,1.454,1.294,2.825,1.885-.019.045-.039.09-.061.134ZM59.693,54.976c-.138-.061-.264-.152-.373-.276,0-1.029-1.579-5.157-4.739-12.383-.109-.173-.239-.332-.388-.478-.047-.045-.109-.103-.187-.173-.12.745-.246,1.621-.376,2.629-.803.105-1.318.146-1.545.126-.234-.022-.284-.154-.38-.272-.237-.291-3.541.594-9.912,2.653l-.63.643c-.647.112-1.104-.181-1.37-.88-.267-.699-.941-2.001-2.023-3.906-.29-.047-.29-.361,0-.943,1.856.325,13.24-4.457,13.935-4.67.694-.213.577-.754.901-.754s2.677.914,2.74,1.291c.064.377-.063.452-.557,1.008-.061.068-.124.189-.189.361.348-.069.671-.104.97-.104.659,0,1.524.222,2.594.665.028.186.107.487.236.903.054.175,0,.379,0,.594.892,3.225,2.477,7.126,3.068,8.381,1.352-.324,13.483-2.137,13.88-2.612.264-.317.77-5.174,1.519-14.571.145-1.252.675-1.878,1.59-1.878,1.373,0,4.473,2.369,4.531,2.369s-.058,1.09-1.25,2.369c-1.192,1.278-2.016,18.212-2.629,19.053-.614.841-3.082-.837-3.67-1.034-.588-.196-.02-1.062-.631-1.38s-10.16.891-12.421,1.38c0,.244.13.304,0,.554-.388.747-1.36,1.426-2.18,1.434,1.629.297,3.014.367,4.158.211-2.507,2.832-10.513,2.81-17.306,0-7.31,5.025-12.643,1.533-10.375,1.533,1.513,0,3.811-1.191,6.897-3.573-.89-.382-1.509-.663-1.858-.842s-.842-.476-1.481-.89l4.733-1.775c1.236.652,1.93.978,2.084.978.606-.332,1.565-1.242,2.876-2.73-5.877,1.596-9.108,2.506-9.693,2.73-.879.336-.894,1.395-1.4.797-.337-.399-.337-1.507,0-3.324l.554-.419c.089-.145.589-.126,1.501.055s4.488-.936,10.73-3.351c2.355,1.489,3.601,2.372,3.738,2.648.205.415.542,1.385.542,1.564,0,.068-.77.607-1.606,1.196-.49.36-1.502,1.141-3.035,2.343,3.28,1.355,6.088,2.272,8.427,2.75ZM29,34.435c2.935-.493,7.183-.994,7.805,1.747.623,2.741-1.976,3.333-3.367,1.854-1.39-1.478-1.409-2.101-4.438-3.601ZM30.373,39.535c2.823-.935,6.369-.288,6.995,1.842.627,2.13-2.899,3.269-4.716,3.662,1.34-3.484-1.402-4.546-2.279-5.504ZM33.202,45.772c.079-.384.188-.615.325-.691.464-.258,1.377-.127,1.951.038.977.28,2.885,1.973,3,2.165.116.191-.021.415-.055.448-.258.249-.459.332-.618.489-1.427,6.408-5.453,7.164-7.3,7.164,2.015-3.488,2.914-6.693,2.697-9.613ZM40.507,33.377l.661,1.066c1.571-.624,2.757-1.077,3.56-1.358.803-.282,1.915-.654,3.337-1.116v-1.255c-1.611.537-2.845.955-3.703,1.255-.859.3-2.143.769-3.855,1.408ZM41.815,36.04l.335,1.179c1.57-.624,2.757-1.076,3.56-1.358.802-.282,1.589-.56,2.36-.836v-1.373c-1.068.32-2.03.63-2.889.93-.858.3-1.98.786-3.366,1.458ZM40.604,43.364l.757,1.742,1.706-.606-.569-1.787-1.894.651ZM44.382,42.067l.742,1.822,1.967-.566v-2.125l-2.709.869ZM49.062,40.664v2.123l2.085-.569c-.018-.461-.018-.817,0-1.066.018-.25.055-.647.113-1.192l-2.198.704ZM58.572,33.724c.266-.28,1.604-.432,2.086,0,.29-.187,3.945-1.083,10.964-2.689.38-.378.895-.637,1.546-.778s1.831.623,3.539,2.291c-.613,1.227-1.115,2.168-1.508,2.822-.588.982-.519,10.892-.959,11.245-.28.225-1.226,0-2.02-.16-.431-.087-1.123-.445-1.192-.789-.281,0-3.434.374-6.317.949.049.372.049.264,0,.35s-1.833,1.176-2.472.908c-.556-2.707-3.491-8.838-5.041-11-.254-.887,1.108-2.869,1.374-3.149ZM61.777,36.435l.859,2.397,2.834-.602-.381-2.481-3.312.686ZM63.365,41.151l.787,2.717,2.275-.438-.507-2.793-2.555.514ZM68.194,40.159l.328,2.807,2.332-.421.116-2.837-2.776.451ZM67.578,35.213l.331,2.535,3.168-.462.222-2.768-3.721.695Z" style="fill:url(#d)"/>
</svg>
