<?xml version="1.0" encoding="utf-8"?>
<!-- Generator: Adobe Illustrator 25.4.1, SVG Export Plug-In . SVG Version: 6.00 Build 0)  -->
<svg version="1.1" id="vector" xmlns="http://www.w3.org/2000/svg" xmlns:xlink="http://www.w3.org/1999/xlink" x="0px" y="0px"
	 viewBox="0 0 108 108" style="enable-background:new 0 0 108 108;" xml:space="preserve">
<style type="text/css">
	.st0{fill:#010119;}
	.st1{fill:#8590A9;}
	.st2{fill:#28324B;}
	.st3{fill:#001038;}
	.st4{fill:#FFFFFF;}
	.st5{fill:#4C5D86;}
	.st6{fill:#040405;}
	.st7{fill:#343467;}
	.st8{fill:#1E2734;}
	.st9{fill:#344262;}
	.st10{fill:#0C0F15;}
	.st11{fill:#555F80;}
	.st12{fill:#8796B7;}
	.st13{fill:#B7CBE8;}
	.st14{fill:#57648F;}
	.st15{fill-rule:evenodd;clip-rule:evenodd;fill:#344262;}
	.st16{fill-rule:evenodd;clip-rule:evenodd;fill:#555F80;}
	.st17{fill-rule:evenodd;clip-rule:evenodd;fill:#1E2734;}
	.st18{fill-rule:evenodd;clip-rule:evenodd;fill:#97A7C7;}
	.st19{fill-rule:evenodd;clip-rule:evenodd;fill:#CACED9;}
	.st20{fill-rule:evenodd;clip-rule:evenodd;fill:#76829C;fill-opacity:0.4;}
	.st21{fill-rule:evenodd;clip-rule:evenodd;fill:#001038;}
	.st22{fill-rule:evenodd;clip-rule:evenodd;fill:#E3E5EB;}
</style>
<path id="path" class="st0" d="M62.453,75.911c0.881-1.59,1.456-2.58,2.14-3.631c0.88499-1.36,1.71-2.416,2.49599-3.131
	c0.111-1.219,0.569-2.283,1.348-3.279c0.618-0.792,1.27-1.39,2.58501-2.46c0.029-0.024,0.25-0.204,0.31499-0.257
	c1.681-1.37,2.414-2.127,2.875-3.147c0.355-0.785,0.634-1.685,0.899-2.822c0.075-0.321,0.149-0.658,0.233-1.065
	c0.047-0.227,0.202-0.987,0.215-1.052c0.258-1.258,0.436-1.979,0.678-2.646c0.322-0.888,0.725-1.521,1.286-1.917
	c1.091-0.77,2.696-0.636,3.98199,0.252c1.375,0.949,2.149,2.566,1.958,4.449c-0.23,2.265-1.06599,4.737-2.502,7.42
	c2.205,0.071,3.77,1.307,4.606,3.641c1.601,1.393,2.504,3.323,2.429,5.258c-0.081,2.058-1.244,3.92-3.381,5.231
	c-0.168,2.384-2.14799,5.231-5.725,8.025c-3.605,2.815-7.804,4.921-9.861,6.24C67.941,91.717,58.482,97.453,56.479,98.191
	c0.263,3.059-0.053,5.907-0.422,9.81c-3.481,0-26.789,0-30.586,0c0.422-1.372,5.959-9.81,10.863-12.921
	c-3.05,0.999-4.535,1.318-6.961,1.318c-2.595,0-4.746-3.32201-5.329-4.807c-0.582-1.485-0.32-0.798-0.447-1.117
	c-0.361-0.91-0.722-1.839-1.059-2.733c-0.067-0.17699-0.133-0.352-0.197-0.52299c-0.578-1.554-0.999-2.78201-1.212-3.577
	c-0.315-1.174-0.036-3.446,0.646-6.115c0.623-2.439,1.475-4.74,2.154-5.753c0.847-1.263,2.547-2.292,5.096-3.123
	c-1.187-1.015-1.988-1.969-2.399-2.875c-0.545-1.19901-0.411-2.328,0.403-3.289l0.022-0.026l0.025-0.023
	c0.925-0.855,1.913-1.124,2.938-0.819c0.884,0.263,1.752,0.929,2.763,2.026c0.402,0.436,0.823,0.936,1.341,1.583
	c0.213,0.265,0.818,1.034,1.156,1.464c0.773-0.239,1.761-0.566,2.965-0.98c-0.305-2.436-0.275-4.297,0.106-5.603
	c0.443-1.52,1.393-2.345,2.774-2.345c1.353,0,2.305,0.684,2.748,1.972c0.346,1.005,0.39,2.384,0.146,4.15
	c0.803-0.263,2.002-0.659,3.596-1.188c2.706-0.897,6.221,0.87,7.121,3.728c0.413,1.31,0.944,2.848,1.686,4.91
	c0.072,0.202,0.148,0.411,0.227,0.632c0.194,0.536,0.887,2.443,1.029,2.834c0.383,1.06,0.662,1.84299,0.9,2.53
	c0.483,1.399,0.767,2.321,0.866,2.885C60.884,78.363,61.89,76.926,62.453,75.911z"/>
<path id="path_1" class="st1" d="M24.196,73.704L47.404,64.368c2.716-1.09299,5.803,0.22301,6.895,2.939
	c0.109,0.272,0.196,0.552,0.259,0.839L58,83.789L52.038,90.965L31.413,95.677c-2.573,0.588-5.186-0.807-6.13-3.271
	c-1.668-4.353-2.705-7.147-3.11-8.381C21.647,82.425,22.321,78.984,24.196,73.704z"/>
<path id="path_2" class="st2" d="M35.628,69.473c-1.412-2.247-4.322-5.649-5.586-6.251c-1.264-0.603-3.586-0.011-2.926,2.193
	c0.44,1.469,2.433,3.217,5.979,5.245C35.725,71.367,36.569,70.972,35.628,69.473z"/>
<path id="path_3" class="st3" d="M32.196,70c-2.991-1.902-4.685-3.557-5.083-4.965C26.84,64.07,27.088,63.402,27.559,63
	c-0.095,0.727,0.193,1.428,0.864,2.103c0.753,0.758,2.612,2.228,5.577,4.411L32.196,70z"/>
<path id="path_4" class="st2" d="M42.045,68.792c0.844-2.645,1.603-7.245,1.236-8.637c-0.367-1.392-2.396-2.772-3.709-0.738
	c-0.875,1.357-0.932,4.104-0.17,8.244C40.602,70.179,41.483,70.556,42.045,68.792z"/>
<path id="path_5" class="st3" d="M41.439,58.41c-0.623,0.41-0.963,1.105-1.022,2.084c-0.067,1.098,0.078,3.543,0.432,7.333
	l-1.608-1.096c-0.587-3.624-0.477-6.062,0.332-7.314C40.127,58.558,40.809,58.308,41.439,58.41z"/>
<path id="path_6" class="st4" d="M27.625,69.871l20.112-6.61c2.738-0.9,5.693,0.553,6.653,3.27l4.33,12.262
	c0.974,2.76-0.473,5.788-3.233,6.763c-0.039,0.013-0.078,0.027-0.118,0.04l-20.457,6.688c-2.782,0.91-5.775-0.60799-6.685-3.391
	c-0.002-0.006-0.004-0.012-0.006-0.018l-3.985-12.341C23.34,73.759,24.855,70.781,27.625,69.871z"/>
<path id="path_7" class="st5" d="M30.111,71.616l16.341-5.387c2.058-0.67799,4.282,0.40601,5.016,2.444L55.187,79
	c0.748,2.078-0.33,4.37-2.408,5.118c-0.04,0.01501-0.08,0.02801-0.119,0.041l-16.694,5.424c-2.101,0.683-4.357-0.467-5.04-2.568
	l-3.367-10.364C26.878,74.556,28.019,72.305,30.111,71.616z M30.375,72.417c-1.651,0.544-2.551,2.32-2.014,3.973l3.368,10.364
	c0.538,1.658,2.319,2.565,3.977,2.027l16.693-5.424c0.031-0.01,0.063-0.021,0.094-0.03201c1.64-0.591,2.491-2.39899,1.9-4.03899
	l-3.719-10.327c-0.579-1.609-2.334-2.463-3.958-1.928L30.375,72.417z"/>
<path id="path_8" class="st6" d="M36.287,75.872c0.624,0.224,0.936,0.483,0.936,0.777c0,0.293-1.435,1.509-4.305,3.647
	c-0.852-0.44099-1.111-0.757-0.777-0.948C32.474,79.157,33.856,77.999,36.287,75.872z M50.812,73.157
	C50.937,73.414,51,73.618,51,73.769c0,0.209-0.116,0.491-0.188,0.682c-0.697,0.039-2.64,0.039-5.827,0
	c-0.333-0.49699-0.333-0.841,0-1.031c0.325-0.186,2.162-0.326,5.51-0.42C50.549,72.999,50.655,73.051,50.812,73.157z M44.319,79.176
	c-0.687,0.327-1.468,0.262-2.164-0.172c-0.261,1.08701-0.928,1.794-1.838,1.961c-1.126,0.207-2.19-0.531-2.332-1.67599
	c-0.034-0.276,0.178-0.526,0.475-0.558c0.297-0.03201,0.566,0.166,0.6,0.44199c0.071,0.565,0.546,0.895,1.047,0.803
	c0.616-0.113,1.087-0.803,1.087-2.061c0-0.49,0.674-0.692,0.981-0.294c0.548,0.711,1.165,0.889,1.651,0.658
	c0.446-0.213,0.655-0.714,0.447-1.215c-0.107-0.26,0.031-0.552,0.31-0.652c0.279-0.10001,0.592,0.029,0.7,0.28899
	C45.691,77.686,45.256,78.729,44.319,79.176z"/>
<path id="path_9" class="st7" d="M39,74.477l1.062,1.109c0.036,0.036,0.038,0.093,0.006,0.132
	c-0.191,0.23299-0.332,0.322-0.422,0.266C39.288,75.695,39.072,75.193,39,74.477z M42.991,71.746
	c-0.341-0.616-0.233-0.85101,0.325-0.703c0.836,0.221,0.722,0.574,0.597,0.848c-0.124,0.274-1.503,2.179-2.881,2.753
	C41.39,74.451,42.043,73.486,42.991,71.746z"/>
<path id="path_10" class="st8" d="M63.777,75.57c2.231-4.407,3.399-5.094,4.58-6.37c3.54-3.088,19.30199-0.325,14.861,9.539
	c-2.636,5.855-23.786,17.501-28.163,19.452c-1.547-0.703-3.566-2.368-6.058-4.995C57.362,84.384,62.289,78.508,63.777,75.57z"/>
<path id="path_11" class="st9" d="M69.218,69c-0.02,0.036-0.056,0.088-0.127,0.173C67.728,70.808,66.919,72.612,67.743,75.674
	C68.293,77.715,70.045,79.447,73,80.87c-2.604,2.55199-4.478,4.281-5.622,5.187c-0.188,0.149-5.972,0.746-6.156,0.886
	c-0.206,0.156,5.189-0.145,4.989,0c-0.47,0.339-1.015,0.67-1.638,0.992c-0.123,0.065-1.942-0.068-2.091,0
	c-0.201,0.093,1.258,0.388,1.012,0.48901c-1.061,0.433-2.449,0.91299-4.164,1.44099c-1.995,0.536-2.709-0.526-2.142-3.187
	c0.253-1.188,0.503-2.126,0.749-2.813c2.963-3.533,4.856-6.131,5.679-7.795c2.2-4.443,3.35-5.136,4.514-6.422
	C68.417,69.392,68.785,69.176,69.218,69z"/>
<path id="path_12" class="st10" d="M68,73c0,1.856,0.843,3.637,2.343,4.95C71.843,79.262,73.879,80,76,80s4.157-0.738,5.657-2.05
	C83.157,76.637,84,74.856,84,73s-0.843-3.637-2.343-4.95C80.157,66.738,78.121,66,76,66s-4.157,0.738-5.657,2.05
	C68.843,69.363,68,71.144,68,73z"/>
<path id="path_13" class="st11" d="M70,68c-0.023,0.139-0.08,0.301-0.176,0.485c-0.471,0.908-1.6,0.651-2.687,2.033
	c-2.129,2.708-4.657,6.973-4.931,7.37901C61.104,79.533,60.648,81.082,60.047,83c-0.168-0.917,0.115-2.294,0.85-4.132
	c1.158-1.48299,1.975-2.682,2.45-3.59699c2.29-4.408,3.487-5.096,4.699-6.372C68.513,68.502,69.188,68.201,70,68z"/>
<path id="path_14" class="st4" d="M75.897,79c2.90099,0,6.20599-0.89,8.019-3.046c0.836-0.58,1.774-1.33601,2.247-1.929
	c1.219-1.529,1.41-5.013-1.521-7.504c-0.703-2.755-2.978-3.19-5.544-2.755c2.585-3.52,3.367-6.897,3.367-9.55
	c0-2.905-3.96-4.436-5.08199-2.017c-0.734,1.584-0.58801,3.596-1.26701,5.956c-0.612,2.122-2.27,4.231-2.896,4.79
	c-2.192,1.962-3.337,2.78-4.142,3.962C68.306,68.04,68,69.611,68,71.751C68,76.124,71.904,79,75.897,79z"/>
<path id="path_15" class="st12" d="M87,72.653c-0.15,0.469-0.363,0.878-0.621,1.203c-0.488,0.613-1.45499,1.395-2.317,1.994
	C82.193,78.08,78.786,79,75.795,79c-1.839,0-3.66-0.594-5.112-1.653c-0.795-1.022-0.896-2.326-0.302-3.912
	c2.08601-5.574,8.134-4.701,8.387-4.591c0.25401,0.11,0.196,0.55,0,0.795c-0.13,0.163-0.506,0.553-1.125,1.171
	c-0.019,0.313,0.356,0.385,1.125,0.216c1.153-0.253,2.994-2.574,3.18-2.896c0.186-0.322,1.849-0.12,2.278,1.436
	C85.574,69.967,86.498,70.996,87,72.653z"/>
<path id="path_16" class="st13" d="M79.046,63.458L78.035,65c-0.07201-0.851-0.033-1.504,0.116-1.96
	c0.225-0.684,0.301-0.873,1.785-3.829c0.967-1.925,1.33-4.329,1.09-7.211C81.598,52.547,82,53.336,82,54.274
	c0,2.556-0.706,5.808-3.037,9.199C78.99,63.468,79.018,63.463,79.046,63.458z"/>
<path id="path_17" class="st14" d="M70.268,70.309c0.553-1.396,1.399-2.467,2.538-3.212c1.427-0.934,3.002-1.38,4.28-1.48
	c3.496-0.27499,3.147,2.97401,1.666,4.271c-0.74,0.647-1.296,1.041-1.666,1.257c-0.067,0.039,0.127,1.76801-0.812,2.464
	c0.623-1.294,0.257-2.222,0.261-2.276c0.009-0.132,1.491-1.233,2.07899-1.944c0.589-0.711,1.145-3.063-1.296-3.151
	c-0.982-0.035-2.554,0.149-4.318,1.172C72.228,67.857,71.317,68.824,70.268,70.309z"/>
<path id="path_18" class="st14" d="M77.019,72.009c-0.14,0.087,0.481,1.74699,1.944,2.828C79.999,75.602,81.606,75.867,83,76
	c-0.91-0.31-1.909-0.492-3.444-1.52C78.261,73.612,77.259,71.861,77.019,72.009z"/>
<path id="path_19" class="st15" d="M40.025,92.18c0.897-0.264,7.005-2.125,8.227-1.582c0.448,0.199,1.197,0.455,1.635,0.896
	c0.633-0.105,1.793-0.21101,2.215-0.158c0.57,0.926,3.181,3.083,3.796,6.855c0.282,1.723,0.159,4.993-0.369,9.809
	c-15.398,0-25.242,0-29.531,0c1.424-2.953,8.174-11.918,12.182-13.131C38.204,93.642,39.609,92.257,40.025,92.18z"/>
<path id="path_20" class="st16" d="M27.62,108h-1.602c0.026-0.068,0.054-0.137,0.084-0.208c0.857-1.661,3.086-4.843,5.575-7.649
	c0.053-0.035,0.094-0.053,0.122-0.053C32.266,100.09,28.494,103.665,27.62,108z"/>
<path id="path_21" class="st17" d="M54.949,108c0.246-2.672,0.369-4.834,0.369-6.486c-0.843-1.424-2.531-3.534-2.795-4.272
	c0-0.263,0.739-0.685,0.581-1.05399c-0.167-0.389-0.448-0.882-0.844-1.47701c0.316,0.879,0.369,1.318,0.158,1.318
	c-1.133,0-2.479-0.527-3.48-0.949c-1.95,0.277-3.848,1.033-5.696,2.268c-1.687-0.58-3.049-1.264-4.876-1.802l-0.292,1.011
	c-0.937,0.078-2.144,0.329-3.621,0.754C35.79,96.107,37.087,95.2,38.18,94.869c0.024-1.22701,1.429-2.612,1.845-2.689
	c0.897-0.264,7.005-2.125,8.227-1.582c0.448,0.199,1.197,0.455,1.635,0.896c0.633-0.105,1.793-0.21101,2.215-0.158
	c0.57,0.926,3.181,3.083,3.796,6.855c0.282,1.723,0.159,4.993-0.369,9.809H54.949z M39.129,108h-2.837
	c0.028-0.587,0.042-1.342,0.042-2.268c0-0.431,0-1.107-0.211-1.47601c-0.564-0.988-1.74-2.63699-2.9-3.42799
	s-1.133-1.119-0.422-0.633C35.807,102.252,38.074,105.311,39.129,108z"/>
<path id="path_22" class="st18" d="M40.025,92.338c0.791-0.949,5.696-2.584,7.752-1.846l-2.267,1.951l-5.326,1.213L40.025,92.338z"
	/>
<path id="path_23" class="st19" d="M48.305,92.074c1.019,3.938,1.213,9.246,0.58,15.926h-0.106
	c-2.672-4.781-5.484-9.264-8.437-13.447c1.645-0.778,3.188-1.601,4.693-2.004C46.183,92.241,47.346,92.302,48.305,92.074z"/>
<path id="path_24" class="st20" d="M48.329,92.17c0.251,0.987,0.451,2.06001,0.599,3.217c-0.106,0.466-0.269,1.003-0.729,0.748
	c0.106,0.949-1.318,3.322-3.586,0.57999c-0.105,0.264-0.158,0.896-1.213,0.47401c-0.655-0.262-1.321-0.632-1.997-1.111
	C41.086,95.615,40.767,95.156,40.446,94.7L48.329,92.17z"/>
<path id="path_25" class="st21" d="M49.248,100.875c0.002,2.17-0.119,4.545-0.363,7.125h-0.106c-0.94-1.683-1.898-3.329-2.874-4.938
	c-0.038-3.08199-0.117-5.092-0.237-6.031c-0.264,0.106-0.949-0.263-2.268-2.373c-0.091-0.647,0.454-1.35,1.635-2.10899l2.531,1.002
	c0.136,1.45399,0.189,2.333,0.159,2.637c-0.024,0.23399-0.111,0.333-0.159,0.369C48.145,97.983,48.706,99.422,49.248,100.875z"/>
<path id="path_26" class="st22" d="M39.762,92.232c1.582-0.42101,4.113-0.42101,5.273-0.263c0.791-0.686,1.951-1.582,2.426-1.793
	c0.475-0.21101,1.185,1.16,1.213,1.89799c0.035,0.94901-0.088,2.039-0.369,3.27c-1.146-0.94901-2.245-1.84-3.27-2.637
	c-0.449,1.231-0.74,2.461-1.055,3.691c-1.212-0.105-4.007-1.529-4.482-3.05801C39.417,93.079,39.518,92.297,39.762,92.232z"/>
<path id="path_27" class="st8" d="M40.922,104.098c0.351,0.879,2.355,2.355,6.012,4.429c0.689,1.755,1.899,1.755,3.628,0
	c1.592-2.636,3.491-6.75,3.596-7.33c0.106-0.58-1.034-1.63-2.847-3.006l2.214-1.687L52.506,94.48
	c-0.419-0.389-0.553-0.36501-0.404,0.073c0.369,0.58,0.949,1.424,0.949,1.582c0,0.474-1.16,1.16-1.846,1.89799
	c-0.026,0.028-0.146,0.095,0.053,0.264c1.74,1.47601,2.584,2.18301,2.584,2.53101c0,0.48299-1.341,3.02399-3.639,7.383h-3.164
	c-3.079-1.768-5.115-3.27-5.748-4.113c-0.15-0.2-0.237-0.818,0.105-1.635c0.097-0.23,0.296-0.654,0.581-1.10799
	c0.201-0.32,0.605-0.901,1.212-1.74001c-0.938,0.264-1.588,0.457-1.951,0.58c-1.539,0.523-2.403,0.816-2.636,0.686
	c-0.308-0.171-0.371-1.19099-0.37-2.584c0.001-0.545-0.049-1.104-0.007-1.751c0.013-0.201,0.055-0.78899,0.06-0.877l-0.316-0.018
	c-0.005,0.085-0.047,0.672-0.06,0.875c-0.042,0.653-0.065,1.229-0.066,1.782c-0.001,1.503,0.002,2.479,0.442,2.837
	c0.484,0.39301,1.793-0.106,3.744-0.84399c-0.332,0.878-0.575,1.618-0.791,2.215C40.975,103.244,40.764,103.703,40.922,104.098z"/>
</svg>
