<svg xmlns="http://www.w3.org/2000/svg" viewBox="0 0 108 108">
  <defs>
    <clipPath id="a">
      <rect y="0" width="108" height="108"/>
    </clipPath>
  </defs>
  <g style="clip-path:url(#a)">
    <path d="M62.453,75.911c.881-1.59,1.456-2.58,2.14-3.631.885-1.36,1.71-2.416,2.496-3.131.111-1.219.569-2.283,1.348-3.279.618-.792,1.27-1.39,2.585-2.46.029-.024.25-.204.315-.257,1.681-1.37,2.414-2.127,2.875-3.147.355-.785.634-1.685.899-2.822.075-.321.149-.658.233-1.065.047-.227.202-.987.215-1.052.258-1.258.436-1.979.678-2.646.322-.888.725-1.521,1.286-1.917,1.091-.77,2.696-.636,3.982.252,1.375.949,2.149,2.566,1.958,4.449-.23,2.265-1.066,4.737-2.502,7.42,2.205.071,3.77,1.307,4.606,3.641,1.601,1.393,2.504,3.323,2.429,5.258-.081,2.058-1.244,3.92-3.381,5.231-.168,2.384-2.148,5.231-5.725,8.025-3.605,2.815-7.804,4.921-9.861,6.24-1.088.697-10.547,6.433-12.55,7.171.263,3.059-.053,5.907-.422,9.81h-30.586c.422-1.372,5.959-9.81,10.863-12.921-3.05.999-4.535,1.318-6.961,1.318-2.595,0-4.746-3.322-5.329-4.807-.582-1.485-.32-.798-.447-1.117-.361-.91-.722-1.839-1.059-2.733-.067-.177-.133-.352-.197-.523-.578-1.554-.999-2.782-1.212-3.577-.315-1.174-.036-3.446.646-6.115.623-2.439,1.475-4.74,2.154-5.753.847-1.263,2.547-2.292,5.096-3.123-1.187-1.015-1.988-1.969-2.399-2.875-.545-1.199-.411-2.328.403-3.289l.022-.026.025-.023c.925-.855,1.913-1.124,2.938-.819.884.263,1.752.929,2.763,2.026.402.436.823.936,1.341,1.583.213.265.818,1.034,1.156,1.464.773-.239,1.761-.566,2.965-.98-.305-2.436-.275-4.297.106-5.603.443-1.52,1.393-2.345,2.774-2.345,1.353,0,2.305.684,2.748,1.972.346,1.005.39,2.384.146,4.15.803-.263,2.002-.659,3.596-1.188,2.706-.897,6.221.87,7.121,3.728.413,1.31.944,2.848,1.686,4.91.072.202.148.411.227.632.194.536.887,2.443,1.029,2.834.383,1.06.662,1.843.9,2.53.483,1.399.767,2.321.866,2.885,1.446-1.853,2.452-3.29,3.015-4.305Z" style="fill:#010119"/>
    <path d="M24.196,73.704l23.208-9.336c2.716-1.093,5.803.223,6.895,2.939.109.272.196.552.259.839l3.442,15.643-5.962,7.176-20.625,4.712c-2.573.588-5.186-.807-6.13-3.271-1.668-4.353-2.705-7.147-3.11-8.381-.526-1.6.148-5.041,2.023-10.321Z" style="fill:#8590a9"/>
    <path d="M35.628,69.473c-1.412-2.247-4.322-5.649-5.586-6.251-1.264-.603-3.586-.011-2.926,2.193.44,1.469,2.433,3.217,5.979,5.245,2.63.707,3.474.312,2.533-1.187Z" style="fill:#28324b"/>
    <path d="M32.196,70c-2.991-1.902-4.685-3.557-5.083-4.965-.273-.965-.025-1.633.446-2.035-.095.727.193,1.428.864,2.103.753.758,2.612,2.228,5.577,4.411l-1.804.486Z" style="fill:#001038"/>
    <path d="M42.045,68.792c.844-2.645,1.603-7.245,1.236-8.637-.367-1.392-2.396-2.772-3.709-.738-.875,1.357-.932,4.104-.17,8.244,1.2,2.518,2.081,2.895,2.643,1.131Z" style="fill:#28324b"/>
    <path d="M41.439,58.41c-.623.41-.963,1.105-1.022,2.084-.067,1.098.078,3.543.432,7.333l-1.608-1.096c-.587-3.624-.477-6.062.332-7.314.554-.859,1.236-1.109,1.866-1.007Z" style="fill:#001038"/>
    <path d="M27.625,69.871l20.112-6.61c2.738-.9,5.693.553,6.653,3.27l4.33,12.262c.974,2.76-.473,5.788-3.233,6.763-.039.013-.078.027-.118.04l-20.457,6.688c-2.782.91-5.775-.608-6.685-3.391-.002-.006-.004-.012-.006-.018l-3.985-12.341c-.896-2.775.619-5.753,3.389-6.663Z" style="fill:#fff"/>
    <path d="M30.111,71.616l16.341-5.387c2.058-.678,4.282.406,5.016,2.444l3.719,10.327c.748,2.078-.33,4.37-2.408,5.118-.04.015-.08.028-.119.041l-16.694,5.424c-2.101.683-4.357-.467-5.04-2.568l-3.367-10.364c-.681-2.095.46-4.346,2.552-5.035ZM30.375,72.417c-1.651.544-2.551,2.32-2.014,3.973l3.368,10.364c.538,1.658,2.319,2.565,3.977,2.027l16.693-5.424c.031-.01.063-.021.094-.032,1.64-.591,2.491-2.399,1.9-4.039l-3.719-10.327c-.579-1.609-2.334-2.463-3.958-1.928l-16.341,5.386Z" style="fill:#4c5d86"/>
    <path d="M36.287,75.872c.624.224.936.483.936.777,0,.293-1.435,1.509-4.305,3.647-.852-.441-1.111-.757-.777-.948.333-.191,1.715-1.349,4.146-3.476ZM50.812,73.157c.125.257.188.461.188.612,0,.209-.116.491-.188.682-.697.039-2.64.039-5.827,0-.333-.497-.333-.841,0-1.031.325-.186,2.162-.326,5.51-.42.054-.001.16.051.317.157ZM44.319,79.176c-.687.327-1.468.262-2.164-.172-.261,1.087-.928,1.794-1.838,1.961-1.126.207-2.19-.531-2.332-1.676-.034-.276.178-.526.475-.558.297-.032.566.166.6.442.071.565.546.895,1.047.803.616-.113,1.087-.803,1.087-2.061,0-.49.674-.692.981-.294.548.711,1.165.889,1.651.658.446-.213.655-.714.447-1.215-.107-.26.031-.552.31-.652.279-.1.592.029.7.289.408.985-.027,2.028-.964,2.475Z" style="fill:#040405"/>
    <path d="M39,74.477l1.062,1.109c.036.036.038.093.006.132-.191.233-.332.322-.422.266-.358-.289-.574-.791-.646-1.507ZM42.991,71.746c-.341-.616-.233-.851.325-.703.836.221.722.574.597.848-.124.274-1.503,2.179-2.881,2.753.358-.193,1.011-1.158,1.959-2.898Z" style="fill:#343467"/>
    <path d="M63.777,75.57c2.231-4.407,3.399-5.094,4.58-6.37,3.54-3.088,19.302-.325,14.861,9.539-2.636,5.855-23.786,17.501-28.163,19.452-1.547-.703-3.566-2.368-6.058-4.995,8.365-8.812,13.292-14.688,14.78-17.626Z" style="fill:#1e2734"/>
    <path d="M69.218,69c-.02.036-.056.088-.127.173-1.363,1.635-2.172,3.439-1.348,6.501.55,2.041,2.302,3.773,5.257,5.196-2.604,2.552-4.478,4.281-5.622,5.187-.188.149-5.972.746-6.156.886-.206.156,5.189-.145,4.989,0-.47.339-1.015.67-1.638.992-.123.065-1.942-.068-2.091,0-.201.093,1.258.388,1.012.489-1.061.433-2.449.913-4.164,1.441-1.995.536-2.709-.526-2.142-3.187.253-1.188.503-2.126.749-2.813,2.963-3.533,4.856-6.131,5.679-7.795,2.2-4.443,3.35-5.136,4.514-6.422.287-.256.655-.472,1.088-.648Z" style="fill:#344262"/>
    <path d="M68,73c0,1.856.843,3.637,2.343,4.95,1.5,1.312,3.536,2.05,5.657,2.05s4.157-.738,5.657-2.05c1.5-1.313,2.343-3.094,2.343-4.95s-.843-3.637-2.343-4.95c-1.5-1.312-3.536-2.05-5.657-2.05s-4.157.738-5.657,2.05c-1.5,1.313-2.343,3.094-2.343,4.95Z" style="fill:#0c0f15"/>
    <path d="M70,68c-.023.139-.08.301-.176.485-.471.908-1.6.651-2.687,2.033-2.129,2.708-4.657,6.973-4.931,7.379-1.102,1.636-1.558,3.185-2.159,5.103-.168-.917.115-2.294.85-4.132,1.158-1.483,1.975-2.682,2.45-3.597,2.29-4.408,3.487-5.096,4.699-6.372.467-.397,1.142-.698,1.954-.899Z" style="fill:#555f80"/>
    <path d="M75.897,79c2.901,0,6.206-.89,8.019-3.046.836-.58,1.774-1.336,2.247-1.929,1.219-1.529,1.41-5.013-1.521-7.504-.703-2.755-2.978-3.19-5.544-2.755,2.585-3.52,3.367-6.897,3.367-9.55,0-2.905-3.96-4.436-5.082-2.017-.734,1.584-.588,3.596-1.267,5.956-.612,2.122-2.27,4.231-2.896,4.79-2.192,1.962-3.337,2.78-4.142,3.962-.772,1.133-1.078,2.704-1.078,4.844,0,4.373,3.904,7.249,7.897,7.249Z" style="fill:#fff"/>
    <path d="M87,72.653c-.15.469-.363.878-.621,1.203-.488.613-1.455,1.395-2.317,1.994-1.869,2.23-5.276,3.15-8.267,3.15-1.839,0-3.66-.594-5.112-1.653-.795-1.022-.896-2.326-.302-3.912,2.086-5.574,8.134-4.701,8.387-4.591.254.11.196.55,0,.795-.13.163-.506.553-1.125,1.171-.019.313.356.385,1.125.216,1.153-.253,2.994-2.574,3.18-2.896.186-.322,1.849-.12,2.278,1.436,1.348.401,2.272,1.43,2.774,3.087Z" style="fill:#8796b7"/>
    <path d="M79.046,63.458l-1.011,1.542c-.072-.851-.033-1.504.116-1.96.225-.684.301-.873,1.785-3.829.967-1.925,1.33-4.329,1.09-7.211.572.547.974,1.336.974,2.274,0,2.556-.706,5.808-3.037,9.199.027-.005.055-.01.083-.015Z" style="fill:#b7cbe8"/>
    <path d="M70.268,70.309c.553-1.396,1.399-2.467,2.538-3.212,1.427-.934,3.002-1.38,4.28-1.48,3.496-.275,3.147,2.974,1.666,4.271-.74.647-1.296,1.041-1.666,1.257-.067.039.127,1.768-.812,2.464.623-1.294.257-2.222.261-2.276.009-.132,1.491-1.233,2.079-1.944.589-.711,1.145-3.063-1.296-3.151-.982-.035-2.554.149-4.318,1.172-.772.447-1.683,1.414-2.732,2.899Z" style="fill:#57648f"/>
    <path d="M77.019,72.009c-.14.087.481,1.747,1.944,2.828,1.036.765,2.643,1.03,4.037,1.163-.91-.31-1.909-.492-3.444-1.52-1.295-.868-2.297-2.619-2.537-2.471Z" style="fill:#57648f"/>
    <path d="M40.025,92.18c.897-.264,7.005-2.125,8.227-1.582.448.199,1.197.455,1.635.896.633-.105,1.793-.211,2.215-.158.57.926,3.181,3.083,3.796,6.855.282,1.723.159,4.993-.369,9.809h-29.531c1.424-2.953,8.174-11.918,12.182-13.131.024-1.227,1.429-2.612,1.845-2.689Z" style="fill-rule:evenodd;fill:#344262"/>
    <path d="M27.62,108h-1.602c.026-.068.054-.137.084-.208.857-1.661,3.086-4.843,5.575-7.649.053-.035.094-.053.122-.053.467,0-3.305,3.575-4.179,7.91Z" style="fill-rule:evenodd;fill:#555f80"/>
    <path d="M54.949,108c.246-2.672.369-4.834.369-6.486-.843-1.424-2.531-3.534-2.795-4.272,0-.263.739-.685.581-1.054-.167-.389-.448-.882-.844-1.477.316.879.369,1.318.158,1.318-1.133,0-2.479-.527-3.48-.949-1.95.277-3.848,1.033-5.696,2.268-1.687-.58-3.049-1.264-4.876-1.802l-.292,1.011c-.937.078-2.144.329-3.621.754,1.337-1.204,2.634-2.111,3.727-2.442.024-1.227,1.429-2.612,1.845-2.689.897-.264,7.005-2.125,8.227-1.582.448.199,1.197.455,1.635.896.633-.105,1.793-.211,2.215-.158.57.926,3.181,3.083,3.796,6.855.282,1.723.159,4.993-.369,9.809,0,0-.58,0-.58,0ZM39.129,108h-2.837c.028-.587.042-1.342.042-2.268,0-.431,0-1.107-.211-1.476-.564-.988-1.74-2.637-2.9-3.428s-1.133-1.119-.422-.633c3.006,2.057,5.273,5.116,6.328,7.805Z" style="fill-rule:evenodd;fill:#1e2734"/>
    <path d="M40.025,92.338c.791-.949,5.696-2.584,7.752-1.846l-2.267,1.951-5.326,1.213-.159-1.318Z" style="fill-rule:evenodd;fill:#97a7c7"/>
    <path d="M48.305,92.074c1.019,3.938,1.213,9.246.58,15.926h-.106c-2.672-4.781-5.484-9.264-8.437-13.447,1.645-.778,3.188-1.601,4.693-2.004,1.148-.308,2.311-.247,3.27-.475Z" style="fill-rule:evenodd;fill:#caced9"/>
    <path d="M48.329,92.17c.251.987.451,2.06.599,3.217-.106.466-.269,1.003-.729.748.106.949-1.318,3.322-3.586.58-.105.264-.158.896-1.213.474-.655-.262-1.321-.632-1.997-1.111-.317-.463-.636-.922-.957-1.378l7.883-2.53Z" style="fill-rule:evenodd;fill:#76829c;fill-opacity:.4"/>
    <path d="M49.248,100.875c.002,2.17-.119,4.545-.363,7.125h-.106c-.94-1.683-1.898-3.329-2.874-4.938-.038-3.082-.117-5.092-.237-6.031-.264.106-.949-.263-2.268-2.373-.091-.647.454-1.35,1.635-2.109l2.531,1.002c.136,1.454.189,2.333.159,2.637-.024.234-.111.333-.159.369.579,1.426,1.14,2.865,1.682,4.318Z" style="fill:#001038;fill-rule:evenodd"/>
    <path d="M39.762,92.232c1.582-.421,4.113-.421,5.273-.263.791-.686,1.951-1.582,2.426-1.793.475-.211,1.185,1.16,1.213,1.898.035.949-.088,2.039-.369,3.27-1.146-.949-2.245-1.84-3.27-2.637-.449,1.231-.74,2.461-1.055,3.691-1.212-.105-4.007-1.529-4.482-3.058-.081-.261.02-1.043.264-1.108Z" style="fill-rule:evenodd;fill:#e3e5eb"/>
    <path d="M40.922,104.098c.351.879,2.355,2.355,6.012,4.429.689,1.755,1.899,1.755,3.628,0,1.592-2.636,3.491-6.75,3.596-7.33.106-.58-1.034-1.63-2.847-3.006l2.214-1.687-1.019-2.024c-.419-.389-.553-.365-.404.073.369.58.949,1.424.949,1.582,0,.474-1.16,1.16-1.846,1.898-.026.028-.146.095.053.264,1.74,1.476,2.584,2.183,2.584,2.531,0,.483-1.341,3.024-3.639,7.383h-3.164c-3.079-1.768-5.115-3.27-5.748-4.113-.15-.2-.237-.818.105-1.635.097-.23.296-.654.581-1.108.201-.32.605-.901,1.212-1.74-.938.264-1.588.457-1.951.58-1.539.523-2.403.816-2.636.686-.308-.171-.371-1.191-.37-2.584.001-.545-.049-1.104-.007-1.751.013-.201.055-.789.06-.877l-.316-.018c-.005.085-.047.672-.06.875-.042.653-.065,1.229-.066,1.782-.001,1.503.002,2.479.442,2.837.484.393,1.793-.106,3.744-.844-.332.878-.575,1.618-.791,2.215-.263.728-.474,1.187-.316,1.582Z" style="fill:#1e2734"/>
  </g>
</svg>
