<?xml version="1.0" encoding="utf-8"?>
<!-- Generator: Adobe Illustrator 25.4.1, SVG Export Plug-In . SVG Version: 6.00 Build 0)  -->
<svg version="1.1" id="图层_1" xmlns="http://www.w3.org/2000/svg" xmlns:xlink="http://www.w3.org/1999/xlink" x="0px" y="0px"
	 viewBox="0 0 108 108" style="enable-background:new 0 0 108 108;" xml:space="preserve">
<style type="text/css">
	.st0{fill:#FFFF00;}
	.st1{fill:#FFFFFF;}
</style>
<g>
	<path class="st0" d="M35.27,44.04c2.214,0,4.01-1.795,4.01-4.01c0-2.214-1.795-4.01-4.01-4.01c-2.214,0-4.01,1.795-4.01,4.01
		C31.26,42.245,33.055,44.04,35.27,44.04z"/>
	<path class="st1" d="M33.288,47.25l-2.623,3.917c2.962,1.283,5.194,2.573,6.118,3.204c1.096,0.748,1.307,1.557,0.749,2.814
		C37.008,58.361,33.56,63.522,28,69.896l7.122,3.394c2.95-7.027,5.333-12.897,6.099-15.867c0.421-1.631,0.515-3.269-0.177-4.345
		C39.893,51.287,38.05,49.776,33.288,47.25z M65.538,67.956c2.669-0.206,3.96-1.675,3.834-3.505l-0.329-4.794
		c-2.829,1.578-5.856,2.884-8.728,3.853c0.041-2.192,0.069-4.374,0.087-6.55c2.348-0.071,4.676-0.148,6.957-0.228
		c2.073-0.073,3.001-0.933,3.074-3.52c-3.321,0.125-6.675,0.25-10.012,0.359c0.004-1.293,0.005-2.584,0.002-3.875
		c2.178-0.068,4.165-0.142,5.636-0.216c2.072-0.103,2.907-0.819,3.074-3.52c-5.104,0.208-11.194,0.405-16.473,0.472
		c0.483-0.594,0.943-1.237,1.377-1.937l-4.734-0.749c-1.339,2.142-3.348,4.388-5.492,6.309l1.791,1.906
		c1.124-0.601,2.23-1.256,3.291-2.017c1.61-0.015,3.504-0.047,5.472-0.089c0.01,1.257,0.016,2.563,0.018,3.894
		c-3.263,0.085-6.48,0.146-9.602,0.171l-0.22,3.399c3.212-0.043,6.511-0.11,9.819-0.192c-0.01,2.688-0.036,5.402-0.083,7.963
		c-0.232,0.041-0.461,0.079-0.685,0.113c-2.78,0.42-4.105-0.09-4.165-1.775c-0.026-0.719,0.123-1.644,0.404-2.892l-5.227-0.631
		c-0.518,1.688-0.702,3.613-0.617,5.008c0.259,4.222,4.362,5.814,11.603,3.979c2.488-0.63,7.027-2.532,9.696-3.986L65.538,67.956z
		 M63.825,35.979c-4.435-0.15-10.25,1.191-14.227,3.359c1.011-1.213,1.986-3.331,2.35-4.53l-6.742-1.02
		c-0.678,3.936-3.02,9.231-5.291,11.764l1.834,1.633c6.467-4.848,13.92-7.069,21.631-6.907c5.702,0.12,8.797,2.778,9.543,7.444
		c0.672,4.201,0.71,9.772-0.203,14.479c-1.523,7.85-4.485,9.896-12.111,8.345l-0.467,2.637c2.188,0.566,3.886,0.907,6.136,1.008
		C76.419,74.646,79.827,67.727,80,55.127C79.986,39.522,73.394,36.302,63.825,35.979z"/>
</g>
</svg>
