<svg xmlns="http://www.w3.org/2000/svg" viewBox="0 0 108 108">
  <defs/>
  <path d="M66.6645,44.064c-.264-.366-.609-.69-1.0155-.936-.3855-.243-.8325-.4065-1.281-.4665-.915-.1425-1.869.081-2.6415.609l-.5685.4065,6.48,8.919,3.414-2.457-4.3875-6.075ZM80.136,53.694v-14.241c6.3795-.306,12.1695-.609,14.3835-.7305l1.3005-.081c.588-.609,1.341-3.657,1.0575-4.611-.1005-.3855-.324-1.0155-.975-.8535-2.154.5085-4.326.873-6.522,1.1175-4.2045.4875-6.0555.609-11.8845,1.0365-10.239.7515-19.3605,1.0965-19.3605,1.0965,0,.528.1005,1.0365.306,1.524.2025.4875.5085.915.894,1.281s.8325.651,1.32.8325c.4875.183,1.0155.264,1.545.243,3.474-.1425,8.5335-.3855,13.7145-.63v14.019h-19.4685c0,1.0755.4275,2.0925,1.1985,2.865.7725.7515,1.809,1.179,2.8845,1.179h15.3585v10.788c0,1.3605-.711,1.809-1.869,1.848h-5.973c.243.873.69,1.6665,1.281,2.3565.588.69,1.32,1.239,2.133,1.626,1.32.4455,2.742.588,4.1235.4275,2.0715-.1005,4.5315-1.26,4.5315-5.4465v-11.5995h17.1885c.528,0,1.0155-.2025,1.3815-.5685.366-.3675.5685-.8565.5685-1.383v-2.0925h-19.1175v-.003ZM89.115,43.761l-4.7535,6.237,3.414,2.5395,6.888-9.042-.5685-.4275c-.366-.285-.7935-.4875-1.239-.609-.4455-.1215-.915-.1425-1.3815-.081-.936.162-1.791.6495-2.3595,1.383Z" style="fill:#fff"/>
  <path d="M51.981,37.536h-18.762v32.529h4.5885l.609,3.9195,6.213-3.9195h7.329v-32.529h.0225ZM44.0415,66.006l-3.6555,2.295-.366-2.295h-2.619v-24.429h10.335v24.429s-3.6945,0-3.6945,0ZM29.9415,52.1475h-6.819c0-.7095.0405-1.461.0615-2.211v-8.3595h7.7715v-1.968c0-.264-.0615-.549-.1635-.792-.1005-.243-.264-.4665-.4455-.6705-.3855-.3855-.9135-.609-1.4805-.609h-12.1335c.0405-.1425.081-.264.1215-.3855.4275-1.2375,1.7445-5.0535,1.7445-5.0535-1.299-.021-2.5755.345-3.6735,1.056-.873.609-1.38,1.035-2.0895,2.9625-.813,2.211-1.5225,4.341-1.989,5.6205-.7305,2.0295-2.496,5.6205-2.496,5.6205,1.338-.021,2.6385-.345,3.834-.9345,1.704-.8925,2.5575-2.2935,3.1245-4.383l.1425-.4455h3.552v8.3595c0,.771-.0615,1.5015-.1005,2.211h-6.27c-1.074,0-2.1105.4275-2.8815,1.1775-.3855.3645-.6705.813-.873,1.299-.2025.4875-.3045,1.014-.3045,1.542h9.9435c-.2025,1.887-.588,3.753-1.1775,5.5605-1.035,2.922-2.5755,5.6415-4.5855,8.0145-1.5015,1.6215-3.0855,3.123-4.7895,4.5225,0,0,4.7685,1.7865,8.2575-1.461,2.1105-1.968,3.9975-5.8035,4.911-8.724.813-2.5965,1.401-5.2545,1.704-7.953h9.09v-2.0895c0-.264-.0405-.507-.1425-.75-.1005-.243-.243-.4455-.4275-.6285-.183-.183-.4065-.324-.6285-.4275-.2805-.06-.5445-.1005-.7875-.1005ZM25.044,60.5625l-3.492,2.2605,7.6305,11.2815c.525-1.05.8685-2.1795,1.0095-3.351.2625-1.11.1005-2.2815-.4245-3.291l-4.7235-6.9Z" style="fill:#fff"/>
</svg>
