<svg xmlns="http://www.w3.org/2000/svg" width="108" height="108" viewBox="0 0 192.2078 192.2078">
  <g transform="translate(36.103897 36.993748)">
    <path
      d="M99.853,87.197 L98.53,85.895 L71.889,59.719 L65.753,65.742 L86.295,85.895 L33.756,85.895 L87.784,33.542 L88.838,32.521 C91.58,29.864 89.664,25.28 85.812,25.28 L38.127,25.28 L30.236,32.962 C30.017,33.175 30.171,33.542 30.479,33.542 L75.453,33.542 L21.486,85.895 L20.168,87.174 C17.429,89.833 19.347,94.414 23.199,94.414 L24.962,94.414 L94.973,94.414 L96.803,94.414 C100.639,94.414 102.562,89.862 99.853,87.197"
      fill="#ffffff"
      fill-rule="evenodd"
      stroke="none"
      stroke-width="1"/>
  </g>
</svg>
