<?xml version="1.0" encoding="utf-8"?>
<!-- Generator: Adobe Illustrator 28.1.0, SVG Export Plug-In . SVG Version: 6.00 Build 0)  -->
<svg version="1.1" id="vector" xmlns="http://www.w3.org/2000/svg" xmlns:xlink="http://www.w3.org/1999/xlink" x="0px" y="0px"
	 viewBox="0 0 108 108" style="enable-background:new 0 0 108 108;" xml:space="preserve">
<style type="text/css">
	.st0{fill-rule:evenodd;clip-rule:evenodd;}
</style>
<path id="path" class="st0" d="M45.6,36.81c2.52-1.23,5.4-1.95,8.4-1.95c3.03,0,5.88,0.69,8.4,1.95l0,0L54,47.79L45.6,36.81z
	 M51.15,58.8H39.03v4.5h12.15v9.6c-8.94-1.32-15.87-8.85-16.26-18.06h16.26v3.96H51.15z M41.37,39.6l8.19,10.74H35.22
	C36.03,46.11,38.25,42.36,41.37,39.6z M72.78,50.34H58.44l8.19-10.71l0,0C69.72,42.36,71.97,46.11,72.78,50.34z M72.51,58.8
	c-1.92,7.35-8.04,12.99-15.69,14.1v-9.6h12.15v-4.5H56.82v-3.93h21.15c0-0.3,0.03-0.57,0.03-0.87c0-13.26-10.74-24-24-24
	S30,40.74,30,54s10.74,24,24,24c11.61,0,21.3-8.25,23.52-19.2H72.51z"/>
</svg>
