<?xml version="1.0" encoding="utf-8"?>
<!-- Generator: Adobe Illustrator 25.4.1, SVG Export Plug-In . SVG Version: 6.00 Build 0)  -->
<svg version="1.1" id="vector" xmlns="http://www.w3.org/2000/svg" xmlns:xlink="http://www.w3.org/1999/xlink" x="0px" y="0px"
	 viewBox="0 0 108 108" style="enable-background:new 0 0 108 108;" xml:space="preserve">
<style type="text/css">
	.st0{fill-rule:evenodd;clip-rule:evenodd;fill:#FFFFFF;}
</style>
<path id="path" class="st0" d="M41.4,28.215c3.78-1.845,8.1-2.925,12.6-2.925c4.545,0,8.82,1.035,12.6,2.925l0,0L54,44.685
	L41.4,28.215z M49.725,61.2h-18.18v6.75H49.77v14.4c-13.41-1.98-23.805-13.275-24.39-27.09h24.39v5.94
	C49.77,61.2,49.725,61.2,49.725,61.2z M35.055,32.4L47.34,48.51H25.83C27.045,42.165,30.375,36.54,35.055,32.4z M82.17,48.51H60.66
	l12.285-16.065l0,0C77.58,36.54,80.955,42.165,82.17,48.51z M81.765,61.2c-2.88,11.025-12.06,19.485-23.535,21.15v-14.4h18.225V61.2
	H58.23v-5.895h31.725C89.955,54.855,90,54.45,90,54c0-19.89-16.11-36-36-36S18,34.11,18,54s16.11,36,36,36
	c17.415,0,31.95-12.375,35.28-28.8H81.765z"/>
</svg>
