<?xml version="1.0" encoding="utf-8"?>
<!-- Generator: Adobe Illustrator 25.4.1, SVG Export Plug-In . SVG Version: 6.00 Build 0)  -->
<svg version="1.1" id="图层_1" xmlns="http://www.w3.org/2000/svg" xmlns:xlink="http://www.w3.org/1999/xlink" x="0px" y="0px"
	 viewBox="0 0 108 108" style="enable-background:new 0 0 108 108;" xml:space="preserve">
<path d="M69.092,33.449L68.519,28c-2.573,7.587-9.036,13.384-14.396,16.176l10.638,18.291c0.783,1.345,1.277,2.534,1.404,3.99
	c0.479,5.449-4.359,10.324-10.805,10.887s-12.057-3.397-12.535-8.846c-0.478-5.449,4.36-10.324,10.805-10.887
	c1.336-0.119,2.683-0.04,3.997,0.235L47.109,39.705l-2.147-3.703c-0.241-0.413-0.241-0.923-0.001-1.336s0.683-0.665,1.161-0.662
	c5.798,0.044,12.233-0.701,17.952-3.39C60.892,29.264,57.466,28.566,54,28.57c-14.221,0-25.75,11.514-25.75,25.715
	C28.25,68.488,39.779,80,54,80s25.75-11.512,25.75-25.715C79.75,45.714,75.549,38.123,69.092,33.449z"/>
</svg>
