<?xml version="1.0" encoding="utf-8"?>
<!-- Generator: Adobe Illustrator 25.4.1, SVG Export Plug-In . SVG Version: 6.00 Build 0)  -->
<svg version="1.1" id="图层_1" xmlns="http://www.w3.org/2000/svg" xmlns:xlink="http://www.w3.org/1999/xlink" x="0px" y="0px"
	 viewBox="0 0 108 108" enable-background="new 0 0 108 108" xml:space="preserve">
<g id="XMLID_540_">
	<path id="XMLID_545_" fill="#FFFFFF" d="M53.096,46.1c-1.18,0-2.136-0.964-2.136-2.153s0.956-2.153,2.136-2.153
		c1.18,0,2.137,0.964,2.137,2.153S54.276,46.1,53.096,46.1 M41.049,46.1c-1.18,0-2.138-0.964-2.138-2.153
		c0-1.189,0.957-2.153,2.138-2.153c1.179,0,2.136,0.964,2.136,2.153C43.185,45.136,42.228,46.1,41.049,46.1 M47.072,33.625
		C37.091,33.625,29,40.421,29,48.804c0,4.574,2.434,8.691,6.244,11.474c0.306,0.22,0.506,0.581,0.506,0.99
		c0,0.134-0.029,0.257-0.064,0.387c-0.304,1.144-0.791,2.976-0.814,3.062c-0.038,0.144-0.097,0.293-0.097,0.444
		c0,0.335,0.269,0.607,0.602,0.607c0.131,0,0.237-0.049,0.348-0.113l3.957-2.302c0.297-0.173,0.612-0.279,0.959-0.279
		c0.185,0,0.363,0.028,0.531,0.08c1.846,0.535,3.837,0.832,5.899,0.832c0.333,0,0.664-0.009,0.993-0.024
		c-0.393-1.184-0.607-2.431-0.607-3.72c0-7.646,7.379-13.844,16.482-13.844c0.33,0,0.414,0.011,0.739,0.027
		C63.318,39.171,56.088,33.625,47.072,33.625"/>
	<path id="XMLID_541_" fill="#FFFFFF" d="M68.96,58.087c-1.038,0-1.88-0.848-1.88-1.895s0.841-1.895,1.88-1.895
		c1.038,0,1.88,0.849,1.88,1.895S69.999,58.087,68.96,58.087 M58.92,58.087c-1.038,0-1.88-0.848-1.88-1.895s0.842-1.895,1.88-1.895
		c1.038,0,1.88,0.849,1.88,1.895S59.958,58.087,58.92,58.087 M73.797,69.801C76.972,67.482,79,64.051,79,60.24
		c0-6.986-6.742-12.649-15.06-12.649c-8.317,0-15.061,5.663-15.061,12.649c0,6.986,6.743,12.65,15.061,12.65
		c1.718,0,3.378-0.248,4.916-0.694c0.14-0.043,0.288-0.067,0.443-0.067c0.289,0,0.551,0.089,0.799,0.233l3.296,1.919
		c0.092,0.053,0.181,0.094,0.291,0.094c0.278,0,0.502-0.227,0.502-0.506c0-0.126-0.05-0.251-0.081-0.37
		c-0.019-0.072-0.425-1.599-0.679-2.552c-0.029-0.107-0.053-0.21-0.053-0.322C73.375,70.286,73.541,69.984,73.797,69.801"/>
</g>
</svg>
