<?xml version="1.0" encoding="utf-8"?>
<!-- Generator: Adobe Illustrator 25.4.1, SVG Export Plug-In . SVG Version: 6.00 Build 0)  -->
<svg version="1.1" id="图层_1" xmlns="http://www.w3.org/2000/svg" xmlns:xlink="http://www.w3.org/1999/xlink" x="0px" y="0px"
	 viewBox="0 0 108 108" style="enable-background:new 0 0 108 108;" xml:space="preserve">
<style type="text/css">
	.st0{fill-rule:evenodd;clip-rule:evenodd;fill:#222222;}
</style>
<path class="st0" d="M27.207,39.83L27.207,39.83c0.931,0,1.707,0.765,1.707,1.709v25.032c0,0.932-0.764,1.709-1.707,1.709l0,0
	c-0.931,0-1.707-0.765-1.707-1.709V41.528C25.5,40.594,26.264,39.83,27.207,39.83L27.207,39.83L27.207,39.83z M58.757,67.765
	c-1.552,0.717-2.1,0.431-2.77-0.334c-0.561-0.981-0.203-2.176,1.421-2.952c4.31-1.973,9.239-1.255,13.704-0.132
	c3.08,0.67,6.22,0.55,8.32-0.717c1.384-0.801,2.363-0.299,2.949,0.753c0.49,1.183-0.62,2.33-1.623,2.654
	c-2.746,1.315-7.592,1.553-12.689,0.334C62.959,66.14,60.727,66.894,58.757,67.765L58.757,67.765L58.757,67.765z M57.777,39.83
	L57.777,39.83h22.776v0.012c0.847,0.083,1.528,0.812,1.528,1.697v2.259c0,0.932-0.764,1.709-1.707,1.709l0,0
	c-0.931,0-1.707-0.765-1.707-1.709v-0.561H59.52v0.561c0,0.932-0.764,1.709-1.707,1.709l0,0c-0.931,0-1.707-0.765-1.707-1.709
	v-2.259C56.119,40.607,56.86,39.853,57.777,39.83L57.777,39.83L57.777,39.83z M57.993,46.632h22.155
	c1.039,0,1.886,0.848,1.886,1.889v11.2c0,1.04-0.847,1.889-1.886,1.889H57.993c-1.039,0-1.886-0.848-1.886-1.889v-11.19
	C56.119,47.48,56.966,46.632,57.993,46.632L57.993,46.632L57.993,46.632z M59.52,52.502h7.831v-2.415h-6.947
	c-0.49,0-0.883,0.395-0.883,0.885V52.502L59.52,52.502L59.52,52.502z M70.754,50.098v2.415h7.879v-1.518
	c0-0.49-0.394-0.885-0.883-0.885h-6.996V50.098z M78.633,55.907h-7.879v2.403h6.984c0.49,0,0.883-0.395,0.883-0.885v-1.518H78.633
	L78.633,55.907z M67.351,58.311v-2.403H59.52v1.506c0,0.49,0.394,0.885,0.883,0.885L67.351,58.311L67.351,58.311z M48.205,39.782
	h0.036c1.576,0,2.864,1.291,2.864,2.869v23.92c0,0.932-0.764,1.709-1.707,1.709l0,0c-0.931,0-1.707-0.765-1.707-1.709v-1.148h-0.06
	V44.552c0-0.753-0.609-1.363-1.36-1.363h-8.94c-0.931,0-1.707-0.765-1.707-1.709l0,0c0-0.932,0.764-1.709,1.707-1.709h10.874
	C48.205,39.772,48.205,39.782,48.205,39.782z M43.811,54.437c-0.931,0-1.707,0.765-1.707,1.709V66.57
	c0,0.932,0.764,1.709,1.707,1.709l0,0c0.931,0,1.707-0.765,1.707-1.709V56.146C45.519,55.202,44.754,54.437,43.811,54.437
	L43.811,54.437z M38.321,44.79c-0.931,0-1.707,0.765-1.707,1.709v1.96h-4.548c-0.931,0-1.707,0.765-1.707,1.709l0,0
	c0,0.932,0.764,1.709,1.707,1.709h4.548v14.716c0,0.932,0.764,1.709,1.707,1.709l0,0c0.931,0,1.707-0.765,1.707-1.709V51.855h4.548
	c0.931,0,1.707-0.765,1.707-1.709l0,0c0-0.932-0.764-1.709-1.707-1.709h-4.548v-1.96C40.027,45.555,39.263,44.79,38.321,44.79
	L38.321,44.79L38.321,44.79z M32.77,54.437L32.77,54.437c0.931,0,1.707,0.765,1.707,1.709V66.57c0,0.932-0.764,1.709-1.707,1.709
	l0,0c-0.931,0-1.707-0.765-1.707-1.709V56.146C31.063,55.202,31.827,54.437,32.77,54.437L32.77,54.437L32.77,54.437z M32.257,39.698
	c1.05,0,1.897,0.848,1.897,1.901c0,1.052-0.847,1.901-1.897,1.901c-1.05,0-1.897-0.848-1.897-1.901
	C30.359,40.547,31.207,39.698,32.257,39.698z"/>
</svg>
