<?xml version="1.0" encoding="utf-8"?>
<!-- Generator: Adobe Illustrator 25.4.1, SVG Export Plug-In . SVG Version: 6.00 Build 0)  -->
<svg version="1.1" id="图层_1" xmlns="http://www.w3.org/2000/svg" xmlns:xlink="http://www.w3.org/1999/xlink" x="0px" y="0px"
	 viewBox="0 0 108 108" style="enable-background:new 0 0 108 108;" xml:space="preserve">
<style type="text/css">
	.st0{fill-rule:evenodd;clip-rule:evenodd;}
</style>
<path class="st0" d="M13.81,32.745L13.81,32.745c1.396,0,2.56,1.148,2.56,2.563v37.548c0,1.398-1.146,2.563-2.56,2.563l0,0
	c-1.396,0-2.56-1.148-2.56-2.563V35.292C11.25,33.891,12.396,32.745,13.81,32.745L13.81,32.745L13.81,32.745z M61.136,74.648
	c-2.328,1.075-3.15,0.646-4.155-0.501c-0.842-1.472-0.304-3.264,2.131-4.428c6.465-2.96,13.859-1.883,20.556-0.197
	c4.62,1.005,9.329,0.825,12.48-1.075c2.077-1.202,3.545-0.449,4.423,1.13c0.735,1.774-0.931,3.496-2.435,3.981
	c-4.119,1.973-11.388,2.33-19.034,0.501C67.438,72.21,64.091,73.341,61.136,74.648L61.136,74.648L61.136,74.648z M59.666,32.745
	L59.666,32.745H93.83v0.018c1.271,0.125,2.292,1.218,2.292,2.545v3.389c0,1.398-1.146,2.563-2.56,2.563l0,0
	c-1.396,0-2.56-1.148-2.56-2.563v-0.842H62.28v0.842c0,1.398-1.146,2.563-2.56,2.563l0,0c-1.396,0-2.56-1.148-2.56-2.563v-3.389
	C57.178,33.911,58.29,32.78,59.666,32.745L59.666,32.745L59.666,32.745z M59.99,42.947h33.233c1.559,0,2.83,1.273,2.83,2.833v16.801
	c0,1.56-1.271,2.833-2.83,2.833H59.99c-1.559,0-2.83-1.273-2.83-2.833V45.797C57.178,44.22,58.449,42.947,59.99,42.947L59.99,42.947
	L59.99,42.947z M62.28,51.752h11.746V48.13H63.606c-0.735,0-1.325,0.592-1.325,1.327V51.752L62.28,51.752L62.28,51.752z
	 M79.13,48.147v3.622h11.819v-2.277c0-0.735-0.59-1.327-1.325-1.327H79.13V48.147z M90.949,56.861H79.13v3.604h10.475
	c0.735,0,1.325-0.592,1.325-1.327v-2.277H90.949L90.949,56.861z M74.027,60.467v-3.604H62.28v2.259c0,0.735,0.59,1.327,1.325,1.327
	L74.027,60.467L74.027,60.467z M45.307,32.673h0.054c2.364,0,4.296,1.937,4.296,4.303v35.88c0,1.398-1.146,2.563-2.56,2.563l0,0
	c-1.396,0-2.56-1.148-2.56-2.563v-1.721h-0.09V39.828c0-1.13-0.914-2.044-2.04-2.044h-13.41c-1.396,0-2.56-1.148-2.56-2.563l0,0
	c0-1.398,1.146-2.563,2.56-2.563h16.311C45.307,32.658,45.307,32.673,45.307,32.673z M38.717,54.656c-1.396,0-2.56,1.148-2.56,2.563
	v15.635c0,1.398,1.146,2.563,2.56,2.563l0,0c1.396,0,2.56-1.148,2.56-2.563V57.219C41.279,55.804,40.131,54.656,38.717,54.656
	L38.717,54.656z M30.481,40.185c-1.396,0-2.56,1.148-2.56,2.563v2.94h-6.822c-1.396,0-2.56,1.148-2.56,2.563l0,0
	c0,1.398,1.146,2.563,2.56,2.563h6.822v22.074c0,1.398,1.146,2.563,2.56,2.563l0,0c1.396,0,2.56-1.148,2.56-2.563V50.782h6.822
	c1.396,0,2.56-1.148,2.56-2.563l0,0c0-1.398-1.146-2.563-2.56-2.563h-6.822v-2.94C33.041,41.333,31.895,40.185,30.481,40.185
	L30.481,40.185L30.481,40.185z M22.155,54.656L22.155,54.656c1.396,0,2.56,1.148,2.56,2.563v15.635c0,1.398-1.146,2.563-2.56,2.563
	l0,0c-1.396,0-2.56-1.148-2.56-2.563V57.219C19.595,55.804,20.741,54.656,22.155,54.656L22.155,54.656L22.155,54.656z
	 M21.385,32.548c1.575,0,2.846,1.273,2.846,2.851c0,1.578-1.271,2.851-2.846,2.851c-1.575,0-2.846-1.273-2.846-2.851
	S19.81,32.548,21.385,32.548z"/>
</svg>
