<svg xmlns="http://www.w3.org/2000/svg" viewBox="0 0 704 704">
  <polygon points="350.3573 446.512 285.1787 529.6427 246.0773 514.976 223.256 475.8453 257.488 446.512 317.768 456.3093 350.3573 446.512"/>
  <path d="M322.6667,242.8213l-68.4347,27.6907,16.28,65.1787,37.488,14.6667,45.6427-14.6667,22.792,37.488-8.1253,60.3093,71.6907-44,9.768-76.5893-127.1013-70.0773ZM350.3573,285.2373l-.0293-.0587h.0293v.0587Z"/>
  <polygon points="508.4347 268.8987 493.768 317.768 470.976 290.0773 508.4347 268.8987"/>
  <polygon points="453.024 234.6667 448.1547 285.1787 418.8213 260.744 453.024 234.6667"/>
  <polygon points="392.744 189.024 392.744 242.8213 353.6427 228.976 392.744 189.024"/>
  <polygon points="332.4347 226.512 299.8453 223.256 322.6667 171.1013 332.4347 226.512"/>
  <polygon points="285.1787 215.1013 250.976 242.8213 246.0773 174.3573 285.1787 215.1013"/>
</svg>
