<svg xmlns="http://www.w3.org/2000/svg" viewBox="0 0 820 240">
  <polygon points="409.16 168.33 375.83 210.84 355.835 203.34 344.165 183.33 361.67 168.33 392.495 173.34 409.16 168.33"/>
  <path d="M395,64.17l-34.995,14.16,8.325,33.33,19.17,7.5,23.34-7.5,11.655,19.17-4.155,30.84,36.66-22.5,4.995-39.165-64.995-35.835ZM409.16,85.86l-.015-.03h.015v.03Z"/>
  <polygon points="489.995 77.505 482.495 102.4949 470.84 88.335 489.995 77.505"/>
  <polygon points="461.66 60 459.17 85.83 444.17 73.335 461.66 60"/>
  <polygon points="430.835 36.66 430.835 64.17 410.84 57.09 430.835 36.66"/>
  <polygon points="399.995 55.83 383.33 54.165 395 27.4949 399.995 55.83"/>
  <polygon points="375.83 49.9949 358.34 64.17 355.835 29.16 375.83 49.9949"/>
</svg>
