<svg xmlns="http://www.w3.org/2000/svg" viewBox="0 0 240 240">
  <polygon points="119.44 152.22 97.22 180.56 83.89 175.56 76.11 162.22 87.78 152.22 108.33 155.56 119.44 152.22"/>
  <path d="M110,82.78l-23.33,9.44,5.55,22.22,12.78,5,15.56-5,7.77,12.78-2.77,20.56,24.44-15,3.33-26.11-43.33-23.89ZM119.44,97.24l-.01-.02h.01v.02Z"/>
  <polygon points="173.33 91.67 168.33 108.33 160.56 98.89 173.33 91.67"/>
  <polygon points="154.44 80 152.78 97.22 142.78 88.89 154.44 80"/>
  <polygon points="133.89 64.44 133.89 82.78 120.56 78.06 133.89 64.44"/>
  <polygon points="113.33 77.22 102.22 76.11 110 58.33 113.33 77.22"/>
  <polygon points="97.22 73.33 85.56 82.78 83.89 59.44 97.22 73.33"/>
</svg>
