<svg xmlns="http://www.w3.org/2000/svg" viewBox="0 0 240 820">
  <polygon points="119.16 458.33 85.83 500.84 65.835 493.34 54.165 473.33 71.67 458.33 102.495 463.34 119.16 458.33"/>
  <path d="M105,354.17l-34.995,14.16,8.325,33.33,19.17,7.5,23.34-7.5,11.655,19.17-4.155,30.84,36.66-22.5,4.995-39.165-64.995-35.835ZM119.16,375.86l-.015-.03h.015v.03Z"/>
  <polygon points="199.995 367.505 192.495 392.4949 180.84 378.335 199.995 367.505"/>
  <polygon points="171.66 350 169.17 375.83 154.17 363.335 171.66 350"/>
  <polygon points="140.835 326.66 140.835 354.17 120.84 347.09 140.835 326.66"/>
  <polygon points="109.995 345.83 93.33 344.165 105 317.4949 109.995 345.83"/>
  <polygon points="85.83 339.9949 68.34 354.17 65.835 319.16 85.83 339.9949"/>
</svg>
