<svg xmlns="http://www.w3.org/2000/svg" viewBox="0 0 820 240">
  <g>
    <polygon points="409.1667 168.3333 375.8333 210.8333 355.8333 203.3333 344.1667 183.3333 361.6667 168.3333 392.5 173.3333 409.1667 168.3333" style="fill:#f58bf9"/>
    <polygon points="409.1667 168.3333 400.6667 179.1667 390.2 192.5 375.8333 210.8333 355.8333 203.3333 344.1667 183.3333 364.1667 185 366.6667 172.5 392.5 173.3333 409.1667 168.3333" style="fill:#ecae34"/>
    <polygon points="364.1667 185 355.8333 203.3333 344.1667 183.3333 364.1667 185" style="fill:#ef80f6"/>
    <polygon points="376.6667 200 375.8333 210.8333 355.8333 203.3333 364.1667 185 376.6667 200" style="fill:#3c85d8"/>
    <polygon points="400.6667 179.1667 375.8333 210.8333 376.6667 200 385 193.3333 386.6667 188.3333 400.6667 179.1667" style="fill:#568e40"/>
    <polygon points="386.6667 188.3333 390.2123 192.5 400.67 179.1667 386.6667 188.3333" style="fill:#db2323"/>
    <polygon points="376.6667 200 355.8333 203.3333 375.8333 210.8333 376.6667 200" style="fill:#377ccd"/>
  </g>
  <g>
    <polygon points="460 100 455 139.1667 418.3333 161.6667 420.8333 145.8333 422.5 130.8333 410.8333 111.6667 387.5 119.1667 368.3333 111.6667 360 78.3333 395 64.1667 460 100" style="fill:#3f8de2"/>
    <polygon points="460 100 455 139.1667 418.3333 161.6667 420.8333 145.8333 422.5 130.8333 410.8333 111.6667 387.5 119.1667 405.3666 80 395 64.1667 460 100" style="fill:#e22625"/>
    <polygon points="460 100 457.5 119.6 455 139.1667 446.8667 144.1667 418.3333 161.6667 420.8333 145.8333 422.5 130.8333 410.8333 111.6667 387.5 119.1667 368.3333 111.6667 405.3666 80 438.8334 88.3333 460 100" style="fill:#3578c7"/>
    <polygon points="460 100 455 139.1667 418.3333 161.6667 420.8333 145.8333 422.5 130.8333 410.8333 111.6667 387.5 119.1667 368.3333 111.6667 391.6667 91.7 409.1667 85.8333 405.3666 80 438.8334 88.3333 460 100" style="fill:#e8a02f"/>
    <polygon points="460 100 455 139.1667 418.3333 161.6667 420.8333 145.8333 422.5 130.8333 410.8333 111.6667 387.5 119.1667 368.3333 111.6667 391.6667 91.7 409.1667 85.8333 438.8334 88.3333 460 100" style="fill:#eba832"/>
    <polygon points="460 100 455 139.1667 418.3333 161.6667 420.8333 145.8333 422.5 130.8333 410.8333 111.6667 387.5 119.1667 391.6667 91.7 409.1667 85.8333 438.8334 88.3333 460 100" style="fill:#ebac34"/>
    <polygon points="460 100 455 139.1667 418.3333 161.6667 420.8333 145.8333 422.5 130.8333 410.8333 111.6667 409.1667 85.8333 438.8334 88.3333 460 100" style="fill:#edb135"/>
    <polygon points="460 100 455 139.1667 418.3333 161.6667 420.8333 145.8333 422.5 130.8333 410.8333 111.6667 419.1667 111.5 409.1667 85.8333 438.8334 88.3333 460 100" style="fill:#edab33"/>
    <polygon points="460 100 455 139.1667 418.3333 161.6667 420.8333 145.8333 422.5 130.8333 410.8333 111.6667 454.1667 110.8333 438.8334 88.3333 460 100" style="fill:#69ab4d"/>
    <polygon points="460 100 455 139.1667 418.3333 161.6667 420.8333 145.8333 422.5 130.8333 410.8333 111.6667 454.1667 110.8333 460 100" style="fill:#568d3f"/>
    <polygon points="457.5 119.6 455 139.1667 418.3333 161.6667 420.8333 145.8333 422.5 130.8333 410.8333 111.6667 454.1667 110.8333 457.5 119.6" style="fill:#3a81d2"/>
    <polygon points="457.5 119.6 455 139.1667 418.3333 161.6667 420.8333 145.8333 422.5 130.8333 419.1667 111.5 454.1667 110.8333 457.5 119.6" style="fill:#3c86d9"/>
    <polygon points="457.5 119.6 455 139.1667 418.3333 161.6667 420.8333 145.8333 422.5 130.8333 436.6667 131.6667 419.1667 111.5 454.1667 110.8333 457.5 119.6" style="fill:#3a81d2"/>
    <polygon points="457.5 119.6 455 139.1667 418.3333 161.6667 420.8333 145.8333 422.5 130.8333 436.6667 131.6667 454.1667 110.8333 457.5 119.6" style="fill:#5d9944"/>
    <polygon points="455 139.1667 454.1667 110.8333 457.5 119.5833 455 139.1667" style="fill:#db62ea"/>
    <polygon points="455 139.1667 418.3333 161.6667 420.8333 145.8333 422.5 130.8333 436.6667 131.6667 455 139.1667" style="fill:#4294eb"/>
    <polygon points="455 139.1667 446.8667 144.1667 418.3333 161.6667 420.8333 145.8333 436.6667 131.6667 455 139.1667" style="fill:#5b9542"/>
    <polygon points="420.8333 145.8333 418.3333 161.6667 446.8518 144.1667 420.8333 145.8333" style="fill:#568d3f"/>
  </g>
  <g>
    <g>
      <polygon points="355.8333 29.1667 358.3333 64.1667 375.8333 50 355.8333 29.1667" style="fill:#df2525"/>
      <polygon points="365.8333 44.1667 358.3333 64.1667 355.8333 29.1667 365.8333 44.1667" style="fill:#f12d2d"/>
    </g>
    <g>
      <polygon points="395 27.5 383.3333 54.1667 400 55.8333 395 27.5" style="fill:#70b652"/>
      <polygon points="383.3333 54.1667 396.6177 36.6667 400 55.8333 383.3333 54.1667" style="fill:#68ab4c"/>
      <polygon points="395 27.5 393.3333 55.1667 398.0883 45 395 27.5" style="fill:#5b9643"/>
    </g>
    <g>
      <polygon points="430.8333 36.6667 410.8333 57.0833 430.8333 64.1667 430.8333 36.6667" style="fill:#3f90e5"/>
      <polygon points="430.8333 36.6667 424.1667 61.8057 430.8333 64.1667 430.8333 36.6667" style="fill:#3475c3"/>
      <polygon points="428.3333 57.5 424.1667 61.8057 428.3333 63.2813 428.3333 57.5" style="fill:#2f6bb7"/>
    </g>
    <g>
      <polygon points="459.1667 85.8333 444.1667 73.3333 461.6667 60 459.1667 85.8333" style="fill:#fbd841"/>
      <polygon points="444.1667 73.3333 460.3763 73.3333 459.1667 85.8333 444.1667 73.3333" style="fill:#f1ba38"/>
      <polygon points="461.6667 60 452.1667 80 459.1667 85.8333 461.6667 60" style="fill:#e3942c"/>
      <polygon points="455.3333 73.3333 451.6667 79.5833 459.1667 85.8333 455.3333 73.3333" style="fill:#e79f2f"/>
    </g>
    <g>
      <polygon points="470.8333 88.3333 482.5 102.5 490 77.5 470.8333 88.3333" style="fill:#fc94fd"/>
      <polygon points="470.8333 88.3333 487.0833 87.2223 482.5 102.5 470.8333 88.3333" style="fill:#ef80f6"/>
      <polygon points="482.5 102.5 483.3333 81.268 490 77.5 482.5 102.5" style="fill:#e877f2"/>
      <polygon points="483.3333 81.268 487.0833 87.2223 482.5 102.5 483.3333 81.268" style="fill:#db63eb"/>
    </g>
  </g>
</svg>
