<svg xmlns="http://www.w3.org/2000/svg" viewBox="0 0 240 820">
  <g>
    <polygon points="119.1667 458.3333 85.8333 500.8333 65.8333 493.3333 54.1667 473.3333 71.6667 458.3333 102.5 463.3333 119.1667 458.3333" style="fill:#f58bf9"/>
    <polygon points="119.1667 458.3333 110.6667 469.1667 100.2 482.5 85.8333 500.8333 65.8333 493.3333 54.1667 473.3333 74.1667 475 76.6667 462.5 102.5 463.3333 119.1667 458.3333" style="fill:#ecae34"/>
    <polygon points="74.1667 475 65.8333 493.3333 54.1667 473.3333 74.1667 475" style="fill:#ef80f6"/>
    <polygon points="86.6667 490 85.8333 500.8333 65.8333 493.3333 74.1667 475 86.6667 490" style="fill:#3c85d8"/>
    <polygon points="110.6667 469.1667 85.8333 500.8333 86.6667 490 95 483.3333 96.6667 478.3333 110.6667 469.1667" style="fill:#568e40"/>
    <polygon points="96.6667 478.3333 100.2123 482.5 110.67 469.1667 96.6667 478.3333" style="fill:#db2323"/>
    <polygon points="86.6667 490 65.8333 493.3333 85.8333 500.8333 86.6667 490" style="fill:#377ccd"/>
  </g>
  <g>
    <polygon points="170 390 165 429.1667 128.3333 451.6667 130.8333 435.8333 132.5 420.8333 120.8333 401.6667 97.5 409.1667 78.3333 401.6667 70 368.3333 105 354.1667 170 390" style="fill:#3f8de2"/>
    <polygon points="170 390 165 429.1667 128.3333 451.6667 130.8333 435.8333 132.5 420.8333 120.8333 401.6667 97.5 409.1667 115.3666 370 105 354.1667 170 390" style="fill:#e22625"/>
    <polygon points="170 390 167.5 409.6 165 429.1667 156.8667 434.1667 128.3333 451.6667 130.8333 435.8333 132.5 420.8333 120.8333 401.6667 97.5 409.1667 78.3333 401.6667 115.3666 370 148.8334 378.3333 170 390" style="fill:#3578c7"/>
    <polygon points="170 390 165 429.1667 128.3333 451.6667 130.8333 435.8333 132.5 420.8333 120.8333 401.6667 97.5 409.1667 78.3333 401.6667 101.6667 381.7 119.1667 375.8333 115.3666 370 148.8334 378.3333 170 390" style="fill:#e8a02f"/>
    <polygon points="170 390 165 429.1667 128.3333 451.6667 130.8333 435.8333 132.5 420.8333 120.8333 401.6667 97.5 409.1667 78.3333 401.6667 101.6667 381.7 119.1667 375.8333 148.8334 378.3333 170 390" style="fill:#eba832"/>
    <polygon points="170 390 165 429.1667 128.3333 451.6667 130.8333 435.8333 132.5 420.8333 120.8333 401.6667 97.5 409.1667 101.6667 381.7 119.1667 375.8333 148.8334 378.3333 170 390" style="fill:#ebac34"/>
    <polygon points="170 390 165 429.1667 128.3333 451.6667 130.8333 435.8333 132.5 420.8333 120.8333 401.6667 119.1667 375.8333 148.8334 378.3333 170 390" style="fill:#edb135"/>
    <polygon points="170 390 165 429.1667 128.3333 451.6667 130.8333 435.8333 132.5 420.8333 120.8333 401.6667 129.1667 401.5 119.1667 375.8333 148.8334 378.3333 170 390" style="fill:#edab33"/>
    <polygon points="170 390 165 429.1667 128.3333 451.6667 130.8333 435.8333 132.5 420.8333 120.8333 401.6667 164.1667 400.8333 148.8334 378.3333 170 390" style="fill:#69ab4d"/>
    <polygon points="170 390 165 429.1667 128.3333 451.6667 130.8333 435.8333 132.5 420.8333 120.8333 401.6667 164.1667 400.8333 170 390" style="fill:#568d3f"/>
    <polygon points="167.5 409.6 165 429.1667 128.3333 451.6667 130.8333 435.8333 132.5 420.8333 120.8333 401.6667 164.1667 400.8333 167.5 409.6" style="fill:#3a81d2"/>
    <polygon points="167.5 409.6 165 429.1667 128.3333 451.6667 130.8333 435.8333 132.5 420.8333 129.1667 401.5 164.1667 400.8333 167.5 409.6" style="fill:#3c86d9"/>
    <polygon points="167.5 409.6 165 429.1667 128.3333 451.6667 130.8333 435.8333 132.5 420.8333 146.6667 421.6667 129.1667 401.5 164.1667 400.8333 167.5 409.6" style="fill:#3a81d2"/>
    <polygon points="167.5 409.6 165 429.1667 128.3333 451.6667 130.8333 435.8333 132.5 420.8333 146.6667 421.6667 164.1667 400.8333 167.5 409.6" style="fill:#5d9944"/>
    <polygon points="165 429.1667 164.1667 400.8333 167.5 409.5833 165 429.1667" style="fill:#db62ea"/>
    <polygon points="165 429.1667 128.3333 451.6667 130.8333 435.8333 132.5 420.8333 146.6667 421.6667 165 429.1667" style="fill:#4294eb"/>
    <polygon points="165 429.1667 156.8667 434.1667 128.3333 451.6667 130.8333 435.8333 146.6667 421.6667 165 429.1667" style="fill:#5b9542"/>
    <polygon points="130.8333 435.8333 128.3333 451.6667 156.8518 434.1667 130.8333 435.8333" style="fill:#568d3f"/>
  </g>
  <g>
    <g>
      <polygon points="65.8333 319.1667 68.3333 354.1667 85.8333 340 65.8333 319.1667" style="fill:#df2525"/>
      <polygon points="75.8333 334.1667 68.3333 354.1667 65.8333 319.1667 75.8333 334.1667" style="fill:#f12d2d"/>
    </g>
    <g>
      <polygon points="105 317.5 93.3333 344.1667 110 345.8333 105 317.5" style="fill:#70b652"/>
      <polygon points="93.3333 344.1667 106.6177 326.6667 110 345.8333 93.3333 344.1667" style="fill:#68ab4c"/>
      <polygon points="105 317.5 103.3333 345.1667 108.0883 335 105 317.5" style="fill:#5b9643"/>
    </g>
    <g>
      <polygon points="140.8333 326.6667 120.8333 347.0833 140.8333 354.1667 140.8333 326.6667" style="fill:#3f90e5"/>
      <polygon points="140.8333 326.6667 134.1667 351.8057 140.8333 354.1667 140.8333 326.6667" style="fill:#3475c3"/>
      <polygon points="138.3333 347.5 134.1667 351.8057 138.3333 353.2813 138.3333 347.5" style="fill:#2f6bb7"/>
    </g>
    <g>
      <polygon points="169.1667 375.8333 154.1667 363.3333 171.6667 350 169.1667 375.8333" style="fill:#fbd841"/>
      <polygon points="154.1667 363.3333 170.3763 363.3333 169.1667 375.8333 154.1667 363.3333" style="fill:#f1ba38"/>
      <polygon points="171.6667 350 162.1667 370 169.1667 375.8333 171.6667 350" style="fill:#e3942c"/>
      <polygon points="165.3333 363.3333 161.6667 369.5833 169.1667 375.8333 165.3333 363.3333" style="fill:#e79f2f"/>
    </g>
    <g>
      <polygon points="180.8333 378.3333 192.5 392.5 200 367.5 180.8333 378.3333" style="fill:#fc94fd"/>
      <polygon points="180.8333 378.3333 197.0833 377.2223 192.5 392.5 180.8333 378.3333" style="fill:#ef80f6"/>
      <polygon points="192.5 392.5 193.3333 371.268 200 367.5 192.5 392.5" style="fill:#e877f2"/>
      <polygon points="193.3333 371.268 197.0833 377.2223 192.5 392.5 193.3333 371.268" style="fill:#db63eb"/>
    </g>
  </g>
</svg>
