<svg xmlns="http://www.w3.org/2000/svg" viewBox="0 0 240 240">
  <g>
    <polygon points="119.1667 168.3333 85.8333 210.8333 65.8333 203.3333 54.1667 183.3333 71.6667 168.3333 102.5 173.3333 119.1667 168.3333" style="fill:#f58bf9"/>
    <polygon points="119.1667 168.3333 110.6667 179.1667 100.2 192.5 85.8333 210.8333 65.8333 203.3333 54.1667 183.3333 74.1667 185 76.6667 172.5 102.5 173.3333 119.1667 168.3333" style="fill:#ecae34"/>
    <polygon points="74.1667 185 65.8333 203.3333 54.1667 183.3333 74.1667 185" style="fill:#ef80f6"/>
    <polygon points="86.6667 200 85.8333 210.8333 65.8333 203.3333 74.1667 185 86.6667 200" style="fill:#3c85d8"/>
    <polygon points="110.6667 179.1667 85.8333 210.8333 86.6667 200 95 193.3333 96.6667 188.3333 110.6667 179.1667" style="fill:#568e40"/>
    <polygon points="96.6667 188.3333 100.2123 192.5 110.67 179.1667 96.6667 188.3333" style="fill:#db2323"/>
    <polygon points="86.6667 200 65.8333 203.3333 85.8333 210.8333 86.6667 200" style="fill:#377ccd"/>
  </g>
  <g>
    <polygon points="170 100 165 139.1667 128.3333 161.6667 130.8333 145.8333 132.5 130.8333 120.8333 111.6667 97.5 119.1667 78.3333 111.6667 70 78.3333 105 64.1667 170 100" style="fill:#3f8de2"/>
    <polygon points="170 100 165 139.1667 128.3333 161.6667 130.8333 145.8333 132.5 130.8333 120.8333 111.6667 97.5 119.1667 115.3666 80 105 64.1667 170 100" style="fill:#e22625"/>
    <polygon points="170 100 167.5 119.6 165 139.1667 156.8667 144.1667 128.3333 161.6667 130.8333 145.8333 132.5 130.8333 120.8333 111.6667 97.5 119.1667 78.3333 111.6667 115.3666 80 148.8334 88.3333 170 100" style="fill:#3578c7"/>
    <polygon points="170 100 165 139.1667 128.3333 161.6667 130.8333 145.8333 132.5 130.8333 120.8333 111.6667 97.5 119.1667 78.3333 111.6667 101.6667 91.7 119.1667 85.8333 115.3666 80 148.8334 88.3333 170 100" style="fill:#e8a02f"/>
    <polygon points="170 100 165 139.1667 128.3333 161.6667 130.8333 145.8333 132.5 130.8333 120.8333 111.6667 97.5 119.1667 78.3333 111.6667 101.6667 91.7 119.1667 85.8333 148.8334 88.3333 170 100" style="fill:#eba832"/>
    <polygon points="170 100 165 139.1667 128.3333 161.6667 130.8333 145.8333 132.5 130.8333 120.8333 111.6667 97.5 119.1667 101.6667 91.7 119.1667 85.8333 148.8334 88.3333 170 100" style="fill:#ebac34"/>
    <polygon points="170 100 165 139.1667 128.3333 161.6667 130.8333 145.8333 132.5 130.8333 120.8333 111.6667 119.1667 85.8333 148.8334 88.3333 170 100" style="fill:#edb135"/>
    <polygon points="170 100 165 139.1667 128.3333 161.6667 130.8333 145.8333 132.5 130.8333 120.8333 111.6667 129.1667 111.5 119.1667 85.8333 148.8334 88.3333 170 100" style="fill:#edab33"/>
    <polygon points="170 100 165 139.1667 128.3333 161.6667 130.8333 145.8333 132.5 130.8333 120.8333 111.6667 164.1667 110.8333 148.8334 88.3333 170 100" style="fill:#69ab4d"/>
    <polygon points="170 100 165 139.1667 128.3333 161.6667 130.8333 145.8333 132.5 130.8333 120.8333 111.6667 164.1667 110.8333 170 100" style="fill:#568d3f"/>
    <polygon points="167.5 119.6 165 139.1667 128.3333 161.6667 130.8333 145.8333 132.5 130.8333 120.8333 111.6667 164.1667 110.8333 167.5 119.6" style="fill:#3a81d2"/>
    <polygon points="167.5 119.6 165 139.1667 128.3333 161.6667 130.8333 145.8333 132.5 130.8333 129.1667 111.5 164.1667 110.8333 167.5 119.6" style="fill:#3c86d9"/>
    <polygon points="167.5 119.6 165 139.1667 128.3333 161.6667 130.8333 145.8333 132.5 130.8333 146.6667 131.6667 129.1667 111.5 164.1667 110.8333 167.5 119.6" style="fill:#3a81d2"/>
    <polygon points="167.5 119.6 165 139.1667 128.3333 161.6667 130.8333 145.8333 132.5 130.8333 146.6667 131.6667 164.1667 110.8333 167.5 119.6" style="fill:#5d9944"/>
    <polygon points="165 139.1667 164.1667 110.8333 167.5 119.5833 165 139.1667" style="fill:#db62ea"/>
    <polygon points="165 139.1667 128.3333 161.6667 130.8333 145.8333 132.5 130.8333 146.6667 131.6667 165 139.1667" style="fill:#4294eb"/>
    <polygon points="165 139.1667 156.8667 144.1667 128.3333 161.6667 130.8333 145.8333 146.6667 131.6667 165 139.1667" style="fill:#5b9542"/>
    <polygon points="130.8333 145.8333 128.3333 161.6667 156.8518 144.1667 130.8333 145.8333" style="fill:#568d3f"/>
  </g>
  <g>
    <g>
      <polygon points="65.8333 29.1667 68.3333 64.1667 85.8333 50 65.8333 29.1667" style="fill:#df2525"/>
      <polygon points="75.8333 44.1667 68.3333 64.1667 65.8333 29.1667 75.8333 44.1667" style="fill:#f12d2d"/>
    </g>
    <g>
      <polygon points="105 27.5 93.3333 54.1667 110 55.8333 105 27.5" style="fill:#70b652"/>
      <polygon points="93.3333 54.1667 106.6177 36.6667 110 55.8333 93.3333 54.1667" style="fill:#68ab4c"/>
      <polygon points="105 27.5 103.3333 55.1667 108.0883 45 105 27.5" style="fill:#5b9643"/>
    </g>
    <g>
      <polygon points="140.8333 36.6667 120.8333 57.0833 140.8333 64.1667 140.8333 36.6667" style="fill:#3f90e5"/>
      <polygon points="140.8333 36.6667 134.1667 61.8057 140.8333 64.1667 140.8333 36.6667" style="fill:#3475c3"/>
      <polygon points="138.3333 57.5 134.1667 61.8057 138.3333 63.2813 138.3333 57.5" style="fill:#2f6bb7"/>
    </g>
    <g>
      <polygon points="169.1667 85.8333 154.1667 73.3333 171.6667 60 169.1667 85.8333" style="fill:#fbd841"/>
      <polygon points="154.1667 73.3333 170.3763 73.3333 169.1667 85.8333 154.1667 73.3333" style="fill:#f1ba38"/>
      <polygon points="171.6667 60 162.1667 80 169.1667 85.8333 171.6667 60" style="fill:#e3942c"/>
      <polygon points="165.3333 73.3333 161.6667 79.5833 169.1667 85.8333 165.3333 73.3333" style="fill:#e79f2f"/>
    </g>
    <g>
      <polygon points="180.8333 88.3333 192.5 102.5 200 77.5 180.8333 88.3333" style="fill:#fc94fd"/>
      <polygon points="180.8333 88.3333 197.0833 87.2223 192.5 102.5 180.8333 88.3333" style="fill:#ef80f6"/>
      <polygon points="192.5 102.5 193.3333 81.268 200 77.5 192.5 102.5" style="fill:#e877f2"/>
      <polygon points="193.3333 81.268 197.0833 87.2223 192.5 102.5 193.3333 81.268" style="fill:#db63eb"/>
    </g>
  </g>
</svg>
