<svg xmlns="http://www.w3.org/2000/svg" viewBox="0 0 704 704">
  <g>
    <polygon points="350.3704 446.5185 285.1852 529.6296 246.0741 514.963 223.2593 475.8519 257.4815 446.5185 317.7778 456.2963 350.3704 446.5185" style="fill:#f58bf9"/>
    <polygon points="350.3704 446.5185 333.7482 467.7037 313.28 493.7778 285.1852 529.6296 246.0741 514.963 223.2593 475.8519 262.3704 479.1111 267.2593 454.6667 317.7778 456.2963 350.3704 446.5185" style="fill:#ecae34"/>
    <polygon points="262.3704 479.1111 246.0741 514.963 223.2593 475.8519 262.3704 479.1111" style="fill:#ef80f6"/>
    <polygon points="286.8148 508.4444 285.1852 529.6296 246.0741 514.963 262.3704 479.1111 286.8148 508.4444" style="fill:#3c85d8"/>
    <polygon points="333.7482 467.7037 285.1852 529.6296 286.8148 508.4444 303.1111 495.4074 306.3704 485.6296 333.7482 467.7037" style="fill:#568e40"/>
    <polygon points="306.3704 485.6296 313.3041 493.7778 333.7547 467.7037 306.3704 485.6296" style="fill:#db2323"/>
    <polygon points="286.8148 508.4444 246.0741 514.963 285.1852 529.6296 286.8148 508.4444" style="fill:#377ccd"/>
  </g>
  <g>
    <polygon points="449.7778 312.8889 440 389.4815 368.2963 433.4815 373.1852 402.5185 376.4444 373.1852 353.6296 335.7037 308 350.3704 270.5185 335.7037 254.2222 270.5185 322.6667 242.8148 449.7778 312.8889" style="fill:#3f8de2"/>
    <polygon points="449.7778 312.8889 440 389.4815 368.2963 433.4815 373.1852 402.5185 376.4444 373.1852 353.6296 335.7037 308 350.3704 342.9392 273.7778 322.6667 242.8148 449.7778 312.8889" style="fill:#e22625"/>
    <polygon points="449.7778 312.8889 444.8889 351.2178 440 389.4815 424.0948 399.2593 368.2963 433.4815 373.1852 402.5185 376.4444 373.1852 353.6296 335.7037 308 350.3704 270.5185 335.7037 342.9392 273.7778 408.3853 290.0741 449.7778 312.8889" style="fill:#3578c7"/>
    <polygon points="449.7778 312.8889 440 389.4815 368.2963 433.4815 373.1852 402.5185 376.4444 373.1852 353.6296 335.7037 308 350.3704 270.5185 335.7037 316.1481 296.6578 350.3704 285.1852 342.9392 273.7778 408.3853 290.0741 449.7778 312.8889" style="fill:#e8a02f"/>
    <polygon points="449.7778 312.8889 440 389.4815 368.2963 433.4815 373.1852 402.5185 376.4444 373.1852 353.6296 335.7037 308 350.3704 270.5185 335.7037 316.1481 296.6578 350.3704 285.1852 408.3853 290.0741 449.7778 312.8889" style="fill:#eba832"/>
    <polygon points="449.7778 312.8889 440 389.4815 368.2963 433.4815 373.1852 402.5185 376.4444 373.1852 353.6296 335.7037 308 350.3704 316.1481 296.6578 350.3704 285.1852 408.3853 290.0741 449.7778 312.8889" style="fill:#ebac34"/>
    <polygon points="449.7778 312.8889 440 389.4815 368.2963 433.4815 373.1852 402.5185 376.4444 373.1852 353.6296 335.7037 350.3704 285.1852 408.3853 290.0741 449.7778 312.8889" style="fill:#edb135"/>
    <polygon points="449.7778 312.8889 440 389.4815 368.2963 433.4815 373.1852 402.5185 376.4444 373.1852 353.6296 335.7037 369.9259 335.3779 350.3704 285.1852 408.3853 290.0741 449.7778 312.8889" style="fill:#edab33"/>
    <polygon points="449.7778 312.8889 440 389.4815 368.2963 433.4815 373.1852 402.5185 376.4444 373.1852 353.6296 335.7037 438.3704 334.0741 408.3853 290.0741 449.7778 312.8889" style="fill:#69ab4d"/>
    <polygon points="449.7778 312.8889 440 389.4815 368.2963 433.4815 373.1852 402.5185 376.4444 373.1852 353.6296 335.7037 438.3704 334.0741 449.7778 312.8889" style="fill:#568d3f"/>
    <polygon points="444.8889 351.2178 440 389.4815 368.2963 433.4815 373.1852 402.5185 376.4444 373.1852 353.6296 335.7037 438.3704 334.0741 444.8889 351.2178" style="fill:#3a81d2"/>
    <polygon points="444.8889 351.2178 440 389.4815 368.2963 433.4815 373.1852 402.5185 376.4444 373.1852 369.9259 335.3779 438.3704 334.0741 444.8889 351.2178" style="fill:#3c86d9"/>
    <polygon points="444.8889 351.2178 440 389.4815 368.2963 433.4815 373.1852 402.5185 376.4444 373.1852 404.1481 374.8148 369.9259 335.3779 438.3704 334.0741 444.8889 351.2178" style="fill:#3a81d2"/>
    <polygon points="444.8889 351.2178 440 389.4815 368.2963 433.4815 373.1852 402.5185 376.4444 373.1852 404.1481 374.8148 438.3704 334.0741 444.8889 351.2178" style="fill:#5d9944"/>
    <polygon points="440 389.4815 438.3704 334.0741 444.8889 351.1852 440 389.4815" style="fill:#db62ea"/>
    <polygon points="440 389.4815 368.2963 433.4815 373.1852 402.5185 376.4444 373.1852 404.1481 374.8148 440 389.4815" style="fill:#4294eb"/>
    <polygon points="440 389.4815 424.0948 399.2593 368.2963 433.4815 373.1852 402.5185 404.1481 374.8148 440 389.4815" style="fill:#5b9542"/>
    <polygon points="373.1852 402.5185 368.2963 433.4815 424.0658 399.2593 373.1852 402.5185" style="fill:#568d3f"/>
  </g>
  <g>
    <g>
      <polygon points="246.0741 174.3704 250.963 242.8148 285.1852 215.1111 246.0741 174.3704" style="fill:#df2525"/>
      <polygon points="265.6296 203.7037 250.963 242.8148 246.0741 174.3704 265.6296 203.7037" style="fill:#f12d2d"/>
    </g>
    <g>
      <polygon points="322.6667 171.1111 299.8519 223.2593 332.4444 226.5185 322.6667 171.1111" style="fill:#70b652"/>
      <polygon points="299.8519 223.2593 325.8301 189.037 332.4444 226.5185 299.8519 223.2593" style="fill:#68ab4c"/>
      <polygon points="322.6667 171.1111 319.4074 225.2148 328.7061 205.3333 322.6667 171.1111" style="fill:#5b9643"/>
    </g>
    <g>
      <polygon points="392.7407 189.037 353.6296 228.963 392.7407 242.8148 392.7407 189.037" style="fill:#3f90e5"/>
      <polygon points="392.7407 189.037 379.7037 238.1977 392.7407 242.8148 392.7407 189.037" style="fill:#3475c3"/>
      <polygon points="387.8519 229.7778 379.7037 238.1977 387.8519 241.0835 387.8519 229.7778" style="fill:#2f6bb7"/>
    </g>
    <g>
      <polygon points="448.1481 285.1852 418.8148 260.7407 453.037 234.6667 448.1481 285.1852" style="fill:#fbd841"/>
      <polygon points="418.8148 260.7407 450.5137 260.7407 448.1481 285.1852 418.8148 260.7407" style="fill:#f1ba38"/>
      <polygon points="453.037 234.6667 434.4593 273.7778 448.1481 285.1852 453.037 234.6667" style="fill:#e3942c"/>
      <polygon points="440.6518 260.7407 433.4815 272.963 448.1481 285.1852 440.6518 260.7407" style="fill:#e79f2f"/>
    </g>
    <g>
      <polygon points="470.963 290.0741 493.7778 317.7778 508.4444 268.8889 470.963 290.0741" style="fill:#fc94fd"/>
      <polygon points="470.963 290.0741 502.7407 287.9014 493.7778 317.7778 470.963 290.0741" style="fill:#ef80f6"/>
      <polygon points="493.7778 317.7778 495.4074 276.2574 508.4444 268.8889 493.7778 317.7778" style="fill:#e877f2"/>
      <polygon points="495.4074 276.2574 502.7407 287.9014 493.7778 317.7778 495.4074 276.2574" style="fill:#db63eb"/>
    </g>
  </g>
</svg>
