<?xml version="1.0" encoding="UTF-8"?>
<svg id="_图层_1" xmlns="http://www.w3.org/2000/svg" version="1.1" viewBox="0 0 108 108">
  <!-- Generator: Adobe Illustrator 29.3.1, SVG Export Plug-In . SVG Version: 2.1.0 Build 151)  -->
  <defs>
    <style>
      .st0 {
        fill: #006a65;
      }

      .st1 {
        fill: #fff;
      }

      .st2 {
        fill: #ed171f;
      }

      .st3 {
        fill: #082f67;
      }
    </style>
  </defs>
  <g>
    <path class="st2" d="M45.3,80.7h9.45c1.05,0,1.65.75,1.35,1.8l-3.3,14.25c-.3,1.05-1.2,1.8-2.25,1.8h-9.45c-1.05,0-1.65-.75-1.35-1.8l3.3-14.25c.3-1.05,1.2-1.8,2.25-1.8"/>
    <path class="st3" d="M53.55,80.7h9.3c1.05,0,.6.75.3,1.8l-3.3,14.25c-.3,1.05-.15,1.8-1.2,1.8h-9.3c-1.05,0-1.65-.75-1.35-1.8l3.3-14.25c.3-1.05.75-1.8,1.8-1.8"/>
    <path class="st0" d="M63,80.7h3.75c1.05,0,1.65.75,1.35,1.8l-3.3,14.25c-.3,1.05-1.2,1.8-2.25,1.8h-4.95c-1.05,0-1.65-.75-1.35-1.8l3.3-14.25c.3-1.05,1.2-1.8,2.25-1.8h1.2Z"/>
  </g>
  <g>
    <path class="st1" d="M29.7,62.4c-1.8,0-2.85-1.05-2.55-2.85l1.5-6.45h1.8l-1.5,6.45c-.15.75.3,1.35,1.05,1.35s1.5-.45,1.65-1.35l1.5-6.45h1.8l-1.5,6.45c-.45,1.8-1.95,2.85-3.75,2.85h0Z"/>
    <path class="st1" d="M38.55,62.4l1.05-4.5c.15-.75-.15-1.05-.9-1.05s-.75,0-1.05.15l-1.2,5.4h-1.8l1.5-6.45c.75-.3,1.65-.45,2.85-.45,2.1,0,2.85.9,2.4,2.25l-1.05,4.65h-1.8Z"/>
    <path class="st1" d="M42,62.4l1.5-6.9h1.8l-1.5,6.9h-1.8ZM44.7,54.45c-.6,0-.9-.45-.75-.9,0-.45.6-.9,1.2-.9s.9.45.75.9c0,.45-.6.9-1.2.9Z"/>
    <path class="st1" d="M48.15,62.55c-1.95,0-2.7-1.5-2.25-3.6s1.95-3.6,3.9-3.6,2.7,1.5,2.25,3.6-1.95,3.6-3.9,3.6h0ZM49.5,56.7c-.9,0-1.5.9-1.95,2.25-.3,1.35,0,2.25.9,2.25s1.5-.75,1.95-2.25c.3-1.35,0-2.25-.9-2.25h0Z"/>
    <path class="st1" d="M56.7,62.4l1.05-4.5c.15-.75-.15-1.05-.9-1.05s-.75,0-1.05.15l-1.2,5.4h-1.8l1.5-6.45c.75-.3,1.65-.45,2.85-.45,2.1,0,2.85.9,2.4,2.25l-1.05,4.65s-1.8,0-1.8,0Z"/>
    <path class="st1" d="M63.6,58.8h-.9l-.75,3.6h-1.8l2.1-8.85c.75-.3,1.8-.45,2.7-.45,2.25,0,3.3,1.2,2.85,3-.45,1.65-1.95,2.85-4.2,2.85h0v-.15ZM64.65,54.3h-.9l-.6,2.85h.75c1.2,0,2.1-.6,2.25-1.5.3-1.05-.3-1.5-1.35-1.5l-.15.15Z"/>
    <path class="st1" d="M70.2,62.55c-2.1,0-2.85-.75-2.55-2.25.45-1.8,2.4-2.25,4.5-2.4v-.3c.3-.75-.15-1.05-1.05-1.05s-1.5.15-1.95.45v-1.2c.45-.3,1.5-.45,2.55-.45,1.8,0,2.55.75,2.25,2.4l-.9,4.2c-.6.3-1.65.45-2.7.45l-.15.15ZM72,59.1c-1.35,0-2.4.15-2.7,1.2,0,.6.3,1.05,1.2,1.05h1.05l.45-2.1v-.15Z"/>
    <path class="st1" d="M76.5,65.1h-1.8l1.65-2.7-1.05-6.9h1.95l.3,4.35v1.05h0s.15-.6.45-1.05l2.25-4.35h1.95l-5.85,9.6h.15Z"/>
  </g>
  <g>
    <path class="st1" d="M14.4,26.4h20.25c.9,0,1.65-.75,1.65-1.65s-.75-1.65-1.65-1.65H14.4c-.9,0-1.65.75-1.65,1.65s.75,1.65,1.65,1.65Z"/>
    <path class="st1" d="M45,29.4c0-.9-.75-1.65-1.65-1.65s-1.65.75-1.65,1.65v15.6h0c0,.9.75,1.65,1.65,1.65s1.65-.75,1.65-1.65h0v-15.6h0Z"/>
    <path class="st1" d="M86.7,36.75h0l-4.95-4.95h0c-.6-.6-1.65-.6-2.4,0-.6.6-.6,1.65,0,2.4h0l4.95,4.95h0c.6.6,1.65.6,2.4,0,.6-.6.6-1.65,0-2.4h0Z"/>
    <path class="st1" d="M36.15,31.65H12.75c-.9,0-1.65.75-1.65,1.65s.75,1.65,1.65,1.65h3.75l-2.7,6.9h0c0,.45-.15.75-.15,1.2,0,1.95,1.5,3.45,3.45,3.45h15.3c2.1,0,3.75-1.65,3.75-3.75s0-1.05-.3-1.5l-1.2-2.7h0c-.45-.9-1.35-1.2-2.25-.75s-1.2,1.35-.75,2.25h0l.9,1.95h0v.45c0,.6-.45,1.05-1.05,1.05h-13.05c-.6,0-1.05-.45-1.05-1.05s0-.3,0-.45h0l2.7-6.9h15.9c.9,0,1.65-.75,1.65-1.65s-.75-1.65-1.65-1.65h0l.15-.15Z"/>
    <path class="st1" d="M96.15,25.95h-2.1v-2.4h0c0-.9-.75-1.65-1.65-1.65s-1.65.75-1.65,1.65h0v2.4h-10.8c-.9,0-1.65.75-1.65,1.65s.75,1.65,1.65,1.65h10.8v13.2c0,.6-.45,1.05-1.05,1.05h-1.35c-.9,0-1.65.75-1.65,1.65s.75,1.65,1.65,1.65h2.4c1.95,0,3.6-1.65,3.6-3.6h0v-13.95h2.1c.9,0,1.65-.75,1.65-1.65s-.75-1.65-1.65-1.65h-.3Z"/>
    <path class="st1" d="M62.55,42.3c0,.6-.45,1.05-1.05,1.05h-1.35c-.9,0-1.65.75-1.65,1.65s.75,1.65,1.65,1.65h2.4c1.95,0,3.6-1.65,3.6-3.6v-6.15l-3.3,3.3v2.1h-.3Z"/>
    <path class="st1" d="M75.9,27l-3.3,3.3v14.7h0c0,.9.75,1.65,1.65,1.65s1.65-.75,1.65-1.65v-18Z"/>
    <g>
      <path class="st1" d="M75.9,22.5c-.6-.6-1.65-.6-2.4,0h0l-7.65,7.65v-3.45h0c0-1.95-1.65-3.6-3.6-3.6h-15c-.3,0-.6,0-.75-.3l-.6-.6c-.6-.6-1.65-.6-2.25,0s-.6,1.65,0,2.25h0l1.05,1.05h0c.45.45,1.05.6,1.8.6h14.85c.6,0,1.05.45,1.05,1.05v6.15l-1.65,1.65-5.4-5.4h0c-.6-.6-1.65-.6-2.4,0h0l-1.2,1.2,7.5,7.5h0c.75.9,2.1.9,3,0h0l13.5-13.5h0c.6-.6.6-1.65,0-2.4h0l.15.15Z"/>
      <path class="st1" d="M51.9,31.05l-5.4,5.4h0c-.6.6-.6,1.65,0,2.4.6.6,1.65.6,2.4,0h0l4.35-4.35-1.2-3.45h-.15Z"/>
    </g>
  </g>
</svg>