<?xml version="1.0" encoding="utf-8"?>
<!-- Generator: Adobe Illustrator 25.4.1, SVG Export Plug-In . SVG Version: 6.00 Build 0)  -->
<svg version="1.1" id="图层_1" xmlns="http://www.w3.org/2000/svg" xmlns:xlink="http://www.w3.org/1999/xlink" x="0px" y="0px"
	 viewBox="0 0 108 108" enable-background="new 0 0 108 108" xml:space="preserve">
<path d="M67.254,28.898H40.746c-6.349,0-11.496,5.147-11.496,11.496v26.508c0,6.349,5.147,11.496,11.496,11.496h8.684L64.758,90
	V79.102c0-0.388,0.315-0.703,0.703-0.703h1.793c6.349,0,11.496-5.147,11.496-11.496V40.395
	C78.75,34.045,73.603,28.898,67.254,28.898z M70.405,53.075l-10.717,3.482l6.623,9.117c0.229,0.314,0.158,0.754-0.155,0.982
	l-4.551,3.307c-0.314,0.228-0.754,0.158-0.982-0.156L54,60.69l-6.623,9.116c-0.228,0.314-0.668,0.384-0.982,0.156l-4.551-3.307
	c-0.314-0.228-0.384-0.668-0.155-0.982l6.623-9.117l-10.717-3.482c-0.369-0.12-0.571-0.517-0.451-0.886l1.738-5.349
	c0.12-0.37,0.517-0.572,0.887-0.451l10.716,3.482V38.602c0-0.388,0.315-0.703,0.703-0.703h5.625c0.388,0,0.703,0.315,0.703,0.703
	V49.87l10.716-3.482c0.37-0.12,0.766,0.082,0.887,0.451l1.738,5.349C70.976,52.558,70.774,52.954,70.405,53.075z"/>
</svg>
