<?xml version="1.0" encoding="UTF-8"?>
<svg id="_图层_1" data-name="图层_1" xmlns="http://www.w3.org/2000/svg" version="1.1" xmlns:xlink="http://www.w3.org/1999/xlink" viewBox="0 0 108 108">
  <!-- Generator: Adobe Illustrator 29.3.1, SVG Export Plug-In . SVG Version: 2.1.0 Build 151)  -->
  <path d="M66.1,31h-24.3c-5.8,0-10.5,4.7-10.5,10.5v24.3c0,5.8,4.7,10.5,10.5,10.5h8l14.1,10.6v-10c0-.4.3-.6.6-.6h1.6c5.8,0,10.5-4.7,10.5-10.5v-24.3c0-5.8-4.7-10.5-10.5-10.5ZM69,53.2l-9.8,3.2,6.1,8.4c.2.3.1.7-.1.9l-4.2,3c-.3.2-.7.1-.9-.1l-6.1-8.4-6.1,8.4c-.2.3-.6.4-.9.1l-4.2-3c-.3-.2-.4-.6-.1-.9l6.1-8.4-9.8-3.2c-.3-.1-.5-.5-.4-.8l1.6-4.9c.1-.3.5-.5.8-.4l9.8,3.2v-10.3c0-.4.3-.6.6-.6h5.2c.4,0,.6.3.6.6v10.3l9.8-3.2c.3-.1.7,0,.8.4l1.6,4.9c.1.3,0,.7-.4.8Z"/>
</svg>