<?xml version="1.0" encoding="utf-8"?>
<!-- Generator: Adobe Illustrator 25.4.1, SVG Export Plug-In . SVG Version: 6.00 Build 0)  -->
<svg version="1.1" id="图层_1" xmlns="http://www.w3.org/2000/svg" xmlns:xlink="http://www.w3.org/1999/xlink" x="0px" y="0px"
	 viewBox="0 0 108 108" enable-background="new 0 0 108 108" xml:space="preserve">
<path fill="#FFFFFF" d="M73.881,16.348H34.119c-9.524,0-17.244,7.72-17.244,17.244v39.762c0,9.524,7.72,17.244,17.244,17.244h13.025
	L70.137,108V91.652c0-0.582,0.472-1.055,1.055-1.055h2.689c9.524,0,17.244-7.72,17.244-17.244V33.592
	C91.125,24.068,83.405,16.348,73.881,16.348z M78.608,52.612l-16.076,5.223l9.935,13.675c0.343,0.47,0.237,1.131-0.233,1.472
	l-6.826,4.96c-0.471,0.342-1.132,0.237-1.473-0.234L54,64.034l-9.935,13.674c-0.342,0.471-1.002,0.576-1.473,0.234l-6.826-4.96
	c-0.47-0.342-0.576-1.002-0.233-1.472l9.935-13.675l-16.076-5.223c-0.554-0.18-0.856-0.775-0.677-1.329l2.607-8.024
	c0.18-0.555,0.775-0.857,1.33-0.677l16.074,5.223V30.902c0-0.582,0.472-1.055,1.055-1.055h8.438c0.582,0,1.055,0.472,1.055,1.055
	v16.902l16.074-5.223c0.555-0.18,1.15,0.122,1.33,0.677l2.607,8.024C79.464,51.837,79.162,52.432,78.608,52.612z"/>
</svg>
