<svg xmlns="http://www.w3.org/2000/svg" viewBox="0 0 108 108">
  <g>
    <path d="M49.3981,55.543h-12.8463c-1.269,0-2.3018-1.0322-2.3018-2.3018v-16.6895c0-1.269,1.0327-2.3018,2.3018-2.3018h19.6416c1.0186,0,1.9346.48,2.5156,1.3164.5801.8359.708,1.8623.3516,2.8154l-3.6553,9.7758c.5026-.1191,1.0172-.2006,1.5469-.2006h.9303l3.2853-8.787c1.2977-3.4708-1.2686-7.17-4.974-7.17h-19.642c-2.5138,0-4.5518,2.0379-4.5518,4.5517v16.6897c0,2.5138,2.038,4.5517,4.5518,4.5517h12.0049l.8414-2.2501Z"/>
    <path d="M50.4885,52.6267l.0936-.2502c.2772-.742.6886-1.4058,1.1847-1.9911-1.8262-.3533-3.4149-.8619-4.7422-1.7109,2.1089-2.2607,2.788-5.0562,3.1824-7.571h3.0345v-2.2759h-6.8276l-.569-2.6552-2.4655.531.3793,2.1241h-6.4482v2.2759h10.6207c-.7245,2.5907-1.5059,4.491-2.7993,5.9248-.88-1.0279-1.5893-2.3403-2.1317-4.0283h-2.2759c0,2.0217.9559,3.9714,2.4807,5.5986-1.4376.861-3.3265,1.4869-5.8945,1.9875v2.2759c3.4783-.4324,5.9931-1.3617,7.8214-2.5869,1.5726,1.1246,3.4337,1.9525,5.3568,2.3516Z"/>
  </g>
  <g>
    <path d="M71.4482,50.2069h-14.4955c-1.899,0-3.5984,1.179-4.2634,2.9577h0l-5.8571,15.6653c-1.2977,3.4708,1.2686,7.17,4.974,7.17h19.642c2.5138,0,4.5518-2.0379,4.5518-4.5517v-16.6897c0-2.5138-2.038-4.5517-4.5518-4.5517ZM68.1559,70.6896l-1.3731-3.0345h-8.8759l-1.3731,3.0345h-2.9131l7.2069-15.931h3.0345l7.2069,15.931h-2.9131Z"/>
    <polygon points="62.1969 58.1724 59.1093 65 65.5803 65 62.4927 58.1724 62.1969 58.1724"/>
  </g>
  <g>
    <path d="M76,38v4c0,.5523-.4477,1-1,1h0c-.5523,0-1-.4477-1-1v-4c0-2.2091-1.7909-4-4-4h-4c-.5523,0-1-.4477-1-1h0c0-.5523.4477-1,1-1h4c3.3137,0,6,2.6863,6,6Z"/>
    <path d="M32,70v-4c0-.5523.4477-1,1-1h0c.5523,0,1,.4477,1,1v4c0,2.2091,1.7909,4,4,4h4c.5523,0,1,.4477,1,1h0c0,.5523-.4477,1-1,1h-4c-3.3137,0-6-2.6863-6-6Z"/>
  </g>
</svg>
