<svg xmlns="http://www.w3.org/2000/svg" viewBox="0 0 108 108">
  <g>
    <path d="M56.6025,27.9h-23.3026c-2.9823,0-5.4,2.4177-5.4,5.4v19.8c0,2.9824,2.4177,5.4,5.4,5.4h17.197c2.2529,0,4.269-1.3987,5.058-3.5089l6.9485-18.5848c1.5396-4.1177-1.5049-8.5063-5.901-8.5063ZM59.6934,35.356l-6.9487,18.5845c-.3486.9331-1.252,1.5596-2.2476,1.5596h-17.1973c-1.3232,0-2.3999-1.0767-2.3999-2.3999v-19.8003c0-1.3232,1.0767-2.3999,2.3999-2.3999h23.3027c1.0977,0,2.0859.5171,2.7109,1.4189.626.9019.7646,2.0088.3799,3.0371Z"/>
    <path d="M49.5,38.7c-.468,2.9835-1.2735,6.3-3.7755,8.982,1.8855,1.206,4.1895,1.8495,6.9255,2.268l-.9,2.7c-2.943-.2205-5.886-1.3635-8.271-3.069-2.169,1.4535-5.1525,2.556-9.279,3.069v-2.7c3.0465-.594,5.2875-1.3365,6.993-2.358-1.809-1.9305-2.943-4.2435-2.943-6.642h2.7c.6435,2.0025,1.485,3.5595,2.529,4.779,1.5345-1.701,2.4615-3.9555,3.321-7.029h-12.6v-2.7h7.65l-.45-2.52,2.925-.63.675,3.15h8.1v2.7h-3.6Z"/>
  </g>
  <g>
    <path d="M74.7,49.5h-17.197c-2.2529,0-4.269,1.3986-5.058,3.5089l-6.9485,18.5848c-1.5396,4.1177,1.5049,8.5063,5.901,8.5063h23.3026c2.9823,0,5.4-2.4177,5.4-5.4v-19.8c0-2.9823-2.4177-5.4-5.4-5.4ZM70.794,73.8l-1.629-3.6h-10.53l-1.629,3.6h-3.456l8.55-18.9h3.6l8.55,18.9h-3.456Z"/>
    <polygon points="63.7245 58.95 60.0615 67.05 67.7385 67.05 64.0755 58.95 63.7245 58.95"/>
  </g>
  <g>
    <path d="M78.3,40.05c0,.4971.4029.9.9.9h0c.4971,0,.9-.4029.9-.9v-4.95c0-3.9765-3.2235-7.2-7.2-7.2h-4.95c-.4971,0-.9.4029-.9.9h0c0,.4971.4029.9.9.9h4.95c2.9823,0,5.4,2.4177,5.4,5.4v4.95Z"/>
    <path d="M29.7,67.95c0-.4971-.4029-.9-.9-.9h0c-.4971,0-.9.4029-.9.9v4.95c0,3.9764,3.2235,7.2,7.2,7.2h4.95c.4971,0,.9-.4029.9-.9h0c0-.4971-.4029-.9-.9-.9h-4.95c-2.9823,0-5.4-2.4177-5.4-5.4v-4.95Z"/>
  </g>
</svg>
