<svg xmlns="http://www.w3.org/2000/svg" viewBox="0 0 108 108">
  <g>
    <path d="M50.3629,56.1377h-15.397c-1.6353,0-2.9658-1.3301-2.9658-2.9653v-18.207c0-1.6353,1.3306-2.9653,2.9658-2.9653h21.4277c1.2617,0,2.3975.5947,3.1162,1.6313.7188,1.0361.8779,2.3086.4365,3.4897l-4.4922,12.014c.5638-.1765,1.1579-.2728,1.7666-.2728h.4708l4.1279-11.0404c1.4156-3.7864-1.3839-7.8219-5.4262-7.8219h-21.4276c-2.7424,0-4.9655,2.2231-4.9655,4.9655v18.2069c0,2.7423,2.2231,4.9655,4.9655,4.9655h14.6493l.7479-2.0002Z"/>
    <path d="M49.8621,39.931c-.4303,2.7434-1.171,5.7931-3.4717,8.2593,1.7338,1.109,3.8524,1.7007,6.3683,2.0855l-.8276,2.4828c-2.7062-.2028-5.4124-1.2538-7.6055-2.8221-1.9945,1.3366-4.7379,2.3503-8.5324,2.8221v-2.4828c2.8014-.5462,4.8621-1.229,6.4303-2.1683-1.6634-1.7752-2.7062-3.9021-2.7062-6.1076h2.4828c.5917,1.8414,1.3655,3.2731,2.3255,4.3945,1.411-1.5641,2.2634-3.6372,3.0538-6.4634h-11.5862v-2.4828h7.0345l-.4138-2.3172,2.6897-.5793.6207,2.8966h7.4483v2.4828s-3.3103,0-3.3103,0Z"/>
  </g>
  <g>
    <polygon points="62.9421 58.5518 59.5738 66 66.6331 66 63.2648 58.5518 62.9421 58.5518"/>
    <path d="M73.0344,49.8621h-15.8133c-2.0717,0-3.9256,1.2862-4.6511,3.2266h.0001l-6.3895,17.0895c-1.4156,3.7864,1.3839,7.8219,5.4262,7.8219h21.4276c2.7424,0,4.9655-2.2231,4.9655-4.9655v-18.2069c0-2.7423-2.2231-4.9655-4.9655-4.9655ZM69.4427,72.2069l-1.4979-3.3104h-9.6827l-1.4979,3.3104h-3.178l7.8621-17.3793h3.3103l7.8621,17.3793h-3.1779Z"/>
  </g>
  <g>
    <path d="M76.3448,41.1724c0,.4571.3705.8276.8276.8276h0c.4571,0,.8276-.3705.8276-.8276v-4.5517c0-3.6566-2.9641-6.6207-6.6207-6.6207h-4.5517c-.4571,0-.8276.3705-.8276.8276h0c0,.4571.3705.8276.8276.8276h4.5517c2.7423,0,4.9655,2.2232,4.9655,4.9655,0,0,0,4.5517,0,4.5517Z"/>
    <path d="M31.6552,66.8276c0-.4571-.3705-.8276-.8276-.8276h0c-.4571,0-.8276.3705-.8276.8276v4.5517c0,3.6565,2.9641,6.6207,6.6207,6.6207h4.5517c.4571,0,.8276-.3705.8276-.8276h0c0-.4571-.3705-.8276-.8276-.8276h-4.5517c-2.7423,0-4.9655-2.2232-4.9655-4.9655,0,0,0-4.5517,0-4.5517Z"/>
  </g>
</svg>
