<svg xmlns="http://www.w3.org/2000/svg" viewBox="0 0 108 108">
  <defs/>
  <g>
    <path d="M56.1448,55.367l9.5843-25.6342c2.1234-5.6796-2.0759-11.7328-8.1393-11.7328H25.4484c-4.1135,0-7.4483,3.3348-7.4483,7.4483v27.3103c0,4.1135,3.3348,7.4483,7.4483,7.4483h23.72c3.1074,0,5.8884-1.9292,6.9765-4.8399h-.0001Z" style="fill:#0167ff"/>
    <path d="M47.7931,32.8966c-.6455,4.1152-1.7565,8.6897-5.2076,12.389,2.6007,1.6634,5.7786,2.551,9.5524,3.1283l-1.2414,3.7241c-4.0593-.3041-8.1186-1.8807-11.4083-4.2331-2.9917,2.0048-7.1069,3.5255-12.7986,4.2331v-3.7241c4.2021-.8193,7.2931-1.8434,9.6455-3.2524-2.4952-2.6628-4.0593-5.8531-4.0593-9.1614h3.7241c.8876,2.7621,2.0483,4.9097,3.4883,6.5917,2.1166-2.3462,3.3952-5.4559,4.5807-9.6952h-17.3793v-3.7241h10.5517l-.6207-3.4759,4.0345-.869.931,4.3448h11.1724v3.7241s-4.9655,0-4.9655,0Z" style="fill:#fff"/>
  </g>
  <g>
    <path d="M51.8552,52.633l-9.5843,25.6342c-2.1234,5.6796,2.0759,11.7328,8.1393,11.7328h32.1414c4.1135,0,7.4483-3.3348,7.4483-7.4483v-27.3103c0-4.1135-3.3348-7.4483-7.4483-7.4483h-23.72c-3.1074,0-5.8884,1.9292-6.9765,4.8399h.0001Z" style="fill:#61cffd"/>
    <path d="M70.1379,55.2414h-4.9655l-11.7931,26.069h4.7669l2.2469-4.9655h14.5241l2.2469,4.9655h4.7669l-11.7931-26.069ZM62.3607,72l5.0524-11.1724h.4841l5.0524,11.1724h-10.589Z" style="fill:#fff"/>
  </g>
  <g>
    <path d="M87.5172,34.7586c0,.6857.5557,1.2414,1.2414,1.2414h0c.6857,0,1.2414-.5557,1.2414-1.2414v-6.8276c0-5.4848-4.4462-9.931-9.931-9.931h-6.8276c-.6857,0-1.2414.5557-1.2414,1.2414h0c0,.6857.5557,1.2414,1.2414,1.2414h6.8276c4.1135,0,7.4483,3.3348,7.4483,7.4483,0,0,0,6.8276,0,6.8276Z" style="fill:#d9dde3"/>
    <path d="M20.4828,73.2414c0-.6857-.5557-1.2414-1.2414-1.2414h0c-.6857,0-1.2414.5557-1.2414,1.2414v6.8276c0,5.4847,4.4462,9.931,9.931,9.931h6.8276c.6857,0,1.2414-.5557,1.2414-1.2414h0c0-.6857-.5557-1.2414-1.2414-1.2414h-6.8276c-4.1135,0-7.4483-3.3348-7.4483-7.4483,0,0,0-6.8276,0-6.8276Z" style="fill:#d9dde3"/>
  </g>
</svg>
