<svg xmlns="http://www.w3.org/2000/svg" viewBox="0 0 108 108">
  <defs/>
  <g>
    <path d="M55.9661,55.2531l8.7856-23.498c1.9465-5.2063-1.9029-10.7551-7.461-10.7551h-29.4629c-3.7707,0-6.8276,3.0569-6.8276,6.8276v25.0345c0,3.7707,3.0569,6.8276,6.8276,6.8276h21.7433c2.8485,0,5.3977-1.7685,6.3952-4.4365h-.0001Z" style="fill:#0167ff"/>
    <path d="M48.3103,34.6552c-.5917,3.7722-1.6102,7.9655-4.7736,11.3565,2.384,1.5248,5.2971,2.3384,8.7564,2.8676l-1.1379,3.4138c-3.721-.2788-7.4421-1.724-10.4576-3.8803-2.7424,1.8378-6.5147,3.2317-11.7321,3.8803v-3.4138c3.8519-.751,6.6853-1.6898,8.8417-2.9814-2.2872-2.4409-3.721-5.3653-3.721-8.3979h3.4138c.8136,2.5319,1.8776,4.5005,3.1976,6.0424,1.9402-2.1507,3.1122-5.0012,4.199-8.8872h-15.931v-3.4138h9.6724l-.569-3.1862,3.6983-.7966.8534,3.9828h10.2414v3.4138s-4.5517,0-4.5517,0Z" style="fill:#fff"/>
  </g>
  <g>
    <path d="M52.0339,52.7469l-8.7856,23.498c-1.9465,5.2063,1.9029,10.7551,7.461,10.7551h29.4629c3.7707,0,6.8276-3.0569,6.8276-6.8276v-25.0345c0-3.7707-3.0569-6.8276-6.8276-6.8276h-21.7433c-2.8485,0-5.3977,1.7685-6.3952,4.4365h.0001Z" style="fill:#61cffd"/>
    <path d="M68.7931,55.1379h-4.5517l-10.8103,23.8966h4.3697l2.0597-4.5517h13.3138l2.0597,4.5517h4.3697l-10.8103-23.8966ZM61.664,70.5l4.6314-10.2414h.4438l4.6314,10.2414h-9.7066Z" style="fill:#fff"/>
  </g>
  <g>
    <path d="M87,30v6c0,.8284-.6716,1.5-1.5,1.5h0c-.8284,0-1.5-.6716-1.5-1.5v-6c0-3.3137-2.6863-6-6-6h-6c-.8284,0-1.5-.6716-1.5-1.5h0c0-.8284.6716-1.5,1.5-1.5h6c4.9706,0,9,4.0294,9,9Z" style="fill:#d9dde3"/>
    <path d="M21,78v-6c0-.8284.6716-1.5,1.5-1.5h0c.8284,0,1.5.6716,1.5,1.5v6c0,3.3137,2.6863,6,6,6h6c.8284,0,1.5.6716,1.5,1.5h0c0,.8284-.6716,1.5-1.5,1.5h-6c-4.9706,0-9-4.0294-9-9Z" style="fill:#d9dde3"/>
  </g>
</svg>
