<svg xmlns="http://www.w3.org/2000/svg" viewBox="0 0 108 108">
  <defs/>
  <g>
    <path d="M56.3325,55.4867l10.4228-27.8772c2.3093-6.1765-2.2574-12.7595-8.8516-12.7595H22.95c-4.4735,0-8.1,3.6265-8.1,8.1v29.7c0,4.4735,3.6265,8.1,8.1,8.1h25.7954c3.3793,0,6.4036-2.098,7.587-5.2633Z" style="fill:#0167ff"/>
    <path d="M47.25,31.05c-.702,4.4753-1.9103,9.45-5.6633,13.473,2.8283,1.809,6.2842,2.7743,10.3883,3.402l-1.35,4.05c-4.4145-.3307-8.829-2.0453-12.4065-4.6035-3.2535,2.1802-7.7288,3.834-13.9185,4.6035v-4.05c4.5698-.891,7.9313-2.0048,10.4895-3.537-2.7135-2.8958-4.4145-6.3653-4.4145-9.963h4.05c.9652,3.0038,2.2275,5.3392,3.7935,7.1685,2.3018-2.5515,3.6923-5.9333,4.9815-10.5435h-18.9v-4.05h11.475l-.675-3.78,4.3875-.945,1.0125,4.725h12.15v4.05h-5.4Z" style="fill:#fff"/>
  </g>
  <g>
    <path d="M51.6675,52.5133l-10.4228,27.8772c-2.3093,6.1765,2.2574,12.7595,8.8516,12.7595h34.9538c4.4735,0,8.1-3.6265,8.1-8.1v-29.7c0-4.4735-3.6265-8.1-8.1-8.1h-25.7954c-3.3793,0-6.4036,2.098-7.587,5.2633Z" style="fill:#61cffd"/>
    <path d="M71.55,55.35h-5.4l-12.825,28.35h5.184l2.4435-5.4h15.795l2.4435,5.4h5.184l-12.825-28.35ZM63.0922,73.575l5.4945-12.15h.5265l5.4945,12.15h-11.5155Z" style="fill:#fff"/>
  </g>
  <g>
    <path d="M90.45,33.075c0,.7456.6044,1.35,1.35,1.35h0c.7456,0,1.35-.6044,1.35-1.35v-7.425c0-5.9647-4.8353-10.8-10.8-10.8h-7.425c-.7456,0-1.35.6044-1.35,1.35h0c0,.7456.6044,1.35,1.35,1.35h7.425c4.4735,0,8.1,3.6265,8.1,8.1v7.425Z" style="fill:#d9dde3"/>
    <path d="M17.55,74.925c0-.7456-.6044-1.35-1.35-1.35h0c-.7456,0-1.35.6044-1.35,1.35v7.425c0,5.9647,4.8353,10.8,10.8,10.8h7.425c.7456,0,1.35-.6044,1.35-1.35h0c0-.7456-.6044-1.35-1.35-1.35h-7.425c-4.4735,0-8.1-3.6265-8.1-8.1v-7.425Z" style="fill:#d9dde3"/>
  </g>
</svg>
