<?xml version="1.0" encoding="UTF-8"?>
<svg id="_图层_1" data-name="图层_1" xmlns="http://www.w3.org/2000/svg" version="1.1" viewBox="0 0 108 108">
  <!-- Generator: Adobe Illustrator 29.3.1, SVG Export Plug-In . SVG Version: 2.1.0 Build 151)  -->
  <path d="M77.498,59.825l-3.076,2.919-2.47-2.841-.029,12.044-4.809-.126,1.169-27.9h3.706l-.025,10.652,5.534,5.252ZM62.772,60.158l.257-4.906,3.404-.786-.663-4.184-2.51.561.363-6.921h-3.731l-.713,7.833-6.476,1.448.305,4.362,5.763-1.331-.542,5.966-6.724,3.022-.437-5.558-11.881,2.963c0,5.011-.349,7.575-.802,9.973l4.142.693c.259-1.204.639-4.014.735-6.979l3.612-1.173.787,8.485,10.046-5.684-.421,4.623,4.814.421.407-7.76,3.793-2.146-.84-4.129-2.687,1.207ZM56.281,40.274l-.377,8.631-3.445.795-.299-4.276-6.158,1.197v1.647l4.238-.847.337,4.282-4.574,1.098v1.804l4.713-1.132.357,4.53-9.579,2.211.073-6.348-3.743.898c-.681,6.343-1.743,12.507-2.911,17.203l-4.409-1.1c1.437-6.097,2.677-15.009,3.14-21.577l-1.259.245-.983-6.208,10.296-1.264.076-7.283,4.23-.408v2.134l5.369-.47.246,3.519-5.614.491v1.486l10.279-1.262ZM41.639,47.47l-3.253.632c-.034.569-.072,1.14-.114,1.712l3.348-.669.019-1.675ZM68.842,40.566l1.076-.038-.067-3.835-4.504.394-.263,5.798h1.896l-.157-2.25.574-.02.826,2.27h1.801l-1.182-2.32ZM68.582,39.025l-1.86.169-.06-.863,1.92-.175v.868ZM61.554,37.416l2.384-.125-.293,5.595h-3.658l.127-1.393,1.849-.129.239-2.622-.773.054.126-1.38Z"/>
</svg>