<?xml version="1.0" encoding="UTF-8"?>
<svg id="_图层_1" data-name="图层_1" xmlns="http://www.w3.org/2000/svg" version="1.1" xmlns:xlink="http://www.w3.org/1999/xlink" viewBox="0 0 108 108">
  <!-- Generator: Adobe Illustrator 29.3.1, SVG Export Plug-In . SVG Version: 2.1.0 Build 151)  -->
  <defs>
    <style>
      .st0 {
        fill: #ee301a;
      }

      .st1 {
        fill: #ea6331;
      }

      .st2 {
        fill: #eb3f72;
      }

      .st3 {
        fill: none;
      }

      .st4 {
        fill: #ea522f;
      }

      .st5 {
        fill: #eb645d;
        opacity: .75;
      }

      .st6 {
        fill: #e90e1f;
      }

      .st7 {
        fill: #e83942;
      }

      .st8 {
        fill: #ea2125;
      }

      .st9 {
        clip-path: url(#clippath);
      }

      .st10 {
        fill: #ea422e;
      }
    </style>
    <clipPath id="clippath">
      <rect class="st3" y="0" width="108" height="108"/>
    </clipPath>
  </defs>
  <g class="st9">
    <g>
      <rect class="st6" x="-27" y="-27" width="162" height="162" transform="translate(108 108) rotate(-180)"/>
      <polygon class="st7" points="4.728 -27 62.181 14.742 33.261 103.75 108.976 48.74 117.117 54.655 92.602 102.769 92.602 135 135 135 135 67.648 135 60.3 135 -27 4.728 -27"/>
      <g>
        <polygon class="st1" points="128.626 -27 109.213 -.174 109.213 48.326 135 67.061 135 -27 128.626 -27"/>
        <polygon class="st4" points="109.213 -1.088 109.213 -27 128.039 -27 109.213 -1.088"/>
        <polygon class="st4" points="26.652 -27 5.535 -27 62.739 14.561 34.163 102.508 108.572 48.447 108.738 -.329 26.652 -27"/>
        <polygon class="st1" points="108.738 -27 108.738 -.828 28.188 -27 108.738 -27"/>
      </g>
      <g>
        <path class="st10" d="M117.52,54.948l-24.283,47.62h31.164v-15.035c-2.904-.124-5.221-2.517-5.221-5.452,0-3.014,2.444-5.458,5.458-5.458s5.458,2.444,5.458,5.458c0,2.935-2.317,5.328-5.221,5.452v15.035h10.125v-34.92l-17.48-12.7Z"/>
        <circle class="st10" cx="124.638" cy="82.081" r="4.983"/>
        <circle class="st6" cx="124.638" cy="82.081" r="4.983"/>
        <rect class="st2" x="124.875" y="103.043" width="10.125" height="31.957"/>
        <rect class="st10" x="93.076" y="116.807" width="31.324" height="13.922"/>
        <rect class="st8" x="93.076" y="131.203" width="31.324" height="3.797"/>
        <rect class="st8" x="93.076" y="103.043" width="31.324" height="13.289"/>
        <polygon class="st5" points="124.62 39.929 112.856 63.018 135 63.018 135 62.543 135 61.345 135 60.3 124.62 39.929"/>
        <path class="st7" d="M135,61.345v-1.045l-10.38-20.371-11.764,23.089h22.144v-.475h-4.442l2.526-4.958,1.916,3.76ZM113.631,62.543l10.977-21.544,2.515,4.886-8.488,16.658h-5.004ZM119.168,62.543l8.221-16.135,2.581,5.065-5.64,11.07h-5.163ZM130.026,62.543h-5.163l5.374-10.546,2.581,5.066-2.792,5.48Z"/>
      </g>
      <path class="st0" d="M-7.62-1.688C-16.157-1.688-22.54.121-27,2.109v81.791c3.11,1.028,7.755,2.373,13.447,2.373,1.02,0,4.648-.573,9.492-1.753l-22.939,45.575v4.904H-.58L33.381,63.464c1.375-2.894,4.324-15.167,4.324-20.222C37.705,14.724,16.615-1.688-7.62-1.688ZM-7.62,64.283c-10.266,0-18.589-9.42-18.589-21.041S-17.886,22.201-7.62,22.201s18.589,9.42,18.589,21.041-8.323,21.041-18.589,21.041Z"/>
    </g>
  </g>
</svg>