<?xml version="1.0" encoding="UTF-8"?>
<svg id="_图层_1" data-name="图层_1" xmlns="http://www.w3.org/2000/svg" version="1.1" viewBox="0 0 108 108">
  <!-- Generator: Adobe Illustrator 29.3.1, SVG Export Plug-In . SVG Version: 2.1.0 Build 151)  -->
  <defs>
    <style>
      .st0 {
        fill: #fff;
      }
    </style>
  </defs>
  <path class="st0" d="M89.247,62.737l-4.615,4.379-3.706-4.262-.043,18.066-7.213-.188,1.754-41.849h5.56l-.038,15.977,8.301,7.877ZM67.158,63.236l.386-7.359,5.106-1.178-.994-6.276-3.765.842.544-10.382h-5.597l-1.069,11.75-9.714,2.172.458,6.544,8.645-1.996-.814,8.949-10.086,4.532-.655-8.337-17.822,4.444c0,7.517-.524,11.363-1.203,14.959l6.213,1.039c.389-1.806.959-6.022,1.102-10.468l5.418-1.76,1.18,12.728,15.068-8.526-.631,6.934,7.221.631.61-11.639,5.689-3.219-1.261-6.194-4.03,1.811ZM57.421,33.411l-.565,12.947-5.168,1.192-.449-6.413-9.237,1.796v2.471l6.356-1.271.505,6.422-6.861,1.647v2.706l7.07-1.698.535,6.795-14.369,3.317.11-9.522-5.615,1.347c-1.021,9.515-2.614,18.761-4.366,25.804l-6.614-1.649c2.156-9.146,4.015-22.513,4.71-32.366l-1.888.368-1.475-9.311,15.443-1.896.114-10.924,6.344-.611v3.201l8.053-.704.369,5.279-8.422.737v2.23l15.419-1.893ZM35.458,44.206l-4.88.948c-.051.853-.108,1.71-.171,2.567l5.022-1.003.029-2.512ZM76.264,33.849l1.613-.056-.1-5.752-6.755.591-.395,8.698h2.844l-.236-3.375.862-.03,1.239,3.405h2.702l-1.773-3.48ZM75.873,31.538l-2.79.254-.091-1.294,2.88-.262v1.303ZM65.33,29.124l3.576-.187-.44,8.393h-5.486l.19-2.089,2.773-.194.358-3.933-1.16.081.188-2.071Z"/>
</svg>