<?xml version="1.0" encoding="UTF-8"?>
<svg id="_图层_1" data-name="图层_1" xmlns="http://www.w3.org/2000/svg" version="1.1" viewBox="0 0 108 108">
  <!-- Generator: Adobe Illustrator 29.3.1, SVG Export Plug-In . SVG Version: 2.1.0 Build 151)  -->
  <defs>
    <style>
      .st0 {
        fill: #fff;
      }
    </style>
  </defs>
  <path class="st0" d="M93.762,85.43c-9.744-2.822-23.614-5.726-40.395-5.695-16.528.03-30.204,2.897-39.867,5.695,9.014-3.069,22.799-6.608,39.867-6.645,17.333-.037,31.316,3.554,40.395,6.645Z"/>
  <g id="_安全·畅通" data-name="安全·畅通">
    <path class="st0" d="M76.651,63.839c.008-.116.044-.23.105-.329.019-.031.042-.085.082-.09.053-.007.115.04.152.071.098.084.168.196.246.299s.169.204.291.249c.066.025.138.031.207.049.084.022.162.062.239.103.11.059.217.121.323.186.051.031.102.064.14.11.074.089.087.212.094.327.007.12,0,.26-.096.33-.07.051-.165.047-.252.052-.116.006-.23.033-.337.077-.079.033-.154.077-.235.105s-.172.04-.252.009c-.028-.011-.054-.027-.071-.051-.014-.02-.021-.043-.026-.067-.026-.102-.04-.208-.074-.308-.115-.339-.443-.582-.519-.932-.014-.063-.018-.127-.014-.191ZM90.093,72.809c-.026.051-.081.078-.132.102-.616.284-1.232.568-1.848.852-.251.116-.502.231-.765.316-1,.323-2.095.173-3.102-.13-1.006-.303-1.964-.753-2.975-1.042-1.663-.476-3.441-.503-5.137-.166-.158.031-.326.065-.477.009s-.266-.241-.187-.382c.041-.074.122-.115.2-.149.548-.244,1.153-.36,1.753-.336.148.006.316.013.421-.09.136-.133.085-.358.032-.54-.25-.862-.327-1.773-.225-2.664.043-.375.115-.768-.018-1.121-.554.005-1.105.156-1.585.433-.187.108-.397.257-.625.203-.189-.045-.255-.182-.206-.362.109-.397.497-.734.903-.784.322-.039.657.073.969-.013.536-.149.859-.838,1.415-.821.369.012.669.421.569.776-.053.187-.19.337-.295.5-.305.472-.348,1.06-.383,1.621-.025.409-.05.822.024,1.225.074.403.258.8.582,1.05.22.17.488.263.751.352.399.136.798.272,1.199.405.002-.052.008-.104.016-.154.089-.6.168-1.202.223-1.807.079-.875.105-1.754.133-2.632.009-.315.018-.629.028-.944,0-.023.02-.04.043-.038.274.027.554.049.819-.025.244-.069.458-.215.675-.346.103-.062.208-.119.315-.175-.219-.081-.439-.162-.658-.243-.15-.056-.31-.118-.402-.249-.045-.064-.07-.144-.055-.221.034-.17.24-.242.414-.242.173,0,.357.038.513-.037.082-.04.147-.108.208-.176.276-.31.51-.657.694-1.029.045-.091.084-.206.023-.286-.065-.085-.194-.071-.297-.047-.947.217-1.871.538-2.749.954-.163.077-.356.158-.516.075-.133-.07-.192-.239-.171-.388.021-.149.106-.281.199-.399.102-.129.264-.355.426-.405.192-.059.414.086.6.116.104.017.211.008.315-.007.312-.047.61-.159.905-.27.365-.138.731-.278,1.077-.459.263-.137.523-.307.678-.559.097-.157.169-.359.345-.417.107-.035.224-.004.331.033.313.106.611.256.883.443.126.087.254.191.299.337.07.225-.084.465-.28.597s-.429.192-.637.302c-.347.184-.606.496-.854.801-.16.196-.32.393-.48.589-.116.143-.235.289-.303.46-.067.167-.082.349-.086.529.347-.148.708-.263,1.078-.342.266-.057.541-.095.809-.05.268.045.531.185.672.417.155.256.142.574.143.873.003,1.738.605,3.477.295,5.188-.037.202-.09.41-.211.577-.122.167-.328.286-.533.252-.232-.039-.387-.25-.539-.43-.221-.263-.483-.491-.775-.673-.012-.008-.019-.021-.018-.035.003-.045.006-.09.01-.136.001-.017.014-.033.031-.036.397-.082.777.317,1.183.286.021-.002.037-.02.036-.041-.025-.724-.073-1.448-.133-2.17-.021.011-.043.021-.065.029-.431.167-.914.149-1.353.294-.05.016-.099.036-.147.055-.007.282-.015.563-.027.844-.01.243-.022.489-.099.72-.076.231-.225.448-.445.553-.109.052-.265.06-.325-.044-.025-.043-.026-.095-.026-.144-.002-.194-.004-.387-.006-.581-.003-.311-.007-.622-.009-.933-.088.043-.175.088-.258.139-.127.077-.246.167-.372.246-.144.09-.303.168-.473.175-.079.003-.16-.013-.232-.047-.026.348-.059.695-.108,1.049-.023.171-.055.349-.155.488,1.498.475,3.019.872,4.582.986.634.046,1.284.044,1.889-.151.587-.189,1.138-.56,1.754-.543.157.004.363.122.292.262ZM84.177,66.205c-.032.012-.064.025-.096.038.017.107-.001.246.002.334.007.175.013.35.018.525.081-.022.164-.036.248-.044.136-.012.278-.008.401.051.123.059.223.183.22.319-.003.128-.093.241-.201.309-.108.068-.235.101-.357.14-.099.032-.197.07-.293.111.004.342.005.685.002,1.027.249-.061.505-.096.759-.129.145-.019.293-.038.439-.024.112.011.224.044.317.105-.035-.403-.072-.806-.11-1.209-.036-.385-.071-.772-.16-1.15-.066-.279-.238-.507-.544-.537-.22-.021-.438.056-.645.134ZM81.926,69.244c-.016.276-.031.548-.046.818.026-.003.051-.005.075-.009.147-.023.241-.105.37-.176.28-.154.562-.305.845-.455,0-.327,0-.654.003-.982-.113.039-.227.075-.333.129-.123.063-.239.15-.377.163-.136.013-.404-.109-.371-.281.016-.08.118-.132.176-.178.083-.065.153-.143.235-.209.082-.065.178-.109.272-.155.141-.07.278-.147.41-.232.003-.147.005-.294.009-.441.006-.202.01-.416-.087-.593-.224.099-.446.204-.654.334-.09.057-.169.118-.237.199-.009.011-.017.023-.024.035-.001,0,0,.001,0,.001-.001.001-.002.002-.002.004-.003.005-.006.009-.008.015-.003.004-.005.008-.007.014-.033.074-.042.16-.056.238-.101.567-.158,1.208-.193,1.759Z"/>
    <path class="st0" d="M65.905,64.031c-.155-.166-.364-.27-.568-.37-.188-.092-.437-.176-.586-.028-.073.072-.095.18-.137.273-.171.379-.642.494-1.047.59-.052.012-.103.025-.154.039,0-.153,0-.306.001-.458.001-.512.003-1.029.12-1.528.052-.225.127-.467.035-.68-.177-.41-1.587-.734-1.515-.107.037.322.353.614.467.914.163.426.156.893.151,1.342l-.009.76c-.018.007-.036.013-.053.021-.348.149-.673.345-1.025.485-.351.139-.743.219-1.108.122-.139-.037-.27-.099-.41-.131-.172-.04-.382-.029-.495.126-.102.14-.075.266.035.383.286.306.479.608.636,1,.229.57.414,1.161.496,1.77.038.283.051.582-.069.841-.062.133-.159.266-.13.41.023.113.125.197.236.227s.229.014.341-.014c.416-.107.765-.379,1.142-.584.115-.062.233-.117.353-.17-.003.289-.007.577-.01.866-.006.521-.012,1.043-.055,1.562-.042.512-.119,1.02-.184,1.529-.037.286-.067.591.058.852.125.26.465.439.712.29.229-.138.256-.454.257-.722l.013-4.688c.206-.075.414-.142.628-.183.218-.041.443-.055.655-.123.212-.068.416-.204.496-.412.024-.062.036-.131.018-.194-.014-.052-.047-.096-.072-.143-.152-.28-.049-.624.051-.927.146-.442.279-.889.359-1.347.024-.139.045-.283.113-.407.113-.207.347-.338.427-.561.077-.214-.014-.459-.169-.625ZM61.93,68.692c-.05.012-.108.021-.15-.009-.039-.028-.051-.081-.059-.128-.024-.135-.048-.269-.072-.404-.058-.324-.116-.651-.238-.956-.098-.245-.262-.509-.252-.783.007-.199.171-.282.322-.38.371-.24.768-.437,1.174-.608-.005.42-.01.839-.015,1.259-.181.091-.366.175-.554.246-.155.058-.576.398-.349.577.03.024.071.029.11.033.262.024.527.007.784-.046l-.012.988c-.227.08-.455.156-.69.211ZM64.688,65.376c-.23.659-.252,1.37-.361,2.06-.028.18-.069.371-.201.496-.116.11-.281.148-.436.189-.097.026-.192.055-.288.086,0-.334.002-.668.003-1.002.028-.016.056-.03.083-.047.149-.092.295-.205.366-.365.071-.16.042-.375-.104-.471-.089-.058-.205-.063-.308-.037-.012.003-.023.007-.034.011.001-.387.002-.774.003-1.162.17-.061.34-.122.511-.182.157-.055.314-.11.478-.138.109-.019.238-.018.311.065.04.045.056.108.056.169.002.113-.042.222-.079.329ZM73.064,69.652c-.561,1.374-1.446,2.606-2.527,3.622-.508.477-1.088.921-1.772,1.052s-1.487-.139-1.777-.772c-.074-.162-.113-.343-.092-.52.51.36,1.1.737,1.711.612.275-.057.518-.211.746-.376,1.092-.789,1.967-1.873,2.508-3.107.236-.537.409-1.149.222-1.705-.057-.17-.16-.341-.328-.406-.094-.036-.199-.035-.3-.033-.148.003-.296.009-.444.015-.101.084-.212.157-.314.24-.458.371-.712.929-1.021,1.431-.165.268-.349.524-.55.765-.781.935-1.815,1.641-2.933,2.125-.07.03-.143.06-.219.054-.076-.006-.153-.059-.16-.135-.005-.054.027-.105.059-.149.308-.423.777-.692,1.201-.999.664-.48,1.243-1.077,1.704-1.755.159-.234.303-.477.438-.725.105-.193.204-.39.268-.601.012-.04.019-.089.025-.139-.423.045-.845.102-1.265.171-.003.055-.026.112-.05.163-.301.634-.674,1.238-1.148,1.756-.473.518-1.05.95-1.702,1.21-.098.039-.201.075-.306.067-.105-.007-.213-.068-.245-.169-.03-.095.014-.201.085-.273.07-.071.162-.116.251-.163.329-.177.624-.409.917-.641.13-.102.26-.206.366-.333.137-.164.228-.361.318-.556.068-.147.135-.293.203-.44.061-.133.109-.264.124-.408-.341.055-.667.077-1.024.069-.135-.003-.263.08-.374-.036-.143-.15-.014-.356.081-.493.899-1.288,1.798-2.575,2.696-3.863-.633.111-1.322.17-1.885-.14-.056-.031-.113-.068-.14-.127-.076-.167.14-.313.317-.362.726-.204,1.511-.248,2.164-.626.215-.125.417-.287.66-.342.267-.062.548.015.799.125.091.04.183.086.251.159.173.186.136.496-.009.704-.145.208-.371.342-.586.479-1.288.821-2.363,1.974-3.092,3.317-.039.071-.077.148-.069.229.013.119.13.206.248.225.119.019.239-.014.355-.045,1.201-.326,2.432-.545,3.672-.652.352-.031.709-.052,1.056.015.347.067.687.231.901.512.417.547.246,1.332-.014,1.969Z"/>
    <circle class="st0" cx="53.947" cy="68.291" r="1.213"/>
    <path class="st0" d="M39.107,62.843c.091-.286.146-.587.119-.888-.019-.205-.256-.617-.164-.803.187-.379,1.016.308,1.147.473.232.293.295.755.037,1.025-.108.113-.277.233-.225.38.024.066.087.108.147.146,1.327.846,2.365,2.064,3.523,3.128s2.541,2.019,4.11,2.129c.293.021.602.015.856.162s.406.518.213.739c-.078.089-.194.135-.307.169-.934.286-1.965.049-2.819-.423s-1.565-1.162-2.264-1.844c-.998-.973-1.996-1.945-2.994-2.918-.198-.193-.448-.401-.716-.337-.216.051-.351.261-.465.451-1.241,2.06-2.811,3.93-4.685,5.437-.328.264-.768.529-1.143.336,2.098-1.802,3.868-3.983,5.2-6.406.169-.307.325-.623.432-.958ZM44.465,73.077c-.053-.146-.174-.254-.303-.34-.25-.167-.542-.271-.842-.3-.348-.034-.696.034-1.043.078-.525.067-1.055.085-1.58.148.022-.594.029-1.188.021-1.783.312-.058.63-.09.947-.09.147,0,.302.003.427-.073.184-.112.237-.355.232-.571-.002-.085-.012-.175-.061-.246-.103-.149-.324-.143-.499-.1-.273.068-.531.191-.802.264-.087.023-.175.041-.264.058-.003-.085-.004-.169-.008-.254-.012-.28-.027-.56-.007-.839.027-.371.116-.741.097-1.111.002,0,.003,0,.004-.001.321-.085.671-.093.959-.258.09-.052.173-.12.22-.213.034-.064.047-.138.059-.21.018-.104.032-.21.018-.314-.014-.105-.059-.209-.143-.273-.111-.084-.268-.084-.4-.04-.133.045-.248.127-.369.197-.293.171-.62.273-.944.374-.265.083-.529.167-.794.249-.167.053-.333.104-.503.144-.347.082-.725.12-1.002.344-.042.035-.083.076-.099.128-.017.059,0,.122.019.18.033.098.079.205.175.245.058.024.123.018.186.013.175-.016.351-.033.526-.049.156-.015.312-.03.468-.043.128-.012.258-.009.375-.06.01-.004.02-.007.03-.011.043.072.093.145.113.22.064.232.086.474.104.714.028.365.046.731.058,1.097-.428.169-.836.397-1.276.536-.135.042-.285.057-.417.107-.121.047-.23.152-.297.262-.021.035-.038.082-.012.114.012.015.031.022.05.028.102.036.206.07.309.101.137.041.276.08.42.08.276-.001.529-.144.778-.266.149-.072.302-.135.457-.193,0,.571-.022,1.143-.063,1.712-.122.03-.244.062-.365.096-.574.161-1.137.36-1.713.517-.143.039-.288.076-.435.109-.124.028-.266.078-.396.058-.091-.014-.155-.049-.237.015-.086.068-.133.196-.089.301.065.154.247.226.413.235.294.018.575-.105.852-.206,1.141-.412,2.378-.46,3.591-.502.365-.013.733-.025,1.095.025.292.042.579.124.848.246.207.094.43.212.649.151.084-.023.159-.073.226-.13.19-.165.319-.433.233-.671Z"/>
    <path class="st0" d="M25.312,62.514v.25c0,.06-.03.116-.08.149l-.199.133c-.024.016-.053.025-.083.025h-.759c-.026,0-.052-.006-.075-.018l-.124-.062c-.034-.017-.061-.045-.076-.079l-.521-1.137c-.021-.047-.016-.101.015-.142l.074-.098c.022-.029.056-.046.092-.046h.201c.038,0,.075.011.106.031l1.364.877c.04.026.064.07.064.118ZM20.223,66.651c-.07.18-.141.371-.11.561s.207.371.396.335c.017-.003.034-.008.048-.018.032-.021.045-.061.057-.097.203-.61.661-1.109,1.191-1.472s1.131-.607,1.73-.841c.343-.134.686-.266,1.03-.396.588-.222,1.185-.44,1.807-.526s1.282-.031,1.836.267c.018.01.038.022.044.042.008.026-.011.052-.029.072-.269.312-.584.585-.931.808-.059.038-.124.082-.137.151-.023.12.125.198.246.211.692.072,1.235-.608,1.917-.748.081-.017.164-.026.238-.064.135-.07.207-.228.206-.38s-.064-.296-.146-.424c-.307-.485-.866-.77-1.434-.854s-1.147.011-1.704.149c-.349.087-.694.19-1.033.31-1.324.469-2.577,1.194-3.97,1.371.002,0-.143-.23-.161-.251-.048-.055-.149-.175-.226-.185-.17-.023-.256.407-.303.529l-.563,1.451ZM32.093,67.533c-.014.232-.184.445-.404.517-.306.1-.629-.055-.939-.142-.646-.182-1.336-.067-1.992.073-.314.067-.628.14-.939.218-.176.044-.358.094-.495.213-.148.128-.222.319-.301.499-.375.853-.962,1.592-1.543,2.321,1.279.433,2.557.865,3.836,1.298.101.034.206.072.274.153.08.096.09.231.095.357.01.231.017.462.021.693.005.272-.019.594-.25.737-.165.102-.386.069-.554-.027-.168-.097-.298-.247-.429-.39-.871-.946-1.995-1.656-3.223-2.036-.121-.037-.252-.072-.372-.031-.098.034-.173.113-.245.188-.753.787-1.668,1.418-2.67,1.843-.411.174-.847.316-1.293.301-.158-.005-.362-.086-.343-.243,1.482-.534,2.824-1.45,3.862-2.635-.608-.423-1.33-.682-2.068-.743-.079-.006-.164-.013-.225-.063-.138-.114-.052-.335.043-.487-.364-.191-.786.074-1.148.269-.878.472-1.962.543-2.895.19-.091-.035-.335-.159-.24-.301.051-.076.27-.03.349-.032.363-.009.724-.048,1.082-.108.714-.119,1.41-.323,2.095-.554.381-.129.759-.266,1.137-.404.304-.111.614-.226.863-.432.547-.456.672-1.27.506-1.963-.02-.085-.045-.173-.029-.26.053-.285.458-.315.73-.215.388.143.767.485.72.896-.049.424-.52.695-.6,1.114.373-.079.741-.177,1.105-.292.15-.047.31-.107.394-.24.065-.103.073-.235.143-.334.103-.146.31-.178.487-.149.177.03.343.107.52.131.227.031.455-.028.678-.082,1.144-.275,2.318-.426,3.494-.451.141-.003.286-.003.417.049.216.086.36.321.346.553ZM25.924,68.688c-.017-.013-.039-.016-.06-.018-.161-.011-.318.049-.468.108-.287.113-.573.229-.871.307-.126.033-.255.06-.378.104-.281.1-.527.294-.696.54-.074.108-.169.229-.067.344.107.12.3.207.444.272.117.053.239.097.35.162.139.082.257.199.401.272.081.042.184.068.26.018.052-.034.078-.094.104-.15.293-.636.83-1.159.999-1.839.01-.042.016-.095-.018-.122Z"/>
  </g>
  <g id="_x31_2123">
    <path class="st0" d="M79.418,34.488v3.797h11.812c.349,0,.633.283.633.633v2.426c0,.349-.283.633-.633.633h-11.812v4.43h11.812c.349,0,.633.283.633.633v2.426c0,.349-.283.633-.633.633h-11.812v3.797h14.977c1.514,0,2.742-1.228,2.742-2.742v-13.922c0-1.514-1.228-2.742-2.742-2.742h-14.977Z"/>
    <path class="st0" d="M56.953,34.488v3.797h12.867c.175,0,.316.142.316.316v2.82c0,.149-.104.278-.251.309l-11.095,2.358c-1.072.228-1.838,1.174-1.838,2.27v7.536h18.352v-3.797h-12.973v-2.463l11.072-2.455c1.11-.246,1.901-1.231,1.901-2.368v-5.581c0-1.514-1.228-2.742-2.742-2.742h-15.609Z"/>
    <polygon class="st0" points="44.824 39.973 46.406 39.973 46.406 53.895 51.785 53.895 51.785 34.488 49.676 34.488 44.824 36.598 44.824 39.973"/>
    <path class="st0" d="M22.676,34.488v3.797h12.867c.175,0,.316.142.316.316v2.82c0,.149-.104.278-.251.309l-11.095,2.358c-1.072.228-1.838,1.174-1.838,2.27v7.536h18.352v-3.797h-12.973v-2.463l11.072-2.455c1.11-.246,1.901-1.231,1.901-2.368v-5.581c0-1.514-1.228-2.742-2.742-2.742h-15.609Z"/>
    <polygon class="st0" points="10.547 39.973 12.129 39.973 12.129 53.895 17.508 53.895 17.508 34.488 15.398 34.488 10.547 36.598 10.547 39.973"/>
  </g>
</svg>